<?xml version="1.0" encoding="UTF-8" standalone="no"?>
<!-- Created with Inkscape (http://www.inkscape.org/) -->

<svg
   xmlns:dc="http://purl.org/dc/elements/1.1/"
   xmlns:cc="http://creativecommons.org/ns#"
   xmlns:rdf="http://www.w3.org/1999/02/22-rdf-syntax-ns#"
   xmlns:svg="http://www.w3.org/2000/svg"
   xmlns="http://www.w3.org/2000/svg"
   xmlns:sodipodi="http://sodipodi.sourceforge.net/DTD/sodipodi-0.dtd"
   xmlns:inkscape="http://www.inkscape.org/namespaces/inkscape"
   width="2.515357"
   height="6.5219998"
   id="svg5211"
   version="1.1"
   inkscape:version="0.48.4 r9939"
   sodipodi:docname="New document 2">
  <defs
     id="defs5213" />
  <sodipodi:namedview
     id="base"
     pagecolor="#ffffff"
     bordercolor="#666666"
     borderopacity="1.0"
     inkscape:pageopacity="0.0"
     inkscape:pageshadow="2"
     inkscape:zoom="0.35"
     inkscape:cx="-126.59946"
     inkscape:cy="63.260997"
     inkscape:document-units="px"
     inkscape:current-layer="layer1"
     showgrid="false"
     fit-margin-top="0"
     fit-margin-left="0"
     fit-margin-right="0"
     fit-margin-bottom="0"
     inkscape:window-width="463"
     inkscape:window-height="423"
     inkscape:window-x="150"
     inkscape:window-y="150"
     inkscape:window-maximized="0" />
  <metadata
     id="metadata5216">
    <rdf:RDF>
      <cc:Work
         rdf:about="">
        <dc:format>image/svg+xml</dc:format>
        <dc:type
           rdf:resource="http://purl.org/dc/dcmitype/StillImage" />
        <dc:title></dc:title>
      </cc:Work>
    </rdf:RDF>
  </metadata>
  <g
     inkscape:label="Layer 1"
     inkscape:groupmode="layer"
     id="layer1"
     transform="translate(-501.59946,-589.10118)">
    <g
       id="g1178"
       transform="translate(441.77196,537.84868)">
      <g
         id="g1180"
         transform="matrix(0,-1,1,0,1.7065,4.8135)">
        <g
           id="g1182">
          <g
             id="g1184">
            <rect
               style="fill:#dcdcdc"
               id="rect1186"
               height="6.4219999"
               width="1.4"
               transform="matrix(-2.547107e-6,-1,1,-2.547107e-6,-109.6356,10.2365)"
               y="56.724998"
               x="-50.400002" />
            <line
               style="fill:none"
               id="line1188"
               y2="60.597"
               x2="-46.488998"
               y1="60.597"
               x1="-52.910999" />
          </g>
          <g
             id="g1190">
            <rect
               style="fill:#f2f2f2"
               id="rect1192"
               height="4.5050001"
               width="2.4749999"
               transform="matrix(-2.547107e-6,-1,1,-2.547107e-6,-109.0638,9.6598)"
               y="57.109001"
               x="-50.938999" />
            <path
               style="fill:#22b573;fill-opacity:0.7"
               inkscape:connector-curvature="0"
               id="path1194"
               d="m -48.162,60.599 c 0,0 -0.168,-0.467 0.052,-0.426 0.219,0.041 0.54,-0.148 0.677,0 l -0.016,0.424 -0.713,0.002 z" />
            <g
               id="g1196">
              <g
                 id="g1198">
                <rect
                   style="fill:#ffffff"
                   id="rect1200"
                   height="0.85399997"
                   width="0.96100003"
                   transform="matrix(-2.547107e-6,-1,1,-2.547107e-6,-108.9979,9.5949)"
                   y="58.868999"
                   x="-50.181999" />
                <rect
                   style="fill:#b3b3b3"
                   id="rect1202"
                   height="0.85399997"
                   width="0.048999999"
                   transform="matrix(-2.547107e-6,-1,1,-2.547107e-6,-109.4788,10.0768)"
                   y="59.349998"
                   x="-49.724998" />
              </g>
              <g
                 id="g1204">
                <polygon
                   style="fill:#d1c690"
                   id="polygon1206"
                   points="-47.434,59.548 -48.397,59.652 -48.397,60.175 -47.434,60.279 " />
                <g
                   id="g1208">
                  <path
                     style="fill:#d1c690"
                     inkscape:connector-curvature="0"
                     id="path1210"
                     d="m -48.109,59.976 c -0.003,0 -0.006,0 -0.008,0 -0.267,-0.035 -0.448,-0.105 -0.598,-0.162 -0.209,-0.08 -0.361,-0.141 -0.633,-0.055 -0.027,0.012 -0.06,-0.011 -0.066,-0.043 -0.008,-0.035 0.009,-0.068 0.039,-0.078 0.303,-0.095 0.479,-0.025 0.697,0.059 0.147,0.059 0.318,0.123 0.572,0.156 0.029,0.004 0.054,0.033 0.049,0.068 -10e-4,0.031 -0.025,0.055 -0.052,0.055 z" />
                </g>
                <polygon
                   style="fill:#d1c690"
                   id="polygon1212"
                   points="-51.968,59.273 -51.003,59.168 -51.003,58.646 -51.968,58.541 " />
                <g
                   id="g1214">
                  <path
                     style="fill:#d1c690"
                     inkscape:connector-curvature="0"
                     id="path1216"
                     d="m -49.743,59.451 c -0.024,0 -0.049,-0.021 -0.055,-0.048 -0.063,-0.291 -0.95,-0.421 -1.493,-0.437 -0.032,0 -0.057,-0.027 -0.057,-0.063 0.002,-0.035 0.024,-0.063 0.057,-0.063 h 0.002 c 0.152,0.004 1.499,0.053 1.602,0.529 0.007,0.034 -0.013,0.066 -0.042,0.077 -0.004,0.005 -0.009,0.005 -0.014,0.005 z" />
                </g>
                <path
                   style="fill:#d1c690"
                   inkscape:connector-curvature="0"
                   id="path1218"
                   d="m -49.272,59.466 c 0,0 -0.356,-0.002 -0.383,0.311 0.071,0 0.383,0 0.383,0 v -0.311 z" />
                <path
                   style="fill:#d1c690"
                   inkscape:connector-curvature="0"
                   id="path1220"
                   d="m -49.706,59.148 c 0,0 0.158,0.305 0.052,0.35 -0.106,0.047 -0.178,0.051 -0.239,-0.029 -0.062,-0.083 0.187,-0.321 0.187,-0.321 z" />
                <path
                   style="fill:#9d956c"
                   inkscape:connector-curvature="0"
                   id="path1222"
                   d="m -49.348,59.816 c 0.271,-0.084 0.423,-0.025 0.632,0.055 0.146,0.061 0.331,0.127 0.598,0.162 l 0.001,-0.057 c -0.267,-0.035 -0.448,-0.105 -0.598,-0.162 -0.209,-0.08 -0.361,-0.141 -0.633,-0.055 v 0.057 z" />
                <polygon
                   style="fill:#9d956c"
                   id="polygon1224"
                   points="-51.968,59.273 -51.003,59.168 -51.003,59.224 -51.968,59.327 " />
                <path
                   style="fill:#9d956c"
                   inkscape:connector-curvature="0"
                   id="path1226"
                   d="m -49.799,59.459 c -0.062,-0.291 -0.948,-0.42 -1.493,-0.435 v -0.061 c 0.545,0.018 1.436,0.146 1.495,0.438 l -0.002,0.058 z" />
                <path
                   style="fill:#9d956c"
                   inkscape:connector-curvature="0"
                   id="path1228"
                   d="m -49.656,59.832 c 0.071,0 0.383,0 0.383,0 v -0.058 c 0,0 -0.312,0 -0.383,0 v 0.058 z" />
                <path
                   style="fill:#9d956c"
                   inkscape:connector-curvature="0"
                   id="path1230"
                   d="m -49.895,59.523 c 0.063,0.08 0.131,0.076 0.238,0.031 l 10e-4,-0.06 c -0.106,0.049 -0.178,0.052 -0.239,-0.028 v 0.057 z" />
              </g>
            </g>
            <rect
               style="opacity:0.5;fill:#ffffff"
               id="rect1232"
               height="3.4619999"
               width="0.050999999"
               enable-background="new    "
               transform="matrix(-2.547107e-6,-1,1,-2.547107e-6,-107.8509,8.4489)"
               y="56.418999"
               x="-49.726002" />
            <g
               style="opacity:0.25"
               id="g1234">
              <path
                 style="fill:#ffffff"
                 inkscape:connector-curvature="0"
                 id="path1236"
                 d="m -50.242,58.871 c 0,-0.05 0.035,-0.088 0.077,-0.088 h 0.326 c 0.043,0 0.078,-0.039 0.078,-0.087 v -0.032 c 0,0.05 -0.035,0.088 -0.078,0.088 h -0.326 c -0.043,0 -0.079,0.039 -0.079,0.087 l 0.002,0.032 0,0 z" />
              <path
                 style="fill:#ffffff"
                 inkscape:connector-curvature="0"
                 id="path1238"
                 d="m -48.25,58.543 c 0,-0.049 -0.036,-0.088 -0.077,-0.088 h -1.355 c -0.043,0 -0.076,0.039 -0.076,0.088 v -0.032 c 0,-0.05 0.032,-0.088 0.076,-0.088 h 1.355 c 0.041,0 0.077,0.038 0.077,0.088 v 0.032 z" />
              <path
                 style="fill:#ffffff"
                 inkscape:connector-curvature="0"
                 id="path1240"
                 d="m -47.969,60.017 h -0.207 c -0.041,0 -0.075,-0.039 -0.075,-0.088 v -0.031 c 0,0.047 0.034,0.086 0.075,0.086 h 0.206 l 10e-4,0.033 0,0 z" />
              <path
                 style="fill:#ffffff"
                 inkscape:connector-curvature="0"
                 id="path1242"
                 d="m -51.433,58.455 h 1.028 c 0.041,0 0.078,0.039 0.078,0.088 v -0.032 c 0,-0.05 -0.035,-0.088 -0.078,-0.088 h -1.028 v 0.032 z" />
            </g>
            <g
               id="g1244">
              <path
                 style="opacity:0.5;fill:#f2f2f2"
                 inkscape:connector-curvature="0"
                 id="path1246"
                 d="m -51.952,58.123 v 2.476 h 4.506 v -2.476 h -4.506 z"
                 enable-background="new    " />
              <path
                 style="opacity:0.55;fill:#ffffff"
                 inkscape:connector-curvature="0"
                 id="path1248"
                 d="m -51.9,58.777 v -0.27 c 0.017,-0.152 -0.014,-0.271 0.097,-0.271 0.612,0 3.943,0 4.095,0 0.167,0 0.175,0.066 -0.012,0.066 -0.131,0 -3.133,0 -3.586,0 -0.457,0 -0.52,0.104 -0.52,0.195 l 0.003,0.273 c 0,0.181 -0.077,0.181 -0.077,0.007 z"
                 enable-background="new    " />
              <path
                 style="opacity:0.02999998"
                 inkscape:connector-curvature="0"
                 id="path1250"
                 d="m -47.496,60.377 c 0,0.068 0.013,0.138 -0.097,0.138 -0.612,0 -3.945,0 -4.095,0 -0.168,0 -0.177,-0.066 0.008,-0.066 0.135,0 3.137,-0.002 3.591,-0.002 0.593,0 0.593,-0.07 0.593,-0.07 z"
                 enable-background="new    " />
            </g>
          </g>
          <g
             id="g1252">
            <path
               style="fill:#d1c690"
               inkscape:connector-curvature="0"
               id="path1254"
               d="m -52.91,60.599 h 0.771 v -0.521 c 0,-0.125 0.081,-0.213 0.188,-0.269 v -1.688 h -1.01 v 2.427 0.051" />
            <rect
               style="opacity:0.5;fill:#ffffff"
               id="rect1256"
               height="1.006"
               width="0.052999999"
               enable-background="new    "
               transform="matrix(-2.547107e-6,-1,1,-2.547107e-6,-110.6053,5.6925)"
               y="57.646"
               x="-52.483002" />
          </g>
          <g
             id="g1258">
            <path
               style="fill:#d1c690"
               inkscape:connector-curvature="0"
               id="path1260"
               d="M -46.439,60.599 V 60.55 58.123 h -1.01 v 2.104 c 0.105,0.056 0.19,0.146 0.19,0.271 v 0.101 h 0.769" />
            <rect
               style="opacity:0.5;fill:#ffffff"
               id="rect1262"
               height="1.0089999"
               width="0.050999999"
               enable-background="new    "
               transform="matrix(-2.547107e-6,-1,1,-2.547107e-6,-105.095,11.2048)"
               y="57.645"
               x="-46.971001" />
          </g>
        </g>
      </g>
    </g>
  </g>
</svg>
