<?xml version="1.0" encoding="UTF-8" standalone="no"?>
<!-- Created with Inkscape (http://www.inkscape.org/) -->

<svg
   xmlns:dc="http://purl.org/dc/elements/1.1/"
   xmlns:cc="http://creativecommons.org/ns#"
   xmlns:rdf="http://www.w3.org/1999/02/22-rdf-syntax-ns#"
   xmlns:svg="http://www.w3.org/2000/svg"
   xmlns="http://www.w3.org/2000/svg"
   xmlns:sodipodi="http://sodipodi.sourceforge.net/DTD/sodipodi-0.dtd"
   xmlns:inkscape="http://www.inkscape.org/namespaces/inkscape"
   width="3.5687499"
   height="9.9575129"
   id="svg3503"
   version="1.1"
   inkscape:version="0.48.4 r9939"
   sodipodi:docname="New document 2">
  <defs
     id="defs3505" />
  <sodipodi:namedview
     id="base"
     pagecolor="#ffffff"
     bordercolor="#666666"
     borderopacity="1.0"
     inkscape:pageopacity="0.0"
     inkscape:pageshadow="2"
     inkscape:zoom="83.454577"
     inkscape:cx="1.784375"
     inkscape:cy="4.9787565"
     inkscape:document-units="px"
     inkscape:current-layer="layer1"
     showgrid="false"
     fit-margin-top="0"
     fit-margin-left="0"
     fit-margin-right="0"
     fit-margin-bottom="0"
     inkscape:window-width="1920"
     inkscape:window-height="1018"
     inkscape:window-x="-8"
     inkscape:window-y="-8"
     inkscape:window-maximized="1" />
  <metadata
     id="metadata3508">
    <rdf:RDF>
      <cc:Work
         rdf:about="">
        <dc:format>image/svg+xml</dc:format>
        <dc:type
           rdf:resource="http://purl.org/dc/dcmitype/StillImage" />
        <dc:title></dc:title>
      </cc:Work>
    </rdf:RDF>
  </metadata>
  <g
     inkscape:label="Layer 1"
     inkscape:groupmode="layer"
     id="layer1"
     transform="translate(-375.35848,-615.95485)">
    <g
       transform="matrix(0,1.25,-1.25,0,378.92723,615.9786)"
       id="g329">
      <g
         id="g331">
        <g
           id="g333">
          <rect
             width="7.9660101"
             x="-0.018999999"
             height="2.8340001"
             id="rect335"
             y="0"
             style="fill:#333333" />
          <rect
             width="7.9660101"
             x="-0.018999999"
             height="0.046"
             enable-background="new    "
             id="rect337"
             y="0"
             style="opacity:0.2;fill:#ffffff" />
          <rect
             width="7.9660101"
             x="-0.018999999"
             y="2.802"
             height="0.032000002"
             enable-background="new    "
             id="rect339"
             style="opacity:0.2" />
        </g>
        <g
           id="g341">
          <path
             d="m 6.79,0 0,0 0,0 -0.093,0 0,0 c -0.08,0.251 -0.135,0.796003 -0.135,1.075 0,0.291 0.048,1.41 0.135,1.673 l 0,0 0,0 1.223,0 L 7.92,0 6.79,0 z"
             id="path343"
             inkscape:connector-curvature="0"
             style="fill:#dcdcdc" />
          <path
             d="m 1.226,0.104 0,-0.104 -1.222,0 0,2.748 1.223,0 C 1.315,2.485 1.42,1.371 1.42,1.076 1.42,0.730001 1.345,0.405 1.226,0.104 z"
             id="path345"
             inkscape:connector-curvature="0"
             style="fill:#dcdcdc" />
          <path
             d="m 7.92698,2.854 -1.22298,0 -0.007,-0.106 1.223,0 0.00698,0.106 z"
             id="path347"
             inkscape:connector-curvature="0"
             style="fill:#999999" />
          <path
             d="m 0.01,2.855 1.223,0 -0.007,-0.107 -1.222,0 0.006,0.107 z"
             id="path349"
             inkscape:connector-curvature="0"
             style="fill:#999999" />
          <rect
             width="1.223"
             x="0.0040000002"
             height="0.046"
             enable-background="new    "
             id="rect351"
             y="0"
             style="opacity:0.5;fill:#ffffff" />
          <rect
             width="1.224"
             x="6.698"
             height="0.046"
             enable-background="new    "
             id="rect353"
             y="0"
             style="opacity:0.5;fill:#ffffff" />
          <line
             y1="2.8340001"
             x1="0.74299699"
             y2="2.8340001"
             x2="0.74299699"
             id="line355"
             style="fill:none" />
        </g>
      </g>
    </g>
  </g>
</svg>
