<?xml version="1.0" encoding="UTF-8" standalone="no"?>
<!-- Generator: Adobe Illustrator 15.0.1, SVG Export Plug-In . SVG Version: 6.00 Build 0)  -->

<svg
   xmlns:dc="http://purl.org/dc/elements/1.1/"
   xmlns:cc="http://creativecommons.org/ns#"
   xmlns:rdf="http://www.w3.org/1999/02/22-rdf-syntax-ns#"
   xmlns:svg="http://www.w3.org/2000/svg"
   xmlns="http://www.w3.org/2000/svg"
   xmlns:sodipodi="http://sodipodi.sourceforge.net/DTD/sodipodi-0.dtd"
   xmlns:inkscape="http://www.inkscape.org/namespaces/inkscape"
   version="1.1"
   id="svg"
   x="0px"
   y="0px"
   width="21.603998"
   height="39.133999"
   viewBox="0 0 21.603999 39.134001"
   enable-background="new 0 0 43.203 39.135"
   xml:space="preserve"
   inkscape:version="0.48.4 r9939"
   sodipodi:docname="1x03-smd.svg"><metadata
   id="metadata4964"><rdf:RDF><cc:Work
       rdf:about=""><dc:format>image/svg+xml</dc:format><dc:type
         rdf:resource="http://purl.org/dc/dcmitype/StillImage" /><dc:title></dc:title></cc:Work></rdf:RDF></metadata><defs
   id="defs4962">
	
	
	
	
	
	
	

		
		
		
		
		
		
		
		
		
		
		
		
		
		
		
		
		
	
			
			
			
			
			
			
			
			
			
			
			
		
				
				
				
			
				
				
				
			
				
				
				
			
				
				
				
			
				
				
			
				
				
				
			
			
		
		
		
	
		
		
	
		
		
	
		
		
	
		
		
	</defs><sodipodi:namedview
   pagecolor="#ffffff"
   bordercolor="#666666"
   borderopacity="1"
   objecttolerance="10"
   gridtolerance="10"
   guidetolerance="10"
   inkscape:pageopacity="0"
   inkscape:pageshadow="2"
   inkscape:window-width="1920"
   inkscape:window-height="1018"
   id="namedview4960"
   showgrid="false"
   inkscape:zoom="20.046395"
   inkscape:cx="21.601499"
   inkscape:cy="19.480465"
   inkscape:window-x="-8"
   inkscape:window-y="-8"
   inkscape:window-maximized="1"
   inkscape:current-layer="svg"
   fit-margin-top="0"
   fit-margin-left="0"
   fit-margin-right="0"
   fit-margin-bottom="0" />
<g
   id="g5143"><polyline
     transform="scale(0.50003715,1)"
     points="0,17.336 43.203,17.336 43.203,11.383 0,11.383  "
     id="polyline4826" /><polygon
     style="fill:#b8af82"
     id="polygon4842"
     points="18.596,39.134 17.414,39.134 16.855,36.788 16.855,15.904 19.153,15.904 19.153,36.788 " /><polygon
     style="fill:#e2d6a1"
     id="polygon4844"
     points="17.414,39.134 18.596,39.134 18.752,38.478 17.258,38.478 " /><polygon
     style="fill:#b8af82"
     id="polygon4848"
     points="11.395,39.134 10.215,39.134 9.657,36.788 9.657,15.904 11.955,15.904 11.955,36.788 " /><polygon
     style="fill:#e2d6a1"
     id="polygon4850"
     points="10.215,39.134 11.395,39.134 11.553,38.478 10.059,38.478 " /><polygon
     style="fill:#b8af82"
     id="polygon4854"
     points="4.189,39.134 3.01,39.134 2.451,36.788 2.451,15.904 4.75,15.904 4.75,36.788 " /><polygon
     style="fill:#e2d6a1"
     id="polygon4856"
     points="3.01,39.134 4.189,39.134 4.348,38.478 2.854,38.478 " /><g
     id="g4862">
				<path
   d="M 9.305,0"
   id="path4864"
   inkscape:connector-curvature="0"
   style="fill:#373737" />
			</g><polygon
     style="fill:#b8af82"
     id="polygon4870"
     points="19.153,13.508 19.153,0 16.855,0 16.855,13.508 " /><polygon
     style="fill:#b8af82"
     id="polygon4872"
     points="11.955,13.508 11.955,0 9.657,0 9.657,13.508 " /><polygon
     style="fill:#9a916c"
     id="polygon4878"
     points="19.153,0.44 19.153,0 16.855,0 16.855,0.44 " /><polygon
     style="fill:#9a916c"
     id="polygon4880"
     points="11.955,0.44 11.955,0 9.657,0 9.657,0.44 " /><polygon
     style="fill:#e2d6a1"
     id="polygon4886"
     points="19.153,1.117 19.153,0.458 16.855,0.458 16.855,1.117 " /><polygon
     style="fill:#e2d6a1"
     id="polygon4888"
     points="11.955,1.117 11.955,0.458 9.657,0.458 9.657,1.117 " /><polygon
     style="fill:#b8af82"
     id="polygon4890"
     points="4.75,13.508 4.75,0 2.451,0 2.451,13.508 " /><polygon
     style="fill:#9a916c"
     id="polygon4892"
     points="4.75,0.44 4.75,0 2.451,0 2.451,0.44 " /><polygon
     style="fill:#e2d6a1"
     id="polygon4894"
     points="4.75,1.117 4.75,0.458 2.451,0.458 2.451,1.117 " /><polygon
     transform="scale(0.59958455,1)"
     points="36.004,17.336 36.004,11.383 0,11.383 0,17.336 "
     id="polygon4898" /><rect
     style="fill:#404040"
     id="rect4902"
     height="5.9530001"
     width="5.1539998"
     y="11.383"
     x="8.2290001" /><polygon
     style="fill:#474747"
     id="polygon4904"
     points="13.383,11.383 13.383,17.336 14.405,17.336 14.405,11.383 " /><polygon
     style="fill:#373737"
     id="polygon4906"
     points="8.229,17.336 8.229,11.383 7.205,11.383 7.205,17.336 " /><rect
     style="fill:#404040"
     id="rect4946"
     height="5.9530001"
     width="5.1539998"
     y="11.383"
     x="15.428" /><polygon
     style="fill:#474747"
     id="polygon4948"
     points="20.582,11.383 20.582,17.336 21.604,17.336 21.604,11.383 " /><polygon
     style="fill:#373737"
     id="polygon4950"
     points="15.428,17.336 15.428,11.383 14.405,11.383 14.405,17.336 " /><rect
     style="fill:#404040"
     id="rect4954"
     height="5.9530001"
     width="5.1529999"
     y="11.383"
     x="1.024" /><polygon
     style="fill:#474747"
     id="polygon4956"
     points="6.178,11.383 6.178,17.336 7.2,17.336 7.2,11.383 " /><polygon
     style="fill:#373737"
     id="polygon4958"
     points="1.024,17.336 1.024,11.383 0,11.383 0,17.336 " /></g>
</svg>