<?xml version="1.0" encoding="UTF-8" standalone="no"?>
<!-- Generator: Adobe Illustrator 15.1.0, SVG Export Plug-In . SVG Version: 6.00 Build 0)  -->

<svg
   xmlns:dc="http://purl.org/dc/elements/1.1/"
   xmlns:cc="http://creativecommons.org/ns#"
   xmlns:rdf="http://www.w3.org/1999/02/22-rdf-syntax-ns#"
   xmlns:svg="http://www.w3.org/2000/svg"
   xmlns="http://www.w3.org/2000/svg"
   xmlns:sodipodi="http://sodipodi.sourceforge.net/DTD/sodipodi-0.dtd"
   xmlns:inkscape="http://www.inkscape.org/namespaces/inkscape"
   version="1.1"
   id="Ebene_1"
   x="0px"
   y="0px"
   width="2.1395941"
   height="4.4836078"
   viewBox="0 0 2.139594 4.4836078"
   enable-background="new 0 0 16.156 18.406"
   xml:space="preserve"
   inkscape:version="0.48.4 r9939"
   sodipodi:docname="3-Way-Jumper.svg"><metadata
   id="metadata230180"><rdf:RDF><cc:Work
       rdf:about=""><dc:format>image/svg+xml</dc:format><dc:type
         rdf:resource="http://purl.org/dc/dcmitype/StillImage" /><dc:title /></cc:Work></rdf:RDF></metadata><defs
   id="defs230178"><inkscape:path-effect
     effect="bend_path"
     id="path-effect230249"
     is_visible="true"
     bendpath="m 11.342998,10.051739 4.81304,0"
     prop_scale="1"
     scale_y_rel="false"
     vertical="false" /><inkscape:path-effect
     effect="bend_path"
     id="path-effect230249-2"
     is_visible="true"
     bendpath="m 11.342998,10.051739 4.81304,0"
     prop_scale="1"
     scale_y_rel="false"
     vertical="false" /><inkscape:path-effect
     effect="bend_path"
     id="path-effect230249-21"
     is_visible="true"
     bendpath="m 11.342998,10.051739 4.81304,0"
     prop_scale="1"
     scale_y_rel="false"
     vertical="false" /><inkscape:path-effect
     effect="bend_path"
     id="path-effect230249-21-9"
     is_visible="true"
     bendpath="m 11.342998,10.051739 4.81304,0"
     prop_scale="1"
     scale_y_rel="false"
     vertical="false" /><inkscape:path-effect
     effect="bend_path"
     id="path-effect230249-21-9-9"
     is_visible="true"
     bendpath="m 11.342998,10.051739 4.81304,0"
     prop_scale="1"
     scale_y_rel="false"
     vertical="false" /><inkscape:path-effect
     effect="bend_path"
     id="path-effect230249-21-9-5"
     is_visible="true"
     bendpath="m 11.342998,10.051739 4.81304,0"
     prop_scale="1"
     scale_y_rel="false"
     vertical="false" /></defs><sodipodi:namedview
   pagecolor="#ffffff"
   bordercolor="#666666"
   borderopacity="1"
   objecttolerance="10"
   gridtolerance="10"
   guidetolerance="10"
   inkscape:pageopacity="0"
   inkscape:pageshadow="2"
   inkscape:window-width="1920"
   inkscape:window-height="1018"
   id="namedview230176"
   showgrid="false"
   inkscape:zoom="181.82519"
   inkscape:cx="-1.5489999"
   inkscape:cy="2.1981618"
   inkscape:window-x="-8"
   inkscape:window-y="-8"
   inkscape:window-maximized="1"
   inkscape:current-layer="Ebene_1"
   fit-margin-top="0"
   fit-margin-left="0"
   fit-margin-right="0"
   fit-margin-bottom="0"
   showguides="true"
   inkscape:guide-bbox="true" />
<g
   id="silkscreen"
   transform="translate(-5.140172,-13.90702)">
</g>




<g
   style="fill:#808080"
   transform="matrix(0.44454112,0,0,0.25435564,-7.6024291,-0.31491272)"
   id="g230172-2-6-6-3-8"><path
     style="fill:#808080"
     inkscape:connector-curvature="0"
     d="m 11.343001,2.4172097 0.02229,15.5742413 c 0,0 -0.300154,0.878891 2.259637,0.873926 2.968898,-0.0058 2.504783,-0.784292 2.504783,-0.784292 l -1e-6,-15.6638753 c 0,-1.3290001 -1.071116,-1.1735413 -2.392856,-1.1735413 -1.32174,0 -2.395752,-0.1554573 -2.39385,1.1735413 z"
     id="path230174-7-1-8-1-6"
     sodipodi:nodetypes="scscsss"
     inkscape:path-effect="#path-effect230249-21-9-9"
     inkscape:original-d="m 11.343,2.406 0.02241,15.574241 c 0,0 -0.301803,0.878891 2.272049,0.873926 2.985206,-0.0058 2.518542,-0.784292 2.518542,-0.784292 L 16.156,2.406 c 0,-1.3290001 -1.077,-1.1735413 -2.406,-1.1735413 -1.329,0 -2.408912,-0.1554573 -2.407,1.1735413 z" /></g><g
   style="fill:#999999"
   transform="matrix(0.44454112,0,0,0.25435564,-7.6911021,-0.24391272)"
   id="g230172-2-6"><path
     style="fill:#999999"
     inkscape:connector-curvature="0"
     d="m 11.343001,2.4172097 0.02229,15.5742413 c 0,0 -0.300154,0.878891 2.259637,0.873926 2.968898,-0.0058 2.504783,-0.784292 2.504783,-0.784292 l -1e-6,-15.6638753 c 0,-1.3290001 -1.071116,-1.1735413 -2.392856,-1.1735413 -1.32174,0 -2.395752,-0.1554573 -2.39385,1.1735413 z"
     id="path230174-7-1"
     sodipodi:nodetypes="scscsss"
     inkscape:path-effect="#path-effect230249"
     inkscape:original-d="m 11.343,2.406 0.02241,15.574241 c 0,0 -0.301803,0.878891 2.272049,0.873926 2.985206,-0.0058 2.518542,-0.784292 2.518542,-0.784292 L 16.156,2.406 c 0,-1.3290001 -1.077,-1.1735413 -2.406,-1.1735413 -1.329,0 -2.408912,-0.1554573 -2.407,1.1735413 z" /></g><g
   style="fill:#808080"
   transform="matrix(0.44454112,0,0,0.25435564,-5.0424291,-0.31491272)"
   id="g230172-2-6-6-3-0"><path
     style="fill:#808080"
     inkscape:connector-curvature="0"
     d="m 11.343001,2.4172097 0.02229,15.5742413 c 0,0 -0.300154,0.878891 2.259637,0.873926 2.968898,-0.0058 2.504783,-0.784292 2.504783,-0.784292 l -1e-6,-15.6638753 c 0,-1.3290001 -1.071116,-1.1735413 -2.392856,-1.1735413 -1.32174,0 -2.395752,-0.1554573 -2.39385,1.1735413 z"
     id="path230174-7-1-8-1-2"
     sodipodi:nodetypes="scscsss"
     inkscape:path-effect="#path-effect230249-21-9-5"
     inkscape:original-d="m 11.343,2.406 0.02241,15.574241 c 0,0 -0.301803,0.878891 2.272049,0.873926 2.985206,-0.0058 2.518542,-0.784292 2.518542,-0.784292 L 16.156,2.406 c 0,-1.3290001 -1.077,-1.1735413 -2.406,-1.1735413 -1.329,0 -2.408912,-0.1554573 -2.407,1.1735413 z" /></g><g
   style="fill:#999999"
   transform="matrix(0.44454112,0,0,0.25435564,-5.1310233,-0.24391272)"
   id="g230172-2-6-3"><path
     style="fill:#999999"
     inkscape:connector-curvature="0"
     d="m 11.343001,2.4172097 0.02229,15.5742413 c 0,0 -0.300154,0.878891 2.259637,0.873926 2.968898,-0.0058 2.504783,-0.784292 2.504783,-0.784292 l -1e-6,-15.6638753 c 0,-1.3290001 -1.071116,-1.1735413 -2.392856,-1.1735413 -1.32174,0 -2.395752,-0.1554573 -2.39385,1.1735413 z"
     id="path230174-7-1-2"
     sodipodi:nodetypes="scscsss"
     inkscape:path-effect="#path-effect230249-2"
     inkscape:original-d="m 11.343,2.406 0.02241,15.574241 c 0,0 -0.301803,0.878891 2.272049,0.873926 2.985206,-0.0058 2.518542,-0.784292 2.518542,-0.784292 L 16.156,2.406 c 0,-1.3290001 -1.077,-1.1735413 -2.406,-1.1735413 -1.329,0 -2.408912,-0.1554573 -2.407,1.1735413 z" /></g><g
   style="fill:#808080"
   transform="matrix(0.44454112,0,0,0.25435564,-10.102381,-0.31462882)"
   id="g230172-2-6-6-3"><path
     style="fill:#808080"
     inkscape:connector-curvature="0"
     d="m 11.343001,2.4172097 0.02229,15.5742413 c 0,0 -0.300154,0.878891 2.259637,0.873926 2.968898,-0.0058 2.504783,-0.784292 2.504783,-0.784292 l -1e-6,-15.6638753 c 0,-1.3290001 -1.071116,-1.1735413 -2.392856,-1.1735413 -1.32174,0 -2.395752,-0.1554573 -2.39385,1.1735413 z"
     id="path230174-7-1-8-1"
     sodipodi:nodetypes="scscsss"
     inkscape:path-effect="#path-effect230249-21-9"
     inkscape:original-d="m 11.343,2.406 0.02241,15.574241 c 0,0 -0.301803,0.878891 2.272049,0.873926 2.985206,-0.0058 2.518542,-0.784292 2.518542,-0.784292 L 16.156,2.406 c 0,-1.3290001 -1.077,-1.1735413 -2.406,-1.1735413 -1.329,0 -2.408912,-0.1554573 -2.407,1.1735413 z" /></g><g
   style="fill:#999999"
   transform="matrix(0.44454112,0,0,0.25435564,-10.191429,-0.24430513)"
   id="g230172-2-6-6"><path
     style="fill:#999999"
     inkscape:connector-curvature="0"
     d="m 11.343001,2.4172097 0.02229,15.5742413 c 0,0 -0.300154,0.878891 2.259637,0.873926 2.968898,-0.0058 2.504783,-0.784292 2.504783,-0.784292 l -1e-6,-15.6638753 c 0,-1.3290001 -1.071116,-1.1735413 -2.392856,-1.1735413 -1.32174,0 -2.395752,-0.1554573 -2.39385,1.1735413 z"
     id="path230174-7-1-8"
     sodipodi:nodetypes="scscsss"
     inkscape:path-effect="#path-effect230249-21"
     inkscape:original-d="m 11.343,2.406 0.02241,15.574241 c 0,0 -0.301803,0.878891 2.272049,0.873926 2.985206,-0.0058 2.518542,-0.784292 2.518542,-0.784292 L 16.156,2.406 c 0,-1.3290001 -1.077,-1.1735413 -2.406,-1.1735413 -1.329,0 -2.408912,-0.1554573 -2.407,1.1735413 z" /></g></svg>