<?xml version="1.0" encoding="UTF-8" standalone="no"?>
<!-- Generator: Adobe Illustrator 17.0.0, SVG Export Plug-In . SVG Version: 6.00 Build 0)  -->

<svg
   xmlns:dc="http://purl.org/dc/elements/1.1/"
   xmlns:cc="http://creativecommons.org/ns#"
   xmlns:rdf="http://www.w3.org/1999/02/22-rdf-syntax-ns#"
   xmlns:svg="http://www.w3.org/2000/svg"
   xmlns="http://www.w3.org/2000/svg"
   xmlns:sodipodi="http://sodipodi.sourceforge.net/DTD/sodipodi-0.dtd"
   xmlns:inkscape="http://www.inkscape.org/namespaces/inkscape"
   width="142.37007"
   x="0px"
   version="1.1"
   y="0px"
   gorn="0"
   height="45.845573"
   viewBox="0 0 113.89601 36.676459"
   id="Layer_1"
   enable-background="new 0 0 203.716 107.424"
   xml:space="preserve"
   inkscape:version="0.48.4 r9939"
   sodipodi:docname="7-segment_display-4_digit(blue).svg"><metadata
   id="metadata295"><rdf:RDF><cc:Work
       rdf:about=""><dc:format>image/svg+xml</dc:format><dc:type
         rdf:resource="http://purl.org/dc/dcmitype/StillImage" /><dc:title></dc:title></cc:Work></rdf:RDF></metadata><defs
   id="defs293">
        
    
            
            
            
            
        </defs><sodipodi:namedview
   pagecolor="#ffffff"
   bordercolor="#666666"
   borderopacity="1"
   objecttolerance="10"
   gridtolerance="10"
   guidetolerance="10"
   inkscape:pageopacity="0"
   inkscape:pageshadow="2"
   inkscape:window-width="1377"
   inkscape:window-height="915"
   id="namedview291"
   showgrid="false"
   inkscape:zoom="3.2816505"
   inkscape:cx="127.01777"
   inkscape:cy="36.733853"
   inkscape:window-x="0"
   inkscape:window-y="0"
   inkscape:window-maximized="0"
   inkscape:current-layer="Layer_1"
   fit-margin-top="0"
   fit-margin-left="0"
   fit-margin-right="0"
   fit-margin-bottom="0" />
    <desc
   id="desc3">
        <referenceFile
   id="referenceFile5">OpenSegment_breadboard_blue.svg</referenceFile>
    </desc>
    <desc
   id="desc7">Fritzing breadboard generated by brd2svg</desc>
    <g
   gorn="0.2.0.2"
   id="_x3C_Group_x3E__1_"
   transform="matrix(0.55909238,0,0,0.55909238,-4.5359558e-5,-11.69174)">
                <circle
   cx="57.014999"
   gorn="0.2.0.2.0"
   cy="79.336998"
   id="connector0pin_1_"
   r="3.506"
   sodipodi:cx="57.014999"
   sodipodi:cy="79.336998"
   sodipodi:rx="3.506"
   sodipodi:ry="3.506"
   style="fill:none;stroke:#9a916c;stroke-width:0.48980001"
   d="m 60.520999,79.336998 c 0,1.93631 -1.569689,3.506 -3.506,3.506 -1.93631,0 -3.506,-1.56969 -3.506,-3.506 0,-1.93631 1.56969,-3.506 3.506,-3.506 1.936311,0 3.506,1.56969 3.506,3.506 z" />
                <circle
   cx="69.827003"
   gorn="0.2.0.2.1"
   cy="79.336998"
   id="connector1pin_1_"
   r="3.506"
   sodipodi:cx="69.827003"
   sodipodi:cy="79.336998"
   sodipodi:rx="3.506"
   sodipodi:ry="3.506"
   style="fill:none;stroke:#9a916c;stroke-width:0.48980001"
   d="m 73.333004,79.336998 c 0,1.93631 -1.56969,3.506 -3.506001,3.506 -1.93631,0 -3.506,-1.56969 -3.506,-3.506 0,-1.93631 1.56969,-3.506 3.506,-3.506 1.936311,0 3.506001,1.56969 3.506001,3.506 z" />
                <circle
   cx="82.639"
   gorn="0.2.0.2.2"
   cy="79.336998"
   id="connector2pin_1_"
   r="3.506"
   sodipodi:cx="82.639"
   sodipodi:cy="79.336998"
   sodipodi:rx="3.506"
   sodipodi:ry="3.506"
   style="fill:none;stroke:#9a916c;stroke-width:0.48980001"
   d="m 86.145,79.336998 c 0,1.93631 -1.56969,3.506 -3.506,3.506 -1.93631,0 -3.506,-1.56969 -3.506,-3.506 0,-1.93631 1.56969,-3.506 3.506,-3.506 1.93631,0 3.506,1.56969 3.506,3.506 z" />
                <circle
   cx="95.452003"
   gorn="0.2.0.2.3"
   cy="79.336998"
   id="connector3pin_1_"
   r="3.506"
   sodipodi:cx="95.452003"
   sodipodi:cy="79.336998"
   sodipodi:rx="3.506"
   sodipodi:ry="3.506"
   style="fill:none;stroke:#9a916c;stroke-width:0.48980001"
   d="m 98.958004,79.336998 c 0,1.93631 -1.56969,3.506 -3.506001,3.506 -1.93631,0 -3.506,-1.56969 -3.506,-3.506 0,-1.93631 1.56969,-3.506 3.506,-3.506 1.936311,0 3.506001,1.56969 3.506001,3.506 z" />
                <circle
   cx="108.264"
   gorn="0.2.0.2.4"
   cy="79.336998"
   id="connector4pin_1_"
   r="3.506"
   sodipodi:cx="108.264"
   sodipodi:cy="79.336998"
   sodipodi:rx="3.506"
   sodipodi:ry="3.506"
   style="fill:none;stroke:#9a916c;stroke-width:0.48980001"
   d="m 111.77,79.336998 c 0,1.93631 -1.56969,3.506 -3.506,3.506 -1.93631,0 -3.506,-1.56969 -3.506,-3.506 0,-1.93631 1.56969,-3.506 3.506,-3.506 1.93631,0 3.506,1.56969 3.506,3.506 z" />
                <circle
   cx="121.076"
   gorn="0.2.0.2.5"
   cy="79.336998"
   id="connector5pin_1_"
   r="3.506"
   sodipodi:cx="121.076"
   sodipodi:cy="79.336998"
   sodipodi:rx="3.506"
   sodipodi:ry="3.506"
   style="fill:none;stroke:#9a916c;stroke-width:0.48980001"
   d="m 124.582,79.336998 c 0,1.93631 -1.56969,3.506 -3.506,3.506 -1.93631,0 -3.506,-1.56969 -3.506,-3.506 0,-1.93631 1.56969,-3.506 3.506,-3.506 1.93631,0 3.506,1.56969 3.506,3.506 z" />
                <circle
   cx="133.88901"
   gorn="0.2.0.2.6"
   cy="79.336998"
   id="connector6pin_1_"
   r="3.506"
   sodipodi:cx="133.88901"
   sodipodi:cy="79.336998"
   sodipodi:rx="3.506"
   sodipodi:ry="3.506"
   style="fill:none;stroke:#9a916c;stroke-width:0.48980001"
   d="m 137.39501,79.336998 c 0,1.93631 -1.56969,3.506 -3.506,3.506 -1.93631,0 -3.506,-1.56969 -3.506,-3.506 0,-1.93631 1.56969,-3.506 3.506,-3.506 1.93631,0 3.506,1.56969 3.506,3.506 z" />
                <circle
   cx="146.701"
   gorn="0.2.0.2.7"
   cy="79.336998"
   id="connector7pin_1_"
   r="3.506"
   sodipodi:cx="146.701"
   sodipodi:cy="79.336998"
   sodipodi:rx="3.506"
   sodipodi:ry="3.506"
   style="fill:none;stroke:#9a916c;stroke-width:0.48980001"
   d="m 150.207,79.336998 c 0,1.93631 -1.56969,3.506 -3.506,3.506 -1.93631,0 -3.506,-1.56969 -3.506,-3.506 0,-1.93631 1.56969,-3.506 3.506,-3.506 1.93631,0 3.506,1.56969 3.506,3.506 z" />
                <circle
   cx="146.701"
   gorn="0.2.0.2.8"
   cy="28.087"
   id="connector8pin_1_"
   r="3.506"
   sodipodi:cx="146.701"
   sodipodi:cy="28.087"
   sodipodi:rx="3.506"
   sodipodi:ry="3.506"
   style="fill:none;stroke:#9a916c;stroke-width:0.48980001"
   d="m 150.207,28.087 c 0,1.93631 -1.56969,3.506 -3.506,3.506 -1.93631,0 -3.506,-1.56969 -3.506,-3.506 0,-1.93631 1.56969,-3.506 3.506,-3.506 1.93631,0 3.506,1.56969 3.506,3.506 z" />
                <circle
   cx="121.076"
   gorn="0.2.0.2.9"
   cy="28.087"
   id="connector9pin_1_"
   r="3.506"
   sodipodi:cx="121.076"
   sodipodi:cy="28.087"
   sodipodi:rx="3.506"
   sodipodi:ry="3.506"
   style="fill:none;stroke:#9a916c;stroke-width:0.48980001"
   d="m 124.582,28.087 c 0,1.93631 -1.56969,3.506 -3.506,3.506 -1.93631,0 -3.506,-1.56969 -3.506,-3.506 0,-1.93631 1.56969,-3.506 3.506,-3.506 1.93631,0 3.506,1.56969 3.506,3.506 z" />
                <circle
   cx="95.452003"
   gorn="0.2.0.2.10"
   cy="28.087"
   id="connector10pin_1_"
   r="3.506"
   sodipodi:cx="95.452003"
   sodipodi:cy="28.087"
   sodipodi:rx="3.506"
   sodipodi:ry="3.506"
   style="fill:none;stroke:#9a916c;stroke-width:0.48980001"
   d="m 98.958004,28.087 c 0,1.93631 -1.56969,3.506 -3.506001,3.506 -1.93631,0 -3.506,-1.56969 -3.506,-3.506 0,-1.93631 1.56969,-3.506 3.506,-3.506 1.936311,0 3.506001,1.56969 3.506001,3.506 z" />
                <circle
   cx="82.639"
   gorn="0.2.0.2.11"
   cy="28.087"
   id="connector11pin_1_"
   r="3.506"
   sodipodi:cx="82.639"
   sodipodi:cy="28.087"
   sodipodi:rx="3.506"
   sodipodi:ry="3.506"
   style="fill:none;stroke:#9a916c;stroke-width:0.48980001"
   d="m 86.145,28.087 c 0,1.93631 -1.56969,3.506 -3.506,3.506 -1.93631,0 -3.506,-1.56969 -3.506,-3.506 0,-1.93631 1.56969,-3.506 3.506,-3.506 1.93631,0 3.506,1.56969 3.506,3.506 z" />
                <circle
   cx="69.827003"
   gorn="0.2.0.2.12"
   cy="28.087"
   id="connector12pin_1_"
   r="3.506"
   sodipodi:cx="69.827003"
   sodipodi:cy="28.087"
   sodipodi:rx="3.506"
   sodipodi:ry="3.506"
   style="fill:none;stroke:#9a916c;stroke-width:0.48980001"
   d="m 73.333004,28.087 c 0,1.93631 -1.56969,3.506 -3.506001,3.506 -1.93631,0 -3.506,-1.56969 -3.506,-3.506 0,-1.93631 1.56969,-3.506 3.506,-3.506 1.936311,0 3.506001,1.56969 3.506001,3.506 z" />
                <circle
   cx="57.014999"
   gorn="0.2.0.2.13"
   cy="28.087"
   id="connector13pin_1_"
   r="3.506"
   sodipodi:cx="57.014999"
   sodipodi:cy="28.087"
   sodipodi:rx="3.506"
   sodipodi:ry="3.506"
   style="fill:none;stroke:#9a916c;stroke-width:0.48980001"
   d="m 60.520999,28.087 c 0,1.93631 -1.569689,3.506 -3.506,3.506 -1.93631,0 -3.506,-1.56969 -3.506,-3.506 0,-1.93631 1.56969,-3.506 3.506,-3.506 1.936311,0 3.506,1.56969 3.506,3.506 z" />
                <polygon
   points="0,84.186 0,20.913 201.732,20.912 203.716,22.692 203.716,86.511 1.779,86.512 "
   id="polygon194"
   style="fill:#323232" />
                <polygon
   points="15.818,28.598 17.293,27.125 39.433,27.125 40.909,28.598 37.955,33.027 18.765,33.027 "
   id="polygon196"
   style="fill:#646464" />
                <polygon
   points="37.955,34.501 42.386,30.073 43.861,33.027 40.909,49.267 37.955,52.216 35.006,49.267 "
   id="polygon198"
   style="fill:#2569cc" />
                <polygon
   points="33.529,58.123 37.955,53.691 39.433,56.641 36.481,72.881 33.529,75.833 30.577,72.881 "
   id="polygon200"
   style="fill:#2569cc" />
                <polygon
   points="32.052,77.308 30.577,78.785 8.435,78.785 6.958,77.304 9.91,72.881 29.102,72.881 "
   id="polygon202"
   style="fill:#646464" />
                <polygon
   points="9.91,71.402 5.481,75.833 4.007,72.881 6.958,56.641 9.91,53.691 12.86,56.641 "
   id="polygon204"
   style="fill:#2569cc" />
                <polygon
   points="14.337,47.79 9.91,52.216 8.435,49.267 11.389,33.027 14.337,30.073 17.293,33.027 "
   id="polygon206"
   style="fill:#2569cc" />
                <polyline
   points="11.389,52.216 14.337,49.267 33.529,49.267 36.481,52.216 33.529,55.168 14.337,55.168 "
   id="polyline208"
   style="fill:#2569cc" />
                <circle
   cx="40.277"
   cy="75.825996"
   r="3.1110001"
   id="circle210"
   sodipodi:cx="40.277"
   sodipodi:cy="75.825996"
   sodipodi:rx="3.1110001"
   sodipodi:ry="3.1110001"
   style="fill:#646464"
   d="m 43.388,75.825996 c 0,1.718158 -1.392842,3.111 -3.111,3.111 -1.718157,0 -3.111,-1.392842 -3.111,-3.111 0,-1.718157 1.392843,-3.111 3.111,-3.111 1.718158,0 3.111,1.392843 3.111,3.111 z" />
                <polygon
   points="67.046,28.598 68.521,27.125 90.661,27.125 92.136,28.598 89.183,33.027 69.993,33.027 "
   id="polygon212"
   style="fill:#2569cc" />
                <polygon
   points="89.183,34.501 93.613,30.073 95.089,33.027 92.137,49.267 89.183,52.215 86.234,49.267 "
   id="polygon214"
   style="fill:#2569cc" />
                <polygon
   points="84.757,58.123 89.183,53.691 90.661,56.641 87.709,72.881 84.757,75.833 81.805,72.881 "
   id="polygon216"
   style="fill:#2569cc" />
                <polygon
   points="83.28,77.308 81.805,78.785 59.663,78.785 58.186,77.304 61.138,72.881 80.33,72.881 "
   id="polygon218"
   style="fill:#646464" />
                <polygon
   points="61.138,71.402 56.709,75.833 55.235,72.881 58.186,56.641 61.138,53.691 64.088,56.641 "
   id="polygon220"
   style="fill:#2569cc" />
                <polygon
   points="65.565,47.79 61.138,52.215 59.663,49.267 62.617,33.027 65.565,30.073 68.521,33.027 "
   id="polygon222"
   style="fill:#2569cc" />
                <polyline
   points="62.617,52.215 65.565,49.267 84.757,49.267 87.709,52.215 84.757,55.168 65.565,55.168 "
   id="polyline224"
   style="fill:#2569cc" />
                <circle
   cx="91.504997"
   cy="75.825996"
   r="3.1110001"
   id="circle226"
   sodipodi:cx="91.504997"
   sodipodi:cy="75.825996"
   sodipodi:rx="3.1110001"
   sodipodi:ry="3.1110001"
   style="fill:#646464"
   d="m 94.615997,75.825996 c 0,1.718158 -1.392842,3.111 -3.111,3.111 -1.718158,0 -3.111,-1.392842 -3.111,-3.111 0,-1.718157 1.392842,-3.111 3.111,-3.111 1.718158,0 3.111,1.392843 3.111,3.111 z" />
                <circle
   cx="98.976997"
   cy="64.167999"
   r="3.1110001"
   id="circle228"
   sodipodi:cx="98.976997"
   sodipodi:cy="64.167999"
   sodipodi:rx="3.1110001"
   sodipodi:ry="3.1110001"
   style="fill:#646464"
   d="m 102.088,64.167999 c 0,1.718158 -1.39284,3.111 -3.111003,3.111 -1.718158,0 -3.111,-1.392842 -3.111,-3.111 0,-1.718158 1.392842,-3.111 3.111,-3.111 1.718163,0 3.111003,1.392842 3.111003,3.111 z" />
                <circle
   cx="102.463"
   cy="41.144001"
   r="3.1110001"
   id="circle230"
   sodipodi:cx="102.463"
   sodipodi:cy="41.144001"
   sodipodi:rx="3.1110001"
   sodipodi:ry="3.1110001"
   style="fill:#646464"
   d="m 105.574,41.144001 c 0,1.718158 -1.39284,3.111 -3.111,3.111 -1.71816,0 -3.111003,-1.392842 -3.111003,-3.111 0,-1.718158 1.392843,-3.111 3.111003,-3.111 1.71816,0 3.111,1.392842 3.111,3.111 z" />
                <circle
   cx="155.995"
   cy="29.813999"
   r="3.1110001"
   id="circle232"
   sodipodi:cx="155.995"
   sodipodi:cy="29.813999"
   sodipodi:rx="3.1110001"
   sodipodi:ry="3.1110001"
   style="fill:#646464"
   d="m 159.106,29.813999 c 0,1.718158 -1.39285,3.111 -3.111,3.111 -1.71816,0 -3.111,-1.392842 -3.111,-3.111 0,-1.718158 1.39284,-3.111 3.111,-3.111 1.71815,0 3.111,1.392842 3.111,3.111 z" />
                <polygon
   points="118.293,28.598 119.768,27.125 141.911,27.125 143.386,28.598 140.432,33.027 121.242,33.027 "
   id="polygon234"
   style="fill:#646464" />
                <polygon
   points="140.432,34.501 144.861,30.073 146.338,33.027 143.386,49.267 140.432,52.215 137.483,49.267 "
   id="polygon236"
   style="fill:#646464" />
                <polygon
   points="136.004,58.123 140.432,53.691 141.911,56.641 138.958,72.881 136.005,75.833 133.054,72.881 "
   id="polygon238"
   style="fill:#646464" />
                <polygon
   points="134.528,77.308 133.054,78.785 110.912,78.785 109.435,77.304 112.387,72.881 131.577,72.881 "
   id="polygon240"
   style="fill:#2569cc" />
                <polygon
   points="112.387,71.402 107.958,75.833 106.485,72.881 109.435,56.641 112.387,53.691 115.338,56.641 "
   id="polygon242"
   style="fill:#2569cc" />
                <polygon
   points="116.814,47.79 112.387,52.215 110.912,49.267 113.866,33.027 116.814,30.073 119.768,33.027 "
   id="polygon244"
   style="fill:#2569cc" />
                <polyline
   points="113.866,52.215 116.814,49.267 136.004,49.267 138.958,52.215 136.004,55.168 116.814,55.168 "
   id="polyline246"
   style="fill:#646464" />
                <circle
   cx="142.754"
   cy="75.825996"
   r="3.1110001"
   id="circle248"
   sodipodi:cx="142.754"
   sodipodi:cy="75.825996"
   sodipodi:rx="3.1110001"
   sodipodi:ry="3.1110001"
   style="fill:#646464"
   d="m 145.865,75.825996 c 0,1.718158 -1.39284,3.111 -3.111,3.111 -1.71816,0 -3.111,-1.392842 -3.111,-3.111 0,-1.718157 1.39284,-3.111 3.111,-3.111 1.71816,0 3.111,1.392843 3.111,3.111 z" />
                <polygon
   points="169.676,28.598 171.151,27.125 193.293,27.125 194.769,28.598 191.815,33.027 172.625,33.027 "
   id="polygon250"
   style="fill:#2569cc" />
                <polygon
   points="191.815,34.501 196.244,30.073 197.721,33.027 194.769,49.267 191.815,52.215 188.866,49.267 "
   id="polygon252"
   style="fill:#2569cc" />
                <polygon
   points="187.387,58.123 191.815,53.691 193.293,56.641 190.341,72.881 187.387,75.833 184.437,72.881 "
   id="polygon254"
   style="fill:#2569cc" />
                <polygon
   points="185.91,77.308 184.437,78.785 162.295,78.785 160.818,77.304 163.77,72.881 182.96,72.881 "
   id="polygon256"
   style="fill:#2569cc" />
                <polygon
   points="163.77,71.402 159.341,75.833 157.867,72.881 160.818,56.641 163.77,53.691 166.72,56.641 "
   id="polygon258"
   style="fill:#2569cc" />
                <polygon
   points="168.197,47.79 163.77,52.215 162.295,49.267 165.249,33.027 168.197,30.073 171.151,33.027 "
   id="polygon260"
   style="fill:#2569cc" />
                <polyline
   points="165.249,52.215 168.197,49.267 187.387,49.267 190.341,52.215 187.387,55.168 168.197,55.168 "
   id="polyline262"
   style="fill:#646464" />
                <circle
   cx="194.13699"
   cy="75.825996"
   r="3.1110001"
   id="circle264"
   sodipodi:cx="194.13699"
   sodipodi:cy="75.825996"
   sodipodi:rx="3.1110001"
   sodipodi:ry="3.1110001"
   style="fill:#646464"
   d="m 197.24799,75.825996 c 0,1.718158 -1.39284,3.111 -3.111,3.111 -1.71815,0 -3.111,-1.392842 -3.111,-3.111 0,-1.718157 1.39285,-3.111 3.111,-3.111 1.71816,0 3.111,1.392843 3.111,3.111 z" />
                <polygon
   points="203.716,86.511 201.936,84.186 0,84.186 1.779,86.512 "
   id="polygon266"
   style="fill:#c7c7c7" />
                <polygon
   points="201.732,20.912 201.732,84.186 203.716,86.511 203.716,22.692 "
   id="polygon268"
   style="fill:#aaaaaa" />
            </g>
</svg>