<?xml version="1.0" encoding="UTF-8" standalone="no"?>
<!-- Generator: Adobe Illustrator 15.0.2, SVG Export Plug-In . SVG Version: 6.00 Build 0)  -->

<svg
   xmlns:dc="http://purl.org/dc/elements/1.1/"
   xmlns:cc="http://creativecommons.org/ns#"
   xmlns:rdf="http://www.w3.org/1999/02/22-rdf-syntax-ns#"
   xmlns:svg="http://www.w3.org/2000/svg"
   xmlns="http://www.w3.org/2000/svg"
   xmlns:sodipodi="http://sodipodi.sourceforge.net/DTD/sodipodi-0.dtd"
   xmlns:inkscape="http://www.inkscape.org/namespaces/inkscape"
   version="1.1"
   id="Layer_1"
   x="0px"
   y="0px"
   width="79.983978"
   height="50"
   viewBox="0 0 79.983978 50.000001"
   enable-background="new 0 0 46.055 21.602"
   xml:space="preserve"
   inkscape:version="0.48.4 r9939"
   sodipodi:docname="audio-jack-stereo_0.25.svg"><metadata
   id="metadata56"><rdf:RDF><cc:Work
       rdf:about=""><dc:format>image/svg+xml</dc:format><dc:type
         rdf:resource="http://purl.org/dc/dcmitype/StillImage" /><dc:title></dc:title></cc:Work></rdf:RDF></metadata><defs
   id="defs54">
	

		
		
		
		
		
		
		
		
		
		
		
		
		
		
		
		
		
		
		
		
		
		
		
	</defs><sodipodi:namedview
   pagecolor="#ffffff"
   bordercolor="#666666"
   borderopacity="1"
   objecttolerance="10"
   gridtolerance="10"
   guidetolerance="10"
   inkscape:pageopacity="0"
   inkscape:pageshadow="2"
   inkscape:window-width="1920"
   inkscape:window-height="1018"
   id="namedview52"
   showgrid="true"
   inkscape:zoom="20.643286"
   inkscape:cx="28.387092"
   inkscape:cy="15.375187"
   inkscape:window-x="-8"
   inkscape:window-y="-8"
   inkscape:window-maximized="1"
   inkscape:current-layer="Layer_1"
   inkscape:snap-grids="true"
   fit-margin-top="0"
   fit-margin-left="0"
   fit-margin-right="0"
   fit-margin-bottom="0"><inkscape:grid
     type="xygrid"
     id="grid3105"
     units="in"
     empspacing="1"
     visible="true"
     enabled="true"
     snapvisiblegridlinesonly="true"
     originx="0.059551017in"
     originy="0.0077648338in" /></sodipodi:namedview>
<desc
   id="desc3">Fritzing breadboard generated by brd2svg</desc>
<polygon
   points="39.918,14.794 39.918,14.794 39.918,16.691 44.19,16.691 44.19,4.617 39.918,4.617 39.918,6.52 39.918,6.52 "
   id="polygon7"
   style="fill:#2b2b2b"
   transform="matrix(1.7367055,0,0,2.2100828,-5.361283e-7,0.707656)" /><polygon
   points="39.918,14.52 39.918,14.794 39.918,14.794 39.918,16.26 44.19,16.26 44.19,14.52 "
   id="polygon9"
   style="fill:#292929"
   transform="matrix(1.7367055,0,0,2.2100828,-5.361283e-7,0.707656)" /><polygon
   points="39.918,7.093 39.918,6.485 39.918,6.485 39.918,5.014 44.19,5.014 44.19,7.093 "
   id="polygon11"
   style="fill:#292929"
   transform="matrix(1.7367055,0,0,2.2100828,-5.361283e-7,0.707656)" /><rect
   x="69.325813"
   y="19.460207"
   width="7.3809981"
   height="7.0899458"
   id="rect13"
   style="fill:#333333" /><rect
   x="69.325813"
   y="21.500114"
   width="7.3809981"
   height="3.8963761"
   id="rect15"
   style="fill:#383838" /><rect
   x="69.325813"
   y="36.641396"
   width="7.417469"
   height="0.96359611"
   id="rect17"
   style="fill:#212121" /><rect
   x="69.325813"
   y="10.916027"
   width="7.417469"
   height="0.87519282"
   id="rect19"
   style="fill:#212121" /><rect
   x="76.71376"
   y="10.916027"
   width="3.2702167"
   height="26.675699"
   id="rect21"
   style="fill:#a1a1a1" /><rect
   x="76.71376"
   y="16.379353"
   width="3.2702167"
   height="16.418705"
   id="rect23"
   style="fill:#ababab" /><rect
   x="76.71376"
   y="19.460207"
   width="3.2702167"
   height="7.0899458"
   id="rect25"
   style="fill:#c7c7c7" /><rect
   x="76.71376"
   y="21.500114"
   width="3.2702167"
   height="3.8963761"
   id="rect27"
   style="fill:#e6e6e6" /><rect
   x="76.71376"
   y="10.916027"
   width="3.2702167"
   height="0.87519282"
   id="rect29"
   style="fill:#737373" /><rect
   x="76.71376"
   y="36.681175"
   width="3.2702167"
   height="0.87519282"
   id="rect31"
   style="fill:#737373" /><g
   id="g33"
   transform="matrix(1.7367055,0,0,2.2100828,-5.361283e-7,0.707656)">
			<g
   id="g35">
				<rect
   x="0"
   y="0"
   width="40.318001"
   height="21.601"
   id="rect37"
   style="fill:#333333" />
			</g>
		</g><rect
   x="34.632915"
   y="0.70765686"
   width="9.0117655"
   height="5.5848794"
   id="rect39" /><rect
   x="34.632915"
   y="42.701439"
   width="9.0117655"
   height="5.5870895"
   id="rect41" /><rect
   id="connector2pad"
   x="34.632915"
   y="0.70765686"
   width="9.0117655"
   height="1.8454192"
   style="fill:#c7c7c7" /><rect
   x="11.344175"
   y="0.70765686"
   width="9.0152388"
   height="5.5848794"
   id="rect44" /><rect
   id="connector3pad"
   x="11.344175"
   y="0.70765686"
   width="9.0152388"
   height="1.8454192"
   style="fill:#c7c7c7" /><rect
   id="connector1pad"
   x="34.632915"
   y="46.440899"
   width="9.0117655"
   height="1.8476292"
   style="fill:#c7c7c7" /><rect
   x="11.344175"
   y="42.701439"
   width="9.0152388"
   height="5.5870895"
   id="rect48" /><rect
   id="connector4pad"
   x="11.17049"
   y="46.440899"
   width="9.0152388"
   height="1.8476292"
   style="fill:#c7c7c7" /><rect
   id="connector0pad"
   x="11.344175"
   y="46.440899"
   width="9.0152388"
   height="1.8476292"
   style="fill:#c7c7c7" />
<rect
   x="53.517502"
   y="0.71069908"
   width="9.0152388"
   height="5.5848794"
   id="rect44-1" /><rect
   id="connector3pad-7"
   x="53.517502"
   y="0.7069416"
   width="9.0152388"
   height="1.8454192"
   style="fill:#c7c7c7" /><rect
   x="53.518562"
   y="42.701439"
   width="9.0117655"
   height="5.5870895"
   id="rect41-4" /><rect
   id="connector1pad-0"
   x="53.518562"
   y="46.440899"
   width="9.0117655"
   height="1.8476292"
   style="fill:#c7c7c7" /><rect
   style="fill:#c7c7c7;fill-opacity:1;fill-rule:nonzero;stroke:#000000;stroke-width:0.09000001;stroke-miterlimit:4;stroke-opacity:1;stroke-dasharray:none"
   id="rect3141"
   width="10.26475"
   height="8.0969553"
   x="10.811861"
   y="6.5019302" /><rect
   style="fill:#c7c7c7;fill-opacity:1;fill-rule:nonzero;stroke:#000000;stroke-width:0.09000001;stroke-miterlimit:4;stroke-opacity:1;stroke-dasharray:none"
   id="rect3141-8"
   width="10.26475"
   height="8.0969572"
   x="34.064556"
   y="6.5019302" /><rect
   style="fill:#c7c7c7;fill-opacity:1;fill-rule:nonzero;stroke:#000000;stroke-width:0.09000001;stroke-miterlimit:4;stroke-opacity:1;stroke-dasharray:none"
   id="rect3141-82"
   width="10.26475"
   height="8.0969572"
   x="52.950203"
   y="6.5019302" /><rect
   style="fill:#000000;fill-opacity:1;fill-rule:nonzero;stroke:#000000;stroke-width:0.09000001;stroke-miterlimit:4;stroke-opacity:1;stroke-dasharray:none"
   id="rect3193"
   width="3.2810433"
   height="49.886597"
   x="7.8907208"
   y="0.06029129" /><rect
   style="fill:#000000;fill-opacity:1;fill-rule:nonzero;stroke:#000000;stroke-width:0.09000001;stroke-miterlimit:4;stroke-opacity:1;stroke-dasharray:none"
   id="rect3193-4"
   width="3.2810435"
   height="49.886597"
   x="31.283092"
   y="0.061817169" /><rect
   style="fill:#000000;fill-opacity:1;fill-rule:nonzero;stroke:#000000;stroke-width:0.09000001;stroke-miterlimit:4;stroke-opacity:1;stroke-dasharray:none"
   id="rect3193-5"
   width="3.2810435"
   height="49.886597"
   x="50.008747"
   y="0.061817169" /></svg>