<?xml version="1.0" encoding="UTF-8" standalone="no"?>
<!-- Created with Inkscape (http://www.inkscape.org/) -->

<svg
   xmlns:dc="http://purl.org/dc/elements/1.1/"
   xmlns:cc="http://creativecommons.org/ns#"
   xmlns:rdf="http://www.w3.org/1999/02/22-rdf-syntax-ns#"
   xmlns:svg="http://www.w3.org/2000/svg"
   xmlns="http://www.w3.org/2000/svg"
   xmlns:sodipodi="http://sodipodi.sourceforge.net/DTD/sodipodi-0.dtd"
   xmlns:inkscape="http://www.inkscape.org/namespaces/inkscape"
   width="15.44125"
   height="25.659876"
   id="svg10463"
   version="1.1"
   inkscape:version="0.48.4 r9939"
   sodipodi:docname="New document 3">
  <defs
     id="defs10465" />
  <sodipodi:namedview
     id="base"
     pagecolor="#ffffff"
     bordercolor="#666666"
     borderopacity="1.0"
     inkscape:pageopacity="0.0"
     inkscape:pageshadow="2"
     inkscape:zoom="32.385192"
     inkscape:cx="7.720625"
     inkscape:cy="12.829938"
     inkscape:document-units="px"
     inkscape:current-layer="layer1"
     showgrid="false"
     fit-margin-top="0"
     fit-margin-left="0"
     fit-margin-right="0"
     fit-margin-bottom="0"
     inkscape:window-width="1920"
     inkscape:window-height="1018"
     inkscape:window-x="-8"
     inkscape:window-y="-8"
     inkscape:window-maximized="1" />
  <metadata
     id="metadata10468">
    <rdf:RDF>
      <cc:Work
         rdf:about="">
        <dc:format>image/svg+xml</dc:format>
        <dc:type
           rdf:resource="http://purl.org/dc/dcmitype/StillImage" />
        <dc:title></dc:title>
      </cc:Work>
    </rdf:RDF>
  </metadata>
  <g
     inkscape:label="Layer 1"
     inkscape:groupmode="layer"
     id="layer1"
     transform="translate(-423.70795,-536.6751)">
    <g
       style="stroke-width:0"
       id="g8350"
       transform="matrix(0,1.25,-1.25,0,439.1492,536.6751)">
      <g
         style="stroke-width:0"
         id="g8352">
        <g
           style="stroke-width:0"
           id="g8354">
          <polygon
             style="fill:#b7b7b7;stroke-width:0"
             points="3.92699,9.49097 2.20199,9.49097 2.20199,12.353 3.92699,12.353 "
             id="polygon8356" />
          <polygon
             style="fill:#b7b7b7;stroke-width:0"
             points="11.1249,9.49097 9.40198,9.49097 9.40198,12.353 11.1249,12.353 "
             id="polygon8358" />
          <polygon
             style="fill:#b7b7b7;stroke-width:0"
             points="18.3249,9.49097 16.6029,9.49097 16.6029,12.353 18.3249,12.353 "
             id="polygon8360" />
        </g>
        <g
           style="stroke-width:0"
           id="g8362">
          <polygon
             style="fill:#b7b7b7;stroke-width:0"
             points="3.92699,0 2.20199,0 2.20199,2.86099 3.92699,2.86099 "
             id="polygon8364" />
          <polygon
             style="fill:#b7b7b7;stroke-width:0"
             points="11.1249,0 9.40198,0 9.40198,2.86099 11.1249,2.86099 "
             id="polygon8366" />
          <polygon
             style="fill:#b7b7b7;stroke-width:0"
             points="18.3249,0 16.6029,0 16.6029,2.86099 18.3249,2.86099 "
             id="polygon8368" />
        </g>
      </g>
      <rect
         style="fill:#1e1e1e;stroke-width:0"
         width="20.527901"
         x="0"
         y="1.263"
         height="9.8269901"
         id="rect8370" />
      <rect
         style="stroke-width:0"
         width="10.642"
         x="4.9429798"
         y="1.975"
         height="0.26599899"
         id="rect8372" />
      <path
         style="fill:#898989;stroke-width:0"
         inkscape:connector-curvature="0"
         d="m 19.002,4.09599 c -0.227999,0 -0.202999,-0.190999 -0.202999,-0.425999 L 18.7989,1.61099 l -3.64998,0 c -0.232999,0 -0.424998,0.190999 -0.424998,0.425999 l 0,2.21399 c 0,0.232999 -0.190999,0.424999 -0.424998,0.424999 L 6.22898,4.67599 c -0.232999,0 -0.424998,-0.190999 -0.424998,-0.424999 L 5.80398,2.037 c 0,-0.233999 -0.190999,-0.425999 -0.424998,-0.425999 l -3.648992,-1.1e-5 0,2.059 c 0,0.233999 0.024,0.425999 -0.202999,0.425999 l -1.277992,10e-7 C 0.012,4.09599 0.001,4.286989 0.001,4.520989 l 0,3.89199 c 0,0.233999 0.0109999,0.425999 0.247999,0.425999 l 1.27799,0 c 0.227999,0 0.202999,0.190999 0.202999,0.424999 l 0,1.833 17.068,0 -8.8e-5,-1.834037 c 0,-0.232999 -0.024,-0.424999 0.202999,-0.424999 l 1.27699,0 c 0.237999,0 0.247999,-0.190999 0.247999,-0.425999 L 20.5259,4.52099 c 0,-0.232999 -0.01,-0.424999 -0.247999,-0.424999 L 19.002,4.09599 z"
         id="path8374" />
      <g
         style="stroke-width:0"
         id="g8376">
        <path
           style="opacity:0.3;fill:#ffffff;stroke-width:0"
           inkscape:connector-curvature="0"
           d="m 0.248999,8.83195 0.238999,0 0,-4.74296 -0.238999,0 C 0.012,4.08899 0.001,4.279989 0.001,4.513989 l 0,3.89199 c -6e-9,0.235031 0.011,0.425971 0.247999,0.425971 z"
           id="path8378" />
        <rect
           style="opacity:0.1;fill:#ffffff;stroke-width:0"
           width="0.48699799"
           x="0.48799801"
           y="4.0889902"
           height="4.74299"
           id="rect8380" />
      </g>
      <g
         style="stroke-width:0"
         id="g8382">
        <path
           style="opacity:0.3;fill:#ffffff;stroke-width:0"
           inkscape:connector-curvature="0"
           d="m 20.2789,8.83195 -0.239,0 0,-4.74296 0.238999,0 c 0.236999,0 0.247999,0.190999 0.247999,0.424999 l 0,3.89199 c 2e-6,0.235031 -0.01,0.425971 -0.247998,0.425971 z"
           id="path8384" />
        <rect
           style="opacity:0.1;fill:#ffffff;stroke-width:0"
           width="0.48699799"
           x="19.5529"
           y="4.0889902"
           height="4.74299"
           id="rect8386" />
      </g>
      <path
         style="fill:#898989;stroke-width:0"
         inkscape:connector-curvature="0"
         d="m 17.095,9.74599 c 0,0.288999 -0.249999,0.524999 -0.556998,0.524999 L 3.98999,10.2709 c -0.306999,0 -0.556998,-0.235999 -0.556998,-0.524999 0,-0.289 0.249999,-0.524999 0.556998,-0.524999 l 12.5479,0 C 16.8449,9.22097 17.095,9.45698 17.095,9.74599 z"
         id="path8388" />
      <g
         style="stroke-width:0"
         id="g8390">
        <path
           style="fill:#666666;stroke-width:0"
           inkscape:connector-curvature="0"
           d="m 16.538,9.22097 -12.54801,0 c -0.306999,0 -0.556998,0.235999 -0.556998,0.524999 l 0.236999,0 c 0,-0.158 0.142999,-0.286999 0.318999,-0.286999 l 12.5479,0 c 0.175999,0 0.318999,0.129 0.318999,0.286999 l 0.236999,0 C 17.095,9.45698 16.8449,9.22097 16.538,9.22097 z"
           id="path8392" />
        <path
           style="opacity:0.3;fill:#ffffff;stroke-width:0"
           inkscape:connector-curvature="0"
           d="m 16.538,10.033 -12.54801,0 C 3.812991,10.033 3.670991,9.904 3.670991,9.746001 L 3.43399,9.74599 c 0,0.288999 0.249999,0.524999 0.556998,0.524999 l 12.5479,0 c 0.306999,0 0.556998,-0.235999 0.556998,-0.524999 l -0.236999,0 C 16.8569,9.90396 16.7139,10.033 16.538,10.033 z"
           id="path8394" />
      </g>
      <g
         style="stroke-width:0"
         id="g8396">
        <path
           style="opacity:0.3;fill:#ffffff;stroke-width:0"
           inkscape:connector-curvature="0"
           d="m 9.99994e-4,1.263 0,2.12499 c 0,0.158 0.010999896,0.286999 0.247998996,0.286999 l 0.238999,0 10e-9,-2.411989 -0.486998006,0 z"
           id="path8398" />
        <rect
           style="opacity:0.1;fill:#ffffff;stroke-width:0"
           width="0.48699799"
           x="0.48799801"
           y="1.263"
           height="2.4119899"
           id="rect8400" />
      </g>
      <g
         style="stroke-width:0"
         id="g8402">
        <path
           style="opacity:0.3;fill:#ffffff;stroke-width:0"
           inkscape:connector-curvature="0"
           d="m 9.99994e-4,11.0899 0,-1.57092 c 0,-0.158 0.010999896,-0.286999 0.247998996,-0.286999 l 0.238999,0 0,1.858 -0.486997996,-8.1e-5 z"
           id="path8404" />
        <rect
           style="opacity:0.1;fill:#ffffff;stroke-width:0"
           width="0.48699799"
           x="0.48799801"
           y="9.2309799"
           height="1.858"
           id="rect8406" />
      </g>
      <g
         style="stroke-width:0"
         id="g8408">
        <path
           style="opacity:0.3;fill:#ffffff;stroke-width:0"
           inkscape:connector-curvature="0"
           d="m 20.5279,1.263 0,2.12499 c 0,0.158 -0.011,0.286999 -0.247999,0.286999 l -0.238999,0 -2e-6,-2.411989 0.487,0 z"
           id="path8410" />
        <rect
           style="opacity:0.1;fill:#ffffff;stroke-width:0"
           width="0.48699799"
           x="19.5539"
           y="1.263"
           height="2.4119899"
           id="rect8412" />
      </g>
      <g
         style="stroke-width:0"
         id="g8414">
        <path
           style="opacity:0.3;fill:#ffffff;stroke-width:0"
           inkscape:connector-curvature="0"
           d="m 20.5279,11.0899 0,-1.57092 c 0,-0.158 -0.011,-0.286999 -0.247999,-0.286999 l -0.238999,0 0,1.858 0.486998,-8.1e-5 z"
           id="path8416" />
        <rect
           style="opacity:0.1;fill:#ffffff;stroke-width:0"
           width="0.48699799"
           x="19.5539"
           y="9.2309799"
           height="1.858"
           id="rect8418" />
      </g>
      <path
         style="fill:#232323;stroke-width:0"
         inkscape:connector-curvature="0"
         d="m 14.287,4.19699 c 0,0.156 -0.127999,0.283999 -0.282999,0.283999 l -3.55799,0 c -0.156,0 -0.283999,-0.126999 -0.283999,-0.283999 L 10.1619,1.965 c 0,-0.156 0.126999,-0.283999 0.283999,-0.283999 l 3.55799,0 c 0.154999,0 0.282999,0.126999 0.282999,0.283999 L 14.287,4.19699 z"
         id="path8420" />
      <g
         style="opacity:0.2;stroke-width:0"
         id="g8422">
        <path
           style="fill:none;stroke:#ffffff;stroke-width:0.189899;stroke-linecap:round;stroke-miterlimit:10"
           inkscape:connector-curvature="0"
           d="m 10.4039,4.27999 0,-2.227 c 0,-0.092999 0.076,-0.169999 0.169999,-0.169999 l 3.47098,0"
           stroke-miterlimit="10"
           id="path8424" />
      </g>
      <g
         style="opacity:0.2;stroke-width:0"
         id="g8426">
        <path
           style="fill:none;stroke:#454545;stroke-width:0.189899;stroke-linecap:round;stroke-miterlimit:10"
           inkscape:connector-curvature="0"
           d="m 14.045,1.88199 0,2.227 c 0,0.092999 -0.076,0.169999 -0.169999,0.169999 l -3.47098,0"
           stroke-miterlimit="10"
           id="path8428" />
      </g>
      <path
         style="opacity:0.2;fill:none;stroke:#ffffff;stroke-width:0.189899;stroke-linecap:round;stroke-miterlimit:10"
         inkscape:connector-curvature="0"
         d="M 11.694,3.61199 C 11.4,3.31899 11.4,2.84299 11.6929,2.55 c 0.292999,-0.293999 0.769997,-0.292999 1.06199,0"
         stroke-miterlimit="10"
         id="path8430" />
      <path
         style="opacity:0.2;fill:none;stroke:#454545;stroke-width:0.189899;stroke-linecap:round;stroke-miterlimit:10"
         inkscape:connector-curvature="0"
         d="m 12.7549,2.55 c 0.293999,0.292999 0.293999,0.768996 0.001,1.062 -0.292999,0.293999 -0.769997,0.292999 -1.06199,0"
         stroke-miterlimit="10"
         id="path8432" />
    </g>
  </g>
</svg>
