<?xml version="1.0" encoding="UTF-8" standalone="no"?>
<!-- Created with Inkscape (http://www.inkscape.org/) -->

<svg
   xmlns:dc="http://purl.org/dc/elements/1.1/"
   xmlns:cc="http://creativecommons.org/ns#"
   xmlns:rdf="http://www.w3.org/1999/02/22-rdf-syntax-ns#"
   xmlns:svg="http://www.w3.org/2000/svg"
   xmlns="http://www.w3.org/2000/svg"
   xmlns:sodipodi="http://sodipodi.sourceforge.net/DTD/sodipodi-0.dtd"
   xmlns:inkscape="http://www.inkscape.org/namespaces/inkscape"
   width="77.10379"
   height="77.351295"
   id="svg4056"
   version="1.1"
   inkscape:version="0.48.4 r9939"
   sodipodi:docname="New document 2">
  <defs
     id="defs4058" />
  <sodipodi:namedview
     id="base"
     pagecolor="#ffffff"
     bordercolor="#666666"
     borderopacity="1.0"
     inkscape:pageopacity="0.0"
     inkscape:pageshadow="2"
     inkscape:zoom="1.1935547"
     inkscape:cx="-60.73382"
     inkscape:cy="201.53279"
     inkscape:document-units="px"
     inkscape:current-layer="layer1"
     showgrid="false"
     fit-margin-top="0"
     fit-margin-left="0"
     fit-margin-right="0"
     fit-margin-bottom="0"
     inkscape:window-width="1920"
     inkscape:window-height="1018"
     inkscape:window-x="-8"
     inkscape:window-y="-8"
     inkscape:window-maximized="1" />
  <metadata
     id="metadata4061">
    <rdf:RDF>
      <cc:Work
         rdf:about="">
        <dc:format>image/svg+xml</dc:format>
        <dc:type
           rdf:resource="http://purl.org/dc/dcmitype/StillImage" />
        <dc:title></dc:title>
      </cc:Work>
    </rdf:RDF>
  </metadata>
  <g
     inkscape:label="Layer 1"
     inkscape:groupmode="layer"
     id="layer1"
     transform="translate(-435.73382,-656.54367)">
    <g
       style="stroke-width:0"
       id="g138"
       transform="matrix(1.2500003,0,0,1.2500003,435.61007,656.66745)">
      <g
         style="stroke-width:0"
         gorn="0.1.1.0"
         id="battcon_20mm_4legs">
        <g
           id="g141"
           transform="matrix(0,-1,1,0,0.099,61.782)">
          <g
             style="stroke-width:0"
             id="g143">
            <g
               style="stroke-width:0"
               id="g145">
              <g
                 style="stroke-width:0"
                 id="g147">
                <g
                   style="stroke-width:0"
                   id="g149">
                  <circle
                     style="fill:#686868;stroke-width:0"
                     sodipodi:ry="29.618999"
                     sodipodi:rx="29.618999"
                     sodipodi:cy="31.475"
                     sodipodi:cx="30.940001"
                     d="m 60.559,31.475 c 0,16.358122 -13.260878,29.619 -29.618999,29.619 C 14.581879,61.094 1.3210011,47.833122 1.3210011,31.475 1.3210011,15.116879 14.581879,1.8560009 30.940001,1.8560009 47.298122,1.8560009 60.559,15.116879 60.559,31.475 z"
                     id="circle151"
                     cy="31.475"
                     cx="30.940001"
                     r="29.618999" />
                </g>
                <g
                   style="opacity:0.5;stroke-width:0"
                   id="g153">
                  <path
                     style="fill:#c6c6c6;stroke-width:0"
                     inkscape:connector-curvature="0"
                     id="path155"
                     d="m 30.94,60.178 c -3.443,0 -6.822,-0.577 -10.042,-1.715 -0.26,-0.093 -0.397,-0.378 -0.305,-0.639 0.091,-0.261 0.377,-0.396 0.638,-0.305 4.595,1.625 9.62899,2.061 14.436,1.276 0.267,-0.048 0.53,0.14 0.574,0.412 0.045,0.272 -0.14,0.53 -0.412,0.574 -1.603,0.264 -3.249,0.397 -4.889,0.397 z" />
                </g>
                <g
                   style="opacity:0.43000004;stroke-width:0"
                   id="g157">
                  <g
                     style="stroke-width:0"
                     id="g159">
                    <path
                       style="fill:#020202;stroke-width:0"
                       inkscape:connector-curvature="0"
                       id="path161"
                       d="m 4.497,28.04 c 0,-5.565 4.511,-10.076 10.076,-10.076 3.583,0 6.721,1.875 8.50702,4.692 -1.603,-3.441 -5.082,-5.832 -9.12902,-5.832 -5.565,0 -10.076,4.511 -10.076,10.076 0,1.982 0.581,3.826 1.569,5.385 C 4.843,30.993 4.497,29.559 4.497,28.04 z" />
                  </g>
                </g>
                <g
                   style="opacity:0.43000004;stroke-width:0"
                   id="g163">
                  <g
                     style="stroke-width:0"
                     id="g165">
                    <path
                       style="fill:#020202;stroke-width:0"
                       inkscape:connector-curvature="0"
                       id="path167"
                       d="m 38.409,28.04 c 0,-5.565 4.511,-10.076 10.076,-10.076 3.583,0 6.721,1.875 8.50702,4.692 -1.603,-3.441 -5.082,-5.832 -9.12902,-5.832 -5.565,0 -10.076,4.511 -10.076,10.076 0,1.982 0.58,3.826 1.569,5.385 -0.601,-1.292 -0.947,-2.726 -0.947,-4.245 z" />
                  </g>
                </g>
                <g
                   style="stroke-width:0"
                   id="g169">
                  <g
                     style="stroke-width:0"
                     id="g171">
                    <g
                       style="stroke-width:0"
                       id="g173">
                      <path
                         style="fill:#9b9b9b;stroke-width:0"
                         inkscape:connector-curvature="0"
                         id="path175"
                         d="m 9.28303,24.307 c 0,-2.246 2.02,-4.066 4.512,-4.066 2.492,0 4.513,1.82 4.513,4.066 l 0,4.799 -9.025,0 0,-4.799 z" />
                      <path
                         style="fill:#9b9b9b;stroke-width:0"
                         inkscape:connector-curvature="0"
                         id="path177"
                         d="m 43.195,24.307 c 0,-2.246 2.021,-4.066 4.513,-4.066 2.492,0 4.513,1.82 4.513,4.066 l 0,4.799 -9.02498,0 -2e-5,-4.799 z" />
                    </g>
                    <rect
                       style="fill:#898989;stroke-width:0"
                       id="rect179"
                       y="29.105"
                       x="43.195"
                       width="9.0249796"
                       height="21.642" />
                    <rect
                       style="fill:#898989;stroke-width:0"
                       id="rect181"
                       y="29.105"
                       x="9.2830296"
                       width="9.0249796"
                       height="21.642" />
                    <g
                       style="stroke-width:0"
                       id="g183">
                      <path
                         style="fill:#898989;stroke-width:0"
                         inkscape:connector-curvature="0"
                         id="path185"
                         d="m 42.543,1.418 0,-1.418 -23.696,0 0,1.418 L 0,18.183 0,53.248 c 0,4.639 3.71,8.43502 8.24299,8.43502 4.532,0 10.607,-7.75001 21.809,-7.75001 11.202,0 17.482,7.75001 22.267,7.75001 l 0.864,0 c 4.784,0 8.69803,-3.796 8.69803,-8.43502 L 61.881,18.183 42.543,1.418 z m -23.559,33.509 0,15.521 -10.37798,0 0,-15.521 c -2.737,-1.727 -4.562,-4.769 -4.562,-8.244 0,-5.385 4.365,-9.75002 9.75002,-9.75002 5.38502,0 9.75002,4.365 9.75002,9.75002 C 23.545,30.158 21.722,33.2 18.984,34.927 z m 33.912,0 0,15.521 -10.377,0 0,-15.521 c -2.737,-1.727 -4.562,-4.769 -4.562,-8.244 0,-5.385 4.365,-9.75002 9.75002,-9.75002 5.38502,0 9.75002,4.365 9.75002,9.75002 -4e-5,3.475 -1.82304,6.517 -4.56104,8.244 z" />
                    </g>
                    <rect
                       style="opacity:0.3;fill:#ffffff;stroke-width:0"
                       id="rect187"
                       y="0"
                       x="18.847"
                       width="23.695999"
                       height="1.418"
                       enable-background="new    " />
                    <g
                       style="stroke-width:0"
                       id="g189">
                      <path
                         style="fill:none;stroke-width:0"
                         inkscape:connector-curvature="0"
                         id="path191"
                         d="m 13.795,16.933 c -5.385,0 -9.75002,4.365 -9.75002,9.75002 0,3.476 1.824,6.519 4.562,8.24501 l 0,15.521 10.378,0 2e-5,-15.52203 c 2.737,-1.728 4.561,-4.769 4.561,-8.244 -10e-4,-5.385 -4.366,-9.75 -9.751,-9.75 z" />
                      <path
                         style="fill:none;stroke-width:0"
                         inkscape:connector-curvature="0"
                         id="path193"
                         d="m 47.707,16.933 c -5.385,0 -9.75002,4.365 -9.75002,9.75002 0,3.476 1.824,6.519 4.562,8.24501 l 0,15.521 10.378,0 2e-5,-15.52203 c 2.737,-1.728 4.561,-4.769 4.561,-8.244 -10e-4,-5.385 -4.366,-9.75 -9.751,-9.75 z" />
                      <path
                         style="fill:#898989;stroke-width:0"
                         inkscape:connector-curvature="0"
                         id="path195"
                         d="m 0,18.183 0,35.065 c 0,1.55 0.421,3 1.142,4.252 l 0,-40.333 L 0,18.183 z" />
                      <path
                         style="opacity:0.3;fill:#ffffff;stroke-width:0"
                         inkscape:connector-curvature="0"
                         id="path197"
                         d="m 0,18.183 0,35.065 c 0,1.55 0.421,3 1.142,4.252 l 0,-40.333 L 0,18.183 z"
                         enable-background="new    " />
                      <path
                         style="fill:#898989;stroke-width:0"
                         inkscape:connector-curvature="0"
                         id="path199"
                         d="m 61.881,18.183 -1.142,-0.988999 0,40.205999 c 0.723002,-1.229 1.142,-2.645 1.142,-4.152 l 0,-35.065 z" />
                      <path
                         style="opacity:0.3;fill:#ffffff;stroke-width:0"
                         inkscape:connector-curvature="0"
                         id="path201"
                         d="m 61.881,18.183 -1.142,-0.988999 0,40.205999 c 0.723002,-1.229 1.142,-2.645 1.142,-4.152 l 0,-35.065 z"
                         enable-background="new    " />
                    </g>
                    <g
                       style="opacity:0.5;stroke-width:0"
                       id="g203">
                      <path
                         style="fill:#ffffff;stroke-width:0"
                         inkscape:connector-curvature="0"
                         id="path205"
                         d="m 31.426,4.588 0,5.397 5.2,0 0,0.882 -5.2,0 0,5.441 -0.947002,0 0,-5.441 -5.2,0 2e-6,-0.88197 5.2,0 0,-5.39703 0.947,0 z" />
                    </g>
                  </g>
                </g>
                <g
                   style="stroke-width:0"
                   id="g207">
                  <path
                     style="fill:#828282;stroke-width:0"
                     inkscape:connector-curvature="0"
                     id="path209"
                     d="m 17.049,29.426 -6.517,0 c -0.276,0 -0.5,-0.224 -0.5,-0.5 0,-0.276 0.224,-0.5 0.5,-0.5 l 6.517,0 c 0.276,0 0.5,0.224 0.5,0.5 0,0.276 -0.224,0.5 -0.5,0.5 z" />
                </g>
                <g
                   style="stroke-width:0"
                   id="g211">
                  <path
                     style="fill:#828282;stroke-width:0"
                     inkscape:connector-curvature="0"
                     id="path213"
                     d="m 50.966,29.426 -6.517,0 c -0.276,0 -0.5,-0.224 -0.5,-0.5 0,-0.276 0.224,-0.5 0.5,-0.5 l 6.517,0 c 0.276,0 0.5,0.224 0.5,0.5 0,0.276 -0.224,0.5 -0.5,0.5 z" />
                </g>
              </g>
              <path
                 style="opacity:0.3;fill:#ffffff;stroke-width:0"
                 inkscape:connector-curvature="0"
                 id="path215"
                 d="m 9.29398,24.028 c 0,-2.078 2.041,-3.77 4.501,-3.77 2.461,0 4.486,1.691 4.486,3.77 0,-1.792 -2.312,-3.25 -4.486,-3.25 -2.17398,0 -4.501,1.458 -4.501,3.25 z" />
              <path
                 style="opacity:0.3;fill:#ffffff;stroke-width:0"
                 inkscape:connector-curvature="0"
                 id="path217"
                 d="m 43.214,24.028 c 0,-2.078 2.041,-3.77 4.501,-3.77 2.461,0 4.486,1.691 4.486,3.77 0,-1.792 -2.312,-3.25 -4.486,-3.25 -2.174,0 -4.501,1.458 -4.501,3.25 z" />
            </g>
          </g>
        </g>
      </g>
    </g>
  </g>
</svg>
