<?xml version="1.0" encoding="UTF-8" standalone="no"?>
<!-- Generator: Adobe Illustrator 16.0.0, SVG Export Plug-In . SVG Version: 6.00 Build 0)  -->

<svg
   xmlns:dc="http://purl.org/dc/elements/1.1/"
   xmlns:cc="http://creativecommons.org/ns#"
   xmlns:rdf="http://www.w3.org/1999/02/22-rdf-syntax-ns#"
   xmlns:svg="http://www.w3.org/2000/svg"
   xmlns="http://www.w3.org/2000/svg"
   xmlns:sodipodi="http://sodipodi.sourceforge.net/DTD/sodipodi-0.dtd"
   xmlns:inkscape="http://www.inkscape.org/namespaces/inkscape"
   version="1.1"
   id="Ebene_1"
   x="0px"
   y="0px"
   width="11.5"
   height="11.5"
   viewBox="0 0 11.500001 11.5"
   xml:space="preserve"
   inkscape:version="0.48.4 r9939"
   sodipodi:docname="BME280.svg"><metadata
   id="metadata7005"><rdf:RDF><cc:Work
       rdf:about=""><dc:format>image/svg+xml</dc:format><dc:type
         rdf:resource="http://purl.org/dc/dcmitype/StillImage" /></cc:Work></rdf:RDF></metadata><defs
   id="defs7003">



</defs><sodipodi:namedview
   pagecolor="#ffffff"
   bordercolor="#666666"
   borderopacity="1"
   objecttolerance="10"
   gridtolerance="10"
   guidetolerance="10"
   inkscape:pageopacity="0"
   inkscape:pageshadow="2"
   inkscape:window-width="1920"
   inkscape:window-height="1018"
   id="namedview7001"
   showgrid="false"
   inkscape:zoom="72.260871"
   inkscape:cx="5.7499999"
   inkscape:cy="5.8399742"
   inkscape:window-x="-8"
   inkscape:window-y="-8"
   inkscape:window-maximized="1"
   inkscape:current-layer="Ebene_1"
   fit-margin-top="0"
   fit-margin-left="0"
   fit-margin-right="0"
   fit-margin-bottom="0" />














<g
   id="g15499"><polygon
     style="fill:#cccccc"
     transform="matrix(0.78606922,0,0,0.88196954,0.01248117,0.01135787)"
     id="polygon6973"
     points="14.598,11.242 14.598,0.003 10.206,0.003 10.206,0.261 4.393,0.261 4.393,0.003 0,0.003 0,11.242 " /><polygon
     style="fill:#cccccc"
     transform="matrix(0.78606922,0,0,0.88196954,0.02496242,-0.002646)"
     id="polygon6975"
     points="14.598,1.888 0,1.888 0,13.042 4.392,13.042 4.392,12.783 10.205,12.783 10.205,13.042 14.598,13.042 " /><circle
     transform="matrix(0.10920662,0,0,0.12252981,0.63221616,5.1209353)"
     sodipodi:ry="3.599"
     sodipodi:rx="3.599"
     sodipodi:cy="6.5219998"
     sodipodi:cx="7.2989998"
     id="circle6977"
     r="3.599"
     cy="6.5219998"
     cx="7.2989998"
     d="M 10.898,6.5219998 C 10.898,8.5096726 9.2866726,10.121 7.2989998,10.121 c -1.9876728,0 -3.599,-1.6113274 -3.599,-3.5990002 0,-1.9876728 1.6113272,-3.5989999 3.599,-3.5989999 1.9876728,0 3.5990002,1.6113271 3.5990002,3.5989999 z" /><path
     style="opacity:0.2"
     inkscape:connector-curvature="0"
     id="path6979"
     d="m 0.44657618,10.706774 c 0,0.322653 2.37069032,0.584283 5.29616072,0.584283 2.9254708,0 5.2976341,-0.261305 5.2976341,-0.584283 v -0.0284 c 0,0.322655 -2.3706918,0.584284 -5.2976341,0.584284 -2.9254704,0 -5.29616072,-0.261467 -5.29616072,-0.584284 v 0.0284 z" /><circle
     style="fill:#1a1a1a"
     transform="matrix(0.11336447,0,0,0.12719492,0.59329861,5.1281321)"
     sodipodi:ry="3.467"
     sodipodi:rx="3.467"
     sodipodi:cy="6.5219998"
     sodipodi:cx="7.2989998"
     id="circle6981"
     r="3.467"
     cy="6.5219998"
     cx="7.2989998"
     d="m 10.766,6.5219998 c 0,1.9147713 -1.552229,3.467 -3.4670002,3.467 -1.9147712,0 -3.467,-1.5522287 -3.467,-3.467 0,-1.9147712 1.5522288,-3.467 3.467,-3.467 1.9147712,0 3.4670002,1.5522288 3.4670002,3.467 z" /><circle
     style="fill:#333333"
     transform="matrix(0.11336447,0,0,0.12719492,0.63074218,5.1502641)"
     sodipodi:ry="3.467"
     sodipodi:rx="3.467"
     sodipodi:cy="6.4400001"
     sodipodi:cx="7.2989998"
     id="circle6983"
     r="3.467"
     cy="6.4400001"
     cx="7.2989998"
     d="m 10.766,6.4400001 c 0,1.9147712 -1.552229,3.467 -3.4670002,3.467 -1.9147712,0 -3.467,-1.5522288 -3.467,-3.467 0,-1.9147713 1.5522288,-3.4670001 3.467,-3.4670001 C 9.213771,2.973 10.766,4.5252288 10.766,6.4400001 z" /><rect
     id="rect6989"
     height="0.22931208"
     width="3.4539881"
     y="-9.5290567e-008"
     x="8.0226221"
     style="opacity:0.2;fill:#ffffff" /><rect
     id="rect6991"
     height="0.22931208"
     width="3.4532022"
     y="-9.5290567e-008"
     x="0"
     style="opacity:0.2;fill:#ffffff" /><rect
     id="rect6995"
     height="0.22931208"
     width="3.4539881"
     y="11.260987"
     x="8.0226221"
     style="opacity:0.2" /><rect
     style="opacity:0.2"
     x="0"
     id="rect6997"
     height="0.22931208"
     width="8.0213099"
     y="11.260987" /><rect
     transform="matrix(0,1,-1,0,0,0)"
     style="opacity:0.2"
     x="0.23617786"
     id="rect6997-6"
     height="0.20437799"
     width="11.016465"
     y="-0.21451962" /><rect
     transform="matrix(0,1,-1,0,0,0)"
     style="opacity:0.2"
     x="0.24317965"
     id="rect6997-6-1"
     height="0.20437799"
     width="11.016465"
     y="-11.460052" /><rect
     transform="scale(-1,-1)"
     style="opacity:0.2"
     x="-11.455672"
     id="rect6997-6-4"
     height="0.22931208"
     width="11.44115"
     y="-0.24351491" /><path
     style="opacity:0.2"
     inkscape:connector-curvature="0"
     id="path6979-2"
     d="m 0.39148831,0.82691664 c 0,-0.32265356 2.39242649,-0.58428277 5.34471939,-0.58428277 2.9522924,0 5.3462053,0.26130464 5.3462053,0.58428277 v 0.0283994 c 0,-0.32265444 -2.3924272,-0.58428365 -5.3462053,-0.58428365 -2.9522929,0 -5.34471939,0.26146693 -5.34471939,0.58428365 v -0.0283994 z" /><text
     transform="scale(1.0187934,0.98155329)"
     y="3.9577038"
     x="7.193284"
     id="text14939"
     font-size="3.4824"
     style="font-size:1.16046941px;fill:#f2f2f2;font-family:Droid Sans"><tspan
       id="tspan15321"
       style="font-style:normal;font-variant:normal;font-weight:normal;font-stretch:normal;font-family:OCRA;-inkscape-font-specification:OCRA;font-size:0.80000012px">BME</tspan></text>
<text
     inkscape:transform-center-x="-0.62203684"
     transform="scale(1.0372762,0.96406338)"
     y="5.221313"
     x="6.9922924"
     id="text14939-2"
     font-size="3.4824"
     style="font-size:1.17831421px;fill:#f2f2f2;font-family:Droid Sans"><tspan
       id="tspan15323"
       style="font-style:normal;font-variant:normal;font-weight:normal;font-stretch:normal;font-family:OCRA;-inkscape-font-specification:OCRA;font-size:0.80000007px">280</tspan></text>
<circle
     style="fill:#e6e6e6"
     transform="matrix(0.11336447,0,0,0.12719492,8.2704504,6.0855214)"
     sodipodi:ry="3.467"
     sodipodi:rx="3.467"
     sodipodi:cy="6.4400001"
     sodipodi:cx="7.2989998"
     id="circle6983-1"
     r="3.467"
     cy="6.4400001"
     cx="7.2989998"
     d="m 10.766,6.4400001 c 0,1.9147712 -1.552229,3.467 -3.4670002,3.467 -1.9147712,0 -3.467,-1.5522288 -3.467,-3.467 0,-1.9147713 1.5522288,-3.4670001 3.467,-3.4670001 C 9.213771,2.973 10.766,4.5252288 10.766,6.4400001 z" /></g></svg>