<?xml version="1.0" encoding="UTF-8" standalone="no"?>
<!-- Created with Inkscape (http://www.inkscape.org/) -->

<svg
   xmlns:dc="http://purl.org/dc/elements/1.1/"
   xmlns:cc="http://creativecommons.org/ns#"
   xmlns:rdf="http://www.w3.org/1999/02/22-rdf-syntax-ns#"
   xmlns:svg="http://www.w3.org/2000/svg"
   xmlns="http://www.w3.org/2000/svg"
   xmlns:sodipodi="http://sodipodi.sourceforge.net/DTD/sodipodi-0.dtd"
   xmlns:inkscape="http://www.inkscape.org/namespaces/inkscape"
   width="20.49"
   height="20.49"
   id="svg23116"
   version="1.1"
   inkscape:version="0.48.4 r9939"
   sodipodi:docname="New document 3">
  <defs
     id="defs23118" />
  <sodipodi:namedview
     id="base"
     pagecolor="#ffffff"
     bordercolor="#666666"
     borderopacity="1.0"
     inkscape:pageopacity="0.0"
     inkscape:pageshadow="2"
     inkscape:zoom="0.35"
     inkscape:cx="-111.89786"
     inkscape:cy="173.10215"
     inkscape:document-units="px"
     inkscape:current-layer="layer1"
     showgrid="false"
     fit-margin-top="0"
     fit-margin-left="0"
     fit-margin-right="0"
     fit-margin-bottom="0"
     inkscape:window-width="463"
     inkscape:window-height="423"
     inkscape:window-x="250"
     inkscape:window-y="250"
     inkscape:window-maximized="0" />
  <metadata
     id="metadata23121">
    <rdf:RDF>
      <cc:Work
         rdf:about="">
        <dc:format>image/svg+xml</dc:format>
        <dc:type
           rdf:resource="http://purl.org/dc/dcmitype/StillImage" />
        <dc:title></dc:title>
      </cc:Work>
    </rdf:RDF>
  </metadata>
  <g
     inkscape:label="Layer 1"
     inkscape:groupmode="layer"
     id="layer1"
     transform="translate(-486.89786,-684.97433)">
    <g
       style="stroke-width:0"
       id="tactile_switch_smd"
       transform="matrix(1.25,0,0,1.25,486.89786,684.97433)">
      <g
         style="stroke-width:0"
         transform="matrix(-1,0,0,-1,16.392,16.392)"
         id="g20528">
        <polygon
           style="fill:#6d6d6d;stroke-width:0"
           points="1.142,12.976 3.41499,15.25 12.9779,15.25 15.25,12.976 15.25,3.41299 12.9779,1.141 3.41499,1.141 1.142,3.41299 "
           id="polygon20530" />
        <rect
           style="fill:#6d6d6d;stroke-width:0"
           width="9.5629702"
           x="3.4149899"
           y="0"
           height="16.392"
           id="rect20532" />
        <rect
           style="fill:#6d6d6d;stroke-width:0"
           width="16.392"
           x="0"
           y="3.4129901"
           height="9.5619602"
           id="rect20534" />
        <polygon
           style="fill:#7f7f7f;stroke-width:0"
           points="1.82699,12.513 3.87899,14.565 12.513,14.565 14.566,12.513 14.566,3.87699 12.513,1.82599 3.87899,1.82599 1.82699,3.87699 "
           id="polygon20536" />
        <polyline
           style="opacity:0.2;fill:none;stroke:#ffffff;stroke-width:0.236899;stroke-miterlimit:10"
           points="4.10499,2.15999,2.16099,4.10298,2.16099,12.2869,4.10499,14.232,12.288,14.232"
           stroke-miterlimit="10"
           id="polyline20538" />
        <polyline
           style="opacity:0.2;fill:none;stroke:#606060;stroke-width:0.236899;stroke-miterlimit:10"
           points="12.289,14.232,14.233,12.289,14.233,4.10499,12.289,2.15999,4.10599,2.15999"
           stroke-miterlimit="10"
           id="polyline20540" />
        <g
           style="stroke-width:0"
           id="g20542">
          <path
             style="fill:#bca16a;stroke-width:0"
             inkscape:connector-curvature="0"
             d="m 8.19598,11.923 c -2.055,0 -3.72699,-1.672 -3.72699,-3.72699 0,-2.055 1.672,-3.72799 3.72699,-3.72799 2.05499,0 3.72699,1.672 3.72699,3.72799 C 11.922,10.251 10.25,11.923 8.19598,11.923 z"
             id="path20544" />
          <path
             style="fill:#606060;stroke-width:0"
             inkscape:connector-curvature="0"
             d="m 8.19598,4.71899 c 1.92,0 3.47699,1.55699 3.47699,3.47799 0,1.92 -1.55699,3.47699 -3.47699,3.47699 -1.92,0 -3.47699,-1.55699 -3.47699,-3.47699 0,-1.922 1.55699,-3.47799 3.47699,-3.47799 m 0,-0.5 c -2.19299,0 -3.97698,1.78399 -3.97698,3.97799 0,2.192 1.78399,3.97698 3.97698,3.97698 2.192,0 3.97698,-1.78399 3.97698,-3.97698 C 12.172,6.00299 10.3879,4.21899 8.19598,4.21899 l 0,0 z"
             id="path20546" />
        </g>
        <path
           style="opacity:0.2;fill:#bca16a;stroke:#ffffff;stroke-width:0.53039902;stroke-miterlimit:10"
           inkscape:connector-curvature="0"
           d="m 10.39,10.389 c -1.212,1.212 -3.17699,1.212 -4.38899,0 -1.212,-1.213 -1.212,-3.17799 0,-4.38998"
           stroke-miterlimit="10"
           id="path20548" />
        <path
           style="opacity:0.2;fill:#bca16a;stroke:#606060;stroke-width:0.53039902;stroke-miterlimit:10"
           inkscape:connector-curvature="0"
           d="m 6.00098,5.99898 c 1.212,-1.212 3.17699,-1.212 4.38899,0 1.212,1.213 1.212,3.17699 0,4.38998"
           stroke-miterlimit="10"
           id="path20550" />
      </g>
    </g>
  </g>
</svg>
