<?xml version="1.0" encoding="UTF-8" standalone="no"?>
<!-- Created with Inkscape (http://www.inkscape.org/) -->

<svg
   xmlns:dc="http://purl.org/dc/elements/1.1/"
   xmlns:cc="http://creativecommons.org/ns#"
   xmlns:rdf="http://www.w3.org/1999/02/22-rdf-syntax-ns#"
   xmlns:svg="http://www.w3.org/2000/svg"
   xmlns="http://www.w3.org/2000/svg"
   xmlns:sodipodi="http://sodipodi.sourceforge.net/DTD/sodipodi-0.dtd"
   xmlns:inkscape="http://www.inkscape.org/namespaces/inkscape"
   width="31.748001"
   height="29.800999"
   id="svg12712"
   version="1.1"
   inkscape:version="0.48.4 r9939"
   sodipodi:docname="New document 11">
  <defs
     id="defs12714" />
  <sodipodi:namedview
     id="base"
     pagecolor="#ffffff"
     bordercolor="#666666"
     borderopacity="1.0"
     inkscape:pageopacity="0.0"
     inkscape:pageshadow="2"
     inkscape:zoom="13.50353"
     inkscape:cx="35.593348"
     inkscape:cy="14.648414"
     inkscape:document-units="px"
     inkscape:current-layer="layer1"
     showgrid="false"
     fit-margin-top="0"
     fit-margin-left="0"
     fit-margin-right="0"
     fit-margin-bottom="0"
     inkscape:window-width="1920"
     inkscape:window-height="1018"
     inkscape:window-x="-8"
     inkscape:window-y="-8"
     inkscape:window-maximized="1" />
  <metadata
     id="metadata12717">
    <rdf:RDF>
      <cc:Work
         rdf:about="">
        <dc:format>image/svg+xml</dc:format>
        <dc:type
           rdf:resource="http://purl.org/dc/dcmitype/StillImage" />
        <dc:title></dc:title>
      </cc:Work>
    </rdf:RDF>
  </metadata>
  <g
     inkscape:label="Layer 1"
     inkscape:groupmode="layer"
     id="layer1"
     transform="translate(-167.61152,-438.41079)">
    <g
       transform="translate(155.13952,423.09979)"
       id="g12645">
      <title
         id="title12647">element:U$1</title>
    </g>
    <g
       transform="translate(155.13952,423.09979)"
       id="g12649">
      <rect
         x="33.591"
         y="16.959"
         width="2.2679999"
         height="2.5899999"
         id="rect12651" />
      <rect
         style="fill:#f7bd13"
         x="40.226002"
         y="24.471001"
         width="3.994"
         height="7.086"
         id="rect12653" />
      <rect
         style="fill:#f7bd13"
         x="12.472"
         y="24.471001"
         width="3.994"
         height="7.086"
         id="rect12655" />
      <rect
         style="opacity:0.33999999;fill:#ffffff"
         x="40.226002"
         y="24.471001"
         enable-background="new    "
         width="3.994"
         height="0.211"
         id="rect12657" />
      <rect
         style="opacity:0.33999999;fill:#ffffff"
         x="12.472"
         y="24.471001"
         enable-background="new    "
         width="3.994"
         height="0.211"
         id="rect12659" />
      <path
         style="fill:#b3b3b3"
         inkscape:connector-curvature="0"
         d="m 35.628,17.609 c 0.135,-0.188 0.229,-0.403 0.229,-0.65 0,-0.626 -0.508,-1.134 -1.134,-1.134 -0.461,0 -0.854,0.278 -1.031,0.673 -1.621,-0.753 -3.424,-1.186 -5.331,-1.186 -7.008,0 -12.688,5.68 -12.688,12.688 0,1.914 0.444,3.718 1.205,5.343 -0.42,0.165 -0.721,0.57 -0.721,1.051 0,0.626 0.508,1.134 1.134,1.134 0.265,0 0.497,-0.104 0.69,-0.257 0.823,1.17 1.833,2.199 2.995,3.033 v 6.72 h 14.74 v -6.697 c 3.224,-2.301 5.332,-6.063 5.332,-10.325 10e-4,-4.304 -2.145,-8.099 -5.42,-10.393 z"
         id="path12661" />
      <path
         style="opacity:0.33999999;fill:#ffffff"
         inkscape:connector-curvature="0"
         enable-background="new    "
         d="m 17.291,35.526 c -0.626,0 -1.054,-0.488 -1.054,-1.114 0,-0.479 0.298,-0.834 0.719,-1 l -0.078,-0.069 c -0.42,0.165 -0.721,0.57 -0.721,1.051 0,0.624 0.508,1.132 1.134,1.132"
         id="path12663" />
      <path
         style="fill:#333333"
         inkscape:connector-curvature="0"
         d="M 35.717,44.687 V 37.99 c 3.224,-2.301 5.332,-6.063 5.332,-10.325 V 28 c 0,4.263 -2.108,8.024 -5.332,10.325 v 6.697"
         id="path12665" />
      <path
         style="opacity:0.33999999;fill:#ffffff"
         inkscape:connector-curvature="0"
         enable-background="new    "
         d="m 15.674,28.162 c 0,-7.007 5.68,-12.688 12.688,-12.688 1.907,0 3.75,0.353 5.374,1.106 0.176,-0.396 0.528,-0.669 0.989,-0.669 0.626,0 1.134,0.583 1.134,1.209 v -0.162 c 0,-0.626 -0.508,-1.134 -1.134,-1.134 -0.461,0 -0.854,0.278 -1.03,0.673 -1.623,-0.753 -3.426,-1.186 -5.333,-1.186 -7.008,0 -12.688,5.68 -12.688,12.688 v 0.163 z"
         id="path12667" />
      <rect
         style="fill:#333333"
         x="20.976"
         y="45.022999"
         width="14.74"
         height="0.089000002"
         id="rect12669" />
    </g>
    <text
       y="-453.26849"
       x="-192.48592"
       transform="scale(-1,-1)"
       id="text12671">
      <tspan
         style="font-size:4px;fill:#e6e6e6;font-family:OCRA"
         x="-192.48592"
         y="-453.26849"
         font-size="4"
         id="tspan12673">CCV084</tspan>
      <tspan
         style="font-size:4px;fill:#e6e6e6;font-family:OCRA"
         x="-192.48592"
         y="-448.46851"
         font-size="4"
         id="tspan12675">B16 G</tspan>
      <tspan
         style="font-size:4px;fill:#e6e6e6;font-family:OCRA"
         x="-192.48592"
         y="-443.66748"
         font-size="4"
         id="tspan12677">4510</tspan>
    </text>
  </g>
</svg>
