<?xml version="1.0" encoding="UTF-8" standalone="no"?>
<!-- Created with Inkscape (http://www.inkscape.org/) -->

<svg
   xmlns:dc="http://purl.org/dc/elements/1.1/"
   xmlns:cc="http://creativecommons.org/ns#"
   xmlns:rdf="http://www.w3.org/1999/02/22-rdf-syntax-ns#"
   xmlns:svg="http://www.w3.org/2000/svg"
   xmlns="http://www.w3.org/2000/svg"
   xmlns:sodipodi="http://sodipodi.sourceforge.net/DTD/sodipodi-0.dtd"
   xmlns:inkscape="http://www.inkscape.org/namespaces/inkscape"
   width="8.9987488"
   height="53.999996"
   id="svg93790"
   version="1.1"
   inkscape:version="0.48.4 r9939"
   sodipodi:docname="New document 27">
  <defs
     id="defs93792" />
  <sodipodi:namedview
     id="base"
     pagecolor="#ffffff"
     bordercolor="#666666"
     borderopacity="1.0"
     inkscape:pageopacity="0.0"
     inkscape:pageshadow="2"
     inkscape:zoom="1.1935547"
     inkscape:cx="211.09486"
     inkscape:cy="-115.72623"
     inkscape:document-units="px"
     inkscape:current-layer="layer1"
     showgrid="false"
     fit-margin-top="0"
     fit-margin-left="0"
     fit-margin-right="0"
     fit-margin-bottom="0"
     inkscape:window-width="1920"
     inkscape:window-height="1018"
     inkscape:window-x="-8"
     inkscape:window-y="-8"
     inkscape:window-maximized="1" />
  <metadata
     id="metadata93795">
    <rdf:RDF>
      <cc:Work
         rdf:about="">
        <dc:format>image/svg+xml</dc:format>
        <dc:type
           rdf:resource="http://purl.org/dc/dcmitype/StillImage" />
        <dc:title></dc:title>
      </cc:Work>
    </rdf:RDF>
  </metadata>
  <g
     inkscape:label="Layer 1"
     inkscape:groupmode="layer"
     id="layer1"
     transform="translate(-163.90514,-362.63595)">
    <g
       gorn="0.1.1.0"
       id="1x06"
       transform="matrix(1.2499999,0,0,1.2499999,141.40389,385.13595)">
      <g
         transform="matrix(0,1,-1,0,25.2,-18)"
         id="g87281">
        <g
           id="g87283">
          <rect
             height="7.1989999"
             y="0"
             width="43.200001"
             id="rect87285"
             x="0"
             style="fill:#404040" />
          <rect
             height="2.7820001"
             x="2.21"
             y="2.2090001"
             width="2.7809999"
             id="rect87287" />
          <polygon
             points="4.992,2.209 6.017,1.184 1.185,1.184 2.208,2.209 "
             id="polygon87289"
             style="fill:#2a2a29" />
          <polygon
             points="4.992,4.993 6.017,6.016 6.017,1.184 4.992,2.212 "
             id="polygon87291"
             style="fill:#474747" />
          <polygon
             points="2.208,4.993 1.185,6.016 6.016,6.016 4.991,4.993 "
             id="polygon87293"
             style="fill:#595959" />
          <polygon
             points="2.208,2.209 1.183,1.184 1.183,6.016 2.208,4.991 "
             id="polygon87295"
             style="fill:#373737" />
          <rect
             height="2.7820001"
             x="9.4109802"
             y="2.2090001"
             width="2.7809999"
             id="rect87297" />
          <polygon
             points="12.191,2.209 13.216,1.184 8.38397,1.184 9.40802,2.209 "
             id="polygon87299"
             style="fill:#2a2a29" />
          <polygon
             points="12.191,4.993 13.216,6.016 13.216,1.184 12.191,2.212 "
             id="polygon87301"
             style="fill:#474747" />
          <polygon
             points="9.40802,4.993 8.38397,6.016 13.215,6.016 12.19,4.993 "
             id="polygon87303"
             style="fill:#595959" />
          <polygon
             points="9.40802,2.209 8.38202,1.184 8.38202,6.016 9.40802,4.991 "
             id="polygon87305"
             style="fill:#373737" />
          <rect
             height="2.7820001"
             x="16.610001"
             y="2.2090001"
             width="2.7809999"
             id="rect87307" />
          <polygon
             points="19.392,2.209 20.417,1.184 15.584,1.184 16.608,2.209 "
             id="polygon87309"
             style="fill:#2a2a29" />
          <polygon
             points="19.392,4.993 20.417,6.016 20.417,1.184 19.392,2.212 "
             id="polygon87311"
             style="fill:#474747" />
          <polygon
             points="16.608,4.993 15.584,6.016 20.416,6.016 19.391,4.993 "
             id="polygon87313"
             style="fill:#595959" />
          <polygon
             points="16.608,2.209 15.583,1.184 15.583,6.016 16.608,4.991 "
             id="polygon87315"
             style="fill:#373737" />
          <rect
             height="2.7820001"
             x="23.811001"
             y="2.2090001"
             width="2.7809999"
             id="rect87317" />
          <polygon
             points="26.592,2.209 27.617,1.184 22.785,1.184 23.809,2.209 "
             id="polygon87319"
             style="fill:#2a2a29" />
          <polygon
             points="26.592,4.993 27.617,6.016 27.617,1.184 26.592,2.212 "
             id="polygon87321"
             style="fill:#474747" />
          <polygon
             points="23.809,4.993 22.785,6.016 27.616,6.016 26.59,4.993 "
             id="polygon87323"
             style="fill:#595959" />
          <polygon
             points="23.809,2.209 22.782,1.184 22.782,6.016 23.809,4.991 "
             id="polygon87325"
             style="fill:#373737" />
          <rect
             height="2.7820001"
             x="31.01"
             y="2.2090001"
             width="2.7809999"
             id="rect87327" />
          <polygon
             points="33.792,2.209 34.817,1.184 29.985,1.184 31.008,2.209 "
             id="polygon87329"
             style="fill:#2a2a29" />
          <polygon
             points="33.792,4.993 34.817,6.016 34.817,1.184 33.792,2.212 "
             id="polygon87331"
             style="fill:#474747" />
          <polygon
             points="31.008,4.993 29.985,6.016 34.815,6.016 33.791,4.993 "
             id="polygon87333"
             style="fill:#595959" />
          <polygon
             points="31.008,2.209 29.983,1.184 29.983,6.016 31.008,4.991 "
             id="polygon87335"
             style="fill:#373737" />
          <rect
             height="2.7820001"
             x="38.209999"
             y="2.2090001"
             width="2.7809999"
             id="rect87337" />
          <polygon
             points="40.992,2.209 42.016,1.184 37.184,1.184 38.208,2.209 "
             id="polygon87339"
             style="fill:#2a2a29" />
          <polygon
             points="40.992,4.993 42.016,6.016 42.016,1.184 40.992,2.212 "
             id="polygon87341"
             style="fill:#474747" />
          <polygon
             points="38.208,4.993 37.184,6.016 42.016,6.016 40.991,4.993 "
             id="polygon87343"
             style="fill:#595959" />
          <polygon
             points="38.208,2.209 37.182,1.184 37.182,6.016 38.208,4.991 "
             id="polygon87345"
             style="fill:#373737" />
        </g>
      </g>
    </g>
  </g>
</svg>
