<?xml version="1.0" encoding="UTF-8" standalone="no"?>
<!-- Created with Inkscape (http://www.inkscape.org/) -->

<svg
   xmlns:dc="http://purl.org/dc/elements/1.1/"
   xmlns:cc="http://creativecommons.org/ns#"
   xmlns:rdf="http://www.w3.org/1999/02/22-rdf-syntax-ns#"
   xmlns:svg="http://www.w3.org/2000/svg"
   xmlns="http://www.w3.org/2000/svg"
   xmlns:sodipodi="http://sodipodi.sourceforge.net/DTD/sodipodi-0.dtd"
   xmlns:inkscape="http://www.inkscape.org/namespaces/inkscape"
   width="8.9987488"
   height="26.999998"
   id="svg93900"
   version="1.1"
   inkscape:version="0.48.4 r9939"
   sodipodi:docname="New document 29">
  <defs
     id="defs93902" />
  <sodipodi:namedview
     id="base"
     pagecolor="#ffffff"
     bordercolor="#666666"
     borderopacity="1.0"
     inkscape:pageopacity="0.0"
     inkscape:pageshadow="2"
     inkscape:zoom="0.35"
     inkscape:cx="-29.072049"
     inkscape:cy="87.785716"
     inkscape:document-units="px"
     inkscape:current-layer="layer1"
     showgrid="false"
     fit-margin-top="0"
     fit-margin-left="0"
     fit-margin-right="0"
     fit-margin-bottom="0"
     inkscape:window-width="463"
     inkscape:window-height="401"
     inkscape:window-x="200"
     inkscape:window-y="200"
     inkscape:window-maximized="0" />
  <metadata
     id="metadata93905">
    <rdf:RDF>
      <cc:Work
         rdf:about="">
        <dc:format>image/svg+xml</dc:format>
        <dc:type
           rdf:resource="http://purl.org/dc/dcmitype/StillImage" />
        <dc:title></dc:title>
      </cc:Work>
    </rdf:RDF>
  </metadata>
  <g
     inkscape:label="Layer 1"
     inkscape:groupmode="layer"
     id="layer1"
     transform="translate(-404.07205,-593.1479)">
    <g
       gorn="0.1.2.0"
       id="1x03"
       transform="matrix(1.2499999,0,0,1.2499999,395.07205,602.1479)">
      <g
         transform="matrix(0,-1,1,0,7.2,14.4)"
         id="g87350">
        <g
           id="g87352">
          <rect
             height="7.1989999"
             x="0"
             y="0"
             width="21.6"
             id="rect87354"
             style="fill:#404040" />
          <rect
             height="2.7820001"
             x="2.21"
             y="2.2090001"
             width="2.7809999"
             id="rect87356" />
          <polygon
             points="2.208,2.209 4.991,2.209 6.017,1.184 1.185,1.184 "
             id="polygon87358"
             style="fill:#2a2a29" />
          <polygon
             points="4.991,2.212 4.991,4.993 6.017,6.016 6.017,1.184 "
             id="polygon87360"
             style="fill:#474747" />
          <polygon
             points="4.99,4.993 2.208,4.993 1.185,6.016 6.016,6.016 "
             id="polygon87362"
             style="fill:#595959" />
          <polygon
             points="2.208,4.991 2.208,2.209 1.183,1.184 1.183,6.016 "
             id="polygon87364"
             style="fill:#373737" />
          <rect
             height="2.7820001"
             x="9.4099703"
             y="2.2090001"
             width="2.7809999"
             id="rect87366" />
          <polygon
             points="9.40802,2.209 12.192,2.209 13.216,1.184 8.38397,1.184 "
             id="polygon87368"
             style="fill:#2a2a29" />
          <polygon
             points="12.192,2.212 12.192,4.993 13.216,6.016 13.216,1.184 "
             id="polygon87370"
             style="fill:#474747" />
          <polygon
             points="12.191,4.993 9.40802,4.993 8.38397,6.016 13.215,6.016 "
             id="polygon87372"
             style="fill:#595959" />
          <polygon
             points="9.40802,4.991 9.40802,2.209 8.38202,1.184 8.38202,6.016 "
             id="polygon87374"
             style="fill:#373737" />
          <rect
             height="2.7820001"
             x="16.611"
             y="2.2090001"
             width="2.7809999"
             id="rect87376" />
          <polygon
             points="16.609,2.209 19.392,2.209 20.416,1.184 15.584,1.184 "
             id="polygon87378"
             style="fill:#2a2a29" />
          <polygon
             points="19.392,2.212 19.392,4.993 20.416,6.016 20.416,1.184 "
             id="polygon87380"
             style="fill:#474747" />
          <polygon
             points="19.391,4.993 16.609,4.993 15.584,6.016 20.415,6.016 "
             id="polygon87382"
             style="fill:#595959" />
          <polygon
             points="16.609,4.991 16.609,2.209 15.582,1.184 15.582,6.016 "
             id="polygon87384"
             style="fill:#373737" />
        </g>
      </g>
    </g>
  </g>
</svg>
