<?xml version="1.0" encoding="UTF-8" standalone="no"?>
<svg
   xmlns:dc="http://purl.org/dc/elements/1.1/"
   xmlns:cc="http://creativecommons.org/ns#"
   xmlns:rdf="http://www.w3.org/1999/02/22-rdf-syntax-ns#"
   xmlns:svg="http://www.w3.org/2000/svg"
   xmlns="http://www.w3.org/2000/svg"
   xmlns:sodipodi="http://sodipodi.sourceforge.net/DTD/sodipodi-0.dtd"
   xmlns:inkscape="http://www.inkscape.org/namespaces/inkscape"
   version="1.1"
   id="Layer_1"
   x="0px"
   y="0px"
   width="17.716536"
   height="17.716536"
   viewBox="0 0 19.685038 19.68504"
   inkscape:version="0.48.4 r9939"
   sodipodi:docname="LED_5mm_red_pth_top-view.svg">
  <metadata
     id="metadata69966">
    <rdf:RDF>
      <cc:Work
         rdf:about="">
        <dc:format>image/svg+xml</dc:format>
        <dc:type
           rdf:resource="http://purl.org/dc/dcmitype/StillImage" />
        <dc:title></dc:title>
      </cc:Work>
    </rdf:RDF>
  </metadata>
  <defs
     id="defs69964" />
  <sodipodi:namedview
     pagecolor="#ffffff"
     bordercolor="#666666"
     borderopacity="1"
     objecttolerance="10"
     gridtolerance="10"
     guidetolerance="10"
     inkscape:pageopacity="0"
     inkscape:pageshadow="2"
     inkscape:window-width="1920"
     inkscape:window-height="1018"
     id="namedview69962"
     showgrid="false"
     inkscape:zoom="21.488575"
     inkscape:cx="2.4090181"
     inkscape:cy="2.1251916"
     inkscape:window-x="-8"
     inkscape:window-y="-8"
     inkscape:window-maximized="1"
     inkscape:current-layer="Layer_1"
     fit-margin-top="0"
     fit-margin-left="0"
     fit-margin-right="0"
     fit-margin-bottom="0" />
  <g
     id="g70977">
    <g
       id="g70956">
      <g
         id="g70974">
        <path
           transform="matrix(1.1250091,0,0,1.1073389,-1.4135536,-2.3970212)"
           style="fill:#e41515;fill-opacity:0.99607843;fill-rule:nonzero;stroke:#000000;stroke-width:0;stroke-miterlimit:4;stroke-opacity:1"
           d="m 18.754152,11.053112 c 0,2.454476 -0.979247,4.676587 -2.562475,6.285079 -0.791613,0.804246 -1.80465,1.313801 -2.780919,1.904867 -0.357274,0.216306 -0.356479,0.177618 -3.5433254,0.231549 C 6.7302198,19.527698 7.003111,19.412669 6.5998752,19.243058 5.5498387,18.801387 4.6105698,18.142437 3.8189558,17.338191 2.235728,15.729699 1.2564812,13.507588 1.2564812,11.053112 c 0,-4.908952 3.9169871,-8.8884439 8.7488358,-8.8884439 4.831848,0 8.748835,3.9794919 8.748835,8.8884439 z"
           id="path70016"
           inkscape:connector-curvature="0"
           sodipodi:nodetypes="sssssssss" />
      </g>
      <path
         id="path70016-1-4-6"
         d="m 18.754152,11.053112 c 0,2.454476 -0.979247,4.676587 -2.562475,6.285079 -0.791613,0.804246 -1.80299,1.316642 -2.780919,1.904867 -0.424301,0.255218 -0.378171,0.406655 -3.405441,0.406655 -3.1708996,0 -2.9811403,-0.200078 -3.4054418,-0.406655 C 5.5750063,18.744086 4.6105698,18.142437 3.8189558,17.338191 2.235728,15.729699 1.2564812,13.507588 1.2564812,11.053112 c 0,-4.908952 3.9169871,-8.8884439 8.7488358,-8.8884439 4.831848,0 8.748835,3.9794919 8.748835,8.8884439 z"
         style="fill:#e6b1b1;fill-opacity:0.65098039;fill-rule:nonzero;stroke:#000000;stroke-width:0;stroke-miterlimit:4;stroke-opacity:1"
         transform="matrix(1.0800088,0,0,1.0630454,-0.92787861,-1.9429828)"
         inkscape:connector-curvature="0"
         sodipodi:nodetypes="sssssssss" />
      <path
         id="path70016-1"
         d="m 18.754152,11.053112 c 0,2.454476 -0.979247,4.676587 -2.562475,6.285079 -0.791613,0.804246 -1.742061,1.436707 -2.780919,1.904867 -0.551677,0.248613 -0.811427,0.245872 -3.355939,0.296164 -2.5935238,0.05126 -2.8042624,0.0027 -3.4549438,-0.296164 C 5.5643388,18.767362 4.6105698,18.142437 3.8189558,17.338191 2.235728,15.729699 1.2564812,13.507588 1.2564812,11.053112 c 0,-4.908952 3.9169871,-8.8884439 8.7488358,-8.8884439 4.831848,0 8.748835,3.9794919 8.748835,8.8884439 z"
         style="fill:#d40000;fill-opacity:0.93333333;fill-rule:nonzero;stroke:#000000;stroke-width:0;stroke-miterlimit:4;stroke-opacity:1"
         transform="matrix(1.0445478,0,0,1.0281414,-0.45161361,-1.5751264)"
         inkscape:connector-curvature="0"
         sodipodi:nodetypes="sssssssss" />
      <path
         id="path70016-1-4"
         d="m 18.754152,11.053112 c 0,2.454476 -0.979248,4.676586 -2.562475,6.285079 -0.791613,0.804246 -1.764144,1.389085 -2.780919,1.904867 -0.672591,0.341187 -0.914834,0.427016 -3.6192152,0.481312 -2.8641534,0.0575 -2.1449713,-0.03153 -3.1916676,-0.481312 C 5.553179,18.793278 4.6105698,18.142437 3.8189558,17.338191 2.235728,15.729699 1.2564812,13.507588 1.2564812,11.053112 c 0,-4.908952 3.9169871,-8.8884439 8.7488358,-8.8884439 4.831848,0 8.748835,3.9794919 8.748835,8.8884439 z"
         style="fill:#ff2a2a;fill-opacity:0.87843137;fill-rule:nonzero;stroke:#000000;stroke-width:0;stroke-miterlimit:4;stroke-opacity:1"
         transform="matrix(0.96750785,0,0,0.95231147,0.24571339,-0.81861007)"
         inkscape:connector-curvature="0"
         sodipodi:nodetypes="sssssssss" />
      <path
         id="rect70054"
         d="m 4.7495909,9.1561222 4.5473385,0 0,1.2733538 -4.5473385,0 z"
         style="fill:#b92424;fill-opacity:1;fill-rule:nonzero;stroke:#000000;stroke-width:0;stroke-miterlimit:4;stroke-opacity:1" />
      <path
         id="rect70054-2"
         d="m 9.87749,9.1206074 4.547339,0 0,1.2733536 -4.547339,0 z"
         style="fill:#b92424;fill-opacity:1;fill-rule:nonzero;stroke:#000000;stroke-width:0;stroke-miterlimit:4;stroke-opacity:1" />
      <path
         id="path34-3"
         d="M 14.624833,5.1394273 17.313459,4.681787 C 15.776925,2.7285659 13.486851,1.2978665 10.771925,0.8022212 l 0.441732,1.8601399 c 1.417358,0.4721614 2.601802,1.3541917 3.411176,2.4770662 z"
         inkscape:connector-curvature="0"
         style="opacity:0.5;fill:#ffffff"
         inkscape:transform-center-y="0.46536357" />
      <path
         id="path34-3-2"
         d="m 3.8924794,12.190802 -2.492542,-0.215786 c 0.889399,2.494958 2.572634,4.628213 4.858168,5.871724 l 0.05805,-2.107875 c -1.141632,-0.877706 -1.977892,-2.133166 -2.423675,-3.548063 z"
         inkscape:connector-curvature="0"
         style="opacity:0.5;fill:#ffffff" />
      <path
         id="rect70949"
         d="m 4.2611103,18.481634 11.1922227,0 0,1.202222 -11.1922227,0 z"
         style="opacity:0;fill:none;stroke:#feffff;stroke-width:0;stroke-miterlimit:0.2;stroke-opacity:1" />
    </g>
  </g>
</svg>
