<?xml version="1.0" encoding="UTF-8" standalone="no"?>
<!-- Created with Inkscape (http://www.inkscape.org/) -->

<svg
   xmlns:dc="http://purl.org/dc/elements/1.1/"
   xmlns:cc="http://creativecommons.org/ns#"
   xmlns:rdf="http://www.w3.org/1999/02/22-rdf-syntax-ns#"
   xmlns:svg="http://www.w3.org/2000/svg"
   xmlns="http://www.w3.org/2000/svg"
   xmlns:sodipodi="http://sodipodi.sourceforge.net/DTD/sodipodi-0.dtd"
   xmlns:inkscape="http://www.inkscape.org/namespaces/inkscape"
   width="69.120262"
   height="65.543999"
   id="svg5558"
   version="1.1"
   inkscape:version="0.48.4 r9939"
   sodipodi:docname="New document 2">
  <defs
     id="defs5560" />
  <sodipodi:namedview
     id="base"
     pagecolor="#ffffff"
     bordercolor="#666666"
     borderopacity="1.0"
     inkscape:pageopacity="0.0"
     inkscape:pageshadow="2"
     inkscape:zoom="5.2566715"
     inkscape:cx="63.000196"
     inkscape:cy="51.94223"
     inkscape:document-units="px"
     inkscape:current-layer="layer1"
     showgrid="false"
     fit-margin-top="0"
     fit-margin-left="0"
     fit-margin-right="0"
     fit-margin-bottom="0"
     inkscape:window-width="1920"
     inkscape:window-height="1018"
     inkscape:window-x="-8"
     inkscape:window-y="-8"
     inkscape:window-maximized="1" />
  <metadata
     id="metadata5563">
    <rdf:RDF>
      <cc:Work
         rdf:about="">
        <dc:format>image/svg+xml</dc:format>
        <dc:type
           rdf:resource="http://purl.org/dc/dcmitype/StillImage" />
        <dc:title></dc:title>
      </cc:Work>
    </rdf:RDF>
  </metadata>
  <g
     inkscape:label="Layer 1"
     inkscape:groupmode="layer"
     id="layer1"
     transform="translate(-448.42838,-615.87426)">
    <g
       id="Ebene_1"
       style="stroke-width:0"
       transform="matrix(0.68571486,0,0,0.55392727,448.42839,615.87426)" />
    <g
       id="Ebene_3"
       style="fill:#d4aa00;fill-opacity:1;stroke-width:0"
       transform="matrix(0.88645498,0,0,0.55392727,439.17281,615.87426)">
      <polygon
         points="84.0139,116.054 61.761,116.054 58.481,114.063 41.314,114.063 38.035,116.054 15.782,116.054 15.782,111.018 84.0139,111.018 "
         id="polygon1615"
         style="fill:#d4aa00;fill-opacity:1;stroke-width:0" />
    </g>
    <g
       style="fill:#aa8800;stroke-width:0"
       id="g1620"
       transform="matrix(0.62343572,0,0,0.55392727,451.85261,615.87426)">
      <polygon
         style="fill:#aa8800;stroke-width:0"
         id="polygon1622"
         points="100.74,112.041 0,112.041 0.06,89.7667 100.8,89.8272 " />
      <g
         style="fill:#aa8800;stroke-width:0"
         id="g1624">
        <path
           style="fill:#aa8800;stroke-width:0"
           inkscape:connector-curvature="0"
           id="path1626"
           d="m 100.681,89.8862 0,22.095 -100.561,-2e-4 0,-22.0948 100.561,0 m 0.119,-0.1195 -100.8,0 0,22.3333 100.8,0 0,-22.3333 0,0 z" />
      </g>
    </g>
    <g
       style="stroke-width:0"
       id="g1628"
       transform="matrix(0.68571486,0,0,0.55392727,448.42839,615.87426)">
      <rect
         style="stroke-width:0"
         id="rect1630"
         height="97.3498"
         y="0.125"
         x="0.125"
         width="100.55" />
      <g
         style="stroke-width:0"
         id="g1632">
        <path
           style="fill:#c9c9c9;stroke-width:0"
           inkscape:connector-curvature="0"
           id="path1634"
           d="m 100.55,0.25 0,97.0999 -100.3,-1e-4 0,-97.0998 100.3,0 M 100.8,0 0,0 l 0,97.6003 100.8,0 0,-97.6003 0,0 z" />
      </g>
    </g>
    <g
       style="stroke-width:0"
       id="g1644"
       transform="matrix(0.68571486,0,0,0.68757183,448.42839,615.87426)">
      <rect
         style="fill:#ffffff;stroke-width:0"
         id="rect1646"
         height="1.072"
         y="0"
         x="0"
         width="7.8799701" />
      <rect
         style="fill:#ffffff;stroke-width:0"
         id="rect1648"
         height="7.8799701"
         y="13.409"
         x="0"
         width="1.072" />
      <rect
         style="fill:#ffffff;stroke-width:0"
         id="rect1650"
         height="7.8799701"
         y="70.408997"
         x="0"
         width="1.072" />
    </g>
    <g
       style="stroke-width:0"
       id="g1652"
       transform="matrix(0.68571486,0,0,0.68757183,448.42839,615.87426)">
      <rect
         style="fill:#ffffff;stroke-width:0"
         id="rect1654"
         height="1.072"
         y="0"
         x="92.920303"
         width="7.8799701" />
      <rect
         style="fill:#ffffff;stroke-width:0"
         id="rect1656"
         height="7.8799701"
         y="13.409"
         x="99.727898"
         width="1.072" />
      <rect
         style="fill:#ffffff;stroke-width:0"
         id="rect1658"
         height="7.8799701"
         y="70.408997"
         x="99.727898"
         width="1.072" />
    </g>
    <rect
       style="fill:#ffffff;stroke-width:0"
       id="rect1660"
       height="2.1902285"
       y="677.96948"
       x="448.42838"
       width="2.9965739" />
    <rect
       style="fill:#ffffff;stroke-width:0"
       id="rect1662"
       height="2.1902285"
       y="679.22803"
       x="459.25034"
       width="2.9965739" />
    <rect
       style="fill:#ffffff;stroke-width:0"
       id="rect1664"
       height="2.1902285"
       y="679.22803"
       x="471.38611"
       width="2.9965739" />
    <rect
       style="fill:#ffffff;stroke-width:0"
       id="rect1666"
       height="2.1902285"
       y="677.96948"
       x="514.55206"
       width="2.9965739" />
    <rect
       style="fill:#1a1a1a;stroke-width:0"
       id="rect1676"
       height="5.4710603"
       y="669.52551"
       x="455.77823"
       width="54.985714" />
  </g>
</svg>
