<?xml version="1.0" encoding="UTF-8" standalone="no"?>
<!-- Created with Inkscape (http://www.inkscape.org/) -->

<svg
   xmlns:dc="http://purl.org/dc/elements/1.1/"
   xmlns:cc="http://creativecommons.org/ns#"
   xmlns:rdf="http://www.w3.org/1999/02/22-rdf-syntax-ns#"
   xmlns:svg="http://www.w3.org/2000/svg"
   xmlns="http://www.w3.org/2000/svg"
   xmlns:sodipodi="http://sodipodi.sourceforge.net/DTD/sodipodi-0.dtd"
   xmlns:inkscape="http://www.inkscape.org/namespaces/inkscape"
   width="11.099521"
   height="10.003603"
   id="svg6586"
   version="1.1"
   inkscape:version="0.48.4 r9939"
   sodipodi:docname="New document 5">
  <defs
     id="defs6588" />
  <sodipodi:namedview
     id="base"
     pagecolor="#ffffff"
     bordercolor="#666666"
     borderopacity="1.0"
     inkscape:pageopacity="0.0"
     inkscape:pageshadow="2"
     inkscape:zoom="0.35"
     inkscape:cx="-113.74222"
     inkscape:cy="104.9962"
     inkscape:document-units="px"
     inkscape:current-layer="layer1"
     showgrid="false"
     fit-margin-top="0"
     fit-margin-left="0"
     fit-margin-right="0"
     fit-margin-bottom="0"
     inkscape:window-width="463"
     inkscape:window-height="423"
     inkscape:window-x="25"
     inkscape:window-y="25"
     inkscape:window-maximized="0" />
  <metadata
     id="metadata6591">
    <rdf:RDF>
      <cc:Work
         rdf:about="">
        <dc:format>image/svg+xml</dc:format>
        <dc:type
           rdf:resource="http://purl.org/dc/dcmitype/StillImage" />
        <dc:title></dc:title>
      </cc:Work>
    </rdf:RDF>
  </metadata>
  <g
     inkscape:label="Layer 1"
     inkscape:groupmode="layer"
     id="layer1"
     transform="translate(-488.74222,-627.35478)">
    <g
       transform="matrix(1.2499998,0,0,1.2499998,486.63573,606.30081)"
       id="g5489">
      <g
         id="g5491">
        <g
           id="g622"
           gorn="0.100.0.0">
          <title
             id="title624">element:LOGO3</title>
          <g
             id="g626"
             gorn="0.100.0.0.1">
            <title
               id="title628">package:OSHW-LOGO-S</title>
            <g
               id="g630"
               gorn="0.100.0.0.1.1">
              <title
                 id="title632">polygon</title>
              <path
                 inkscape:connector-curvature="0"
                 id="path634"
                 style="fill:none;stroke:#ffffff;stroke-width:0.42519701;stroke-linecap:round"
                 d="m 7.23881,23.9848 0.43034,-0.2217 m 0,0 1.06863,0.8714 m 0,0 0.73274,-0.7327 m 0,0 -0.87134,-1.0687 m 0,0 0.22168,-0.4304 m 0,0 0.14768,-0.4611 m 0,0 1.37166,-0.1395 m 0,0 0,-1.0364 m 0,0 -1.37166,-0.1394 m 0,0 -0.14768,-0.4611 m 0,0 -0.22168,-0.4304 m 0,0 0.87134,-1.0687 m 0,0 -0.73274,-0.7327 m 0,0 -1.06863,0.8713 m 0,0 -0.43041,-0.2216 m 0,0 -0.4611,-0.1477 m 0,0 -0.13947,-1.3717 m 0,0 -1.03634,0 m 0,0 -0.13947,1.3717 m 0,0 -0.46109,0.1477 m 0,0 -0.4304,0.2216 m 0,0 -1.06867,-0.8713 m 0,0 -0.73275,0.7327 m 0,0 0.87137,1.0687 m 0,0 -0.22171,0.4304 m 0,0 -0.14765,0.4611 m 0,0 -1.37168,0.1394 m 0,0 0,1.0364 m 0,0 1.37168,0.1395 m 0,0 0.14765,0.4611 m 0,0 0.22171,0.4304 m 0,0 -0.87137,1.0687 m 0,0 0.73275,0.7327 m 0,0 1.06867,-0.8714 m 0,0 0.43029,0.2217 m 0,0 0.6103,-1.4732 m 0,0 -0.27257,-0.1526 m 0,0 -0.2294,-0.212 m 0,0 -0.17357,-0.2597 m 0,0 -0.10811,-0.2931 m 0,0 -0.03669,-0.3103 m 0,0 0.03814,-0.3157 m 0,0 0.11209,-0.2976 m 0,0 0.17961,-0.2626 m 0,0 0.23686,-0.2122 m 0,0 0.28051,-0.1499 m 0,0 0.30811,-0.079 m 0,0 0.31804,-0.0035 m 0,0 0.30975,0.0723 m 0,0 0.2837,0.1437 m 0,0 0.24141,0.2072 m 0,0 0.18526,0.2585 m 0,0 0.11851,0.2951 m 0,0 0.045,0.3149 m 0,0 -0.0311,0.3165 m 0,0 -0.10548,0.3001 m 0,0 -0.17377,0.2664 m 0,0 -0.2321,0.2175 m 0,0 -0.27712,0.156 m 0,0 0.61027,1.4732 m -4.11078,0.2755 0.83306,0 m 4.31783,0 0.83304,0 m -6.28819,-0.4252 1.65879,0 m 0.22806,0 0.35254,0 m 2.11367,0 0.35257,0 m 0.22802,0 1.65881,0 m -6.24576,-0.4252 2.06884,0 m 1.76137,0 2.06887,0 m -5.55239,-0.4252 1.89831,0 m 1.40906,0 1.89834,0 m -5.22297,-0.4252 2.09171,0 m 1.05677,0 2.0917,0 m -5.4069,-0.4252 1.76785,0 m 2.03917,0 1.76663,0 m -7.00705,-0.4251 2.97044,0 m 2.4984,0 2.97158,0 m -8.44042,-0.4253 2.89134,0 m 2.65418,0 2.8949,0 m -8.44042,-0.4251 2.97068,0 m 2.49996,0 2.96978,0 m -7.00701,-0.4253 1.77031,0 m 2.02951,0 1.77382,0 m -5.40692,-0.4251 2.28481,0 m 0.67223,0 2.28313,0 m -5.22292,-0.4253 5.20564,0 m -5.55234,-0.4251 5.89909,0 m -6.24579,-0.4253 1.65881,0 m 0.22807,0 2.81876,0 m 0.22802,0 1.65881,0 m -6.2882,-0.4251 0.83307,0 m 1.51427,0 1.28927,0 m 1.51428,0 0.83304,0 m -3.59337,-0.4252 1.20283,0 m -1.15959,-0.4252 1.11635,0"
                 gorn="0.100.0.0.1.1.1" />
            </g>
          </g>
        </g>
      </g>
    </g>
  </g>
</svg>
