<?xml version="1.0" encoding="UTF-8" standalone="no"?>
<svg
   xmlns:dc="http://purl.org/dc/elements/1.1/"
   xmlns:cc="http://creativecommons.org/ns#"
   xmlns:rdf="http://www.w3.org/1999/02/22-rdf-syntax-ns#"
   xmlns:svg="http://www.w3.org/2000/svg"
   xmlns="http://www.w3.org/2000/svg"
   xmlns:sodipodi="http://sodipodi.sourceforge.net/DTD/sodipodi-0.dtd"
   xmlns:inkscape="http://www.inkscape.org/namespaces/inkscape"
   version="1.2"
   x="0px"
   y="0px"
   width="0.44444in"
   height="0.11111in"
   viewBox="0 0 32 8"
   id="svg222314"
   inkscape:version="0.48.4 r9939"
   sodipodi:docname="resistor_5bands.svg">
  <metadata
     id="metadata222339">
    <rdf:RDF>
      <cc:Work
         rdf:about="">
        <dc:format>image/svg+xml</dc:format>
        <dc:type
           rdf:resource="http://purl.org/dc/dcmitype/StillImage" />
        <dc:title></dc:title>
      </cc:Work>
    </rdf:RDF>
  </metadata>
  <defs
     id="defs222337" />
  <sodipodi:namedview
     pagecolor="#ffffff"
     bordercolor="#666666"
     borderopacity="1"
     objecttolerance="10"
     gridtolerance="10"
     guidetolerance="10"
     inkscape:pageopacity="0"
     inkscape:pageshadow="2"
     inkscape:window-width="1920"
     inkscape:window-height="1018"
     id="namedview222335"
     showgrid="false"
     inkscape:zoom="23.768402"
     inkscape:cx="19.9998"
     inkscape:cy="4.9999499"
     inkscape:window-x="-8"
     inkscape:window-y="-8"
     inkscape:window-maximized="1"
     inkscape:current-layer="svg222314" />
  <rect
     style="fill:none"
     height="0.72000003"
     width="0.72000003"
     y="2.392"
     x="1.455"
     id="connector0pin" />
  <rect
     style="fill:none"
     height="0.72000003"
     width="0.72100002"
     y="2.392"
     x="28.165001"
     id="connector1pin" />
  <line
     style="fill:none;stroke:#8c8c8c;stroke-width:2.91000009;stroke-linecap:round"
     y2="3.4389999"
     x2="1.855"
     y1="3.4389999"
     x1="1.455"
     id="connector0leg" />
  <line
     style="fill:none;stroke:#8c8c8c;stroke-width:2.91000009;stroke-linecap:round"
     y2="3.4389999"
     x2="29.799999"
     y1="3.4389999"
     x1="30.200001"
     id="connector1leg" />
  <path
     style="fill:none;stroke:#8c8c8c;stroke-width:2.91000009"
     inkscape:connector-curvature="0"
     id="path222321"
     d="M 1.455,3.439 H 29.771" />
  <path
     style="fill:#7bc6b8"
     inkscape:connector-curvature="0"
     d="M 10.655,0.302 C 10.295,0.136 9.676,0.007 9.28,0.007 H 7.293 c -0.396,0 -0.72,0.324 -0.72,0.72 v 5.356 c 0,0.396 0.324,0.72 0.72,0.72 H 9.28 c 0.396,0 1.015,-0.136 1.375,-0.296 l 0.072,-0.035 c 0.36,-0.165 0.979,-0.295 1.375,-0.295 h 7.185 c 0.397,0 1.016,0.137 1.375,0.295 l 0.072,0.035 c 0.361,0.166 0.979,0.296 1.376,0.296 h 1.987 c 0.396,0 0.72,-0.323 0.72,-0.72 V 0.727 c 0,-0.396 -0.323,-0.72 -0.72,-0.72 H 22.11 c -0.397,0 -1.015,0.137 -1.376,0.295 l -0.072,0.036 c -0.359,0.166 -0.978,0.295 -1.375,0.295 h -7.185 c -0.396,0 -1.015,-0.137 -1.375,-0.295 L 10.655,0.302 z"
     id="body" />
  <rect
     style="fill:#ad9f4e"
     height="6.796"
     width="0.70300001"
     y="0"
     x="22.426001"
     id="gold_band" />
  <rect
     style="fill:#333333;fill-opacity:1"
     height="5.5370002"
     width="1.851"
     y="0.63300002"
     x="15.14"
     id="band_3" />
  <rect
     style="fill:#333333"
     height="5.5370002"
     width="1.85"
     y="0.63300002"
     x="12.16"
     id="band_2_nd" />
  <path
     style="fill:#8a3d06"
     inkscape:connector-curvature="0"
     d="m 18.004,0.636 c 0,0 1.197,0 1.4,0 0.203,0 0.438,-0.063 0.438,-0.063 v 5.672 c 0,0 -0.203,-0.065 -0.438,-0.065 -0.235,0 -1.4,-0.007 -1.4,-0.007 V 0.636 z"
     id="band_rd_multiplier" />
  <path
     style="fill:#8a3d06;fill-opacity:1"
     inkscape:connector-curvature="0"
     d="M 11.036,0.446 C 10.921,0.41 10.813,0.374 10.726,0.331 L 10.654,0.295 C 10.295,0.13 9.676,0 9.28,0 H 9.193 V 6.796 H 9.28 c 0.396,0 1.015,-0.137 1.375,-0.295 L 10.727,6.465 C 10.813,6.421 10.922,6.386 11.037,6.35 V 0.446 z"
     id="band_1_st" />
  <path
     style="fill:#000000;fill-opacity:0.4"
     inkscape:connector-curvature="0"
     d="m 24.119,3.896 0,0 c 0,0.38 -0.13,0.699 -0.295,0.699 h -1.923 c -0.38,0 -0.978,-0.056 -1.332,-0.122 L 20.496,4.457 C 20.151,4.392 19.548,4.335 19.163,4.335 h -6.947 c -0.382,0 -0.979,0.057 -1.332,0.122 L 10.812,4.472 C 10.467,4.538 9.869,4.595 9.48,4.595 H 9.163 8.162 7.852 C 7.47,4.595 7.154,4.888 7.154,5.24 v 0.247 0.159 0.173 c 0,0.36 0.316,0.646 0.698,0.646 h 1.62 c 0.381,0 0.979,-0.123 1.332,-0.268 L 10.876,6.17 c 0.346,-0.142 0.951,-0.266 1.332,-0.266 h 6.946 c 0.38,0 0.978,0.124 1.334,0.266 l 0.074,0.028 c 0.346,0.145 0.945,0.267 1.334,0.267 h 2.225 c 0.381,0 0.699,-0.295 0.699,-0.645 V 5.279 4.306 2.462 C 24.543,2.57 24.119,2.873 24.119,3.896 z"
     id="Shadow" />
  <rect
     height="3.1530001"
     width="0.70300001"
     y="3.29"
     x="22.426001"
     id="ShadowExtra" />
  <path
     style="fill:#ffffff"
     inkscape:connector-curvature="0"
     d="m 20.159,0.893 c 0.23,0 0.491,-0.101 0.662,-0.173 0.202,-0.079 0.577,-0.144 0.967,-0.144 h 1.461 c 0.225,0 0.225,0.245 0.225,0.375 0,0.13 -0.016,0.382 -0.225,0.382 h -3.061 c -0.107,0 -0.23,-0.115 -0.23,-0.224 0.006,-0.087 0.078,-0.216 0.201,-0.216 z"
     id="ReflexRight" />
  <circle
     style="fill:#ffffff"
     sodipodi:ry="0.43200001"
     sodipodi:rx="0.43200001"
     sodipodi:cy="0.94300002"
     sodipodi:cx="7.408"
     r="0.43200001"
     cy="0.94300002"
     cx="7.408"
     id="ReflexLeft" />
  <rect
     style="fill:#ffff33"
     height="1.62"
     width="0.70300001"
     y="0.23"
     x="22.426001"
     id="Reflex_gold" />
  <rect
     style="fill:#ffffff"
     height="0.74900001"
     width="0.70300001"
     y="0.58999997"
     x="22.426001"
     id="Reflex_extra" />
</svg>
