<?xml version="1.0" encoding="UTF-8" standalone="no"?>
<!-- Created with Inkscape (http://www.inkscape.org/) -->

<svg
   xmlns:dc="http://purl.org/dc/elements/1.1/"
   xmlns:cc="http://creativecommons.org/ns#"
   xmlns:rdf="http://www.w3.org/1999/02/22-rdf-syntax-ns#"
   xmlns:svg="http://www.w3.org/2000/svg"
   xmlns="http://www.w3.org/2000/svg"
   xmlns:sodipodi="http://sodipodi.sourceforge.net/DTD/sodipodi-0.dtd"
   xmlns:inkscape="http://www.inkscape.org/namespaces/inkscape"
   width="9.2606525"
   height="6.290482"
   id="svg6417"
   version="1.1"
   inkscape:version="0.48.4 r9939"
   sodipodi:docname="New document 2">
  <defs
     id="defs6419" />
  <sodipodi:namedview
     id="base"
     pagecolor="#ffffff"
     bordercolor="#666666"
     borderopacity="1.0"
     inkscape:pageopacity="0.0"
     inkscape:pageshadow="2"
     inkscape:zoom="0.35"
     inkscape:cx="-91.80621"
     inkscape:cy="17.421755"
     inkscape:document-units="px"
     inkscape:current-layer="layer1"
     showgrid="false"
     fit-margin-top="0"
     fit-margin-left="0"
     fit-margin-right="0"
     fit-margin-bottom="0"
     inkscape:window-width="463"
     inkscape:window-height="401"
     inkscape:window-x="250"
     inkscape:window-y="250"
     inkscape:window-maximized="0" />
  <metadata
     id="metadata6422">
    <rdf:RDF>
      <cc:Work
         rdf:about="">
        <dc:format>image/svg+xml</dc:format>
        <dc:type
           rdf:resource="http://purl.org/dc/dcmitype/StillImage" />
        <dc:title></dc:title>
      </cc:Work>
    </rdf:RDF>
  </metadata>
  <g
     inkscape:label="Layer 1"
     inkscape:groupmode="layer"
     id="layer1"
     transform="translate(-466.80621,-543.49346)">
    <g
       id="g1026"
       transform="matrix(1.2499999,0,0,1.2499999,376.8467,458.7669)">
      <title
         id="title1028">polygon</title>
      <path
         style="fill:none;stroke:#ffffff;stroke-width:0.21600001;stroke-linecap:round"
         inkscape:connector-curvature="0"
         id="path1030"
         d="m 73.2276,68.7742 0.2268,0 m 0,0 0.085,0.0284 m 0,0 0.0849,0.0282 m 0,0 0.0569,0.0851 m 0,0 0.0281,0.085 m 0,0 0,0.1984 m 0,0 -0.0569,0.1134 m 0,0 -0.0562,0.1134 m 0,0 -0.0568,0.0851 m 0,0 -0.085,0.1134 m 0,0 -0.0569,0.085 m 0,0 -0.0849,0.085 m 0,0 -0.1138,0.0567 m 0,0 -0.085,0.0567 m 0,0 -0.113,0.0284 m 0,0 -0.085,0.0283 m 0,0 -0.0849,-0.0283 m 0,0 -0.0569,-0.0284 m 0,0 -0.085,-0.0283 m 0,0 -0.0849,-0.0567 m 0,0 -0.0857,-0.1134 m 0,0 -0.0562,-0.1134 m 0,0 -0.0288,-0.1417 m 0,0 -0.028,-0.1134 m 0,0 0,-0.085 m 0,0 0.028,-0.0851 m 0,0 0,-0.085 m 0,0 -0.028,0.0283 m 0,0 -0.085,0.1134 m 0,0 -0.085,0.1701 m 0,0 -0.0849,0.2268 m 0,0 -0.085,0.2551 m 0,0 0,0.2834 m 0,0 0.0562,0.3119 m 0,0 0.1706,0.3118 m 0,0 0.2261,0.2551 m 0,0 0.1987,0.1417 m 0,0 0.2549,0.0851 m 0,0 0.2268,0 m 0,0 0.2556,-0.0567 m 0,0 0.2549,-0.1417 m 0,0 0.2268,-0.1985 m 0,0 0.2549,-0.2268 m 0,0 0.2268,-0.1984 m 0,0 0.1987,-0.085 m 0,0 0.198,0 m 0,0 0.1706,0.0566 m 0,0 0.1419,0.1134 m 0,0 0.113,0.1702 m 0,0 0.0569,0.2267 m 0,0 0,0.2268 m 0,0 -0.0288,0.1417 m 0,0 -0.0562,0.1418 m 0,0 -0.0569,0.085 m 0,0 -0.0849,0.085 m 0,0 -0.1138,0.0567 m 0,0 -0.0849,0.0284 m 0,0 -0.085,0 m 0,0 -0.085,-0.0284 m 0,0 -0.0849,-0.0567 m 0,0 -0.0569,-0.0566 m 0,0 -0.0569,-0.0568 m 0,0 -0.0281,-0.085 m 0,0 -0.028,-0.0567 m 0,0 -0.0288,-0.0567 m 0,0 -0.0281,-0.0283 m 0,0 -0.0281,0.0567 m 0,0 0,0.0566 m 0,0 -0.0288,0.1134 m 0,0 0,0.2268 m 0,0 0.0288,0.1701 m 0,0 0.0562,0.1415 m 0,0 0.0568,0.1419 m 0,0 0.085,0.1137 m 0,0 0.085,0.1412 m 0,0 0.1418,0.0856 m 0,0 0.1699,0.085 m 0,0 0.1707,0.0562 m 0,0 0.2548,0.0288 m 0,0 0.2549,0.028 m 0,0 3.6288,0 m 0,0 0,-0.028 m 0,0 -0.0857,-0.0569 m 0,0 -0.0849,-0.085 m 0,0 -0.1131,-0.0849 m 0,0 -0.1418,-0.1419 m 0,0 -0.1699,-0.1418 m 0,0 -0.1699,-0.1699 m 0,0 -0.1988,-0.1419 m 0,0 -0.1987,-0.1984 m 0,0 -0.1699,-0.1701 m 0,0 -0.1699,-0.1417 m 0,0 -0.1138,-0.1417 m 0,0 -0.113,-0.1417 m 0,0 -0.085,-0.1418 m 0,0 -0.0288,-0.1701 m 0,0 0,-0.5385 m 0,0 -0.0561,-0.3402 m 0,0 -0.085,-0.3119 m 0,0 -0.1138,-0.2834 m 0,0 -0.1699,-0.2835 m 0,0 -0.1987,-0.2267 m 0,0 -0.2268,-0.2268 m 0,0 -0.2549,-0.1984 m 0,0 -0.5105,-0.2835 m 0,0 -0.5097,-0.1417 m 0,0 -0.5105,-0.0284 m 0,0 -0.4536,0.0851 m 0,0 -0.3967,0.1417 m 0,0 -0.3399,0.1985 m 0,0 -0.2556,0.2267 m 0,0 -0.113,0.2268 m 5.9897,3.94 0,-0.0604 m -0.216,0.0604 0,-0.2404 m -0.216,0.2404 0,-0.4428 m -0.216,0.4428 0,-0.6393 m -0.216,0.6393 0,-0.8134 m -0.216,0.8134 0,-1.0147 m -0.216,1.0147 0,-1.2287 m -0.216,1.2287 0,-1.4328 m -0.216,1.4328 0,-1.7224 m -0.216,1.7224 0,-3.1662 m -0.216,3.1662 0,-3.6141 m -0.216,3.6141 0,-3.8921 m -0.216,3.8921 0,-4.114 m -0.216,4.114 0,-4.2938 m -0.216,4.2938 0,-4.4342 m -0.216,4.4342 0,-4.5542 m -0.216,4.5542 0,-4.6615 m -0.216,4.6515 0,-4.7114 m -0.216,4.6876 0,-4.7476 m -0.216,4.7202 0,-1.0872 m 0,-1.045 0,-2.6072 m -0.216,4.6574 0,-0.8856 m 0,-1.2964 0,-2.4874 m -0.216,4.5513 0,-0.801 m 0,-1.2903 0,-2.4464 m -0.216,4.2367 0,-0.7608 m 0,-0.9647 0,-2.4707 m -0.216,2.6387 0,-2.584 m -0.216,2.7752 0,-2.698 m -0.216,2.8884 0,-2.7844 m -0.216,2.9388 0,-1.7145 m 0,-0.5928 0,-0.5055 m -0.216,2.9098 0,-1.5053 m 0,-0.9479 0,-0.2661 m -0.216,2.7606 0,-1.3973 m -0.216,1.3908 0,-1.31 m -0.216,1.238 0,-1.2945 m -0.216,1.1478 0,-1.3309 m -0.216,1.0888 0,-1.5431 m -0.216,1.0358 0,-0.4859" />
    </g>
  </g>
</svg>
