<?xml version="1.0" encoding="UTF-8" standalone="no"?>
<!-- Generator: Adobe Illustrator 16.0.0, SVG Export Plug-In . SVG Version: 6.00 Build 0)  -->

<svg
   xmlns:dc="http://purl.org/dc/elements/1.1/"
   xmlns:cc="http://creativecommons.org/ns#"
   xmlns:rdf="http://www.w3.org/1999/02/22-rdf-syntax-ns#"
   xmlns:svg="http://www.w3.org/2000/svg"
   xmlns="http://www.w3.org/2000/svg"
   xmlns:sodipodi="http://sodipodi.sourceforge.net/DTD/sodipodi-0.dtd"
   xmlns:inkscape="http://www.inkscape.org/namespaces/inkscape"
   version="1.1"
   id="Ebene_1"
   x="0px"
   y="0px"
   width="10.635448"
   height="10.65924"
   viewBox="0 0 10.635448 10.659239"
   xml:space="preserve"
   inkscape:version="0.48.4 r9939"
   sodipodi:docname="Si7021.svg"><metadata
   id="metadata207984"><rdf:RDF><cc:Work
       rdf:about=""><dc:format>image/svg+xml</dc:format><dc:type
         rdf:resource="http://purl.org/dc/dcmitype/StillImage" /><dc:title></dc:title></cc:Work></rdf:RDF></metadata><defs
   id="defs207982">
	
	
	
	
	
	
	
	
	
	
	
	
	
	
</defs><sodipodi:namedview
   pagecolor="#ffffff"
   bordercolor="#666666"
   borderopacity="1"
   objecttolerance="10"
   gridtolerance="10"
   guidetolerance="10"
   inkscape:pageopacity="0"
   inkscape:pageshadow="2"
   inkscape:window-width="1920"
   inkscape:window-height="1058"
   id="namedview207980"
   showgrid="false"
   inkscape:zoom="43.281654"
   inkscape:cx="12.191307"
   inkscape:cy="6.8564036"
   inkscape:window-x="1912"
   inkscape:window-y="-8"
   inkscape:window-maximized="1"
   inkscape:current-layer="Ebene_1"
   fit-margin-top="0"
   fit-margin-left="0"
   fit-margin-right="0"
   fit-margin-bottom="0" />




<rect
   style="fill:#303030"
   x="1.0530866e-007"
   y="0.029317377"
   width="10.629921"
   height="10.629921"
   id="rect209423" /><polygon
   style="fill:#1f1f1f"
   points="19.161,14.839 0,14.839 0.719,14.118 18.437,14.118 "
   id="polygon209425"
   transform="matrix(0.55505704,0,0,1,-1.2403743e-8,-4.1797614)" /><polygon
   style="fill:#1f1f1f"
   points="19.161,4.896 0,4.896 0.719,5.619 18.437,5.619 "
   id="polygon209427"
   transform="matrix(0.55505704,0,0,1.0720345,-1.240374e-8,-5.2486809)" /><polygon
   points="19.161,4.896 18.437,5.619 18.437,14.118 19.161,14.839 "
   id="polygon209429"
   transform="matrix(0.68270609,0,0,1.0720345,-2.4458832,-5.2486809)" /><polygon
   style="fill:#3d3d3d"
   points="0,14.839 0,4.896 0.719,5.619 0.719,14.118 "
   id="polygon209431"
   transform="matrix(1,0,0,1.0720345,-1.240374e-8,-5.2486809)" /><path
   style="fill:#e6e6e6;fill-opacity:1;fill-rule:nonzero;stroke:#000000;stroke-width:0;stroke-miterlimit:4;stroke-opacity:1"
   d="M 9.5976388,9.1616256 C 9.3221854,9.3238606 1.7425315,9.3742986 1.4944072,9.1764576 1.2462829,8.9786176 1.2220208,1.4398056 1.344126,1.1552977 1.4662252,0.87078979 6.6635773,0.94148119 6.9871662,0.96348649 7.3107551,0.98549219 9.705589,2.8497634 9.7834739,3.1478713 9.8613576,3.4459792 9.8730928,8.9993906 9.5976388,9.1616256 z"
   id="path209562"
   inkscape:connector-curvature="0"
   sodipodi:nodetypes="sscsss" /><path
   style="fill:#f9f9f9;fill-opacity:1;fill-rule:nonzero;stroke:#000000;stroke-width:0;stroke-miterlimit:4;stroke-opacity:1"
   d="M 9.1345916,9.1041556 C 8.8754968,9.2610136 1.7459805,9.3097796 1.5125928,9.1184956 1.2792041,8.9272106 1.2563832,1.6382489 1.371236,1.3631701 1.4860846,1.0880913 6.3747778,1.1564399 6.6791489,1.1777157 6.983521,1.1989926 9.236131,3.0014781 9.3093904,3.2897062 9.3826493,3.5779344 9.3936871,8.9472956 9.1345916,9.1041546 z"
   id="path209562-1"
   inkscape:connector-curvature="0"
   sodipodi:nodetypes="sscsss" /><path
   style="fill:#ffffff;fill-opacity:1;fill-rule:nonzero;stroke:#000000;stroke-width:0;stroke-miterlimit:4;stroke-opacity:1"
   d="m 1.7082148,9.0288396 c -0.01223,0.150586 -0.34875,0.197402 -0.3597662,0.01377 -0.011016,-0.183634 -0.012093,-7.1811054 -0.00667,-7.4451837 0.00542,-0.264078 0.2361723,-0.1984627 0.250539,-0.1780378 0.014367,0.020426 0.1206921,1.7508287 0.1241501,2.0275303 0.00346,0.2767018 0.00398,5.4313382 -0.00825,5.5819242 z"
   id="path209562-1-5"
   inkscape:connector-curvature="0"
   sodipodi:nodetypes="sscsss" /></svg>