<?xml version="1.0" encoding="UTF-8" standalone="no"?>
<!-- Created with Inkscape (http://www.inkscape.org/) -->

<svg
   xmlns:dc="http://purl.org/dc/elements/1.1/"
   xmlns:cc="http://creativecommons.org/ns#"
   xmlns:rdf="http://www.w3.org/1999/02/22-rdf-syntax-ns#"
   xmlns:svg="http://www.w3.org/2000/svg"
   xmlns="http://www.w3.org/2000/svg"
   xmlns:sodipodi="http://sodipodi.sourceforge.net/DTD/sodipodi-0.dtd"
   xmlns:inkscape="http://www.inkscape.org/namespaces/inkscape"
   width="38.830959"
   height="10.198152"
   id="svg4761"
   version="1.1"
   inkscape:version="0.48.4 r9939"
   sodipodi:docname="New document 2">
  <defs
     id="defs4763" />
  <sodipodi:namedview
     id="base"
     pagecolor="#ffffff"
     bordercolor="#666666"
     borderopacity="1.0"
     inkscape:pageopacity="0.0"
     inkscape:pageshadow="2"
     inkscape:zoom="0.35"
     inkscape:cx="182.98778"
     inkscape:cy="93.676787"
     inkscape:document-units="px"
     inkscape:current-layer="layer1"
     showgrid="false"
     fit-margin-top="0"
     fit-margin-left="0"
     fit-margin-right="0"
     fit-margin-bottom="0"
     inkscape:window-width="463"
     inkscape:window-height="423"
     inkscape:window-x="200"
     inkscape:window-y="200"
     inkscape:window-maximized="0" />
  <metadata
     id="metadata4766">
    <rdf:RDF>
      <cc:Work
         rdf:about="">
        <dc:format>image/svg+xml</dc:format>
        <dc:type
           rdf:resource="http://purl.org/dc/dcmitype/StillImage" />
        <dc:title></dc:title>
      </cc:Work>
    </rdf:RDF>
  </metadata>
  <g
     inkscape:label="Layer 1"
     inkscape:groupmode="layer"
     id="layer1"
     transform="translate(-192.01222,-615.84082)">
    <g
       transform="matrix(1.2499998,0,0,1.2499998,162.01364,542.561)"
       id="g582">
      <g
         id="g584">
        <g
           id="g546"
           gorn="0.98.0.0">
          <title
             id="title548">element:LOGO1</title>
          <g
             id="g550"
             gorn="0.98.0.0.1">
            <title
               id="title552">package:SFE_LOGO_NAME_.1</title>
            <g
               id="g554"
               gorn="0.98.0.0.1.1">
              <title
                 id="title556">polygon</title>
              <path
                 inkscape:connector-curvature="0"
                 id="path558"
                 style="fill:none;stroke:#ffffff;stroke-width:0.21600001;stroke-linecap:round"
                 d="m 25.1461,62.9816 0.0284,0.17 m 0,0 0.0567,0.1134 m 0,0 0.0566,0.1418 m 0,0 0.1134,0.085 m 0,0 0.1418,0.0567 m 0,0 0.1417,0.0567 m 0,0 0.1418,0.0283 m 0,0 0.17,0.0284 m 0,0 0.1134,-0.0284 m 0,0 0.1134,0 m 0,0 0.1417,-0.0566 m 0,0 0.1134,-0.0284 m 0,0 0.0851,-0.085 m 0,0 0.085,-0.0851 m 0,0 0.0567,-0.1134 m 0,0 0,-0.1417 m 0,0 -0.0283,-0.1134 m 0,0 -0.0568,-0.085 m 0,0 -0.085,-0.085 m 0,0 -0.1417,-0.0851 m 0,0 -0.1984,-0.0567 m 0,0 -0.1985,-0.0567 m 0,0 -0.2551,-0.0567 m 0,0 -0.2834,-0.0567 m 0,0 -0.2268,-0.085 m 0,0 -0.2268,-0.0567 m 0,0 -0.2268,-0.0851 m 0,0 -0.1984,-0.1134 m 0,0 -0.1418,-0.1417 m 0,0 -0.1416,-0.1417 m 0,0 -0.0851,-0.2268 m 0,0 -0.0283,-0.2268 m 0,0 0.0567,-0.3684 m 0,0 0.1133,-0.2835 m 0,0 0.1702,-0.1984 m 0,0 0.2267,-0.1701 m 0,0 0.2551,-0.1417 m 0,0 0.2834,-0.0851 m 0,0 0.3119,-0.0283 m 0,0 0.3402,-0.0284 m 0,0 0.3117,0.0284 m 0,0 0.3119,0.0283 m 0,0 0.2834,0.0851 m 0,0 0.2551,0.1417 m 0,0 0.2268,0.1701 m 0,0 0.1985,0.2268 m 0,0 0.1134,0.2834 m 0,0 0.0566,0.3119 m 0,0 -1.0488,0 m 0,0 -0.0284,-0.1418 m 0,0 -0.0283,-0.1134 m 0,0 -0.085,-0.085 m 0,0 -0.085,-0.0851 m 0,0 -0.1134,-0.0566 m 0,0 -0.1134,-0.0284 m 0,0 -0.1418,-0.0284 m 0,0 -0.2551,0 m 0,0 -0.085,0.0284 m 0,0 -0.1134,0 m 0,0 -0.0851,0.0284 m 0,0 -0.085,0.0566 m 0,0 -0.085,0.0567 m 0,0 -0.0284,0.0851 m 0,0 -0.0284,0.1133 m 0,0 0.0284,0.1418 m 0,0 0.085,0.1134 m 0,0 0.1134,0.085 m 0,0 0.1701,0.0567 m 0,0 0.1984,0.0567 m 0,0 0.1985,0.0567 m 0,0 0.2268,0.0283 m 0,0 0.2267,0.0567 m 0,0 0.2552,0.0567 m 0,0 0.2267,0.0851 m 0,0 0.1984,0.085 m 0,0 0.1985,0.1133 m 0,0 0.17,0.1418 m 0,0 0.1134,0.1701 m 0,0 0.0851,0.2268 m 0,0 0.0283,0.2551 m 0,0 -0.0283,0.3685 m 0,0 -0.1417,0.2834 m 0,0 -0.1702,0.2552 m 0,0 -0.2267,0.1701 m 0,0 -0.2835,0.1417 m 0,0 -0.3118,0.1134 m 0,0 -0.3401,0.0566 m 0,0 -0.6804,0 m 0,0 -0.3402,-0.0566 m 0,0 -0.3117,-0.1134 m 0,0 -0.2835,-0.1417 m 0,0 -0.2268,-0.1701 m 0,0 -0.1984,-0.2552 m 0,0 -0.1134,-0.3117 m 0,0 -0.0567,-0.3402 m 0,0 0.9071,0 m 0,0 0.1417,0 m -0.1791,1.2143 2.0024,0 m -2.3819,-0.216 2.7613,0 m -2.98,-0.216 3.1849,0 m -3.3174,-0.216 1.3053,0 m 0.9374,0 1.2044,0 m -3.5257,-0.216 1.1003,0 m 1.4138,0 1.112,0 m -3.6641,-0.216 1.0488,0 m 1.5349,0 1.097,0 m -1.2052,-0.216 1.2064,0 m -1.6562,-0.216 1.621,0 m -2.4687,-0.216 2.3785,0 m -2.9849,-0.216 2.7995,0 m -3.0635,-0.216 2.6982,0 m -2.8614,-0.216 2.1599,0 m -2.2225,-0.216 1.3472,0 m -1.3567,-0.216 1.123,0 m 1.3266,0 1.0495,0 m -3.4658,-0.216 1.0827,0 m 1.2849,0 1.0588,0 m -3.3621,-0.216 1.2021,0 m 0.8473,0 1.2397,0 m -3.1757,-0.216 3.0479,0 m -2.8263,-0.216 2.6022,0 m -2.2571,-0.216 1.9119,0"
                 gorn="0.98.0.0.1.1.1" />
            </g>
            <g
               id="g560"
               gorn="0.98.0.0.1.2">
              <title
                 id="title562">polygon</title>
              <path
                 inkscape:connector-curvature="0"
                 id="path564"
                 style="fill:none;stroke:#ffffff;stroke-width:0.21600001;stroke-linecap:round"
                 d="m 31.1273,62.9816 0.0566,-0.2268 m 0,0 0.0284,-0.2268 m 0,0 0.0284,-0.2551 m 0,0 1.0771,0.0283 m 0,0 -0.0283,0.3969 m 0,0 -0.0568,0.3969 m 0,0 -0.1417,0.3401 m 0,0 -0.9637,-0.4535 m 0.7444,0.3503 0.2623,0 m -0.7213,-0.216 0.8113,0 m -1.0764,-0.216 1.113,0 m -1.0678,-0.216 1.0977,0 m -1.0715,-0.216 1.0869,0"
                 gorn="0.98.0.0.1.2.1" />
            </g>
            <g
               id="g566"
               gorn="0.98.0.0.1.3">
              <title
                 id="title568">polygon</title>
              <path
                 inkscape:connector-curvature="0"
                 id="path570"
                 style="fill:none;stroke:#ffffff;stroke-width:0.21600001;stroke-linecap:round"
                 d="m 32.091,63.4351 -0.1984,0.3118 m 0,0 -0.2552,0.2551 m 0,0 -0.2834,0.1985 m 0,0 -0.3685,0.1417 m 0,0 -0.4252,0.0283 m 0,0 -0.17,0 m 0,0 -0.1702,-0.0283 m 0,0 -0.17,-0.0567 m 0,0 -0.1701,-0.0567 m 0,0 -0.1418,-0.085 m 0,0 -0.1417,-0.1134 m 0,0 -0.1134,-0.1134 m 0,0 -0.1134,-0.1417 m 0,0 0,2.8913 m 0,0 -0.1417,-0.1134 m 0,0 -0.1417,-0.1417 m 0,0 -0.1417,-0.1134 m 0,0 -0.1418,-0.1134 m 0,0 -0.1417,-0.1417 m 0,0 -0.1134,-0.1134 m 0,0 -0.1417,-0.1134 m 0,0 -0.1418,-0.1417 m 0,0 0,-5.2157 m 0,0 0.1418,-0.0284 m 0,0 0.1133,-0.0284 m 0,0 0.1418,-0.0283 m 0,0 0.1134,0 m 0,0 0.1417,-0.0283 m 0,0 0.1418,-0.0284 m 0,0 0.1133,-0.0283 m 0,0 0.1418,-0.0284 m 0,0 0,0.5102 m 0,0 0.1134,-0.1417 m 0,0 0.1134,-0.1417 m 0,0 0.1417,-0.0851 m 0,0 0.1417,-0.085 m 0,0 0.1701,-0.085 m 0,0 0.1701,-0.0284 m 0,0 0.17,-0.0283 m 0,0 0.1701,-0.0284 m 0,0 0.4536,0.0567 m 0,0 0.3685,0.1418 m 0,0 0.3117,0.1984 m 0,0 0.2552,0.2551 m 0,0 0.1984,0.3402 m 0,0 0.1417,0.3685 m 0,0 0.0851,0.3968 m 0,0 0,0.3968 m 0,0 -1.0771,-0.0283 m 0,0 -0.0284,-0.2268 m 0,0 -0.0284,-0.2268 m 0,0 -0.085,-0.2267 m 0,0 -0.085,-0.1984 m 0,0 -0.1417,-0.1701 m 0,0 -0.1702,-0.1134 m 0,0 -0.1984,-0.085 m 0,0 -0.2267,-0.0284 m 0,0 -0.2551,0.0284 m 0,0 -0.1985,0.085 m 0,0 -0.1701,0.1134 m 0,0 -0.1417,0.1701 m 0,0 -0.085,0.1984 m 0,0 -0.0568,0.2267 m 0,0 -0.0566,0.2268 m 0,0 0,0.4819 m 0,0 0.0566,0.2268 m 0,0 0.0568,0.2268 m 0,0 0.1134,0.17 m 0,0 0.1133,0.1702 m 0,0 0.1701,0.1133 m 0,0 0.1985,0.085 m 0,0 0.2551,0.0284 m 0,0 0.2551,-0.0284 m 0,0 0.1984,-0.085 m 0,0 0.1701,-0.1133 m 0,0 0.1134,-0.1702 m 0,0 0.1134,-0.17 m 0,0 0.9637,0.4535 m -2.8396,3.1368 0.1183,0 m -0.3528,-0.216 0.3528,0 m -0.6117,-0.216 0.6117,0 m -0.829,-0.216 0.829,0 m -1.072,-0.216 1.072,0 m -1.1055,-0.216 1.1055,0 m -1.1055,-0.216 1.1055,0 m -1.1055,-0.216 1.1055,0 m -1.1055,-0.216 1.1055,0 m -1.1055,-0.216 1.1055,0 m -1.1055,-0.216 1.1055,0 m -1.1055,-0.216 1.1055,0 m 0.4555,0 1.5353,0 m -3.0963,-0.216 1.1055,0 m 0.1764,0 2.1135,0 m -3.3954,-0.216 3.6114,0 m -3.6114,-0.216 2.0076,0 m 0.0102,0 1.7373,0 m -3.7551,-0.216 1.4043,0 m 1.2167,0 0.9865,0 m -3.6075,-0.216 1.2518,0 m 1.5217,0 0.375,0 m -3.1485,-0.216 1.1418,0 m -1.1418,-0.216 1.0878,0 m -1.0878,-0.216 1.0489,0 m -1.0489,-0.216 1.0489,0 m 1.9249,0 1.0798,0 m -4.0536,-0.216 1.0514,0 m 1.8954,0 1.1068,0 m -4.0536,-0.216 1.1054,0 m 1.8144,0 1.1157,0 m -4.0355,-0.216 1.1594,0 m 1.6795,0 1.1503,0 m -3.9892,-0.216 1.2525,0 m 1.492,0 1.178,0 m -3.9225,-0.216 1.4673,0 m 1.0624,0 1.3097,0 m -3.8394,-0.216 3.72,0 m -3.72,-0.216 1.0489,0 m 0.0245,0 2.496,0 m -3.5694,-0.216 1.0489,0 m 0.1973,0 2.0959,0 m -2.512,-0.216 0.2188,0 m 0.5284,0 1.3868,0"
                 gorn="0.98.0.0.1.3.1" />
            </g>
            <g
               id="g599"
               gorn="0.98.0.0.1.4">
              <title
                 id="title574">polygon</title>
              <path
                 inkscape:connector-curvature="0"
                 id="path576"
                 style="fill:none;stroke:#ffffff;stroke-width:0.21600001;stroke-linecap:round"
                 d="m 33.9903,61.9895 0.2551,-0.0568 m 0,0 0.2551,-0.0283 m 0,0 0.2268,-0.0283 m 0,0 0.1134,0.5952 m 0,0 -0.0568,0.0284 m 0,0 -0.1134,0 m 0,0 -0.085,0.0283 m 0,0 -0.1133,0 m 0,0 -0.0851,0.0284 m 0,0 -0.0567,0 m 0,0 -0.0567,0.0283 m 0,0 -0.0567,0 m 0,0 -0.2267,-0.5952 m 0.1822,0.4784 0.6675,0 m -0.7497,-0.216 0.7085,0 m -0.7908,-0.216 0.7497,0"
                 gorn="0.98.0.0.1.4.1" />
            </g>
            <g
               id="g578"
               gorn="0.98.0.0.1.5">
              <title
                 id="title580">polygon</title>
              <path
                 inkscape:connector-curvature="0"
                 id="path582"
                 style="fill:none;stroke:#ffffff;stroke-width:0.21600001;stroke-linecap:round"
                 d="m 34.217,62.5847 -0.0567,0.0284 m 0,0 -0.0567,0.0283 m 0,0 -0.0567,0.0283 m 0,0 -0.0566,0.0284 m 0,0 -0.0568,0.0284 m 0,0 -0.0283,0.0283 m 0,0 -0.0283,0.0283 m 0,0 -0.0568,0.0568 m 0,0 -0.0283,0.0566 m 0,0 -0.0283,0.0567 m 0,0 0,0.1134 m 0,0 -0.0284,0.085 m 0,0 0.0284,0.0568 m 0,0 0,0.0566 m 0,0 0.0283,0.0851 m 0,0 0,0.0283 m 0,0 0.0283,0.0567 m 0,0 0.0568,0.0567 m 0,0 0.0283,0.0283 m 0,0 0.0567,0.0284 m 0,0 0.0284,0.0284 m 0,0 0.0566,0.0283 m 0,0 0.0567,0 m 0,0 0.0567,0.0283 m 0,0 0.4252,0 m 0,0 0.1134,-0.0283 m 0,0 0.1134,-0.0283 m 0,0 0.1134,-0.0284 m 0,0 0.085,-0.0567 m 0,0 0.0851,-0.085 m 0,0 0.0566,-0.0567 m 0,0 0.0284,-0.0851 m 0,0 0.0566,-0.0566 m 0,0 0.0284,-0.0851 m 0,0 0,-0.0851 m 0,0 0.0284,-0.0566 m 0,0 0,-0.0851 m 0,0 0.0284,-0.0566 m 0,0 0,-0.5387 m 0,0 -0.0568,0.0284 m 0,0 -0.0284,0.0284 m 0,0 -0.0566,0.0283 m 0,0 -0.0284,0.0283 m 0,0 -0.0566,0 m 0,0 -0.0567,0.0284 m 0,0 -0.0567,0.0283 m 0,0 -0.1417,0 m 0,0 -0.1134,-0.5952 m 0,0 0.1984,-0.0284 m 0,0 0.1701,-0.0567 m 0,0 0.1134,-0.085 m 0,0 0.085,-0.1134 m 0,0 0.0284,-0.1418 m 0,0 0,-0.085 m 0,0 -0.0284,-0.085 m 0,0 0,-0.0567 m 0,0 -0.0284,-0.0567 m 0,0 -0.0284,-0.0567 m 0,0 -0.0566,-0.0567 m 0,0 -0.0284,-0.0283 m 0,0 -0.0566,-0.0284 m 0,0 -0.0567,-0.0283 m 0,0 -0.0567,-0.0283 m 0,0 -0.0567,0 m 0,0 -0.0567,-0.0284 m 0,0 -0.1985,0 m 0,0 -0.0566,-0.0284 m 0,0 -0.0851,0.0284 m 0,0 -0.1417,0 m 0,0 -0.0851,0.0284 m 0,0 -0.0566,0 m 0,0 -0.0567,0.0283 m 0,0 -0.0567,0.0283 m 0,0 -0.0284,0.0284 m 0,0 -0.0567,0.0567 m 0,0 -0.0283,0.0283 m 0,0 -0.0567,0.0567 m 0,0 -0.0284,0.0567 m 0,0 -0.0283,0.0567 m 0,0 0,0.085 m 0,0 -0.0283,0.0568 m 0,0 0,0.085 m 0,0 -1.1056,0 m 0,0 0.0284,-0.1984 m 0,0 0.0283,-0.1418 m 0,0 0.0567,-0.1701 m 0,0 0.085,-0.1417 m 0,0 0.0851,-0.1134 m 0,0 0.1134,-0.1134 m 0,0 0.1134,-0.085 m 0,0 0.1134,-0.085 m 0,0 0.1417,-0.0851 m 0,0 0.1417,-0.0567 m 0,0 0.1417,-0.0567 m 0,0 0.1702,-0.0283 m 0,0 0.17,-0.0284 m 0,0 0.1701,-0.0283 m 0,0 0.6236,0 m 0,0 0.1701,0.0283 m 0,0 0.1417,0 m 0,0 0.1418,0.0284 m 0,0 0.17,0.0567 m 0,0 0.1134,0.0283 m 0,0 0.1417,0.0567 m 0,0 0.1134,0.0567 m 0,0 0.1134,0.085 m 0,0 0.1134,0.1134 m 0,0 0.0851,0.0851 m 0,0 0.0566,0.1417 m 0,0 0.0567,0.1134 m 0,0 0.0284,0.1701 m 0,0 0.0283,0.1701 m 0,0 0,2.5511 m 0,0 0.0284,0.0567 m 0,0 0,0.1134 m 0,0 0.0283,0.0567 m 0,0 0,0.0283 m 0,0 0.0284,0.0568 m 0,0 0,0.0283 m 0,0 0.0283,0.0567 m 0,0 0,0.0283 m 0,0 -1.1055,0 m 0,0 0,-0.0567 m 0,0 -0.0283,-0.0283 m 0,0 0,-0.0283 m 0,0 -0.0284,-0.0284 m 0,0 0,-0.1701 m 0,0 -0.0284,-0.0283 m 0,0 0,-0.0567 m 0,0 -0.0566,0.0567 m 0,0 -0.0568,0.085 m 0,0 -0.085,0.0567 m 0,0 -0.085,0.0283 m 0,0 -0.085,0.0568 m 0,0 -0.0567,0.0283 m 0,0 -0.085,0.0567 m 0,0 -0.0851,0.0283 m 0,0 -0.1134,0.0284 m 0,0 -0.085,0.0283 m 0,0 -0.085,0 m 0,0 -0.0851,0.0283 m 0,0 -0.1984,0 m 0,0 -0.0851,0.0284 m 0,0 -0.2267,0 m 0,0 -0.1418,-0.0284 m 0,0 -0.1417,0 m 0,0 -0.1134,-0.0566 m 0,0 -0.1134,-0.0284 m 0,0 -0.1134,-0.0567 m 0,0 -0.1133,-0.0566 m 0,0 -0.0851,-0.0568 m 0,0 -0.0851,-0.085 m 0,0 -0.085,-0.085 m 0,0 -0.085,-0.1134 m 0,0 -0.0567,-0.1134 m 0,0 -0.0284,-0.1134 m 0,0 -0.0283,-0.1134 m 0,0 -0.0283,-0.1417 m 0,0 0,-0.1417 m 0,0 0.0283,-0.3119 m 0,0 0.085,-0.2551 m 0,0 0.1418,-0.1984 m 0,0 0.17,-0.1701 m 0,0 0.1985,-0.1134 m 0,0 0.2268,-0.085 m 0,0 0.2551,-0.0567 m 0,0 0.2268,-0.0283 m 0,0 0.2267,0.5952 m -1.0295,1.6112 1.7473,0 m 0.4728,0 1.1055,0 m -3.5938,-0.216 2.3518,0 m 0.1081,0 1.0772,0 m -3.6907,-0.216 3.6623,0 m -3.7277,-0.216 1.2604,0 m 0.9659,0 1.5014,0 m -3.77,-0.216 1.1278,0 m 1.3727,0 1.2695,0 m -3.7617,-0.216 1.0807,0 m 1.5188,0 1.1622,0 m -3.742,-0.216 1.1041,0 m 1.5041,0 1.1338,0 m -3.6708,-0.216 1.2614,0 m 1.304,0 1.1054,0 m -3.5328,-0.216 1.2773,0 m 0.6675,0 0.1492,0 m 0.3334,0 1.1054,0 m -3.3081,-0.216 0.9703,0 m 0.7086,0 1.6292,0 m -2.7462,-0.216 0.3262,0 m 0.7497,0 1.6703,0 m -1.419,-0.216 1.419,0 m -1.1423,-0.216 1.1423,0 m -3.6396,-0.216 1.1057,0 m 1.4285,0 1.1054,0 m -3.6009,-0.216 1.1325,0 m 1.3085,0 1.137,0 m -3.4956,-0.216 1.3053,0 m 0.7982,0 1.3518,0 m -3.3077,-0.216 3.2112,0 m -2.9603,-0.216 2.76,0 m -2.3669,-0.216 1.9537,0"
                 gorn="0.98.0.0.1.5.1" />
            </g>
            <g
               id="g606"
               gorn="0.98.0.0.1.6">
              <title
                 id="title586">polygon</title>
              <path
                 inkscape:connector-curvature="0"
                 id="path588"
                 style="fill:none;stroke:#ffffff;stroke-width:0.21600001;stroke-linecap:round"
                 d="m 37.0233,60.4588 0.1417,-0.0284 m 0,0 0.1418,-0.0284 m 0,0 0.1133,-0.0283 m 0,0 0.1418,0 m 0,0 0.1417,-0.0283 m 0,0 0.1134,-0.0284 m 0,0 0.1418,-0.0283 m 0,0 0.1134,-0.0284 m 0,0 0,0.7654 m 0,0 0.0283,0 m 0,0 0.085,-0.1984 m 0,0 0.1134,-0.1701 m 0,0 0.1418,-0.1418 m 0,0 0.17,-0.1134 m 0,0 0.1701,-0.1133 m 0,0 0.1984,-0.0567 m 0,0 0.1984,-0.0567 m 0,0 0.3969,0 m 0,0 0.0283,0.0283 m 0,0 0,1.0205 m 0,0 -0.0283,0 m 0,0 -0.0567,-0.0283 m 0,0 -0.3118,0 m 0,0 -0.2834,0.0283 m 0,0 -0.2268,0.0567 m 0,0 -0.1701,0.1134 m 0,0 -0.1701,0.17 m 0,0 -0.0851,0.1985 m 0,0 -0.085,0.1984 m 0,0 -0.0567,0.2551 m 0,0 0,2.0693 m 0,0 -1.1055,0 m 0,0 0,-3.3448 m 0,0 0,-0.4819 m 0,3.7371 1.1055,0 m -1.1055,-0.216 1.1055,0 m -1.1055,-0.216 1.1055,0 m -1.1055,-0.216 1.1055,0 m -1.1055,-0.216 1.1055,0 m -1.1055,-0.216 1.1055,0 m -1.1055,-0.216 1.1055,0 m -1.1055,-0.216 1.1055,0 m -1.1055,-0.216 1.1055,0 m -1.1055,-0.216 1.1055,0 m -1.1055,-0.216 1.1456,0 m -1.1456,-0.216 1.2227,0 m -1.2227,-0.216 1.3153,0 m -1.3153,-0.216 1.5117,0 m -1.5117,-0.216 2.5795,0 m -2.5795,-0.216 1.0489,0 m 0.0581,0 1.4725,0 m -2.5795,-0.216 1.0489,0 m 0.1715,0 1.3591,0 m -2.5795,-0.216 1.0489,0 m 0.36,0 1.1706,0 m -1.7404,-0.216 0.2098,0 m 0.6796,0 0.851,0"
                 gorn="0.98.0.0.1.6.1" />
            </g>
            <g
               id="g590"
               gorn="0.98.0.0.1.7">
              <title
                 id="title592">polygon</title>
              <path
                 inkscape:connector-curvature="0"
                 id="path594"
                 style="fill:none;stroke:#ffffff;stroke-width:0.21600001;stroke-linecap:round"
                 d="m 40.0564,59.3532 1.0771,-0.6236 m 0,0 0,2.9764 m 0,0 1.3891,-1.4457 m 0,0 1.3039,0 m 0,0 -1.5024,1.474 m 0,0 1.6724,2.5512 m 0,0 -1.3323,0 m 0,0 -1.1054,-1.8142 m 0,0 -0.4253,0.4252 m 0,0 0,1.389 m 0,0 -1.0771,0 m 0,0 0,-4.9323 m 0,4.8427 1.0771,0 m 1.4762,0 1.3281,0 m -3.8814,-0.216 1.0771,0 m 1.3446,0 1.3181,0 m -3.7398,-0.216 1.0771,0 m 1.2129,0 1.3082,0 m -3.5982,-0.216 1.0771,0 m 1.0813,0 1.2982,0 m -3.4566,-0.216 1.0771,0 m 0.9496,0 1.2883,0 m -3.315,-0.216 1.0771,0 m 0.818,0 1.2783,0 m -3.1734,-0.216 1.0771,0 m 0.6864,0 1.2683,0 m -3.0318,-0.216 1.2897,0 m 0.3422,0 1.2583,0 m -2.8902,-0.216 2.7486,0 m -2.7486,-0.216 2.607,0 m -2.607,-0.216 2.4654,0 m -2.4654,-0.216 2.3238,0 m -2.3238,-0.216 1.0771,0 m 0.0981,0 1.2254,0 m -2.4006,-0.216 1.0771,0 m 0.3056,0 1.238,0 m -2.6207,-0.216 1.0771,0 m 0.5132,0 1.2506,0 m -2.8409,-0.216 1.0771,0 m 0.7207,0 1.2633,0 m -3.0611,-0.216 1.0771,0 m 0.9282,0 1.2759,0 m -3.2812,-0.216 1.0771,0 m 1.1358,0 1.2885,0 m -3.5014,-0.216 1.0771,0 m 1.3433,0 1.3011,0 m -3.7215,-0.216 1.0771,0 m -1.0771,-0.216 1.0771,0 m -1.0771,-0.216 1.0771,0 m -1.0771,-0.216 1.0771,0 m -0.8607,-0.216 0.8607,0 m -0.4876,-0.216 0.4876,0 m -0.1145,-0.216 0.1145,0"
                 gorn="0.98.0.0.1.7.1" />
            </g>
            <g
               id="g596"
               gorn="0.98.0.0.1.8">
              <title
                 id="title598">polygon</title>
              <path
                 inkscape:connector-curvature="0"
                 id="path600"
                 style="fill:none;stroke:#ffffff;stroke-width:0.21600001;stroke-linecap:round"
                 d="m 44.6769,60.9973 -1.0772,0 m 0,0 0.085,-0.085 m 0,0 0.085,-0.085 m 0,0 0.1134,-0.0851 m 0,0 0.0851,-0.1134 m 0,0 0.085,-0.085 m 0,0 0.085,-0.085 m 0,0 0.1134,-0.0851 m 0,0 0.0851,-0.1134 m 0,0 0.3402,0 m 0,0 0,-0.3118 m 0,0 0.0283,-0.2551 m 0,0 0.0567,-0.2268 m 0,0 0.1134,-0.1984 m 0,0 0.1417,-0.1701 m 0,0 0.1701,-0.1701 m 0,0 0.2268,-0.085 m 0,0 0.2834,-0.085 m 0,0 0.3119,-0.0284 m 0,0 0.2267,0 m 0,0 0.085,0.0284 m 0,0 0.2835,0 m 0,0 0,0.822 m 0,0 -0.5102,0 m 0,0 -0.085,0.0284 m 0,0 -0.0851,0.0283 m 0,0 -0.0567,0.0283 m 0,0 -0.0283,0.0851 m 0,0 -0.0284,0.0567 m 0,0 -0.0283,0.1133 m 0,0 0,0.3402 m 0,0 0.7653,0 m 0,0 0,0.737 m 0,0 -0.7653,0 m 0,0 0,3.2882 m 0,0 -1.1055,0 m 0,0 0,-2.8629 m 0,0 0,-0.4253 m 0,3.1986 1.1055,0 m -1.1055,-0.216 1.1055,0 m -1.1055,-0.216 1.1055,0 m -1.1055,-0.216 1.1055,0 m -1.1055,-0.216 1.1055,0 m -1.1055,-0.216 1.1055,0 m -1.1055,-0.216 1.1055,0 m -1.1055,-0.216 1.1055,0 m -1.1055,-0.216 1.1055,0 m -1.1055,-0.216 1.1055,0 m -1.1055,-0.216 1.1055,0 m -1.1055,-0.216 1.1055,0 m -1.1055,-0.216 1.1055,0 m -1.1055,-0.216 1.1055,0 m -1.1055,-0.216 1.1055,0 m -2.1413,-0.216 2.9066,0 m -2.6628,-0.216 2.6628,0 m -2.4746,-0.216 2.4746,0 m -2.2467,-0.216 2.2467,0 m -1.8708,-0.216 1.1055,0 m -1.0975,-0.216 1.1085,0 m -1.0798,-0.216 1.164,0 m -1.1027,-0.216 1.8295,0 m -1.6956,-0.216 1.6956,0 m -1.5012,-0.216 1.5012,0 m -1.0337,-0.216 1.0337,0"
                 gorn="0.98.0.0.1.8.1" />
            </g>
            <g
               id="g602"
               gorn="0.98.0.0.1.9">
              <title
                 id="title604">polygon</title>
              <path
                 inkscape:connector-curvature="0"
                 id="path606"
                 style="fill:none;stroke:#ffffff;stroke-width:0.21600001;stroke-linecap:round"
                 d="m 50.6012,64.2855 -1.0488,0 m 0,0 0,-0.5669 m 0,0 -0.1133,0.1701 m 0,0 -0.1418,0.1133 m 0,0 -0.1417,0.1418 m 0,0 -0.1417,0.085 m 0,0 -0.1701,0.0567 m 0,0 -0.1701,0.0567 m 0,0 -0.1701,0.0283 m 0,0 -0.1984,0.0284 m 0,0 -0.3968,-0.0567 m 0,0 -0.3119,-0.085 m 0,0 -0.2551,-0.1418 m 0,0 -0.1984,-0.17 m 0,0 -0.1418,-0.2551 m 0,0 -0.085,-0.2835 m 0,0 -0.0567,-0.3118 m 0,0 0,-2.8347 m 0,0 1.1055,0 m 0,0 0,2.4945 m 0,0 0.0284,0.1984 m 0,0 0.0567,0.1701 m 0,0 0.0567,0.1417 m 0,0 0.1133,0.1134 m 0,0 0.1134,0.0851 m 0,0 0.1418,0.0283 m 0,0 0.1984,0.0283 m 0,0 0.1985,-0.0283 m 0,0 0.17,-0.0283 m 0,0 0.1417,-0.0851 m 0,0 0.1418,-0.1417 m 0,0 0.085,-0.1417 m 0,0 0.0567,-0.1985 m 0,0 0.0284,-0.2551 m 0,0 0.0283,-0.2834 m 0,0 0,-2.0977 m 0,0 1.0771,0 m 0,0 0,3.515 m 0,0 0,0.5102 m -3.1149,-0.0896 1.5823,0 m 0.4838,0 1.0488,0 m -3.4179,-0.216 2.1417,0 m 0.2274,0 1.0488,0 m -3.559,-0.216 2.48,0 m 0.0302,0 1.0488,0 m -3.6427,-0.216 3.6427,0 m -3.6986,-0.216 1.2711,0 m 1.0567,0 1.3708,0 m -3.7378,-0.216 1.1842,0 m 1.3505,0 1.2031,0 m -3.7417,-0.216 1.1263,0 m 1.4806,0 1.1348,0 m -3.7417,-0.216 1.1055,0 m 1.526,0 1.1102,0 m -3.7417,-0.216 1.1055,0 m 1.5481,0 1.0881,0 m -3.7417,-0.216 1.1055,0 m 1.5591,0 1.0771,0 m -3.7417,-0.216 1.1055,0 m 1.5591,0 1.0771,0 m -3.7417,-0.216 1.1055,0 m 1.5591,0 1.0771,0 m -3.7417,-0.216 1.1055,0 m 1.5591,0 1.0771,0 m -3.7417,-0.216 1.1055,0 m 1.5591,0 1.0771,0 m -3.7417,-0.216 1.1055,0 m 1.5591,0 1.0771,0 m -3.7417,-0.216 1.1055,0 m 1.5591,0 1.0771,0 m -3.7417,-0.216 1.1055,0 m 1.5591,0 1.0771,0 m -3.7417,-0.216 1.1055,0 m 1.5591,0 1.0771,0 m -3.7417,-0.216 1.1055,0 m 1.5591,0 1.0771,0"
                 gorn="0.98.0.0.1.9.1" />
            </g>
            <g
               id="g608"
               gorn="0.98.0.0.1.10">
              <title
                 id="title610">polygon</title>
              <path
                 inkscape:connector-curvature="0"
                 id="path612"
                 style="fill:none;stroke:#ffffff;stroke-width:0.21600001;stroke-linecap:round"
                 d="m 51.2249,60.2603 1.0205,0 m 0,0 0,0.567 m 0,0 0.0283,0 m 0,0 0.1134,-0.1701 m 0,0 0.1134,-0.1418 m 0,0 0.17,-0.1134 m 0,0 0.1418,-0.085 m 0,0 0.1701,-0.0567 m 0,0 0.17,-0.0567 m 0,0 0.1702,-0.0283 m 0,0 0.17,-0.0284 m 0,0 0.3969,0.0567 m 0,0 0.3401,0.0851 m 0,0 0.2551,0.1417 m 0,0 0.1701,0.1701 m 0,0 0.1417,0.2551 m 0,0 0.1134,0.2835 m 0,0 0.0283,0.3117 m 0,0 0.0284,0.3685 m 0,0 0,2.4662 m 0,0 -1.1055,0 m 0,0 0,-2.4945 m 0,0 -0.0284,-0.1984 m 0,0 -0.0566,-0.17 m 0,0 -0.0851,-0.1418 m 0,0 -0.085,-0.1134 m 0,0 -0.1134,-0.085 m 0,0 -0.17,-0.0284 m 0,0 -0.1702,-0.0283 m 0,0 -0.1984,0.0283 m 0,0 -0.1984,0.0284 m 0,0 -0.1417,0.085 m 0,0 -0.1134,0.1418 m 0,0 -0.0851,0.1416 m 0,0 -0.0566,0.1985 m 0,0 -0.0568,0.2551 m 0,0 0,2.3811 m 0,0 -1.1055,0 m 0,0 0,-3.515 m 0,0 0.0284,-0.5102 m -0.0284,3.9356 1.1055,0 m 1.5591,0 1.1055,0 m -3.7701,-0.216 1.1055,0 m 1.5591,0 1.1055,0 m -3.7701,-0.216 1.1055,0 m 1.5591,0 1.1055,0 m -3.7701,-0.216 1.1055,0 m 1.5591,0 1.1055,0 m -3.7701,-0.216 1.1055,0 m 1.5591,0 1.1055,0 m -3.7701,-0.216 1.1055,0 m 1.5591,0 1.1055,0 m -3.7701,-0.216 1.1055,0 m 1.5591,0 1.1055,0 m -3.7701,-0.216 1.1055,0 m 1.5591,0 1.1055,0 m -3.7701,-0.216 1.1055,0 m 1.5591,0 1.1055,0 m -3.7701,-0.216 1.1055,0 m 1.5591,0 1.1055,0 m -3.7701,-0.216 1.1055,0 m 1.5591,0 1.1055,0 m -3.7701,-0.216 1.1243,0 m 1.5403,0 1.1055,0 m -3.7701,-0.216 1.1752,0 m 1.4627,0 1.1156,0 m -3.7535,-0.216 1.2567,0 m 1.3021,0 1.1772,0 m -3.736,-0.216 1.4138,0 m 0.9991,0 1.3035,0 m -3.7164,-0.216 3.6401,0 m -3.6383,-0.216 1.0471,0 m 0.0865,0 2.4004,0 m -3.5221,-0.216 1.0352,0 m 0.2483,0 2.0845,0 m -3.356,-0.216 1.0232,0 m 0.5941,0 1.4248,0"
                 gorn="0.98.0.0.1.10.1" />
            </g>
          </g>
        </g>
      </g>
    </g>
  </g>
</svg>
