<?xml version="1.0" encoding="UTF-8" standalone="no"?>
<!-- Created with Fritzing (http://www.fritzing.org/) -->

<svg
   xmlns:dc="http://purl.org/dc/elements/1.1/"
   xmlns:cc="http://creativecommons.org/ns#"
   xmlns:rdf="http://www.w3.org/1999/02/22-rdf-syntax-ns#"
   xmlns:svg="http://www.w3.org/2000/svg"
   xmlns="http://www.w3.org/2000/svg"
   xmlns:sodipodi="http://sodipodi.sourceforge.net/DTD/sodipodi-0.dtd"
   xmlns:inkscape="http://www.inkscape.org/namespaces/inkscape"
   width="71.345573"
   x="0in"
   version="1.2"
   y="0in"
   height="68.21109"
   viewBox="0 0 792.72856 757.90103"
   id="svg2"
   inkscape:version="0.48.4 r9939"
   sodipodi:docname="stomp_switch.svg">
  <metadata
     id="metadata226">
    <rdf:RDF>
      <cc:Work
         rdf:about="">
        <dc:format>image/svg+xml</dc:format>
        <dc:type
           rdf:resource="http://purl.org/dc/dcmitype/StillImage" />
        <dc:title></dc:title>
      </cc:Work>
    </rdf:RDF>
  </metadata>
  <defs
     id="defs224" />
  <sodipodi:namedview
     pagecolor="#ffffff"
     bordercolor="#666666"
     borderopacity="1"
     objecttolerance="10"
     gridtolerance="10"
     guidetolerance="10"
     inkscape:pageopacity="0"
     inkscape:pageshadow="2"
     inkscape:window-width="1920"
     inkscape:window-height="1018"
     id="namedview222"
     showgrid="false"
     inkscape:zoom="6.2263145"
     inkscape:cx="20.178592"
     inkscape:cy="43.302458"
     inkscape:window-x="-8"
     inkscape:window-y="-8"
     inkscape:window-maximized="1"
     inkscape:current-layer="layer1"
     fit-margin-top="0"
     fit-margin-left="0"
     fit-margin-right="0"
     fit-margin-bottom="0">
    <inkscape:grid
       type="xygrid"
       id="grid3334"
       units="in"
       empspacing="1"
       visible="true"
       enabled="true"
       snapvisiblegridlinesonly="true"
       originx="0.048838768in"
       originy="-0.21886159in" />
  </sodipodi:namedview>
  <desc
     id="desc4">Fritzing breadboard generated by brd2svg</desc>
  <g
     inkscape:groupmode="layer"
     id="layer1"
     inkscape:label="Pads"
     transform="translate(48.838753,-423.23742)">
    <g
       id="g5841"
       transform="matrix(0.85889001,0,0,0.87987352,104.98304,141.89786)">
      <rect
         y="320.31174"
         x="-178.51636"
         height="860.23096"
         width="921.80206"
         id="rect5717"
         style="fill:#949fb4;fill-opacity:1;fill-rule:nonzero;stroke:#000000;stroke-width:1.15032625;stroke-miterlimit:4;stroke-opacity:1;stroke-dasharray:none" />
      <g
         transform="matrix(0.82186248,0,0,0.7863727,-751.95259,203.11282)"
         id="g5794">
        <g
           transform="translate(724.58922,157.6123)"
           id="g10">
          <circle
             cx="533.45001"
             cy="533.47198"
             r="533.45001"
             id="circle12"
             d="M 1066.9,533.47198 C 1066.9,828.08829 828.06632,1066.922 533.45001,1066.922 238.83371,1066.922 0,828.08829 0,533.47198 0,238.85568 238.83371,0.02197266 533.45001,0.02197266 828.06632,0.02197266 1066.9,238.85568 1066.9,533.47198 z"
             sodipodi:cx="533.45001"
             sodipodi:cy="533.47198"
             sodipodi:rx="533.45001"
             sodipodi:ry="533.45001"
             style="fill:#313131" />
          <g
             id="g14"
             style="opacity:0.5">
            <circle
               cx="533.45001"
               cy="533.47198"
               r="499.577"
               id="circle16"
               d="m 1033.027,533.47198 c 0,275.90876 -223.66823,499.57702 -499.57699,499.57702 -275.90875,0 -499.576994,-223.66826 -499.576994,-499.57702 0,-275.90875 223.668244,-499.576991 499.576994,-499.576991 275.90876,0 499.57699,223.668241 499.57699,499.576991 z"
               sodipodi:cx="533.45001"
               sodipodi:cy="533.47198"
               sodipodi:rx="499.577"
               sodipodi:ry="499.577"
               style="fill:#161616" />
          </g>
          <circle
             cx="533.45001"
             cy="533.47198"
             r="472.79999"
             id="circle18"
             d="m 1006.25,533.47198 c 0,261.12023 -211.67976,472.80002 -472.79999,472.80002 -261.12022,0 -472.799986,-211.67979 -472.799986,-472.80002 0,-261.12022 211.679766,-472.799983 472.799986,-472.799983 261.12023,0 472.79999,211.679763 472.79999,472.799983 z"
             sodipodi:cx="533.45001"
             sodipodi:cy="533.47198"
             sodipodi:rx="472.79999"
             sodipodi:ry="472.79999"
             style="fill:#161616" />
          <circle
             cx="533.43597"
             cy="533.47198"
             r="428.16299"
             id="circle20"
             d="m 961.59897,533.47198 c 0,236.4679 -191.6951,428.163 -428.163,428.163 -236.46789,0 -428.16299,-191.6951 -428.16299,-428.163 0,-236.46789 191.6951,-428.16299 428.16299,-428.16299 236.4679,0 428.163,191.6951 428.163,428.16299 z"
             sodipodi:cx="533.43597"
             sodipodi:cy="533.47198"
             sodipodi:rx="428.16299"
             sodipodi:ry="428.16299" />
          <circle
             cx="533.43597"
             cy="533.47198"
             r="403.99701"
             id="circle22"
             d="m 937.43298,533.47198 c 0,223.12139 -180.87562,403.99701 -403.99701,403.99701 -223.12138,0 -403.99701,-180.87562 -403.99701,-403.99701 0,-223.12138 180.87563,-403.997 403.99701,-403.997 223.12139,0 403.99701,180.87562 403.99701,403.997 z"
             sodipodi:cx="533.43597"
             sodipodi:cy="533.47198"
             sodipodi:rx="403.99701"
             sodipodi:ry="403.99701"
             style="fill:#313131" />
          <g
             id="g24"
             style="opacity:0.3">
            <path
               d="M 588.087,133.167 C 367.013,102.986 163.341,257.708 133.161,478.791 102.9678,699.902 257.725,903.569 478.8,933.763 699.86,963.9435 903.533,809.194 933.726,588.097 963.891,367 809.161,163.347 588.087,133.167 z M 772.816,848.513 C 608.239,973.541 367.708,933.8185 235.505,759.8186 103.302,585.8046 129.509,343.4026 294.0859,218.3746 458.6349,93.3466 699.1669,133.0691 831.3699,307.0968 963.558,481.083 937.35,723.472 772.816,848.513 z"
               id="path26"
               inkscape:connector-curvature="0"
               style="fill:#ffffff" />
          </g>
          <g
             id="g28"
             style="opacity:0.05">
            <path
               d="M 755.691,332.194 C 864.937,445.638 902.768,600.416 868.867,737.569 940.6141,608.25 931.0033,438.264 831.3685,307.111 699.18,133.111 458.634,93.3888 294.071,218.417 c -2.69433,2.04167 -5.24978,4.20833 -7.87468,6.33333 C 440.079,162.375 627.946,199.555 755.691,332.194 z"
               id="path30"
               inkscape:connector-curvature="0"
               style="fill:#ffffff" />
          </g>
          <g
             id="g32"
             style="opacity:0.05">
            <path
               d="m 803.675,318.264 c 97.996,129 115.842,292.597 60.6781,427.083 C 940.9194,615.125 933.017,440.93 831.3683,307.111 750.053,200.083 627.752,143.958 507.34,145.625 c 112.051,13.819 220.575,72.917 296.335,172.639 z"
               id="path34"
               inkscape:connector-curvature="0"
               style="fill:#ffffff" />
          </g>
          <g
             id="g36"
             style="opacity:0.2">
            <path
               d="m 152.119,487.166 c -6.09697,93.0972 20.9714,190.5 83.3855,272.667 74.6775,98.2916 183.923,153.694 294.53,160.792 C 317.168,879.236 166.34,702.569 152.119,487.166 z"
               id="path38"
               inkscape:connector-curvature="0" />
          </g>
        </g>
        <g
           id="g5748"
           transform="translate(622.80467,-1.7845441)">
          <g
             id="g5719">
            <g
               id="lock-washer-hdw11"
               transform="matrix(-23.630733,4.7522771,-4.7004447,-23.891312,4211.9477,1232.3049)"
               style="stroke:none">
              <path
                 inkscape:connector-curvature="0"
                 style="fill:#ffffff;fill-opacity:1;stroke:none"
                 d="m 141.20497,31.637731 a 19.48819,19.48819 0 0 0 -19.48828,19.488281 19.48819,19.48819 0 0 0 19.48828,19.488281 19.48819,19.48819 0 0 0 19.48828,-19.488281 19.48819,19.48819 0 0 0 -19.48828,-19.488281 z m 0,3.138672 c 0.27033,0 0.52195,0.06711 0.78906,0.08008 0.0205,-0.0028 0.0216,-0.02332 0.043,-0.02539 0.22143,-0.02148 0.4898,-0.0024 0.8125,0.06641 0.34483,0.0331 0.68547,0.09474 1.02734,0.148438 0.20388,0.03371 0.4218,0.02132 0.62305,0.0625 0.1545,0.03162 0.29243,0.102731 0.44531,0.138672 0.37545,0.08395 0.75175,0.164389 1.1211,0.273437 0.12999,0.04308 0.13485,0.10454 0.24219,0.150391 0.41712,0.137896 0.85827,0.22081 1.25976,0.390625 0.48902,0.206839 0.85639,0.657682 1.20898,1.130859 0.3526,0.473178 0.69204,0.967898 1.12696,1.261719 0.43491,0.293822 0.96403,0.386321 1.47851,0.498047 0.51449,0.111726 1.01297,0.243435 1.38282,0.613281 0.11741,0.117418 0.20258,0.263836 0.3164,0.384766 0.34788,0.03835 0.70252,0.270419 1.07227,0.832031 0.34751,0.412251 0.67252,0.840348 0.97656,1.283203 0.30405,0.442857 0.58733,0.900834 0.8457,1.371094 0.29116,0.575715 0.35815,0.981627 0.27539,1.292969 0.005,0.01162 0.0127,0.02157 0.0176,0.0332 0.20684,0.489022 0.17801,1.054295 0.125,1.630859 -0.053,0.576565 -0.13038,1.16314 -0.0215,1.695313 0.10889,0.532172 0.40576,1.009099 0.67383,1.49414 0.26806,0.485042 0.50781,0.978603 0.50781,1.542969 0,0.06492 -0.0188,0.124717 -0.0195,0.189453 0.32223,0.250819 0.51385,0.636737 0.33984,1.410157 -0.0538,0.530799 -0.13544,1.059528 -0.24219,1.582031 -0.1068,0.522502 -0.23941,1.038406 -0.39843,1.548828 -0.22456,0.642164 -0.49492,0.956319 -0.80078,1.107422 -0.0654,0.170345 -0.0932,0.357844 -0.16407,0.52539 -0.20684,0.489022 -0.56441,0.792078 -0.94531,1.080079 -0.3809,0.288 -0.78431,0.56118 -1.07812,0.996093 -0.29383,0.434913 -0.47959,1.03029 -0.6836,1.609375 -0.20401,0.579086 -0.42703,1.141873 -0.79687,1.511719 -0.0383,0.03825 -0.0864,0.06564 -0.125,0.103516 -0.0753,0.306154 -0.291,0.617202 -0.81055,0.941406 -0.42345,0.338323 -0.86348,0.657128 -1.31836,0.953125 -0.45489,0.295996 -0.92517,0.570736 -1.4082,0.822266 -0.20171,0.09668 -0.29385,0.04924 -0.45899,0.09961 -0.3638,0.187461 -0.69712,0.423661 -1.07617,0.583984 -0.48902,0.206839 -1.02534,0.215317 -1.57422,0.199219 -0.54888,-0.0161 -1.11041,-0.05616 -1.64258,0.05273 -0.53217,0.108899 -1.0361,0.366501 -1.54882,0.597657 -0.51273,0.231155 -1.0333,0.435547 -1.59766,0.435547 -0.48104,0 -0.93381,-0.09993 -1.4043,-0.140626 -0.10154,-0.01246 -0.12508,0.04408 -0.24023,0.01953 -0.34383,-0.03304 -0.68295,-0.09494 -1.02344,-0.148438 -0.20515,-0.03387 -0.42445,-0.02106 -0.62695,-0.0625 -0.15717,-0.03216 -0.29764,-0.103989 -0.45313,-0.140625 -0.37219,-0.08345 -0.74528,-0.163401 -1.11133,-0.271484 -0.1289,-0.04272 -0.13362,-0.102988 -0.24023,-0.148438 -0.41853,-0.138239 -0.86087,-0.222208 -1.26367,-0.392578 -0.48902,-0.206839 -0.87504,-0.612026 -1.2461,-1.039062 -0.37105,-0.427037 -0.72719,-0.876101 -1.1621,-1.169922 -0.43492,-0.293822 -0.94733,-0.431977 -1.44336,-0.589844 -0.49604,-0.157867 -0.97586,-0.335232 -1.34571,-0.705078 -0.11742,-0.117418 -0.20259,-0.263836 -0.3164,-0.384766 -0.34785,-0.0384 -0.70253,-0.270264 -1.07227,-0.832031 -0.34755,-0.412415 -0.67448,-0.842121 -0.97852,-1.285156 -0.30401,-0.443034 -0.58544,-0.90065 -0.84374,-1.371094 -0.29106,-0.57582 -0.35811,-0.981591 -0.2754,-1.292969 -0.005,-0.01109 -0.0129,-0.02015 -0.0176,-0.03125 -0.20684,-0.489021 -0.16131,-1.016988 -0.0898,-1.55664 0.0715,-0.539652 0.16751,-1.090875 0.0586,-1.623047 -0.1089,-0.532173 -0.42246,-1.044452 -0.70899,-1.566406 -0.28652,-0.521955 -0.54492,-1.052822 -0.54492,-1.617188 0,-0.06558 0.0188,-0.126011 0.0195,-0.191406 -0.32207,-0.251103 -0.51373,-0.636703 -0.33984,-1.410156 0.0538,-0.53098 0.13544,-1.057401 0.24218,-1.580078 0.10681,-0.522679 0.2394,-1.04019 0.39844,-1.550782 0.22501,-0.643516 0.49616,-0.956714 0.80274,-1.107422 0.0651,-0.169577 0.0916,-0.356635 0.16211,-0.523437 0.20684,-0.489022 0.64737,-0.800427 1.11132,-1.097656 0.46395,-0.297229 0.95032,-0.580712 1.24415,-1.015625 0.29381,-0.434913 0.39662,-1.02194 0.51757,-1.591797 0.12096,-0.569858 0.26102,-1.122342 0.63086,-1.492188 0.0366,-0.0366 0.0822,-0.06335 0.11914,-0.09961 0.074,-0.307453 0.29438,-0.619658 0.81641,-0.945313 0.42362,-0.338351 0.86524,-0.657128 1.32031,-0.953125 0.45507,-0.295998 0.92498,-0.570766 1.40821,-0.822265 0.2001,-0.09586 0.29098,-0.04931 0.45507,-0.09961 0.36429,-0.187761 0.69855,-0.423436 1.07813,-0.583984 0.48902,-0.206839 1.02534,-0.113703 1.57422,0.0039 0.54888,0.117609 1.10845,0.259289 1.64062,0.150391 0.53218,-0.108899 1.03806,-0.470069 1.55078,-0.802734 0.51273,-0.332666 1.03329,-0.636719 1.59766,-0.636719 z"
                 id="path21373" />
              <path
                 inkscape:connector-curvature="0"
                 id="path23740"
                 d="m 142.07377,31.810547 a 19.48819,19.48819 0 0 0 -19.48828,19.488281 19.48819,19.48819 0 0 0 19.48828,19.488281 19.48819,19.48819 0 0 0 19.48828,-19.488281 19.48819,19.48819 0 0 0 -19.48828,-19.488281 z m 0,3.138672 c 0.27033,0 0.52195,0.06711 0.78906,0.08008 0.0205,-0.0028 0.0216,-0.02332 0.043,-0.02539 0.22143,-0.02148 0.4898,-0.0024 0.8125,0.06641 0.34483,0.0331 0.68547,0.09474 1.02734,0.148438 0.20388,0.03371 0.4218,0.02132 0.62305,0.0625 0.1545,0.03162 0.29243,0.102731 0.44531,0.138672 0.37545,0.08395 0.75175,0.164389 1.1211,0.273437 0.12999,0.04308 0.13485,0.10454 0.24219,0.150391 0.41712,0.137896 0.85827,0.22081 1.25976,0.390625 0.48902,0.206839 0.85639,0.657682 1.20898,1.130859 0.3526,0.473178 0.69204,0.967898 1.12696,1.261719 0.43491,0.293822 0.96403,0.386321 1.47851,0.498047 0.51449,0.111726 1.01297,0.243435 1.38282,0.613281 0.11741,0.117418 0.20258,0.263836 0.3164,0.384766 0.34788,0.03835 0.70252,0.270419 1.07227,0.832031 0.34751,0.412251 0.67252,0.840348 0.97656,1.283203 0.30405,0.442857 0.58733,0.900834 0.8457,1.371094 0.29116,0.575715 0.35815,0.981627 0.27539,1.292969 0.005,0.01162 0.0127,0.02157 0.0176,0.0332 0.20684,0.489022 0.17801,1.054295 0.125,1.630859 -0.053,0.576565 -0.13038,1.16314 -0.0215,1.695313 0.10889,0.532172 0.40576,1.009099 0.67383,1.49414 0.26806,0.485042 0.50781,0.978603 0.50781,1.542969 0,0.06492 -0.0188,0.124717 -0.0195,0.189453 0.32223,0.250819 0.51385,0.636737 0.33984,1.410157 -0.0538,0.530799 -0.13544,1.059528 -0.24219,1.582031 -0.1068,0.522502 -0.23941,1.038406 -0.39843,1.548828 -0.22456,0.642164 -0.49492,0.956319 -0.80078,1.107422 -0.0654,0.170345 -0.0932,0.357844 -0.16407,0.52539 -0.20684,0.489022 -0.56441,0.792078 -0.94531,1.080079 -0.3809,0.288 -0.78431,0.56118 -1.07812,0.996093 -0.29383,0.434913 -0.47959,1.03029 -0.6836,1.609375 -0.20401,0.579086 -0.42703,1.141873 -0.79687,1.511719 -0.0383,0.03825 -0.0864,0.06564 -0.125,0.103516 -0.0753,0.306154 -0.291,0.617202 -0.81055,0.941406 -0.42345,0.338323 -0.86348,0.657128 -1.31836,0.953125 -0.45489,0.295996 -0.92517,0.570736 -1.4082,0.822266 -0.20171,0.09668 -0.29385,0.04924 -0.45899,0.09961 -0.3638,0.187461 -0.69712,0.423661 -1.07617,0.583984 -0.48902,0.206839 -1.02534,0.215317 -1.57422,0.199219 -0.54888,-0.0161 -1.11041,-0.05616 -1.64258,0.05273 -0.53217,0.108899 -1.0361,0.366501 -1.54882,0.597657 -0.51273,0.231155 -1.0333,0.435547 -1.59766,0.435547 -0.48104,0 -0.93381,-0.09993 -1.4043,-0.140626 -0.10154,-0.01246 -0.12508,0.04408 -0.24023,0.01953 -0.34383,-0.03304 -0.68295,-0.09494 -1.02344,-0.148438 -0.20515,-0.03387 -0.42445,-0.02106 -0.62695,-0.0625 -0.15717,-0.03216 -0.29764,-0.103989 -0.45313,-0.140625 -0.37219,-0.08345 -0.74528,-0.163401 -1.11133,-0.271484 -0.1289,-0.04272 -0.13362,-0.102988 -0.24023,-0.148438 -0.41853,-0.138239 -0.86087,-0.222208 -1.26367,-0.392578 -0.48902,-0.206839 -0.87504,-0.612026 -1.2461,-1.039062 -0.37105,-0.427037 -0.72719,-0.876101 -1.1621,-1.169922 -0.43492,-0.293822 -0.94733,-0.431977 -1.44336,-0.589844 -0.49604,-0.157867 -0.97586,-0.335232 -1.34571,-0.705078 -0.11742,-0.117418 -0.20259,-0.263836 -0.3164,-0.384766 -0.34785,-0.0384 -0.70253,-0.270264 -1.07227,-0.832031 -0.34755,-0.412415 -0.67448,-0.842121 -0.97852,-1.285156 -0.30401,-0.443034 -0.58544,-0.90065 -0.84374,-1.371094 -0.29106,-0.57582 -0.35811,-0.981591 -0.2754,-1.292969 -0.005,-0.01109 -0.0129,-0.02015 -0.0176,-0.03125 -0.20684,-0.489021 -0.16131,-1.016988 -0.0898,-1.55664 0.0715,-0.539652 0.16751,-1.090875 0.0586,-1.623047 -0.1089,-0.532173 -0.42246,-1.044452 -0.70899,-1.566406 -0.28652,-0.521955 -0.54492,-1.052822 -0.54492,-1.617188 0,-0.06558 0.0188,-0.126011 0.0195,-0.191406 -0.32207,-0.251103 -0.51373,-0.636703 -0.33984,-1.410156 0.0538,-0.53098 0.13544,-1.057401 0.24218,-1.580078 0.10681,-0.522679 0.2394,-1.04019 0.39844,-1.550782 0.22501,-0.643516 0.49616,-0.956714 0.80274,-1.107422 0.0651,-0.169577 0.0916,-0.356635 0.16211,-0.523437 0.20684,-0.489022 0.64737,-0.800427 1.11132,-1.097656 0.46395,-0.297229 0.95032,-0.580712 1.24415,-1.015625 0.29381,-0.434913 0.39662,-1.02194 0.51757,-1.591797 0.12096,-0.569858 0.26102,-1.122342 0.63086,-1.492188 0.0366,-0.0366 0.0822,-0.06335 0.11914,-0.09961 0.074,-0.307453 0.29438,-0.619658 0.81641,-0.945313 0.42362,-0.338351 0.86524,-0.657128 1.32031,-0.953125 0.45507,-0.295998 0.92498,-0.570766 1.40821,-0.822265 0.2001,-0.09586 0.29098,-0.04931 0.45507,-0.09961 0.36429,-0.187761 0.69855,-0.423436 1.07813,-0.583984 0.48902,-0.206839 1.02534,-0.113703 1.57422,0.0039 0.54888,0.117609 1.10845,0.259289 1.64062,0.150391 0.53218,-0.108899 1.03806,-0.470069 1.55078,-0.802734 0.51273,-0.332666 1.03329,-0.636719 1.59766,-0.636719 z"
                 style="fill:none;stroke:none" />
              <path
                 inkscape:connector-curvature="0"
                 id="path20227"
                 d="m 126.4043,45.458984 c 0.81965,-0.402918 1.95617,0.574599 3.62109,1.158204 l 1.42578,0.574218 a 10.984252,10.984252 0 0 1 2.31836,-3.546875 l -1.02148,-0.99414 c -1.09977,-1.070671 -2.8,-2.00885 -2.5586,-3.011719 -0.0369,0.03626 -0.0825,0.06301 -0.11914,0.09961 -0.36984,0.369846 -0.5099,0.92233 -0.63086,1.492188 -0.12095,0.569857 -0.22376,1.156884 -0.51757,1.591797 -0.29383,0.434913 -0.7802,0.718396 -1.24415,1.015625 -0.46395,0.297229 -0.90448,0.608634 -1.11132,1.097656 -0.0706,0.166802 -0.097,0.35386 -0.16211,0.523437 z"
                 style="fill:#949fb4;fill-opacity:1;stroke:none" />
              <path
                 inkscape:connector-curvature="0"
                 id="path20225"
                 d="m 126.58398,57.693359 c 0.2391,-0.900079 1.80716,-0.966045 3.44141,-1.714843 l 1.42383,-0.574219 a 10.984252,10.984252 0 0 1 -0.80274,-4.105469 l -1.57812,0 c -1.40699,0 -3.0431,0.373433 -3.76758,-0.191406 -7.7e-4,0.0654 -0.0195,0.125828 -0.0195,0.191406 0,0.564366 0.2584,1.095233 0.54492,1.617188 0.28653,0.521954 0.60009,1.034233 0.70899,1.566406 0.10891,0.532172 0.0129,1.083395 -0.0586,1.623047 -0.0715,0.539652 -0.11699,1.067619 0.0898,1.55664 0.005,0.0111 0.0129,0.02016 0.0176,0.03125 z"
                 style="fill:#949fb4;fill-opacity:1;stroke:none" />
              <path
                 inkscape:connector-curvature="0"
                 id="path20223"
                 d="m 136.53125,66.755859 c -1.90107,-0.810491 -0.48644,-2.049714 0.29297,-4.158203 l 0.50781,-1.191406 a 10.984252,10.984252 0 0 1 -3.57031,-2.445312 l -1.01367,0.986328 c -1.06425,1.036094 -2.00081,2.636991 -2.99414,2.527343 0.11381,0.12093 0.19898,0.267348 0.3164,0.384766 0.36985,0.369846 0.84967,0.547211 1.34571,0.705078 0.49603,0.157867 1.00844,0.296022 1.44336,0.589844 0.43491,0.293821 0.79105,0.742885 1.1621,1.169922 0.37106,0.427036 0.75708,0.832223 1.2461,1.039062 0.4028,0.17037 0.84514,0.254339 1.26367,0.392578 z"
                 style="fill:#949fb4;fill-opacity:1;stroke:none" />
              <path
                 inkscape:connector-curvature="0"
                 id="path20221"
                 d="m 138.96289,67.378906 c -0.19944,-0.03134 -0.40136,-0.04753 -0.59961,-0.08594 -0.16199,-0.03138 -0.31957,-0.08111 -0.48047,-0.117188 0.15549,0.03664 0.29596,0.108464 0.45313,0.140625 0.2025,0.04144 0.4218,0.02863 0.62695,0.0625 z"
                 style="fill:#aab4c7;fill-opacity:1;stroke:none" />
              <path
                 inkscape:connector-curvature="0"
                 id="path20219"
                 d="m 149.07031,65.779297 c -1.71843,0.524116 -1.68618,-1.228533 -2.63086,-3.181641 l -0.51172,-1.203125 a 10.984252,10.984252 0 0 1 -4.29687,0.888672 l 0,1.246094 c 0,1.889887 0.77025,4.24532 -1.4043,3.978515 0.47049,0.0407 0.92326,0.140626 1.4043,0.140626 0.56436,0 1.08493,-0.204392 1.59766,-0.435547 0.51272,-0.231156 1.01665,-0.488758 1.54882,-0.597657 0.53217,-0.108897 1.0937,-0.06883 1.64258,-0.05273 0.54888,0.0161 1.0852,0.0076 1.57422,-0.199219 0.37905,-0.160323 0.71237,-0.396523 1.07617,-0.583984 z"
                 style="fill:#f9f9f9;fill-opacity:1;stroke:none" />
              <path
                 inkscape:connector-curvature="0"
                 id="path20217"
                 d="m 156.85938,57.136719 c -0.81987,0.405026 -1.95729,-0.574595 -3.62305,-1.158203 l -1.42578,-0.574219 a 10.984252,10.984252 0 0 1 -2.31836,3.548828 l 1.02148,0.994141 c 1.10104,1.071918 2.79975,2.011123 2.55274,3.015625 0.0386,-0.03788 0.0867,-0.06526 0.125,-0.103516 0.36984,-0.369846 0.59286,-0.932633 0.79687,-1.511719 0.20401,-0.579085 0.38977,-1.174462 0.6836,-1.609375 0.29381,-0.434913 0.69722,-0.708093 1.07812,-0.996093 0.3809,-0.288001 0.73847,-0.591057 0.94531,-1.080079 0.0709,-0.167546 0.0987,-0.355045 0.16407,-0.52539 z"
                 style="fill:#f9f9f9;fill-opacity:1;stroke:none" />
              <path
                 inkscape:connector-curvature="0"
                 id="path20215"
                 d="m 156.67773,44.902344 c -0.2392,0.899974 -1.80765,0.965876 -3.4414,1.714844 l -1.42383,0.574218 a 10.984252,10.984252 0 0 1 0.80273,4.107422 l 1.57813,0 c 1.40647,0 3.04289,-0.37463 3.76758,0.189453 7.5e-4,-0.06474 0.0195,-0.124537 0.0195,-0.189453 0,-0.564366 -0.23975,-1.057927 -0.50781,-1.542969 -0.26807,-0.485041 -0.56494,-0.961968 -0.67383,-1.49414 -0.1089,-0.532173 -0.0315,-1.118748 0.0215,-1.695313 0.053,-0.576564 0.0818,-1.141837 -0.125,-1.630859 -0.005,-0.01163 -0.0126,-0.02159 -0.0176,-0.0332 z"
                 style="fill:#f9f9f9;fill-opacity:1;stroke:none" />
              <path
                 inkscape:connector-curvature="0"
                 id="path20213"
                 d="m 146.73438,35.84375 c 1.89747,0.810575 0.48466,2.048323 -0.29493,4.15625 l -0.50781,1.193359 a 10.984252,10.984252 0 0 1 3.56836,2.44336 l 1.01367,-0.986328 c 1.06401,-1.035868 2.00073,-2.636847 2.99414,-2.527344 -0.11382,-0.12093 -0.19899,-0.267348 -0.3164,-0.384766 -0.36985,-0.369846 -0.86833,-0.501555 -1.38282,-0.613281 -0.51448,-0.111726 -1.0436,-0.204225 -1.47851,-0.498047 -0.43492,-0.293821 -0.77436,-0.788541 -1.12696,-1.261719 -0.35259,-0.473177 -0.71996,-0.92402 -1.20898,-1.130859 -0.40149,-0.169815 -0.84264,-0.252729 -1.25976,-0.390625 z"
                 style="fill:#f9f9f9;fill-opacity:1;stroke:none" />
              <path
                 inkscape:connector-curvature="0"
                 id="path20211"
                 d="m 144.30273,35.21875 c 0.19887,0.03124 0.40021,0.0477 0.59766,0.08594 0.15878,0.03075 0.31303,0.07998 0.4707,0.115234 -0.15288,-0.03594 -0.29081,-0.107056 -0.44531,-0.138672 -0.20125,-0.04118 -0.41917,-0.02879 -0.62305,-0.0625 z"
                 style="fill:#aab4c7;fill-opacity:1;stroke:none" />
              <path
                 inkscape:connector-curvature="0"
                 id="path20209"
                 d="m 141.63086,34.949219 c -0.56437,0 -1.08493,0.304053 -1.59766,0.636719 -0.51272,0.332665 -1.0186,0.693835 -1.55078,0.802734 -0.53217,0.108898 -1.09174,-0.03278 -1.64062,-0.150391 -0.54888,-0.117609 -1.0852,-0.210745 -1.57422,-0.0039 -0.37958,0.160548 -0.71384,0.396223 -1.07813,0.583984 1.72295,-0.528119 1.68957,1.226422 2.63477,3.181641 l 0.51172,1.201172 a 10.984252,10.984252 0 0 1 4.29492,-0.886719 l 0,-1.246094 c 0,-1.70752 -0.67855,-3.836047 0.78906,-4.039062 -0.26711,-0.01297 -0.51873,-0.08008 -0.78906,-0.08008 z"
                 style="fill:#949fb4;fill-opacity:1;stroke:none" />
              <path
                 inkscape:connector-curvature="0"
                 id="path18919"
                 d="m 141.63086,31.810547 a 19.48819,19.48819 0 0 0 -19.48828,19.488281 19.48819,19.48819 0 0 0 19.48828,19.488281 19.48819,19.48819 0 0 0 19.48828,-19.488281 19.48819,19.48819 0 0 0 -19.48828,-19.488281 z m 0,3.138672 c 0.27033,0 0.52195,0.06711 0.78906,0.08008 0.0205,-0.0028 0.0216,-0.02332 0.043,-0.02539 0.22143,-0.02148 0.4898,-0.0024 0.8125,0.06641 0.34483,0.0331 0.68547,0.09474 1.02734,0.148438 0.20388,0.03371 0.4218,0.02132 0.62305,0.0625 0.1545,0.03162 0.29243,0.102731 0.44531,0.138672 0.37545,0.08395 0.75175,0.164389 1.1211,0.273437 0.12999,0.04308 0.13485,0.10454 0.24219,0.150391 0.41712,0.137896 0.85827,0.22081 1.25976,0.390625 0.48902,0.206839 0.85639,0.657682 1.20898,1.130859 0.3526,0.473178 0.69204,0.967898 1.12696,1.261719 0.43491,0.293822 0.96403,0.386321 1.47851,0.498047 0.51449,0.111726 1.01297,0.243435 1.38282,0.613281 0.11741,0.117418 0.20258,0.263836 0.3164,0.384766 0.34788,0.03835 0.70252,0.270419 1.07227,0.832031 0.34751,0.412251 0.67252,0.840348 0.97656,1.283203 0.30405,0.442857 0.58733,0.900834 0.8457,1.371094 0.29116,0.575715 0.35815,0.981627 0.27539,1.292969 0.005,0.01162 0.0127,0.02157 0.0176,0.0332 0.20684,0.489022 0.17801,1.054295 0.125,1.630859 -0.053,0.576565 -0.13038,1.16314 -0.0215,1.695313 0.10889,0.532172 0.40576,1.009099 0.67383,1.49414 0.26806,0.485042 0.50781,0.978603 0.50781,1.542969 0,0.06492 -0.0188,0.124717 -0.0195,0.189453 0.32223,0.250819 0.51385,0.636737 0.33984,1.410157 -0.0538,0.530799 -0.13544,1.059528 -0.24219,1.582031 -0.1068,0.522502 -0.23941,1.038406 -0.39843,1.548828 -0.22456,0.642164 -0.49492,0.956319 -0.80078,1.107422 -0.0654,0.170345 -0.0932,0.357844 -0.16407,0.52539 -0.20684,0.489022 -0.56441,0.792078 -0.94531,1.080079 -0.3809,0.288 -0.78431,0.56118 -1.07812,0.996093 -0.29383,0.434913 -0.47959,1.03029 -0.6836,1.609375 -0.20401,0.579086 -0.42703,1.141873 -0.79687,1.511719 -0.0383,0.03825 -0.0864,0.06564 -0.125,0.103516 -0.0753,0.306154 -0.291,0.617202 -0.81055,0.941406 -0.42345,0.338323 -0.86348,0.657128 -1.31836,0.953125 -0.45489,0.295996 -0.92517,0.570736 -1.4082,0.822266 -0.20171,0.09668 -0.29385,0.04924 -0.45899,0.09961 -0.3638,0.187461 -0.69712,0.423661 -1.07617,0.583984 -0.48902,0.206839 -1.02534,0.215317 -1.57422,0.199219 -0.54888,-0.0161 -1.11041,-0.05616 -1.64258,0.05273 -0.53217,0.108899 -1.0361,0.366501 -1.54882,0.597657 -0.51273,0.231155 -1.0333,0.435547 -1.59766,0.435547 -0.48104,0 -0.93381,-0.09993 -1.4043,-0.140626 -0.10154,-0.01246 -0.12508,0.04408 -0.24023,0.01953 -0.34383,-0.03304 -0.68295,-0.09494 -1.02344,-0.148438 -0.20515,-0.03387 -0.42445,-0.02106 -0.62695,-0.0625 -0.15717,-0.03216 -0.29764,-0.103989 -0.45313,-0.140625 -0.37219,-0.08345 -0.74528,-0.163401 -1.11133,-0.271484 -0.1289,-0.04272 -0.13362,-0.102988 -0.24023,-0.148438 -0.41853,-0.138239 -0.86087,-0.222208 -1.26367,-0.392578 -0.48902,-0.206839 -0.87504,-0.612026 -1.2461,-1.039062 -0.37105,-0.427037 -0.72719,-0.876101 -1.1621,-1.169922 -0.43492,-0.293822 -0.94733,-0.431977 -1.44336,-0.589844 -0.49604,-0.157867 -0.97586,-0.335232 -1.34571,-0.705078 -0.11742,-0.117418 -0.20259,-0.263836 -0.3164,-0.384766 -0.34785,-0.0384 -0.70253,-0.270264 -1.07227,-0.832031 -0.34755,-0.412415 -0.67448,-0.842121 -0.97852,-1.285156 -0.30401,-0.443034 -0.58544,-0.90065 -0.84374,-1.371094 -0.29106,-0.57582 -0.35811,-0.981591 -0.2754,-1.292969 -0.005,-0.01109 -0.0129,-0.02015 -0.0176,-0.03125 -0.20684,-0.489021 -0.16131,-1.016988 -0.0898,-1.55664 0.0715,-0.539652 0.16751,-1.090875 0.0586,-1.623047 -0.1089,-0.532173 -0.42246,-1.044452 -0.70899,-1.566406 -0.28652,-0.521955 -0.54492,-1.052822 -0.54492,-1.617188 0,-0.06558 0.0188,-0.126011 0.0195,-0.191406 -0.32207,-0.251103 -0.51373,-0.636703 -0.33984,-1.410156 0.0538,-0.53098 0.13544,-1.057401 0.24218,-1.580078 0.10681,-0.522679 0.2394,-1.04019 0.39844,-1.550782 0.22501,-0.643516 0.49616,-0.956714 0.80274,-1.107422 0.0651,-0.169577 0.0916,-0.356635 0.16211,-0.523437 0.20684,-0.489022 0.64737,-0.800427 1.11132,-1.097656 0.46395,-0.297229 0.95032,-0.580712 1.24415,-1.015625 0.29381,-0.434913 0.39662,-1.02194 0.51757,-1.591797 0.12096,-0.569858 0.26102,-1.122342 0.63086,-1.492188 0.0366,-0.0366 0.0822,-0.06335 0.11914,-0.09961 0.074,-0.307453 0.29438,-0.619658 0.81641,-0.945313 0.42362,-0.338351 0.86524,-0.657128 1.32031,-0.953125 0.45507,-0.295998 0.92498,-0.570766 1.40821,-0.822265 0.2001,-0.09586 0.29098,-0.04931 0.45507,-0.09961 0.36429,-0.187761 0.69855,-0.423436 1.07813,-0.583984 0.48902,-0.206839 1.02534,-0.113703 1.57422,0.0039 0.54888,0.117609 1.10845,0.259289 1.64062,0.150391 0.53218,-0.108899 1.03806,-0.470069 1.55078,-0.802734 0.51273,-0.332666 1.03329,-0.636719 1.59766,-0.636719 z"
                 style="fill:#b7c0d1;fill-opacity:1;stroke:none" />
              <path
                 inkscape:connector-curvature="0"
                 id="path20203"
                 d="m 142.48339,35.000485 c -1.57744,0.132809 -0.85352,2.32926 -0.85352,4.068359 l 0,1.246094 a 10.984252,10.984252 0 0 1 0.002,0 10.984252,10.984252 0 0 1 0.75391,0.03711 l 0,-1.283203 c -0.23678,-3.382395 -0.48224,-3.478026 2.36914,-3.021485 3.30619,0.493643 1.84502,1.389563 0.97461,3.691407 l -0.50781,1.193359 a 10.984252,10.984252 0 0 1 0.70898,0.259766 l 0.50781,-1.191406 c 0.82368,-2.227163 2.48093,-3.501928 0.0527,-4.306641 -0.52446,-0.154843 -1.05492,-0.284696 -1.5918,-0.388672 -0.53688,-0.103977 -1.07959,-0.182019 -1.625,-0.234375 -0.16135,-0.03438 -0.30841,-0.05744 -0.44336,-0.06836 -0.12651,-0.01023 -0.24249,-0.01081 -0.34765,-0.002 z"
                 style="fill:#e6e6e6;fill-opacity:1;stroke:none" />
              <path
                 inkscape:connector-curvature="0"
                 id="path20201"
                 d="m 134.78417,36.609859 c -0.27758,0.0056 -0.61931,0.101891 -1.05078,0.308594 -0.48323,0.251499 -0.95314,0.526268 -1.40821,0.822266 -0.45507,0.295997 -0.89474,0.612821 -1.31836,0.951172 -2.22483,1.387895 0.30332,2.560074 1.74024,3.958984 l 1.01953,0.994141 a 10.984252,10.984252 0 0 1 0.54883,-0.521485 l -1.04102,-1.013672 c -2.52885,-2.150402 -2.87303,-2.103418 -0.53711,-3.736328 2.68709,-1.921701 2.35025,-0.292178 3.39063,1.921875 l 0.51758,1.216797 a 10.984252,10.984252 0 0 1 0.68945,-0.308594 l -0.51172,-1.203124 c -0.84112,-1.739916 -0.83623,-3.415002 -2.03906,-3.390626 z"
                 style="fill:#e6e6e6;fill-opacity:1;stroke:none" />
              <path
                 inkscape:connector-curvature="0"
                 id="path20199"
                 d="m 153.29393,40.107906 c -0.91543,0.117583 -1.79358,1.581426 -2.78125,2.542969 l -1.01367,0.986328 a 10.984252,10.984252 0 0 1 0.50195,0.566406 l 1.03907,-1.011718 c 2.19406,-2.465801 2.21174,-2.805149 3.89453,-0.525391 2.00532,2.646626 0.184,2.275845 -2.01172,3.263672 l -1.41992,0.572266 a 10.984252,10.984252 0 0 1 0.30859,0.689453 l 1.42578,-0.574219 c 2.19894,-1.008068 4.29685,-0.767916 3.16406,-3.007813 -0.25837,-0.47026 -0.53971,-0.928236 -0.84374,-1.371093 -0.30404,-0.442855 -0.63101,-0.870952 -0.97852,-1.283203 -0.44551,-0.676685 -0.86905,-0.901103 -1.28516,-0.847657 z"
                 style="fill:#e6e6e6;fill-opacity:1;stroke:none" />
              <path
                 inkscape:connector-curvature="0"
                 id="path20197"
                 d="m 126.76073,45.332516 c -0.47192,0.02049 -0.85019,0.347887 -1.16016,1.234375 -0.15904,0.510592 -0.29163,1.028102 -0.39843,1.550781 -0.10675,0.522679 -0.18646,1.049098 -0.24024,1.580078 -0.56503,2.513285 2.07299,1.601563 4.10547,1.601563 l 1.58008,0 a 10.984252,10.984252 0 0 1 0.0371,-0.75586 l -1.61719,0 c -3.29514,0.209484 -3.59691,0.53593 -3.125,-2.27539 0.56959,-3.324005 1.41902,-1.80239 3.83203,-0.9375 l -0.0332,-0.01172 1.45117,0.585937 a 10.984252,10.984252 0 0 1 0.25977,-0.710937 l -1.42774,-0.576172 c -1.42979,-0.501184 -2.47714,-1.319302 -3.26367,-1.285156 z"
                 style="fill:#e6e6e6;fill-opacity:1;stroke:none" />
              <path
                 inkscape:connector-curvature="0"
                 id="path20195"
                 d="m 156.53417,51.143063 c -0.73205,0.02801 -1.57986,0.15625 -2.3418,0.15625 l -1.57812,0 a 10.984252,10.984252 0 0 1 -0.0371,0.755859 l 1.61523,0 c 3.11992,-0.223237 3.60899,-0.584451 3.125,2.273437 l 0,0.002 c -0.50757,3.259562 -1.56976,1.745381 -3.83008,0.935546 l 0.0332,0.01172 -1.45118,-0.585937 a 10.984252,10.984252 0 0 1 -0.25976,0.710937 l 1.42773,0.576172 c 2.28721,0.801334 3.59542,2.414247 4.42188,0.05078 0.15902,-0.510422 0.29163,-1.026326 0.39844,-1.548828 0.10675,-0.522503 0.18837,-1.05123 0.24218,-1.582031 0.35335,-1.570511 -0.54555,-1.802548 -1.76562,-1.755859 z"
                 style="fill:#e6e6e6;fill-opacity:1;stroke:none" />
              <path
                 inkscape:connector-curvature="0"
                 id="path20193"
                 d="M 131.44823,55.404781 130.0244,55.979 c -2.19961,1.007841 -4.29644,0.767506 -3.16406,3.007813 0.25832,0.470444 0.53972,0.928059 0.84375,1.371093 0.30404,0.443035 0.62901,0.872742 0.97656,1.285157 1.4256,2.165986 2.62948,-0.296398 4.06641,-1.695313 l 1.01367,-0.986328 a 10.984252,10.984252 0 0 1 -0.5,-0.568359 l -1.04102,1.013672 c -2.19286,2.466225 -2.2143,2.80707 -3.89257,0.523437 -1.907,-2.52488 -0.24953,-2.246868 2.01171,-3.263672 l 1.41797,-0.572265 a 10.984252,10.984252 0 0 1 -0.30859,-0.689454 z"
                 style="fill:#e6e6e6;fill-opacity:1;stroke:none" />
              <path
                 inkscape:connector-curvature="0"
                 id="path20191"
                 d="m 149.49315,58.953609 a 10.984252,10.984252 0 0 1 -0.54883,0.521485 l 1.04102,1.013672 c 2.52813,2.150802 2.87376,2.100083 0.53906,3.736328 -2.70349,1.936965 -2.35419,0.258885 -3.40625,-1.957031 l -0.50195,-1.181641 a 10.984252,10.984252 0 0 1 -0.68945,0.308594 l 0.51171,1.203125 c 1.03546,2.140792 0.7891,4.184842 3.08985,3.082031 0.48303,-0.251529 0.95331,-0.52627 1.4082,-0.822266 0.45488,-0.295997 0.89491,-0.614802 1.31836,-0.953125 2.22421,-1.387929 -0.30557,-2.558411 -1.74219,-3.957031 l -1.01953,-0.994141 z"
                 style="fill:#e6e6e6;fill-opacity:1;stroke:none" />
              <path
                 inkscape:connector-curvature="0"
                 id="path20156"
                 d="m 137.33104,61.406735 -0.50781,1.191406 c -0.82311,2.226725 -2.48037,3.502044 -0.0527,4.30664 0.52429,0.154808 1.05509,0.284698 1.59179,0.388672 0.53671,0.103977 1.07978,0.181985 1.625,0.234375 2.5811,0.550309 1.64258,-2.019908 1.64258,-3.998047 l 0,-1.246093 a 10.984252,10.984252 0 0 1 -0.75586,-0.03711 l 0,1.283203 c 0.24925,3.306195 0.43061,3.46937 -2.36719,3.021485 -3.30511,-0.493506 -1.84414,-1.390852 -0.97461,-3.691407 l 0.50782,-1.193359 a 10.984252,10.984252 0 0 1 -0.70899,-0.259765 z"
                 style="fill:#e6e6e6;fill-opacity:1;stroke:none" />
            </g>
            <g
               id="nut-hdw2"
               transform="matrix(25.940295,0,0,27.226294,-4107.4964,-816.3798)"
               style="stroke:none">
              <path
                 inkscape:connector-curvature="0"
                 id="path20115"
                 d="m 182.2168,41.015625 -8.18164,0 -8.18555,14.171875 8.18359,14.173828 8.1836,0 0,-6.103516 a 8.0787401,8.0787401 0 0 1 -6.9961,-4.03125 8.0787401,8.0787401 0 0 1 2.95703,-11.035156 8.0787401,8.0787401 0 0 1 4.03907,-1.072265 l 0,-6.103516 z"
                 style="fill:#949fb4;fill-opacity:1;stroke:none" />
              <path
                 inkscape:connector-curvature="0"
                 id="path20078"
                 d="m 182.2168,41.015625 0,6.103516 a 8.0787401,8.0787401 0 0 1 6.99609,4.029297 8.0787401,8.0787401 0 0 1 -2.95703,11.035156 8.0787401,8.0787401 0 0 1 -4.03906,1.074218 l 0,6.103516 8.18359,0 8.18164,-14.173828 -8.18164,-14.173828 -8.18359,0.002 z"
                 style="fill:#f9f9f9;fill-opacity:1;stroke:none" />
              <path
                 inkscape:connector-curvature="0"
                 id="path20117"
                 d="m 175.5731,42.913297 a 14.173228,14.173228 0 0 0 -5.18798,19.36181 14.173228,14.173228 0 0 0 19.36181,5.187982 14.173228,14.173228 0 0 0 5.18798,-19.361811 14.173228,14.173228 0 0 0 -19.36181,-5.187981 z m 3.04785,5.279033 a 8.0787401,8.0787401 0 0 1 11.03493,2.9568 8.0787401,8.0787401 0 0 1 -2.9568,11.03492 8.0787401,8.0787401 0 0 1 -11.03493,-2.956795 8.0787401,8.0787401 0 0 1 2.9568,-11.034925 z"
                 style="fill:#f9f9f9;fill-opacity:1;stroke:none" />
              <path
                 inkscape:connector-curvature="0"
                 style="fill:#c8cfdb;fill-opacity:1;stroke:none"
                 d="m 175.13019,42.913297 a 14.173228,14.173228 0 0 0 -5.18798,19.36181 14.173228,14.173228 0 0 0 19.36181,5.187982 14.173228,14.173228 0 0 0 5.18798,-19.361811 14.173228,14.173228 0 0 0 -19.36181,-5.187981 z m 3.04785,5.279033 a 8.0787401,8.0787401 0 0 1 11.03493,2.9568 8.0787401,8.0787401 0 0 1 -2.9568,11.03492 8.0787401,8.0787401 0 0 1 -11.03493,-2.956795 8.0787401,8.0787401 0 0 1 2.9568,-11.034925 z"
                 id="path20080" />
            </g>
          </g>
          <path
             transform="matrix(19.181176,0,0,17.396258,-492.88366,-418.02655)"
             d="m 68.579896,62.961102 c 0,6.342172 -4.745858,11.483518 -10.600171,11.483518 -5.854313,0 -10.600171,-5.141346 -10.600171,-11.483518 0,-6.342173 4.745858,-11.483519 10.600171,-11.483519 5.854313,0 10.600171,5.141346 10.600171,11.483519 z"
             sodipodi:ry="11.483519"
             sodipodi:rx="10.600171"
             sodipodi:cy="62.961102"
             sodipodi:cx="57.979725"
             id="path5715"
             style="fill:#565a61;fill-opacity:0.96862745;fill-rule:nonzero;stroke:#000000;stroke-width:0.07833245;stroke-miterlimit:4;stroke-opacity:1;stroke-dasharray:none"
             sodipodi:type="arc" />
        </g>
      </g>
    </g>
  </g>
</svg>
