<?xml version="1.0" encoding="UTF-8" standalone="no"?>
<!-- Generator: Adobe Illustrator 13.0.0, SVG Export Plug-In . SVG Version: 6.00 Build 14948)  -->

<svg
   xmlns:dc="http://purl.org/dc/elements/1.1/"
   xmlns:cc="http://creativecommons.org/ns#"
   xmlns:rdf="http://www.w3.org/1999/02/22-rdf-syntax-ns#"
   xmlns:svg="http://www.w3.org/2000/svg"
   xmlns="http://www.w3.org/2000/svg"
   xmlns:sodipodi="http://sodipodi.sourceforge.net/DTD/sodipodi-0.dtd"
   xmlns:inkscape="http://www.inkscape.org/namespaces/inkscape"
   version="1.0"
   id="svg2"
   x="0px"
   y="0px"
   width="32px"
   height="32px"
   viewBox="0 0 32 32"
   enable-background="new 0 0 32 32"
   xml:space="preserve"
   inkscape:version="0.48.4 r9939"
   sodipodi:docname="transceiver_package_top_view.svg"><metadata
   id="metadata223378"><rdf:RDF><cc:Work
       rdf:about=""><dc:format>image/svg+xml</dc:format><dc:type
         rdf:resource="http://purl.org/dc/dcmitype/StillImage" /><dc:title></dc:title></cc:Work></rdf:RDF></metadata><defs
   id="defs223376">
	
	

	 
	 		
	
		
		
		
		
		
		
		
		
	</defs><sodipodi:namedview
   pagecolor="#ffffff"
   bordercolor="#666666"
   borderopacity="1"
   objecttolerance="10"
   gridtolerance="10"
   guidetolerance="10"
   inkscape:pageopacity="0"
   inkscape:pageshadow="2"
   inkscape:window-width="1920"
   inkscape:window-height="1018"
   id="namedview223374"
   showgrid="false"
   inkscape:zoom="24.516113"
   inkscape:cx="16"
   inkscape:cy="19.206148"
   inkscape:window-x="-8"
   inkscape:window-y="-8"
   inkscape:window-maximized="1"
   inkscape:current-layer="svg2" />
<rect
   id="rect9553_1_"
   x="7.6879606"
   y="18.316067"
   width="15.935281"
   height="2.8187852"
   style="fill:#1a1a1a" /><path
   id="path9555_1_"
   d="m 22.41643,16.19501 v 1.365453 4.580892 1.025645 c 0.758458,-0.396808 1.205851,-0.864427 1.205851,-1.365003 l 0,0 V 16.19501 H 22.41643 z"
   inkscape:connector-curvature="0"
   style="fill:#141414" /><path
   id="path9557_1_"
   d="M 8.8947712,16.195011 H 7.6898803 v 5.605617 l 0,0 c 0,0.500978 0.4473938,0.968558 1.2058509,1.364888 v -1.025559 -4.578722 l -9.6e-4,-1.366224 0,0 z"
   inkscape:connector-curvature="0"
   style="fill:#242424" /><path
   id="path9559_1_"
   d="m 7.6879602,16.195012 0,0 c 0,0.83518 0.4473937,1.615423 1.2058509,2.276144 H 22.426031 c 0.758457,-0.661464 1.205851,-1.440964 1.205851,-2.276144 l 0,0 H 7.6879602 z"
   inkscape:connector-curvature="0"
   style="fill:#1f1f1f" /><path
   id="path9561_1_"
   d="m 15.628601,8.405014 c -4.400972,0 -7.968601,3.54132 -7.968601,7.915332 h 15.935281 c 0,-4.372654 -3.564748,-7.915332 -7.96668,-7.915332 z"
   inkscape:connector-curvature="0"
   style="fill:#141414" /><rect
   id="rect9563_1_"
   x="8.8947706"
   y="20.879221"
   width="13.53318"
   height="2.2877798" />
</svg>