<?xml version="1.0" encoding="UTF-8" standalone="no"?>
<!-- Created with Inkscape (http://www.inkscape.org/) -->

<svg
   xmlns:dc="http://purl.org/dc/elements/1.1/"
   xmlns:cc="http://creativecommons.org/ns#"
   xmlns:rdf="http://www.w3.org/1999/02/22-rdf-syntax-ns#"
   xmlns:svg="http://www.w3.org/2000/svg"
   xmlns="http://www.w3.org/2000/svg"
   xmlns:sodipodi="http://sodipodi.sourceforge.net/DTD/sodipodi-0.dtd"
   xmlns:inkscape="http://www.inkscape.org/namespaces/inkscape"
   width="17.400002"
   height="22.999998"
   id="svg5472"
   version="1.1"
   inkscape:version="0.48.4 r9939"
   sodipodi:docname="New document 4">
  <defs
     id="defs5474" />
  <sodipodi:namedview
     id="base"
     pagecolor="#ffffff"
     bordercolor="#666666"
     borderopacity="1.0"
     inkscape:pageopacity="0.0"
     inkscape:pageshadow="2"
     inkscape:zoom="0.35"
     inkscape:cx="49.41429"
     inkscape:cy="114.35715"
     inkscape:document-units="px"
     inkscape:current-layer="layer1"
     showgrid="false"
     fit-margin-top="0"
     fit-margin-left="0"
     fit-margin-right="0"
     fit-margin-bottom="0"
     inkscape:window-width="463"
     inkscape:window-height="423"
     inkscape:window-x="125"
     inkscape:window-y="125"
     inkscape:window-maximized="0" />
  <metadata
     id="metadata5477">
    <rdf:RDF>
      <cc:Work
         rdf:about="">
        <dc:format>image/svg+xml</dc:format>
        <dc:type
           rdf:resource="http://purl.org/dc/dcmitype/StillImage" />
        <dc:title></dc:title>
      </cc:Work>
    </rdf:RDF>
  </metadata>
  <g
     inkscape:label="Layer 1"
     inkscape:groupmode="layer"
     id="layer1"
     transform="translate(-325.58571,-623.71933)">
    <g
       transform="translate(333.68571,610.31933)"
       id="g802">
      <g
         id="g804">
        <g
           id="g806">
          <rect
             x="8.6000004"
             y="20.700001"
             width="0.69999999"
             height="1"
             id="rect808"
             style="fill:#666666" />
          <rect
             x="8.8000002"
             y="20.700001"
             width="0.5"
             height="0.1"
             id="rect810"
             style="fill:#999999" />
        </g>
        <g
           id="g812">
          <rect
             x="8.6000004"
             y="22.6"
             width="0.69999999"
             height="1"
             id="rect814"
             style="fill:#666666" />
          <rect
             x="8.8000002"
             y="22.6"
             width="0.5"
             height="0.1"
             id="rect816"
             style="fill:#999999" />
        </g>
        <g
           id="g818">
          <rect
             x="8.6000004"
             y="24.4"
             width="0.69999999"
             height="1"
             id="rect820"
             style="fill:#666666" />
          <rect
             x="8.8000002"
             y="24.4"
             width="0.5"
             height="0.1"
             id="rect822"
             style="fill:#999999" />
        </g>
        <g
           id="g824">
          <rect
             x="8.6000004"
             y="26.299999"
             width="0.69999999"
             height="1"
             id="rect826"
             style="fill:#666666" />
          <rect
             x="8.8000002"
             y="26.299999"
             width="0.5"
             height="0.1"
             id="rect828"
             style="fill:#999999" />
        </g>
        <g
           id="g830">
          <rect
             x="8.6000004"
             y="28.1"
             width="0.69999999"
             height="1"
             id="rect832"
             style="fill:#666666" />
          <rect
             x="8.8000002"
             y="28.1"
             width="0.5"
             height="0.1"
             id="rect834"
             style="fill:#999999" />
        </g>
        <g
           id="g836">
          <polygon
             points="-8.1,15.5 8.9,15.5 8.9,34.4 -8.1,34.4 "
             id="polygon838"
             style="fill:#b3b3b3" />
          <rect
             x="-0.80000001"
             y="34.599998"
             width="3"
             height="1.8"
             id="rect840"
             style="fill:#b7b7b7" />
          <rect
             x="-0.80000001"
             y="13.4"
             width="3"
             height="1.8"
             id="rect842"
             style="fill:#b7b7b7" />
          <rect
             x="8.8000002"
             y="15.5"
             width="0.1"
             height="18.799999"
             id="rect844"
             style="fill:#cccccc" />
          <rect
             x="-8.1000004"
             y="19.799999"
             width="17"
             height="10.3"
             id="rect846"
             style="fill:#333333" />
          <rect
             x="-8.1000004"
             y="14.3"
             width="1.1"
             height="1"
             id="rect848"
             style="fill:#b3b3b3" />
          <rect
             x="-8.1000004"
             y="14.6"
             width="1.1"
             height="0.60000002"
             id="rect850"
             style="fill:#f2f2f2" />
          <rect
             x="-8.1000004"
             y="34.599998"
             width="1.1"
             height="1"
             id="rect852"
             style="fill:#b3b3b3" />
          <rect
             x="-8.1000004"
             y="34.599998"
             width="1.1"
             height="0.60000002"
             id="rect854"
             style="fill:#999999" />
          <path
             d="m 8.3,15.3 0.6,0.2 V 18 c 0,0 -0.1,-2.3 -0.3,-2.4 -0.2,-0.1 -0.3,0.1 -0.3,0.1 0,0 0,-0.4 0,-0.4 z"
             id="path856"
             inkscape:connector-curvature="0"
             style="fill:#cccccc" />
          <path
             d="m 8.3,34.6 0.6,-0.2 v -2.5 c 0,0 -0.1,2.3 -0.3,2.4 -0.2,0.1 -0.3,-0.1 -0.3,-0.1 0,0 0,0.4 0,0.4 z"
             id="path858"
             inkscape:connector-curvature="0"
             style="fill:#cccccc" />
          <path
             d="m 8.3,31.2 h -1 V 29.6 H 8.9 V 29.1 H 8.3 V 20.7 H 8.9 V 20.2 H 7.3 V 18.6 H 8.4 V 15.3 H -8.1 V 34.6 H 8.3 V 31.2 z M -5,20.2 h -0.8 v -1.6 h 0.9 c 0.3,-0.4 0.8,-0.7 1.3,-0.7 0.6,0 1.1,0.2 1.4,0.7 l 0,0 h 4.5 v 1.6 H -2.2 C -2.5,20.7 -3,21 -3.6,21 -4.2,21 -4.7,20.7 -5,20.2 z m 0,10.9 h -0.8 v -1.6 h 0.9 c 0.3,-0.4 0.8,-0.7 1.3,-0.7 0.6,0 1.1,0.2 1.4,0.7 l 0,0 h 4.5 v 1.6 h -4.5 c -0.3,0.5 -0.8,0.8 -1.4,0.8 -0.6,0 -1.1,-0.3 -1.4,-0.8 z"
             id="path860"
             inkscape:connector-curvature="0"
             style="fill:#e6e6e6" />
          <polygon
             points="-8.1,15.3 8.3,15.3 8.3,16.8 -8.1,15.7 "
             id="polygon862"
             style="fill:#f2f2f2" />
          <polygon
             points="2.9,34 8.3,33.4 8.3,34.6 -8.1,34.6 "
             id="polygon864"
             style="fill:#999999" />
          <rect
             x="2.0999999"
             y="18.6"
             width="0.1"
             height="1.6"
             id="rect866"
             style="fill:#cccccc" />
          <rect
             x="2.0999999"
             y="29.5"
             width="0.1"
             height="1.6"
             id="rect868"
             style="fill:#cccccc" />
          <rect
             x="-7.5"
             y="16.200001"
             width="0.69999999"
             height="17.4"
             id="rect870"
             style="fill:#b3b3b3" />
          <rect
             x="-8.1000004"
             y="16.200001"
             width="0.69999999"
             height="17.4"
             id="rect872"
             style="fill:#cccccc" />
        </g>
      </g>
    </g>
  </g>
</svg>
