<?xml version="1.0" encoding="utf-8"?>
<!-- Generator: Adobe Illustrator 15.1.0, SVG Export Plug-In . SVG Version: 6.00 Build 0)  -->
<!DOCTYPE svg PUBLIC "-//W3C//DTD SVG 1.1//EN" "http://www.w3.org/Graphics/SVG/1.1/DTD/svg11.dtd">
<svg version="1.1" id="Layer_1" xmlns:svg="http://www.w3.org/2000/svg"
	 xmlns="http://www.w3.org/2000/svg" xmlns:xlink="http://www.w3.org/1999/xlink" x="0px" y="0px" width="72.958px" height="72px"
	 viewBox="0 0 72.958 72" enable-background="new 0 0 72.958 72" xml:space="preserve">
<g>
	<g>
		<g id="breadboard_1_">
			<g id="icon_1_">
				<path fill="#C62717" d="M8.157,72h64.801V0H8.157V72 M10.757,64.8c0-2.601,2.1-4.7,4.7-4.7s4.7,2.1,4.7,4.7l0,0
					c0,2.601-2.1,4.7-4.7,4.7S10.757,67.4,10.757,64.8L10.757,64.8z M61.157,64.8c0-2.601,2.1-4.7,4.7-4.7s4.7,2.1,4.7,4.7
					s-2.1,4.7-4.7,4.7S61.157,67.4,61.157,64.8z M10.757,7.199c0-2.6,2.1-4.699,4.7-4.699s4.7,2.1,4.7,4.699l0,0
					c0,2.601-2.1,4.701-4.7,4.701S10.757,9.8,10.757,7.199L10.757,7.199z M61.157,7.199c0-2.6,2.1-4.699,4.7-4.699
					s4.7,2.1,4.7,4.699c0,2.601-2.1,4.701-4.7,4.701S61.157,9.8,61.157,7.199z M65.557,38.599c-0.8,0-1.4-0.6-1.4-1.4
					c0-0.799,0.601-1.399,1.4-1.399l0,0c0.801,0,1.4,0.601,1.4,1.399C66.957,37.999,66.357,38.599,65.557,38.599z M65.557,31.399
					c-0.8,0-1.4-0.601-1.4-1.4c0-0.801,0.601-1.4,1.4-1.4c0.801,0,1.4,0.6,1.4,1.4C66.957,30.799,66.357,31.399,65.557,31.399z
					 M65.557,45.799c-0.8,0-1.4-0.601-1.4-1.399c0-0.801,0.601-1.4,1.4-1.4l0,0c0.801,0,1.4,0.6,1.4,1.4
					C66.957,45.198,66.357,45.799,65.557,45.799z M65.557,24.198c-0.8,0-1.4-0.6-1.4-1.399s0.601-1.399,1.4-1.399
					c0.801,0,1.4,0.6,1.4,1.399S66.357,24.198,65.557,24.198z"/>
				<g>
					<title>layer 21</title>
					<g>
						<title>text:GND</title>
						<g transform="matrix(1, 0, 0, 1, 37.4584, 11.16)">
							<text transform="matrix(1 0 0 1 14.8575 34.0002)" fill="#FFFFFF" font-family="'ArialMT'" font-size="3.3408">GND</text>
						</g>
						<g transform="matrix(1, 0, 0, 1, 37.4584, 11.16)">
							<text transform="matrix(1 0 0 1 18.8575 20.0002)" fill="#FFFFFF" font-family="'ArialMT'" font-size="3.3408">D-</text>
						</g>
						<g transform="matrix(1, 0, 0, 1, 37.4584, 11.16)">
							<text transform="matrix(1 0 0 1 18.8575 27.0002)" fill="#FFFFFF" font-family="'ArialMT'" font-size="3.3408">D+</text>
						</g>
					</g>
					<g>
						<title>text:VCC</title>
						<g transform="matrix(1, 0, 0, 1, 28.8184, 11.16)">
							<text transform="matrix(1 0 0 1 23.8574 13.0002)" fill="#FFFFFF" font-family="'ArialMT'" font-size="3.3408">VCC</text>
						</g>
					</g>
					<g>
						<title>text:PS</title>
						<g transform="matrix(1, 0, 0, 1, 16.5784, 5.04)">
							<text transform="matrix(1 0 0 1 3.8572 6.103516e-005)" fill="#FFFFFF" font-family="'ArialMT'" font-size="3.3408">PS</text>
						</g>
					</g>
					<g>
						<title>text:EN</title>
						<g transform="matrix(1, 0, 0, 1, 52.2184, 5.04)">
							<text transform="matrix(1 0 0 1 3.8573 6.103516e-005)" fill="#FFFFFF" font-family="'ArialMT'" font-size="3.3408">EN</text>
						</g>
					</g>
					<g>
						<title>element:JP2</title>
						<g>
							<title>package:1X02</title>
							
								<line fill="none" stroke="#FFFFFF" stroke-width="0.576" stroke-linecap="round" x1="61.958" y1="39" x2="61.958" y2="35.4"/>
							
								<line fill="none" stroke="#FFFFFF" stroke-width="0.576" stroke-linecap="round" x1="61.958" y1="35.4" x2="63.758" y2="33.6"/>
							
								<line fill="none" stroke="#FFFFFF" stroke-width="0.576" stroke-linecap="round" x1="67.358" y1="33.6" x2="69.157" y2="35.4"/>
							
								<line fill="none" stroke="#FFFFFF" stroke-width="0.576" stroke-linecap="round" x1="63.758" y1="33.6" x2="61.958" y2="31.8"/>
							
								<line fill="none" stroke="#FFFFFF" stroke-width="0.576" stroke-linecap="round" x1="61.958" y1="31.8" x2="61.958" y2="28.199"/>
							
								<line fill="none" stroke="#FFFFFF" stroke-width="0.576" stroke-linecap="round" x1="61.958" y1="28.199" x2="63.758" y2="26.4"/>
							
								<line fill="none" stroke="#FFFFFF" stroke-width="0.576" stroke-linecap="round" x1="67.358" y1="26.4" x2="69.157" y2="28.199"/>
							
								<line fill="none" stroke="#FFFFFF" stroke-width="0.576" stroke-linecap="round" x1="69.157" y1="28.199" x2="69.157" y2="31.8"/>
							
								<line fill="none" stroke="#FFFFFF" stroke-width="0.576" stroke-linecap="round" x1="69.157" y1="31.8" x2="67.358" y2="33.6"/>
							
								<line fill="none" stroke="#FFFFFF" stroke-width="0.576" stroke-linecap="round" x1="63.758" y1="40.8" x2="67.358" y2="40.8"/>
							
								<line fill="none" stroke="#FFFFFF" stroke-width="0.576" stroke-linecap="round" x1="61.958" y1="39" x2="63.758" y2="40.8"/>
							
								<line fill="none" stroke="#FFFFFF" stroke-width="0.576" stroke-linecap="round" x1="67.358" y1="40.8" x2="69.157" y2="39"/>
							
								<line fill="none" stroke="#FFFFFF" stroke-width="0.576" stroke-linecap="round" x1="69.157" y1="35.4" x2="69.157" y2="39"/>
							
								<line fill="none" stroke="#FFFFFF" stroke-width="0.576" stroke-linecap="round" x1="63.758" y1="26.4" x2="67.358" y2="26.4"/>
						</g>
					</g>
					<g>
						<title>element:JP3</title>
						<g>
							<title>package:SFE-NEW-WEBLOGO</title>
						</g>
					</g>
					<g>
						<title>element:JP5</title>
						<g>
							<title>package:STAND-OFF</title>
						</g>
					</g>
					<g>
						<title>element:JP6</title>
						<g>
							<title>package:STAND-OFF</title>
						</g>
					</g>
					<g>
						<title>element:JP7</title>
						<g>
							<title>package:STAND-OFF</title>
						</g>
					</g>
					<g>
						<title>element:JP8</title>
						<g>
							<title>package:STAND-OFF</title>
						</g>
					</g>
					<g>
						<title>element:JP12</title>
						<g>
							<title>package:1X02</title>
						</g>
					</g>
					<g>
						<title>element:JP13</title>
						<g>
							<title>package:1X01</title>
							
								<line fill="none" stroke="#FFFFFF" stroke-width="0.576" stroke-linecap="round" x1="63.758" y1="40.8" x2="61.958" y2="42.6"/>
							
								<line fill="none" stroke="#FFFFFF" stroke-width="0.576" stroke-linecap="round" x1="61.958" y1="42.6" x2="61.958" y2="46.199"/>
							
								<line fill="none" stroke="#FFFFFF" stroke-width="0.576" stroke-linecap="round" x1="61.958" y1="46.199" x2="63.758" y2="48"/>
							<line fill="none" stroke="#FFFFFF" stroke-width="0.576" stroke-linecap="round" x1="63.758" y1="48" x2="67.358" y2="48"/>
							
								<line fill="none" stroke="#FFFFFF" stroke-width="0.576" stroke-linecap="round" x1="67.358" y1="48" x2="69.157" y2="46.199"/>
							
								<line fill="none" stroke="#FFFFFF" stroke-width="0.576" stroke-linecap="round" x1="69.157" y1="46.199" x2="69.157" y2="42.6"/>
							
								<line fill="none" stroke="#FFFFFF" stroke-width="0.576" stroke-linecap="round" x1="69.157" y1="42.6" x2="67.358" y2="40.8"/>
							
								<line fill="none" stroke="#FFFFFF" stroke-width="0.576" stroke-linecap="round" x1="67.358" y1="40.8" x2="63.758" y2="40.8"/>
						</g>
					</g>
					<g>
						<title>element:JP14</title>
						<g>
							<title>package:1X01</title>
							
								<line fill="none" stroke="#FFFFFF" stroke-width="0.576" stroke-linecap="round" x1="63.758" y1="19.199" x2="61.958" y2="21"/>
							
								<line fill="none" stroke="#FFFFFF" stroke-width="0.576" stroke-linecap="round" x1="61.958" y1="21" x2="61.958" y2="24.6"/>
							
								<line fill="none" stroke="#FFFFFF" stroke-width="0.576" stroke-linecap="round" x1="61.958" y1="24.6" x2="63.758" y2="26.4"/>
							
								<line fill="none" stroke="#FFFFFF" stroke-width="0.576" stroke-linecap="round" x1="63.758" y1="26.4" x2="67.358" y2="26.4"/>
							
								<line fill="none" stroke="#FFFFFF" stroke-width="0.576" stroke-linecap="round" x1="67.358" y1="26.4" x2="69.157" y2="24.6"/>
							
								<line fill="none" stroke="#FFFFFF" stroke-width="0.576" stroke-linecap="round" x1="69.157" y1="24.6" x2="69.157" y2="21"/>
							
								<line fill="none" stroke="#FFFFFF" stroke-width="0.576" stroke-linecap="round" x1="69.157" y1="21" x2="67.358" y2="19.199"/>
							
								<line fill="none" stroke="#FFFFFF" stroke-width="0.576" stroke-linecap="round" x1="67.358" y1="19.199" x2="63.758" y2="19.199"/>
						</g>
					</g>
					<g>
						<title>element:JP15</title>
						<g>
							<title>package:MICRO-FIDUCIAL</title>
						</g>
					</g>
					<g>
						<title>element:JP16</title>
						<g>
							<title>package:MICRO-FIDUCIAL</title>
						</g>
					</g>
					<g>
						<title>element:SJ2</title>
						<g>
							<title>package:SJ_2S-NO</title>
						</g>
					</g>
					<g>
						<title>element:U$1</title>
						<g>
							<title>package:OSHW-LOGO-S</title>
						</g>
					</g>
				</g>
				<circle id="connector18pin" fill="none" stroke="#9A916C" stroke-width="1.224" cx="65.558" cy="37.199" r="2.1"/>
				<circle id="connector19pin" fill="none" stroke="#9A916C" stroke-width="1.224" cx="65.558" cy="30" r="2.1"/>
				<circle id="connector24pin" fill="none" stroke="#9A916C" stroke-width="1.224" cx="65.558" cy="44.4" r="2.1"/>
				<circle id="connector25pin" fill="none" stroke="#9A916C" stroke-width="1.224" cx="65.558" cy="22.8" r="2.1"/>
			</g>
		</g>
	</g>
	<g>
	</g>
	<g>
		<title>element:LOGO1</title>
		<g>
			<title>package:OSHW-LOGO-S</title>
			<g>
				<title>polygon</title>
				<path fill="none" stroke="#FFFFFF" stroke-width="0.4252" stroke-linecap="round" d="M43.033,63.281l-0.223-0.432 M42.811,62.85
					l0.873-1.068 M43.684,61.781l-0.733-0.732 M42.95,61.049l-1.069,0.871 M41.881,61.92l-0.43-0.222 M41.451,61.698l-0.462-0.147
					 M40.989,61.551l-0.139-1.371 M40.851,60.18h-1.037 M39.813,60.18l-0.139,1.371 M39.675,61.551l-0.462,0.147 M39.213,61.698
					l-0.43,0.222 M38.783,61.92l-1.068-0.871 M37.715,61.049l-0.733,0.732 M36.981,61.781l0.872,1.068 M37.854,62.85l-0.223,0.432
					 M37.631,63.281l-0.146,0.461 M37.484,63.742l-1.372,0.139 M36.112,63.881v1.037 M36.112,64.918l1.372,0.139 M37.484,65.057
					l0.146,0.461 M37.631,65.518l0.223,0.432 M37.854,65.949l-0.872,1.068 M36.981,67.018l0.733,0.732 M37.715,67.75l1.068-0.871
					 M38.783,66.879l0.43,0.221 M39.213,67.1l0.462,0.148 M39.675,67.248l0.139,1.371 M39.813,68.619h1.037 M40.851,68.619
					l0.139-1.371 M40.989,67.248l0.462-0.148 M41.451,67.1l0.43-0.221 M41.881,66.879l1.069,0.871 M42.95,67.75l0.733-0.732
					 M43.684,67.018l-0.873-1.068 M42.811,65.949l0.223-0.432 M43.033,65.518l-1.474-0.609 M41.56,64.908l-0.152,0.271
					 M41.407,65.18l-0.212,0.23 M41.195,65.41l-0.26,0.174 M40.936,65.584l-0.293,0.107 M40.643,65.691l-0.311,0.037 M40.332,65.729
					l-0.316-0.039 M40.016,65.689l-0.297-0.111 M39.719,65.578l-0.263-0.18 M39.456,65.398l-0.212-0.236 M39.244,65.162l-0.15-0.281
					 M39.094,64.881l-0.078-0.309 M39.016,64.572l-0.004-0.317 M39.012,64.255l0.072-0.31 M39.084,63.945l0.144-0.283
					 M39.228,63.662l0.208-0.242 M39.436,63.42l0.258-0.186 M39.693,63.234l0.295-0.118 M39.988,63.116l0.314-0.045 M40.303,63.071
					l0.317,0.03 M40.62,63.102l0.3,0.105 M40.92,63.207l0.266,0.174 M41.186,63.381l0.218,0.232 M41.403,63.613l0.156,0.277
					 M41.56,63.891l1.474-0.609 M43.309,67.391v-0.832 M43.309,62.24v-0.833 M42.883,67.695v-1.658 M42.883,65.809v-0.353
					 M42.883,63.342V62.99 M42.883,62.762v-1.658 M42.459,67.35v-2.07 M42.459,63.519v-2.069 M42.033,67.002v-1.898 M42.033,63.695
					v-1.898 M41.607,67.02v-2.092 M41.607,63.871v-2.092 M41.183,67.186v-1.768 M41.183,63.379v-1.767 M40.758,68.619v-2.971
					 M40.758,63.15V60.18 M40.332,68.619v-2.891 M40.332,63.074V60.18 M39.906,68.619v-2.971 M39.906,63.148V60.18 M39.482,67.186
					v-1.77 M39.482,63.387v-1.774 M39.057,67.02v-2.285 M39.057,64.063v-2.283 M38.631,67.002v-5.205 M38.206,67.35v-5.9
					 M37.781,67.695v-1.658 M37.781,65.809V62.99 M37.781,62.762v-1.658 M37.355,67.391v-0.832 M37.355,65.044v-1.289 M37.355,62.24
					v-0.833 M36.931,65v-1.202 M36.506,64.957v-1.115"/>
			</g>
		</g>
	</g>
	<g>
		<title>element:LOGO3</title>
		<g>
			<title>package:SFE_LOGO_FLAME_.1</title>
			<g>
				<title>polygon</title>
				<path fill="none" stroke="#FFFFFF" stroke-width="0.216" stroke-linecap="round" d="M37.381,5.708h0.255 M37.636,5.708
					l0.085,0.027 M37.721,5.735l0.058,0.029 M37.778,5.765l0.084,0.084 M37.862,5.849l0.028,0.086 M37.891,5.935V6.02 M37.891,6.02
					l-0.057,0.227 M37.834,6.246l-0.056,0.113 M37.778,6.359l-0.058,0.085 M37.721,6.444l-0.085,0.113 M37.636,6.558l-0.17,0.17
					 M37.466,6.728l-0.17,0.113 M37.296,6.841L37.182,6.87 M37.182,6.87h-0.17 M37.012,6.87l-0.085-0.029 M36.927,6.841L36.87,6.813
					 M36.87,6.813l-0.086-0.057 M36.784,6.757L36.7,6.644 M36.7,6.644L36.644,6.53 M36.644,6.53l-0.029-0.143 M36.614,6.388
					l-0.027-0.113 M36.587,6.274v-0.17 M36.587,6.104l0.027-0.057 M36.614,6.048V6.02 M36.614,6.02l-0.027,0.028 M36.587,6.048
					l-0.085,0.113 M36.502,6.161l-0.198,0.396 M36.304,6.558l-0.057,0.256 M36.247,6.813v0.283 M36.247,7.097l0.057,0.312
					 M36.304,7.408l0.17,0.312 M36.474,7.72l0.198,0.256 M36.672,7.976l0.228,0.141 M36.899,8.116l0.254,0.086 M37.153,8.202h0.228
					 M37.381,8.202l0.255-0.057 M37.636,8.146l0.255-0.143 M37.891,8.003l0.226-0.197 M38.116,7.806l0.257-0.227 M38.373,7.579
					l0.198-0.199 M38.571,7.38l0.227-0.085 M38.798,7.295h0.199 M38.997,7.295l0.169,0.057 M39.166,7.352l0.142,0.113 M39.308,7.465
					l0.113,0.171 M39.421,7.636l0.057,0.227 M39.478,7.862v0.227 M39.478,8.089L39.45,8.23 M39.45,8.23l-0.058,0.142 M39.393,8.372
					l-0.17,0.17 M39.223,8.542l-0.085,0.057 M39.138,8.599l-0.085,0.029 M39.053,8.628H38.94 M38.94,8.628l-0.086-0.029
					 M38.854,8.599l-0.17-0.17 M38.685,8.429l-0.027-0.085 M38.657,8.344L38.6,8.23 M38.6,8.23l-0.028-0.028 M38.571,8.202
					l-0.057,0.113 M38.515,8.315v0.34 M38.515,8.655l0.028,0.17 M38.543,8.825l0.028,0.143 M38.571,8.968l0.057,0.141 M38.628,9.108
					l0.085,0.114 M38.713,9.223l0.114,0.142 M38.827,9.364l0.283,0.17 M39.11,9.534l0.197,0.057 M39.308,9.591l0.227,0.028
					 M39.534,9.619h3.885 M43.419,9.619l-0.143-0.142 M43.276,9.478l-0.142-0.085 M43.135,9.393l-0.142-0.142 M42.993,9.251
					l-0.17-0.143 M42.823,9.108l-0.34-0.34 M42.483,8.769l-0.397-0.34 M42.086,8.429l-0.283-0.283 M41.803,8.146l-0.171-0.283
					 M41.632,7.862l-0.027-0.17 M41.604,7.692V7.153 M41.604,7.153l-0.058-0.34 M41.547,6.813l-0.084-0.313 M41.463,6.501
					l-0.114-0.283 M41.349,6.218l-0.17-0.283 M41.179,5.935l-0.197-0.227 M40.981,5.708l-0.228-0.227 M40.754,5.481l-0.255-0.199
					 M40.499,5.282l-0.51-0.283 M39.989,4.999L39.45,4.856 M39.45,4.856l-0.482-0.027 M38.968,4.829l-0.453,0.084 M38.515,4.913
					l-0.426,0.143 M38.089,5.056l-0.311,0.198 M37.778,5.254l-0.256,0.228 M37.522,5.481l-0.142,0.227 M43.358,9.619V9.56
					 M43.143,9.619V9.397 M42.927,9.619V9.196 M42.711,9.619V8.997 M42.495,9.619V8.78 M42.278,9.619V8.595 M42.063,9.619V8.405
					 M41.847,9.619v-1.43 M41.631,9.619V7.852 M41.415,9.619V6.382 M41.198,9.619V5.968 M40.983,9.619V5.71 M40.767,9.619V5.493
					 M40.551,9.619V5.323 M40.335,9.619V5.191 M40.118,9.619V5.071 M39.903,9.619V4.976 M39.687,9.619v-4.7 M39.471,9.611V8.126
					 M39.471,7.833V4.862 M39.255,9.575V8.511 M39.255,7.423V4.846 M39.039,9.491V8.628 M39.039,7.31V4.833 M38.823,9.36V8.567
					 M38.823,7.295V4.856 M38.606,9.057V8.245 M38.606,7.366v-2.47 M38.391,7.56V4.955 M38.175,7.755V5.026 M37.959,7.944V5.139
					 M37.743,8.086V6.411 M37.743,5.747V5.284 M37.526,8.169V6.667 M37.526,5.708V5.477 M37.312,8.202V6.831 M37.095,8.183V6.87
					 M36.879,8.104V6.817 M36.663,7.964V6.567 M36.446,7.671v-1.4"/>
			</g>
		</g>
	</g>
	<g transform="matrix(1, 0, 0, 1, 7.2, 13.36)">
		<g>
			<g>
				<path fill="#7A7A7A" d="M33.777,3.313H-4.839v1.6h-1.707v16.732l1.096,0.116v0.526l-1.096,0.115v16.755h1.707v1.597h38.615
					V3.313z M-2.32,15.741c-0.308-0.057-0.556-0.396-0.556-0.795v-4.451c0-0.396,0.254-0.76,0.556-0.799l20.685-2.805
					c0.305-0.052,0.557,0.256,0.557,0.646V8.19c0,0.396-0.254,0.758-0.557,0.801L0.981,11.104c-0.31,0.033-0.558,0.373-0.558,0.793
					v1.652c0,0.383,0.252,0.76,0.558,0.797l17.384,2.104c0.303,0.047,0.555,0.373,0.555,0.797l0.002,0.646
					c0,0.395-0.254,0.693-0.555,0.654L-2.32,15.741z M-2.32,34.373c-0.308-0.055-0.556-0.396-0.556-0.796v-4.449
					c0-0.397,0.254-0.761,0.556-0.801l20.685-2.808c0.305-0.05,0.557,0.258,0.557,0.646v0.654c0,0.396-0.254,0.755-0.557,0.797
					L0.981,29.735c-0.31,0.031-0.558,0.369-0.558,0.791v1.65c0,0.383,0.252,0.76,0.558,0.797l17.384,2.106
					c0.303,0.048,0.555,0.373,0.555,0.795l0.002,0.646c0,0.396-0.254,0.694-0.555,0.655L-2.32,34.373z"/>
				<rect x="-3.013" y="5.948" fill="#CCCCCC" width="33.438" height="32.188"/>
				<rect x="-4.764" y="5.948" fill="#F2F2F2" width="1.75" height="32.188"/>
				<path fill="#B0B0B0" d="M-0.134,39.335v1c-0.535,0-0.885,0.099-0.998,0.271c-0.031,0.065-0.106,0.627-0.106,1.015h-0.675h-0.325
					h-3.308H-5.7h-0.846c0-0.604,0.111-1.316,0.271-1.563c0.445-0.664,1.341-0.715,1.738-0.72l0.002-0.002h4l-0.012,0.019
					C-0.372,39.337-0.225,39.335-0.134,39.335z"/>
				<path fill="#8F8F8F" d="M-0.993,40.487c0.173-0.101,0.466-0.149,0.861-0.149v-1h-4.305c-0.281,0-1.035,0.007-1.564,0.429
					c-0.145,0.125-0.313,0.189-0.449,0.813C-6.273,40.479-0.993,40.487-0.993,40.487z"/>
				<path fill="#B0B0B0" d="M-0.134,4.744v-1c-0.535,0-0.885-0.101-0.998-0.271c-0.031-0.065-0.106-0.628-0.106-1.014h-0.675h-0.325
					h-3.308H-5.7h-0.846c0,0.604,0.111,1.318,0.271,1.561c0.445,0.664,1.341,0.719,1.738,0.723l0.002,0.001h4l-0.012-0.021
					C-0.372,4.743-0.225,4.744-0.134,4.744z"/>
				<path fill="#8F8F8F" d="M-6.445,3.504c0.135,0.619,0.309,0.688,0.45,0.813c0.521,0.425,1.275,0.431,1.56,0.431h4.306v-1
					c-0.396,0-0.688-0.058-0.857-0.149C-0.993,3.593-6.273,3.6-6.445,3.504z"/>
				<path fill="#B3B3B3" d="M38.08,3.313H-0.532v1.6h-1.707v34.25h1.707v1.596H38.08V3.313z M1.984,15.741
					c-0.307-0.057-0.554-0.396-0.554-0.795v-4.451c0-0.396,0.252-0.76,0.554-0.799l20.688-2.805
					c0.304-0.052,0.556,0.256,0.556,0.646V8.19c0,0.396-0.253,0.758-0.556,0.801L5.284,11.104c-0.313,0.033-0.561,0.373-0.561,0.793
					v1.652c0,0.383,0.256,0.76,0.561,0.797l17.385,2.104c0.305,0.047,0.556,0.373,0.556,0.797l0.002,0.646
					c0,0.395-0.253,0.693-0.556,0.654L1.984,15.741z M1.984,34.373c-0.307-0.055-0.554-0.396-0.554-0.796v-4.449
					c0-0.397,0.252-0.761,0.554-0.801l20.688-2.806c0.304-0.051,0.556,0.258,0.556,0.646v0.653c0,0.396-0.253,0.756-0.556,0.798
					L5.284,29.735c-0.313,0.031-0.561,0.371-0.561,0.793v1.649c0,0.384,0.256,0.761,0.561,0.798l17.385,2.105
					c0.305,0.048,0.556,0.373,0.556,0.795l0.002,0.646c0,0.395-0.253,0.693-0.556,0.654L1.984,34.373z"/>
				<polygon fill="none" points="4.741,11.161 4.741,14.272 6.372,14.455 6.372,10.998 				"/>
				<polygon fill="#939393" points="6.372,14.455 4.741,14.272 4.741,11.161 6.372,10.998 				"/>
				<polygon fill="#666666" points="6.372,14.455 7.057,14.539 7.057,10.903 6.372,10.998 				"/>
				<polygon fill="none" points="4.741,29.792 4.741,32.903 6.372,33.085 6.372,29.63 				"/>
				<polygon fill="#939393" points="6.372,33.085 4.741,32.903 4.741,29.792 6.372,29.63 				"/>
				<polygon fill="#666666" points="6.372,33.085 7.057,33.169 7.057,29.534 6.372,29.63 				"/>
				
					<line fill="none" stroke="#FFFFFF" stroke-width="0.8064" stroke-linecap="round" stroke-opacity="0.24" x1="37.017" y1="3.88" x2="0.175" y2="3.88"/>
				
					<line fill="none" stroke="#FFFFFF" stroke-width="0.8064" stroke-linecap="round" stroke-opacity="0.24" x1="37.017" y1="40.188" x2="0.025" y2="40.188"/>
				
					<line fill="none" stroke="#000000" stroke-width="0.4032" stroke-linecap="round" stroke-opacity="0.15" x1="-1.107" y1="38.94" x2="-1.107" y2="5.128"/>
				<rect x="-2.238" y="4.91" fill="#B0B0B0" width="0.649" height="34.25"/>
				<polygon fill="#B0B0B0" points="-6.546,21.645 -6.546,4.91 -7.2,4.91 -7.2,21.577 				"/>
				<polygon fill="#B0B0B0" points="-6.546,22.405 -7.2,22.475 -7.2,39.16 -6.546,39.16 				"/>
				<rect x="24.468" y="-1.339" fill="#4D4D4D" width="6.549" height="4.649"/>
				<rect x="24.468" y="40.77" fill="#4D4D4D" width="6.549" height="4.65"/>
			</g>
		</g>
	</g>
</g>
</svg>
