<?xml version="1.0" encoding="UTF-8" standalone="no"?>
<!-- Generator: Adobe Illustrator 16.0.0, SVG Export Plug-In . SVG Version: 6.00 Build 0)  -->

<svg
   xmlns:dc="http://purl.org/dc/elements/1.1/"
   xmlns:cc="http://creativecommons.org/ns#"
   xmlns:rdf="http://www.w3.org/1999/02/22-rdf-syntax-ns#"
   xmlns:svg="http://www.w3.org/2000/svg"
   xmlns="http://www.w3.org/2000/svg"
   xmlns:sodipodi="http://sodipodi.sourceforge.net/DTD/sodipodi-0.dtd"
   xmlns:inkscape="http://www.inkscape.org/namespaces/inkscape"
   version="1.1"
   id="Ebene_1"
   x="0px"
   y="0px"
   width="14.172"
   height="15.293"
   viewBox="0 0 14.172 15.293"
   xml:space="preserve"
   inkscape:version="0.48.4 r9939"
   sodipodi:docname="RGB-LED.svg"><metadata
   id="metadata5898"><rdf:RDF><cc:Work
       rdf:about=""><dc:format>image/svg+xml</dc:format><dc:type
         rdf:resource="http://purl.org/dc/dcmitype/StillImage" /><dc:title></dc:title></cc:Work></rdf:RDF></metadata><defs
   id="defs5896">
	
	
	
	
	

		
		
		
		
		
		
	
		
		
		
		
		
		
	
		
		
		
		
		
		
	
		
		
		
		
		
		
	
		
		
		
		
		
		
	</defs><sodipodi:namedview
   pagecolor="#ffffff"
   bordercolor="#666666"
   borderopacity="1"
   objecttolerance="10"
   gridtolerance="10"
   guidetolerance="10"
   inkscape:pageopacity="0"
   inkscape:pageshadow="2"
   inkscape:window-width="1920"
   inkscape:window-height="1058"
   id="namedview5894"
   showgrid="false"
   fit-margin-top="0"
   fit-margin-left="0"
   fit-margin-right="0"
   fit-margin-bottom="0"
   inkscape:zoom="56.95416"
   inkscape:cx="7.086"
   inkscape:cy="7.6465002"
   inkscape:window-x="1912"
   inkscape:window-y="-8"
   inkscape:window-maximized="1"
   inkscape:current-layer="Ebene_1" />

<g
   id="g9231"
   transform="translate(-3.714,-13.8)">
			<g
   id="g9233">
				<rect
   id="rect9235"
   height="1.5420001"
   width="2.8340001"
   y="27.551001"
   x="13.919"
   style="fill:#b3b3b3" />
				<rect
   id="rect9237"
   height="1.5420001"
   width="2.8340001"
   y="27.551001"
   x="4.8470001"
   style="fill:#b3b3b3" />
				<rect
   id="rect9239"
   height="1.543"
   width="2.8340001"
   y="13.8"
   x="13.919"
   style="fill:#b3b3b3" />
				<rect
   id="rect9241"
   height="1.543"
   width="2.8340001"
   y="13.8"
   x="4.8470001"
   style="fill:#b3b3b3" />
			</g>
			<rect
   id="rect9243"
   height="14.174"
   width="14.172"
   y="14.36"
   x="3.714"
   style="fill:#e6e6e6" />
			<circle
   id="circle9245"
   r="5.6129999"
   cy="21.632999"
   cx="10.801"
   sodipodi:cx="10.801"
   sodipodi:cy="21.632999"
   sodipodi:rx="5.6129999"
   sodipodi:ry="5.6129999"
   style="fill:#cccccc"
   d="m 16.414,21.632999 c 0,3.099975 -2.513026,5.613 -5.613,5.613 -3.0999746,0 -5.6130003,-2.513025 -5.6130003,-5.613 0,-3.099974 2.5130257,-5.612999 5.6130003,-5.612999 3.099974,0 5.613,2.513025 5.613,5.612999 z" />
			<circle
   id="circle9247"
   r="4.796"
   cy="21.632999"
   cx="10.801"
   sodipodi:cx="10.801"
   sodipodi:cy="21.632999"
   sodipodi:rx="4.796"
   sodipodi:ry="4.796"
   style="fill:#e6e6e6"
   d="m 15.597,21.632999 c 0,2.648758 -2.147243,4.796 -4.796,4.796 -2.648758,0 -4.7960004,-2.147242 -4.7960004,-4.796 0,-2.648757 2.1472424,-4.796 4.7960004,-4.796 2.648757,0 4.796,2.147243 4.796,4.796 z" />
			<g
   id="g9249">
				<g
   id="g9251">
					<g
   id="g9253">
						<path
   id="path9255"
   d="m 8.906,24.6 v 1.438 c 0.581,0.25 1.223,0.393 1.896,0.393 0.682,0 1.329,-0.146 1.917,-0.404 V 24.6 H 8.906 z"
   inkscape:connector-curvature="0"
   style="fill:#999999" />
						<path
   id="path9257"
   d="m 13.718,18.581 c -0.146,0 -0.645,0 -1,0 -0.354,0 -0.395,0.395 -0.395,0.395 v 1.396 l 0.625,0.625 h 2.584 c -0.156,-1.162 -0.72,-2.184 -1.552,-2.928 -0.018,0.252 -0.129,0.512 -0.262,0.512 z"
   inkscape:connector-curvature="0"
   style="fill:#999999" />
						<path
   id="path9259"
   d="m 9.313,20.372 v -1.396 c 0,0 -0.041,-0.395 -0.395,-0.395 -0.355,0 -0.854,0 -1,0 -0.14,0 -0.254,-0.279 -0.268,-0.539 -0.851,0.746 -1.426,1.779 -1.583,2.955 h 2.619 l 0.627,-0.625 z"
   inkscape:connector-curvature="0"
   style="fill:#999999" />
						<path
   id="path9261"
   d="m 13.212,22.6 0.006,1.084 c 0.008,0 0.061,0 0.334,0 0.418,0 0.438,0.459 0.438,0.459 v 1.049 c 0.883,-0.793 1.459,-1.9 1.565,-3.154 -0.399,0 -1.375,0 -1.815,0 -0.563,0 -0.528,0.562 -0.528,0.562 z"
   inkscape:connector-curvature="0"
   style="fill:#999999" />
						<path
   id="path9263"
   d="m 7.612,25.192 v -1.049 c 0,0 0.021,-0.459 0.437,-0.459 0.271,0 0.326,0 0.334,0 L 8.389,22.6 c 0,0 0.033,-0.563 -0.529,-0.563 -0.44,0 -1.414,0 -1.813,0 0.105,1.255 0.681,2.362 1.565,3.155 z"
   inkscape:connector-curvature="0"
   style="fill:#999999" />
						<path
   id="path9265"
   d="m 10.145,21.448 c 0,0 -0.041,0.271 -0.457,0.271 -0.418,0 -0.418,0 -0.418,0 v 1.686 c 0,0 -0.084,0.392 0.313,0.392 0.181,0 0.526,0 0.854,0 0,0 0.36,0 0.752,0 0.327,0 0.672,0 0.854,0 0.396,0 0.313,-0.392 0.313,-0.392 v -1.686 c 0,0 0,0 -0.418,0 -0.416,0 -0.457,-0.271 -0.457,-0.271 v -3.555 l 1.052,-0.721 c -0.537,-0.209 -1.117,-0.334 -1.729,-0.334 -0.605,0 -1.181,0.123 -1.715,0.328 l 1.059,0.727 v 3.555 h -0.003 z"
   inkscape:connector-curvature="0"
   style="fill:#999999" />
					</g>
					<rect
   id="rect9267"
   height="3.105"
   width="2.2290001"
   y="21.85"
   x="9.7959995"
   style="fill:#4f423c" />
				</g>
				<rect
   id="rect9269"
   height="0.64600003"
   width="0.69499999"
   y="20.1"
   x="10.503"
   style="fill:#4d4d4d" />
				<rect
   id="rect9271"
   height="0.98799998"
   width="0.96100003"
   y="18.999001"
   x="8.0930004"
   style="fill:#4d4d4d" />
				<g
   id="g9273">
					<g
   id="g9275">
						<g
   id="g9277">
							<path
   id="path9279"
   d="m 7.781,22.918 c 0.075,0.033 1.903,0.82 2.588,1.317 l -0.06,0.082 C 9.633,23.826 7.758,23.018 7.742,23.009 l 0.039,-0.091 z"
   inkscape:connector-curvature="0"
   style="fill:#e6c47e" />
						</g>
						<g
   id="g9281">
							<g
   id="g9283">
								<circle
   id="circle9285"
   r="0.132"
   cy="22.965"
   cx="7.7600002"
   sodipodi:cx="7.7600002"
   sodipodi:cy="22.965"
   sodipodi:rx="0.132"
   sodipodi:ry="0.132"
   style="fill:#e6c47e"
   d="m 7.8920002,22.965 c 0,0.0729 -0.059098,0.132 -0.132,0.132 -0.072902,0 -0.132,-0.0591 -0.132,-0.132 0,-0.0729 0.059098,-0.132 0.132,-0.132 0.072902,0 0.132,0.0591 0.132,0.132 z" />
							</g>
						</g>
						<g
   id="g9287">
							<g
   id="g9289">
								<circle
   id="circle9291"
   r="0.131"
   cy="24.278"
   cx="10.338"
   sodipodi:cx="10.338"
   sodipodi:cy="24.278"
   sodipodi:rx="0.131"
   sodipodi:ry="0.131"
   style="fill:#e6c47e"
   d="m 10.469,24.278 c 0,0.07235 -0.05865,0.131 -0.131,0.131 -0.07235,0 -0.131,-0.05865 -0.131,-0.131 0,-0.07235 0.05865,-0.131 0.131,-0.131 0.07235,0 0.131,0.05865 0.131,0.131 z" />
							</g>
						</g>
					</g>
					<g
   id="g9293">
						<g
   id="g9295">
							<path
   id="path9297"
   d="m 6.938,20.702 c 0.115,0.059 2.806,1.441 3.101,1.645 L 9.981,22.429 C 9.69,22.23 6.92,20.806 6.893,20.792 l 0.045,-0.09 z"
   inkscape:connector-curvature="0"
   style="fill:#e6c47e" />
						</g>
						<g
   id="g9299">
							<g
   id="g9301">
								<circle
   id="circle9303"
   r="0.132"
   cy="20.747"
   cx="6.9169998"
   sodipodi:cx="6.9169998"
   sodipodi:cy="20.747"
   sodipodi:rx="0.132"
   sodipodi:ry="0.132"
   style="fill:#e6c47e"
   d="m 7.0489998,20.747 c 0,0.0729 -0.059098,0.132 -0.132,0.132 -0.072902,0 -0.132,-0.0591 -0.132,-0.132 0,-0.0729 0.059098,-0.132 0.132,-0.132 0.072902,0 0.132,0.0591 0.132,0.132 z" />
							</g>
						</g>
						<g
   id="g9305">
							<g
   id="g9307">
								<circle
   id="circle9309"
   r="0.131"
   cy="22.386999"
   cx="10.01"
   sodipodi:cx="10.01"
   sodipodi:cy="22.386999"
   sodipodi:rx="0.131"
   sodipodi:ry="0.131"
   style="fill:#e6c47e"
   d="m 10.141,22.386999 c 0,0.07235 -0.05865,0.131 -0.131,0.131 -0.072349,0 -0.1309998,-0.05865 -0.1309998,-0.131 0,-0.07235 0.058651,-0.131 0.1309998,-0.131 0.07235,0 0.131,0.05865 0.131,0.131 z" />
							</g>
						</g>
					</g>
					<g
   id="g9311">
						<g
   id="g9313">
							<path
   id="path9315"
   d="m 8.428,19.825 c 0.08,0.098 1.986,2.433 2.082,2.734 L 10.414,22.59 C 10.34,22.354 8.897,20.559 8.35,19.887 l 0.078,-0.062 z"
   inkscape:connector-curvature="0"
   style="fill:#e6c47e" />
						</g>
						<g
   id="g9317">
							<g
   id="g9319">
								<circle
   id="circle9321"
   r="0.132"
   cy="19.856001"
   cx="8.3889999"
   sodipodi:cx="8.3889999"
   sodipodi:cy="19.856001"
   sodipodi:rx="0.132"
   sodipodi:ry="0.132"
   style="fill:#e6c47e"
   d="m 8.5209999,19.856001 c 0,0.0729 -0.059098,0.132 -0.132,0.132 -0.072902,0 -0.132,-0.0591 -0.132,-0.132 0,-0.0729 0.059098,-0.132 0.132,-0.132 0.072902,0 0.132,0.0591 0.132,0.132 z" />
							</g>
						</g>
						<g
   id="g9323">
							<g
   id="g9325">
								<circle
   id="circle9327"
   r="0.131"
   cy="22.575001"
   cx="10.464"
   sodipodi:cx="10.464"
   sodipodi:cy="22.575001"
   sodipodi:rx="0.131"
   sodipodi:ry="0.131"
   style="fill:#e6c47e"
   d="m 10.595,22.575001 c 0,0.07235 -0.05865,0.131 -0.131,0.131 -0.07235,0 -0.131,-0.05865 -0.131,-0.131 0,-0.07235 0.05865,-0.131 0.131,-0.131 0.07235,0 0.131,0.05865 0.131,0.131 z" />
							</g>
						</g>
					</g>
					<g
   id="g9329">
						<g
   id="g9331">
							<path
   id="path9333"
   d="m 10.587,17.78 0.098,0.02 c -0.016,0.127 -1.153,1.035 -1.83,1.564 L 8.792,19.286 c 0.666,-0.522 1.744,-1.393 1.795,-1.506 z"
   inkscape:connector-curvature="0"
   style="fill:#e6c47e" />
						</g>
						<g
   id="g9335">
							<g
   id="g9337">
								<circle
   id="circle9339"
   r="0.131"
   cy="19.325001"
   cx="8.823"
   sodipodi:cx="8.823"
   sodipodi:cy="19.325001"
   sodipodi:rx="0.131"
   sodipodi:ry="0.131"
   style="fill:#e6c47e"
   d="m 8.954,19.325001 c 0,0.07235 -0.058651,0.131 -0.131,0.131 -0.072349,0 -0.131,-0.05865 -0.131,-0.131 0,-0.07235 0.058651,-0.131 0.131,-0.131 0.072349,0 0.131,0.05865 0.131,0.131 z" />
							</g>
						</g>
						<g
   id="g9341">
							<g
   id="g9343">
								<circle
   id="circle9345"
   r="0.132"
   cy="17.792999"
   cx="10.635"
   sodipodi:cx="10.635"
   sodipodi:cy="17.792999"
   sodipodi:rx="0.132"
   sodipodi:ry="0.132"
   style="fill:#e6c47e"
   d="m 10.767,17.792999 c 0,0.0729 -0.0591,0.132 -0.132,0.132 -0.0729,0 -0.132,-0.0591 -0.132,-0.132 0,-0.0729 0.0591,-0.132 0.132,-0.132 0.0729,0 0.132,0.0591 0.132,0.132 z" />
							</g>
						</g>
					</g>
					<g
   id="g9347">
						<g
   id="g9349">
							<path
   id="path9351"
   d="m 11.057,18.098 c 0.665,0.563 1.95,1.643 2.06,1.717 l -0.056,0.082 C 12.918,19.803 11.07,18.241 10.993,18.174 l 0.064,-0.076 z"
   inkscape:connector-curvature="0"
   style="fill:#e6c47e" />
						</g>
						<g
   id="g9353">
							<g
   id="g9355">
								<circle
   id="circle9357"
   r="0.132"
   cy="18.136"
   cx="11.025"
   sodipodi:cx="11.025"
   sodipodi:cy="18.136"
   sodipodi:rx="0.132"
   sodipodi:ry="0.132"
   style="fill:#e6c47e"
   d="m 11.157,18.136 c 0,0.0729 -0.0591,0.132 -0.132,0.132 -0.0729,0 -0.132,-0.0591 -0.132,-0.132 0,-0.0729 0.0591,-0.132 0.132,-0.132 0.0729,0 0.132,0.0591 0.132,0.132 z" />
							</g>
						</g>
						<g
   id="g9359">
							<g
   id="g9361">
								<circle
   id="circle9363"
   r="0.132"
   cy="19.856001"
   cx="13.088"
   sodipodi:cx="13.088"
   sodipodi:cy="19.856001"
   sodipodi:rx="0.132"
   sodipodi:ry="0.132"
   style="fill:#e6c47e"
   d="m 13.22,19.856001 c 0,0.0729 -0.0591,0.132 -0.132,0.132 -0.0729,0 -0.132,-0.0591 -0.132,-0.132 0,-0.0729 0.0591,-0.132 0.132,-0.132 0.0729,0 0.132,0.0591 0.132,0.132 z" />
							</g>
						</g>
					</g>
					<g
   id="g9365">
						<g
   id="g9367">
							<path
   id="path9369"
   d="m 13.409,20.198 0.075,0.064 c -0.069,0.086 -1.748,2.074 -2.361,2.357 l -0.041,-0.091 c 0.593,-0.272 2.31,-2.309 2.327,-2.33 z"
   inkscape:connector-curvature="0"
   style="fill:#e6c47e" />
						</g>
						<g
   id="g9371">
							<g
   id="g9373">
								<circle
   id="circle9375"
   r="0.131"
   cy="20.231001"
   cx="13.448"
   sodipodi:cx="13.448"
   sodipodi:cy="20.231001"
   sodipodi:rx="0.131"
   sodipodi:ry="0.131"
   style="fill:#e6c47e"
   d="m 13.579,20.231001 c 0,0.07235 -0.05865,0.131 -0.131,0.131 -0.07235,0 -0.131,-0.05865 -0.131,-0.131 0,-0.07235 0.05865,-0.131 0.131,-0.131 0.07235,0 0.131,0.05865 0.131,0.131 z" />
							</g>
						</g>
						<g
   id="g9377">
							<g
   id="g9379">
								<circle
   id="circle9381"
   r="0.131"
   cy="22.575001"
   cx="11.104"
   sodipodi:cx="11.104"
   sodipodi:cy="22.575001"
   sodipodi:rx="0.131"
   sodipodi:ry="0.131"
   style="fill:#e6c47e"
   d="m 11.235,22.575001 c 0,0.07235 -0.05865,0.131 -0.131,0.131 -0.07235,0 -0.131,-0.05865 -0.131,-0.131 0,-0.07235 0.05865,-0.131 0.131,-0.131 0.07235,0 0.131,0.05865 0.131,0.131 z" />
							</g>
						</g>
					</g>
					<g
   id="g9383">
						<g
   id="g9385">
							<path
   id="path9387"
   d="m 10.906,20.426 c 0.063,0.393 -0.085,2.08 -0.093,2.152 l -0.1,-0.009 c 0.002,-0.018 0.156,-1.748 0.092,-2.129 l 0.101,-0.014 z"
   inkscape:connector-curvature="0"
   style="fill:#e6c47e" />
						</g>
						<g
   id="g9389">
							<g
   id="g9391">
								<circle
   id="circle9393"
   r="0.131"
   cy="22.575001"
   cx="10.764"
   sodipodi:cx="10.764"
   sodipodi:cy="22.575001"
   sodipodi:rx="0.131"
   sodipodi:ry="0.131"
   style="fill:#e6c47e"
   d="m 10.895,22.575001 c 0,0.07235 -0.05865,0.131 -0.131,0.131 -0.07235,0 -0.131,-0.05865 -0.131,-0.131 0,-0.07235 0.05865,-0.131 0.131,-0.131 0.07235,0 0.131,0.05865 0.131,0.131 z" />
							</g>
						</g>
						<g
   id="g9395">
							<g
   id="g9397">
								<circle
   id="circle9399"
   r="0.132"
   cy="20.434"
   cx="10.855"
   sodipodi:cx="10.855"
   sodipodi:cy="20.434"
   sodipodi:rx="0.132"
   sodipodi:ry="0.132"
   style="fill:#e6c47e"
   d="m 10.987,20.434 c 0,0.0729 -0.0591,0.132 -0.132,0.132 -0.0729,0 -0.132,-0.0591 -0.132,-0.132 0,-0.0729 0.0591,-0.132 0.132,-0.132 0.0729,0 0.132,0.0591 0.132,0.132 z" />
							</g>
						</g>
					</g>
					<g
   id="g9401">
						<g
   id="g9403">
							<path
   id="path9405"
   d="m 13.634,22.482 0.096,0.029 c -0.006,0.022 -0.174,0.546 -1.002,0.706 -0.793,0.154 -1.504,0.447 -1.51,0.451 l -0.039,-0.095 c 0.008,-0.002 0.728,-0.3 1.53,-0.454 0.765,-0.148 0.919,-0.617 0.925,-0.637 z"
   inkscape:connector-curvature="0"
   style="fill:#e6c47e" />
						</g>
						<g
   id="g9407">
							<g
   id="g9409">
								<circle
   id="circle9411"
   r="0.131"
   cy="23.622"
   cx="11.198"
   sodipodi:cx="11.198"
   sodipodi:cy="23.622"
   sodipodi:rx="0.131"
   sodipodi:ry="0.131"
   style="fill:#e6c47e"
   d="m 11.329,23.622 c 0,0.07235 -0.05865,0.131 -0.131,0.131 -0.07235,0 -0.131,-0.05865 -0.131,-0.131 0,-0.07235 0.05865,-0.131 0.131,-0.131 0.07235,0 0.131,0.05865 0.131,0.131 z" />
							</g>
						</g>
						<g
   id="g9413">
							<g
   id="g9415">
								<circle
   id="circle9417"
   r="0.132"
   cy="22.497"
   cx="13.682"
   sodipodi:cx="13.682"
   sodipodi:cy="22.497"
   sodipodi:rx="0.132"
   sodipodi:ry="0.132"
   style="fill:#e6c47e"
   d="m 13.814,22.497 c 0,0.0729 -0.0591,0.132 -0.132,0.132 -0.0729,0 -0.132,-0.0591 -0.132,-0.132 0,-0.0729 0.0591,-0.132 0.132,-0.132 0.0729,0 0.132,0.0591 0.132,0.132 z" />
							</g>
						</g>
					</g>
					<g
   id="g9419">
						<g
   id="g9421">
							<path
   id="path9423"
   d="m 14.316,23.745 0.017,0.099 c -0.017,0.004 -1.648,0.25 -2.771,0 l 0.021,-0.099 c 1.104,0.244 2.717,0.002 2.733,0 z"
   inkscape:connector-curvature="0"
   style="fill:#e6c47e" />
						</g>
						<g
   id="g9425">
							<g
   id="g9427">
								<circle
   id="circle9429"
   r="0.131"
   cy="23.792999"
   cx="14.323"
   sodipodi:cx="14.323"
   sodipodi:cy="23.792999"
   sodipodi:rx="0.131"
   sodipodi:ry="0.131"
   style="fill:#e6c47e"
   d="m 14.454,23.792999 c 0,0.07235 -0.05865,0.131 -0.131,0.131 -0.07235,0 -0.131,-0.05865 -0.131,-0.131 0,-0.07235 0.05865,-0.131 0.131,-0.131 0.07235,0 0.131,0.05865 0.131,0.131 z" />
							</g>
						</g>
						<g
   id="g9431">
							<g
   id="g9433">
								<circle
   id="circle9435"
   r="0.132"
   cy="23.792"
   cx="11.573"
   sodipodi:cx="11.573"
   sodipodi:cy="23.792"
   sodipodi:rx="0.132"
   sodipodi:ry="0.132"
   style="fill:#e6c47e"
   d="m 11.705,23.792 c 0,0.0729 -0.0591,0.132 -0.132,0.132 -0.0729,0 -0.132,-0.0591 -0.132,-0.132 0,-0.0729 0.0591,-0.132 0.132,-0.132 0.0729,0 0.132,0.0591 0.132,0.132 z" />
							</g>
						</g>
					</g>
					<g
   id="g9437">
						<g
   id="g9439">
							<path
   id="path9441"
   d="m 11.075,24.323 c 0.03,0.768 0.65,1.366 0.656,1.372 l -0.067,0.072 c -0.027,-0.024 -0.657,-0.632 -0.688,-1.44 l 0.099,-0.004 z"
   inkscape:connector-curvature="0"
   style="fill:#e6c47e" />
						</g>
						<g
   id="g9443">
							<g
   id="g9445">
								<circle
   id="circle9447"
   r="0.132"
   cy="25.731001"
   cx="11.698"
   sodipodi:cx="11.698"
   sodipodi:cy="25.731001"
   sodipodi:rx="0.132"
   sodipodi:ry="0.132"
   style="fill:#e6c47e"
   d="m 11.83,25.731001 c 0,0.0729 -0.0591,0.132 -0.132,0.132 -0.0729,0 -0.132,-0.0591 -0.132,-0.132 0,-0.0729 0.0591,-0.132 0.132,-0.132 0.0729,0 0.132,0.0591 0.132,0.132 z" />
							</g>
						</g>
						<g
   id="g9449">
							<g
   id="g9451">
								<circle
   id="circle9453"
   r="0.132"
   cy="24.325001"
   cx="11.025"
   sodipodi:cx="11.025"
   sodipodi:cy="24.325001"
   sodipodi:rx="0.132"
   sodipodi:ry="0.132"
   style="fill:#e6c47e"
   d="m 11.157,24.325001 c 0,0.0729 -0.0591,0.132 -0.132,0.132 -0.0729,0 -0.132,-0.0591 -0.132,-0.132 0,-0.0729 0.0591,-0.132 0.132,-0.132 0.0729,0 0.132,0.0591 0.132,0.132 z" />
							</g>
						</g>
					</g>
				</g>
			</g>
		</g></svg>