<?xml version="1.0" encoding="UTF-8" standalone="no"?>
<!-- Generator: Adobe Illustrator 15.0.1, SVG Export Plug-In . SVG Version: 6.00 Build 0)  -->

<svg
   xmlns:dc="http://purl.org/dc/elements/1.1/"
   xmlns:cc="http://creativecommons.org/ns#"
   xmlns:rdf="http://www.w3.org/1999/02/22-rdf-syntax-ns#"
   xmlns:svg="http://www.w3.org/2000/svg"
   xmlns="http://www.w3.org/2000/svg"
   xmlns:sodipodi="http://sodipodi.sourceforge.net/DTD/sodipodi-0.dtd"
   xmlns:inkscape="http://www.inkscape.org/namespaces/inkscape"
   version="1.1"
   id="svg"
   x="0px"
   y="0px"
   width="72.637794"
   height="8.8582678"
   viewBox="0 0 72.637795 8.858268"
   xml:space="preserve"
   inkscape:version="0.48.4 r9939"
   sodipodi:docname="xbee-header.svg"><metadata
   id="metadata109"><rdf:RDF><cc:Work
       rdf:about=""><dc:format>image/svg+xml</dc:format><dc:type
         rdf:resource="http://purl.org/dc/dcmitype/StillImage" /><dc:title></dc:title></cc:Work></rdf:RDF></metadata><defs
   id="defs107" /><sodipodi:namedview
   pagecolor="#ffffff"
   bordercolor="#666666"
   borderopacity="1"
   objecttolerance="10"
   gridtolerance="10"
   guidetolerance="10"
   inkscape:pageopacity="0"
   inkscape:pageshadow="2"
   inkscape:window-width="1920"
   inkscape:window-height="1018"
   id="namedview105"
   showgrid="false"
   inkscape:zoom="13.204536"
   inkscape:cx="35.999999"
   inkscape:cy="3.5990009"
   inkscape:window-x="-8"
   inkscape:window-y="-8"
   inkscape:window-maximized="1"
   inkscape:current-layer="svg"
   fit-margin-top="0"
   fit-margin-left="0"
   fit-margin-right="0"
   fit-margin-bottom="0" />
<rect
   y="8.8817842e-016"
   width="72.637794"
   height="8.8582678"
   id="rect3"
   x="-5.680343e-007"
   style="fill:#404040" />
<rect
   x="2.2295763"
   y="2.7181432"
   width="2.8056355"
   height="3.4232113"
   id="rect5" />
<polygon
   points="1.185,1.184 2.208,2.209 4.992,2.209 6.017,1.184 "
   id="polygon7"
   transform="matrix(1.0088582,0,0,1.2304859,-5.6803431e-7,-2.452121e-6)"
   style="fill:#2a2a29" />
<polygon
   points="6.017,1.184 4.992,2.212 4.992,4.993 6.017,6.016 "
   id="polygon9"
   transform="matrix(1.0088582,0,0,1.2304859,-5.6803431e-7,-2.452121e-6)"
   style="fill:#474747" />
<polygon
   points="6.016,6.016 4.991,4.993 2.208,4.993 1.185,6.016 "
   id="polygon11"
   transform="matrix(1.0088582,0,0,1.2304859,-5.6803431e-7,-2.452121e-6)"
   style="fill:#595959" />
<polygon
   points="1.183,6.016 2.208,4.991 2.208,2.209 1.183,1.184 "
   id="polygon13"
   transform="matrix(1.0088582,0,0,1.2304859,-5.6803431e-7,-2.452121e-6)"
   style="fill:#373737" />
<rect
   x="9.4943619"
   y="2.7181432"
   width="2.8056355"
   height="3.4232113"
   id="rect15" />
<polygon
   points="8.384,1.184 9.408,2.209 12.191,2.209 13.216,1.184 "
   id="polygon17"
   transform="matrix(1.0088582,0,0,1.2304859,-5.6803431e-7,-2.452121e-6)"
   style="fill:#2a2a29" />
<polygon
   points="13.216,1.184 12.191,2.212 12.191,4.993 13.216,6.016 "
   id="polygon19"
   transform="matrix(1.0088582,0,0,1.2304859,-5.6803431e-7,-2.452121e-6)"
   style="fill:#474747" />
<polygon
   points="13.215,6.016 12.19,4.993 9.408,4.993 8.384,6.016 "
   id="polygon21"
   transform="matrix(1.0088582,0,0,1.2304859,-5.6803431e-7,-2.452121e-6)"
   style="fill:#595959" />
<polygon
   points="8.382,6.016 9.408,4.991 9.408,2.209 8.382,1.184 "
   id="polygon23"
   transform="matrix(1.0088582,0,0,1.2304859,-5.6803431e-7,-2.452121e-6)"
   style="fill:#373737" />
<rect
   x="16.757143"
   y="2.7181432"
   width="2.8056355"
   height="3.4232113"
   id="rect25" />
<polygon
   points="15.584,1.184 16.608,2.209 19.392,2.209 20.417,1.184 "
   id="polygon27"
   transform="matrix(1.0088582,0,0,1.2304859,-5.6803431e-7,-2.452121e-6)"
   style="fill:#2a2a29" />
<polygon
   points="20.417,1.184 19.392,2.212 19.392,4.993 20.417,6.016 "
   id="polygon29"
   transform="matrix(1.0088582,0,0,1.2304859,-5.6803431e-7,-2.452121e-6)"
   style="fill:#474747" />
<polygon
   points="20.416,6.016 19.391,4.993 16.608,4.993 15.584,6.016 "
   id="polygon31"
   transform="matrix(1.0088582,0,0,1.2304859,-5.6803431e-7,-2.452121e-6)"
   style="fill:#595959" />
<polygon
   points="15.583,6.016 16.608,4.991 16.608,2.209 15.583,1.184 "
   id="polygon33"
   transform="matrix(1.0088582,0,0,1.2304859,-5.6803431e-7,-2.452121e-6)"
   style="fill:#373737" />
<rect
   x="24.021912"
   y="2.7181432"
   width="2.8056355"
   height="3.4232113"
   id="rect35" />
<polygon
   points="22.785,1.184 23.809,2.209 26.592,2.209 27.617,1.184 "
   id="polygon37"
   transform="matrix(1.0088582,0,0,1.2304859,-5.6803431e-7,-2.452121e-6)"
   style="fill:#2a2a29" />
<polygon
   points="27.617,1.184 26.592,2.212 26.592,4.993 27.617,6.016 "
   id="polygon39"
   transform="matrix(1.0088582,0,0,1.2304859,-5.6803431e-7,-2.452121e-6)"
   style="fill:#474747" />
<polygon
   points="27.616,6.016 26.59,4.993 23.809,4.993 22.785,6.016 "
   id="polygon41"
   transform="matrix(1.0088582,0,0,1.2304859,-5.6803431e-7,-2.452121e-6)"
   style="fill:#595959" />
<polygon
   points="22.782,6.016 23.809,4.991 23.809,2.209 22.782,1.184 "
   id="polygon43"
   transform="matrix(1.0088582,0,0,1.2304859,-5.6803431e-7,-2.452121e-6)"
   style="fill:#373737" />
<rect
   x="31.284683"
   y="2.7181432"
   width="2.8056355"
   height="3.4232113"
   id="rect45" />
<polygon
   points="29.984,1.184 31.008,2.209 33.792,2.209 34.816,1.184 "
   id="polygon47"
   transform="matrix(1.0088582,0,0,1.2304859,-5.6803431e-7,-2.452121e-6)"
   style="fill:#2a2a29" />
<polygon
   points="34.816,1.184 33.792,2.212 33.792,4.993 34.816,6.016 "
   id="polygon49"
   transform="matrix(1.0088582,0,0,1.2304859,-5.6803431e-7,-2.452121e-6)"
   style="fill:#474747" />
<polygon
   points="34.815,6.016 33.791,4.993 31.008,4.993 29.984,6.016 "
   id="polygon51"
   transform="matrix(1.0088582,0,0,1.2304859,-5.6803431e-7,-2.452121e-6)"
   style="fill:#595959" />
<polygon
   points="29.982,6.016 31.008,4.991 31.008,2.209 29.982,1.184 "
   id="polygon53"
   transform="matrix(1.0088582,0,0,1.2304859,-5.6803431e-7,-2.452121e-6)"
   style="fill:#373737" />
<rect
   x="38.549484"
   y="2.7181432"
   width="2.8056355"
   height="3.4232113"
   id="rect55" />
<polygon
   points="37.185,1.184 38.209,2.209 40.992,2.209 42.017,1.184 "
   id="polygon57"
   transform="matrix(1.0088582,0,0,1.2304859,-5.6803431e-7,-2.452121e-6)"
   style="fill:#2a2a29" />
<polygon
   points="42.017,1.184 40.992,2.212 40.992,4.993 42.017,6.016 "
   id="polygon59"
   transform="matrix(1.0088582,0,0,1.2304859,-5.6803431e-7,-2.452121e-6)"
   style="fill:#474747" />
<polygon
   points="42.016,6.016 40.99,4.993 38.209,4.993 37.185,6.016 "
   id="polygon61"
   transform="matrix(1.0088582,0,0,1.2304859,-5.6803431e-7,-2.452121e-6)"
   style="fill:#595959" />
<polygon
   points="37.183,6.016 38.209,4.991 38.209,2.209 37.183,1.184 "
   id="polygon63"
   transform="matrix(1.0088582,0,0,1.2304859,-5.6803431e-7,-2.452121e-6)"
   style="fill:#373737" />
<rect
   x="45.812252"
   y="2.7181432"
   width="2.8056355"
   height="3.4232113"
   id="rect65" />
<polygon
   points="44.385,1.184 45.408,2.209 48.191,2.209 49.217,1.184 "
   id="polygon67"
   transform="matrix(1.0088582,0,0,1.2304859,-5.6803431e-7,-2.452121e-6)"
   style="fill:#2a2a29" />
<polygon
   points="49.217,1.184 48.191,2.212 48.191,4.993 49.217,6.016 "
   id="polygon69"
   transform="matrix(1.0088582,0,0,1.2304859,-5.6803431e-7,-2.452121e-6)"
   style="fill:#474747" />
<polygon
   points="49.215,6.016 48.19,4.993 45.408,4.993 44.385,6.016 "
   id="polygon71"
   transform="matrix(1.0088582,0,0,1.2304859,-5.6803431e-7,-2.452121e-6)"
   style="fill:#595959" />
<polygon
   points="44.383,6.016 45.408,4.991 45.408,2.209 44.383,1.184 "
   id="polygon73"
   transform="matrix(1.0088582,0,0,1.2304859,-5.6803431e-7,-2.452121e-6)"
   style="fill:#373737" />
<rect
   x="53.076027"
   y="2.7181432"
   width="2.8056355"
   height="3.4232113"
   id="rect75" />
<polygon
   points="51.584,1.184 52.608,2.209 55.392,2.209 56.416,1.184 "
   id="polygon77"
   transform="matrix(1.0088582,0,0,1.2304859,-5.6803431e-7,-2.452121e-6)"
   style="fill:#2a2a29" />
<polygon
   points="56.416,1.184 55.392,2.212 55.392,4.993 56.416,6.016 "
   id="polygon79"
   transform="matrix(1.0088582,0,0,1.2304859,-5.6803431e-7,-2.452121e-6)"
   style="fill:#474747" />
<polygon
   points="56.416,6.016 55.391,4.993 52.608,4.993 51.584,6.016 "
   id="polygon81"
   transform="matrix(1.0088582,0,0,1.2304859,-5.6803431e-7,-2.452121e-6)"
   style="fill:#595959" />
<polygon
   points="51.582,6.016 52.608,4.991 52.608,2.209 51.582,1.184 "
   id="polygon83"
   transform="matrix(1.0088582,0,0,1.2304859,-5.6803431e-7,-2.452121e-6)"
   style="fill:#373737" />
<rect
   x="60.340813"
   y="2.7181432"
   width="2.8056355"
   height="3.4232113"
   id="rect85" />
<polygon
   points="58.785,1.184 59.809,2.209 62.592,2.209 63.617,1.184 "
   id="polygon87"
   transform="matrix(1.0088582,0,0,1.2304859,-5.6803431e-7,-2.452121e-6)"
   style="fill:#2a2a29" />
<polygon
   points="63.617,1.184 62.592,2.212 62.592,4.993 63.617,6.016 "
   id="polygon89"
   transform="matrix(1.0088582,0,0,1.2304859,-5.6803431e-7,-2.452121e-6)"
   style="fill:#474747" />
<polygon
   points="63.615,6.016 62.59,4.993 59.809,4.993 58.785,6.016 "
   id="polygon91"
   transform="matrix(1.0088582,0,0,1.2304859,-5.6803431e-7,-2.452121e-6)"
   style="fill:#595959" />
<polygon
   points="58.782,6.016 59.809,4.991 59.809,2.209 58.782,1.184 "
   id="polygon93"
   transform="matrix(1.0088582,0,0,1.2304859,-5.6803431e-7,-2.452121e-6)"
   style="fill:#373737" />
<rect
   x="67.603577"
   y="2.7181432"
   width="2.8056355"
   height="3.4232113"
   id="rect95" />
<polygon
   points="65.984,1.184 67.008,2.209 69.791,2.209 70.816,1.184 "
   id="polygon97"
   transform="matrix(1.0088582,0,0,1.2304859,-5.6803431e-7,-2.452121e-6)"
   style="fill:#2a2a29" />
<polygon
   points="70.816,1.184 69.791,2.212 69.791,4.993 70.816,6.016 "
   id="polygon99"
   transform="matrix(1.0088582,0,0,1.2304859,-5.6803431e-7,-2.452121e-6)"
   style="fill:#474747" />
<polygon
   points="70.815,6.016 69.791,4.993 67.008,4.993 65.984,6.016 "
   id="polygon101"
   transform="matrix(1.0088582,0,0,1.2304859,-5.6803431e-7,-2.452121e-6)"
   style="fill:#595959" />
<polygon
   points="65.982,6.016 67.008,4.991 67.008,2.209 65.982,1.184 "
   id="polygon103"
   transform="matrix(1.0088582,0,0,1.2304859,-5.6803431e-7,-2.452121e-6)"
   style="fill:#373737" />
</svg>