<?xml version="1.0" encoding="UTF-8" standalone="no"?>
<svg
   xmlns:dc="http://purl.org/dc/elements/1.1/"
   xmlns:cc="http://creativecommons.org/ns#"
   xmlns:rdf="http://www.w3.org/1999/02/22-rdf-syntax-ns#"
   xmlns:svg="http://www.w3.org/2000/svg"
   xmlns="http://www.w3.org/2000/svg"
   xmlns:sodipodi="http://sodipodi.sourceforge.net/DTD/sodipodi-0.dtd"
   xmlns:inkscape="http://www.inkscape.org/namespaces/inkscape"
   version="1.1"
   width="54.000008"
   height="54"
   viewBox="-36.152666 -15.5575 15.240002 15.24"
   id="svg5923"
   inkscape:version="0.48.4 r9939"
   sodipodi:docname="MMA8452Q_Accelerometer_breadboard.svg">
  <metadata
     id="metadata6314">
    <rdf:RDF>
      <cc:Work
         rdf:about="">
        <dc:format>image/svg+xml</dc:format>
        <dc:type
           rdf:resource="http://purl.org/dc/dcmitype/StillImage" />
        <dc:title>C:/Users/shawn.hymel/Documents/eagle/MMA8452_Accelerometer-master/Hardware/MMA8452Q-Breakout.brd</dc:title>
      </cc:Work>
    </rdf:RDF>
  </metadata>
  <sodipodi:namedview
     pagecolor="#ffffff"
     bordercolor="#666666"
     borderopacity="1"
     objecttolerance="10"
     gridtolerance="10"
     guidetolerance="10"
     inkscape:pageopacity="0"
     inkscape:pageshadow="2"
     inkscape:window-width="1920"
     inkscape:window-height="1018"
     id="namedview6312"
     showgrid="true"
     inkscape:document-units="in"
     units="in"
     inkscape:snap-bbox="true"
     inkscape:bbox-nodes="false"
     inkscape:zoom="8"
     inkscape:cx="60.19538"
     inkscape:cy="22.649124"
     inkscape:window-x="-8"
     inkscape:window-y="-8"
     inkscape:window-maximized="1"
     inkscape:current-layer="svg5923"
     inkscape:snap-bbox-midpoints="true"
     inkscape:snap-bbox-edge-midpoints="false"
     fit-margin-top="0"
     fit-margin-left="0"
     fit-margin-right="0"
     fit-margin-bottom="0">
    <inkscape:grid
       empspacing="10"
       visible="true"
       enabled="true"
       snapvisiblegridlinesonly="false"
       units="in"
       spacingx="0.01in"
       spacingy="0.01in"
       type="xygrid"
       id="grid6507"
       originx="1.085309e-007in"
       originy="-4.8683946e-009in" />
  </sodipodi:namedview>
  <title
     id="title5925">C:/Users/shawn.hymel/Documents/eagle/MMA8452_Accelerometer-master/Hardware/MMA8452Q-Breakout.brd</title>
  <desc
     id="desc5927">generated by eagle2svg 1.4, </desc>
  <defs
     id="defs5929">
    <style
       type="text/css"
       id="style5931">
path.l17 {stroke:#32c832; fill:none; }
line.l17 {stroke:#32c832; fill:none; }
circle.l17 {stroke:#32c832; fill:none; }
circle.j17 {fill:#32c832; }
rect.l17 {fill:#32c832; }
text.l17 {font-family:sans-serif; fill:#32c832; }
polygon.l17 {fill:#32c832; }
path.l18 {stroke:#32c832; fill:none; }
line.l18 {stroke:#32c832; fill:none; }
circle.l18 {stroke:#32c832; fill:none; }
circle.j18 {fill:#32c832; }
rect.l18 {fill:#32c832; }
text.l18 {font-family:sans-serif; fill:#32c832; }
polygon.l18 {fill:#32c832; }
path.l20 {stroke:#c8c832; fill:none; }
line.l20 {stroke:#c8c832; fill:none; }
circle.l20 {stroke:#c8c832; fill:none; }
circle.j20 {fill:#c8c832; }
rect.l20 {fill:#c8c832; }
text.l20 {font-family:sans-serif; fill:#c8c832; }
polygon.l20 {fill:#c8c832; }
path.l21 {stroke:#ffffff; fill:none; }
line.l21 {stroke:#ffffff; fill:none; }
circle.l21 {stroke:#ffffff; fill:none; }
circle.j21 {fill:#ffffff; }
rect.l21 {fill:#ffffff; }
text.l21 {font-family:sans-serif; fill:#ffffff; }
polygon.l21 {fill:#ffffff; }
path.l51 {stroke:#c8c832; fill:none; }
line.l51 {stroke:#c8c832; fill:none; }
circle.l51 {stroke:#c8c832; fill:none; }
circle.j51 {fill:#c8c832; }
rect.l51 {fill:#c8c832; }
text.l51 {font-family:sans-serif; fill:#c8c832; }
polygon.l51 {fill:#c8c832; }
circle.j0 {fill:#ffffff; }
</style>
    <clipPath
       clipPathUnits="userSpaceOnUse"
       id="clipPath13347">
      <rect
         style="fill:#00ffff;fill-opacity:1;stroke:none"
         id="rect13349"
         width="15.24"
         height="2.6415992"
         x="-36.152668"
         y="-2.8557353" />
    </clipPath>
    <clipPath
       clipPathUnits="userSpaceOnUse"
       id="clipPath13351">
      <rect
         style="fill:#00ffff;fill-opacity:1;stroke:none"
         id="rect13353"
         width="15.24"
         height="2.6415992"
         x="-36.152668"
         y="-2.8557353" />
    </clipPath>
    <clipPath
       clipPathUnits="userSpaceOnUse"
       id="clipPath13355">
      <rect
         style="fill:#00ffff;fill-opacity:1;stroke:none"
         id="rect13357"
         width="15.24"
         height="2.6415992"
         x="-36.152668"
         y="-2.8557353" />
    </clipPath>
    <clipPath
       clipPathUnits="userSpaceOnUse"
       id="clipPath13359">
      <rect
         style="fill:#00ffff;fill-opacity:1;stroke:none"
         id="rect13361"
         width="15.24"
         height="2.6415992"
         x="-36.152668"
         y="-2.8557353" />
    </clipPath>
    <clipPath
       clipPathUnits="userSpaceOnUse"
       id="clipPath13363">
      <rect
         style="fill:#00ffff;fill-opacity:1;stroke:none"
         id="rect13365"
         width="15.24"
         height="2.6415992"
         x="-36.152668"
         y="-2.8557353" />
    </clipPath>
    <clipPath
       clipPathUnits="userSpaceOnUse"
       id="clipPath13367">
      <rect
         style="fill:#00ffff;fill-opacity:1;stroke:none"
         id="rect13369"
         width="15.24"
         height="2.6415992"
         x="-36.152668"
         y="-2.8557353" />
    </clipPath>
    <clipPath
       clipPathUnits="userSpaceOnUse"
       id="clipPath13371">
      <rect
         style="fill:#00ffff;fill-opacity:1;stroke:none"
         id="rect13373"
         width="15.24"
         height="2.6415992"
         x="-36.152668"
         y="-2.8557353" />
    </clipPath>
    <clipPath
       clipPathUnits="userSpaceOnUse"
       id="clipPath13375">
      <rect
         style="fill:#00ffff;fill-opacity:1;stroke:none"
         id="rect13377"
         width="15.24"
         height="2.6415992"
         x="-36.152668"
         y="-2.8557353" />
    </clipPath>
    <clipPath
       clipPathUnits="userSpaceOnUse"
       id="clipPath13379">
      <rect
         style="fill:#00ffff;fill-opacity:1;stroke:none"
         id="rect13381"
         width="15.24"
         height="2.6415992"
         x="-36.152668"
         y="-2.8557353" />
    </clipPath>
    <clipPath
       clipPathUnits="userSpaceOnUse"
       id="clipPath13383">
      <rect
         style="fill:#00ffff;fill-opacity:1;stroke:none"
         id="rect13385"
         width="15.24"
         height="2.6415992"
         x="-36.152668"
         y="-2.8557353" />
    </clipPath>
    <clipPath
       clipPathUnits="userSpaceOnUse"
       id="clipPath13387">
      <rect
         style="fill:#00ffff;fill-opacity:1;stroke:none"
         id="rect13389"
         width="15.24"
         height="2.6415992"
         x="-36.152668"
         y="-2.8557353" />
    </clipPath>
    <clipPath
       clipPathUnits="userSpaceOnUse"
       id="clipPath13391">
      <rect
         style="fill:#00ffff;fill-opacity:1;stroke:none"
         id="rect13393"
         width="15.24"
         height="2.6415992"
         x="-36.152668"
         y="-2.8557353" />
    </clipPath>
    <clipPath
       clipPathUnits="userSpaceOnUse"
       id="clipPath13395">
      <rect
         style="fill:#00ffff;fill-opacity:1;stroke:none"
         id="rect13397"
         width="15.24"
         height="2.6415992"
         x="-36.152668"
         y="-2.8557353" />
    </clipPath>
    <clipPath
       clipPathUnits="userSpaceOnUse"
       id="clipPath13399">
      <rect
         style="fill:#00ffff;fill-opacity:1;stroke:none"
         id="rect13401"
         width="15.24"
         height="2.6415992"
         x="-36.152668"
         y="-2.8557353" />
    </clipPath>
    <clipPath
       clipPathUnits="userSpaceOnUse"
       id="clipPath13403">
      <rect
         style="fill:#00ffff;fill-opacity:1;stroke:none"
         id="rect13405"
         width="15.24"
         height="2.6415992"
         x="-36.152668"
         y="-2.8557353" />
    </clipPath>
    <clipPath
       clipPathUnits="userSpaceOnUse"
       id="clipPath13407">
      <rect
         style="fill:#00ffff;fill-opacity:1;stroke:none"
         id="rect13409"
         width="15.24"
         height="2.6415992"
         x="-36.152668"
         y="-2.8557353" />
    </clipPath>
    <clipPath
       clipPathUnits="userSpaceOnUse"
       id="clipPath13411">
      <rect
         style="fill:#00ffff;fill-opacity:1;stroke:none"
         id="rect13413"
         width="15.24"
         height="2.6415992"
         x="-36.152668"
         y="-2.8557353" />
    </clipPath>
    <clipPath
       clipPathUnits="userSpaceOnUse"
       id="clipPath13415">
      <rect
         style="fill:#00ffff;fill-opacity:1;stroke:none"
         id="rect13417"
         width="15.24"
         height="2.6415992"
         x="-36.152668"
         y="-2.8557353" />
    </clipPath>
    <clipPath
       clipPathUnits="userSpaceOnUse"
       id="clipPath13419">
      <rect
         style="fill:#00ffff;fill-opacity:1;stroke:none"
         id="rect13421"
         width="15.24"
         height="2.6415992"
         x="-36.152668"
         y="-2.8557353" />
    </clipPath>
    <clipPath
       clipPathUnits="userSpaceOnUse"
       id="clipPath13423">
      <rect
         style="fill:#00ffff;fill-opacity:1;stroke:none"
         id="rect13425"
         width="15.24"
         height="2.6415992"
         x="-36.152668"
         y="-2.8557353" />
    </clipPath>
    <clipPath
       clipPathUnits="userSpaceOnUse"
       id="clipPath13427">
      <rect
         style="fill:#00ffff;fill-opacity:1;stroke:none"
         id="rect13429"
         width="15.24"
         height="2.6415992"
         x="-36.152668"
         y="-2.8557353" />
    </clipPath>
    <clipPath
       clipPathUnits="userSpaceOnUse"
       id="clipPath13431">
      <rect
         style="fill:#00ffff;fill-opacity:1;stroke:none"
         id="rect13433"
         width="15.24"
         height="2.6415992"
         x="-36.152668"
         y="-2.8557353" />
    </clipPath>
  </defs>
  <g
     id="g6038"
     transform="translate(-36.051067,-0.41909932)">
    <title
       id="title6040">PART JP2</title>
  </g>
  <g
     id="g6170"
     transform="translate(-36.051067,-0.41909932)">
    <title
       id="title6172">PART JP6</title>
  </g>
  <g
     id="g6216"
     transform="translate(-36.051067,-0.41909932)">
    <title
       id="title6218">PART SJ1</title>
  </g>
  <g
     id="g6220"
     transform="translate(-36.051067,-0.41909932)">
    <title
       id="title6222">PART U$1</title>
  </g>
  <g
     id="g6224"
     transform="translate(-36.051067,-0.41909932)">
    <title
       id="title6226">PART U$2</title>
  </g>
  <g
     id="breadboard">
    <g
       id="icon">
      <path
         style="fill:#e72d2f;fill-opacity:1;stroke:none"
         d="m -36.152666,-15.5575 0,15.23823757 15.240003,0 0,-15.23823757 -15.240003,0 z m 2.54,0.890661 c 0.911823,0 1.649238,0.737329 1.649238,1.649046 0,0.911716 -0.737415,1.649045 -1.649238,1.649045 -0.911822,0 -1.649236,-0.737329 -1.649236,-1.649045 0,-0.911717 0.737414,-1.649046 1.649236,-1.649046 z m 10.160003,0 c 0.911822,0 1.649236,0.737329 1.649236,1.649046 0,0.911716 -0.737414,1.649045 -1.649236,1.649045 -0.911822,0 -1.649236,-0.737329 -1.649236,-1.649045 0,-0.911717 0.737414,-1.649046 1.649236,-1.649046 z m -2.54,3.933017 c 0.14028,0 0.255764,0.115471 0.255764,0.255735 0,0.140263 -0.115484,0.255734 -0.255764,0.255734 -0.14028,0 -0.255764,-0.115471 -0.255764,-0.255734 0,-0.140264 0.115484,-0.255735 0.255764,-0.255735 z m -4.700765,1.0229378 c 0.14028,0 0.255764,0.1066518 0.255764,0.2469159 0,0.1402642 -0.115484,0.2557343 -0.255764,0.2557343 -0.140281,0 -0.255764,-0.1154701 -0.255764,-0.2557343 0,-0.1402641 0.115483,-0.2469159 0.255764,-0.2469159 z m -1.649237,0.2469159 c 0.140281,0 0.255764,0.1154699 0.255764,0.2557343 0,0.140264 -0.115483,0.2557343 -0.255764,0.2557343 -0.14028,0 -0.255763,-0.1154703 -0.255763,-0.2557343 0,-0.1402644 0.115483,-0.2557343 0.255763,-0.2557343 z m 1.27,2.1605139 c 0.140281,0 0.255764,0.11547 0.255764,0.2557343 0,0.140264 -0.115483,0.2557343 -0.255764,0.2557343 -0.14028,0 -0.255763,-0.1154703 -0.255763,-0.2557343 0,-0.1402643 0.115483,-0.2557343 0.255763,-0.2557343 z m 0,1.6490453 c 0.140281,0 0.255764,0.11547 0.255764,0.2557343 0,0.140264 -0.115483,0.2557343 -0.255764,0.2557343 -0.14028,0 -0.255763,-0.1154703 -0.255763,-0.2557343 0,-0.1402643 0.115483,-0.2557343 0.255763,-0.2557343 z m 4.815418,0 c 0.140281,0 0.255764,0.11547 0.255764,0.2557343 0,0.140264 -0.115483,0.2557343 -0.255764,0.2557343 -0.14028,0 -0.255764,-0.1154703 -0.255764,-0.2557343 0,-0.1402643 0.115484,-0.2557343 0.255764,-0.2557343 z m -2.275417,1.2698531 c 0.14028,0 0.255763,0.11547 0.255763,0.2557343 0,0.140264 -0.115483,0.2557343 -0.255763,0.2557343 -0.140281,0 -0.255764,-0.1154703 -0.255764,-0.2557343 0,-0.1402643 0.115483,-0.2557343 0.255764,-0.2557343 z m -6.350002,2.2927902 c 0.280561,0 0.511528,0.2221222 0.511528,0.5026503 0,0.2805283 -0.230967,0.5114686 -0.511528,0.5114686 -0.28056,0 -0.511527,-0.2309403 -0.511527,-0.5114686 0,-0.2805281 0.230967,-0.5026503 0.511527,-0.5026503 z m 2.540001,0 c 0.280561,0 0.511528,0.2221222 0.511528,0.5026503 0,0.2805283 -0.230967,0.5114686 -0.511528,0.5114686 -0.28056,0 -0.511527,-0.2309403 -0.511527,-0.5114686 0,-0.2805281 0.230967,-0.5026503 0.511527,-0.5026503 z m 2.540001,0 c 0.28056,0 0.511527,0.2221222 0.511527,0.5026503 0,0.2805283 -0.230967,0.5114686 -0.511527,0.5114686 -0.280561,0 -0.511528,-0.2309403 -0.511528,-0.5114686 0,-0.2805281 0.230967,-0.5026503 0.511528,-0.5026503 z m 2.54,0 c 0.28056,0 0.511528,0.2221222 0.511528,0.5026503 0,0.2805283 -0.230968,0.5114686 -0.511528,0.5114686 -0.280561,0 -0.511528,-0.2309403 -0.511528,-0.5114686 0,-0.2805281 0.230967,-0.5026503 0.511528,-0.5026503 z m 2.540001,0 c 0.280561,0 0.511527,0.2221222 0.511527,0.5026503 0,0.2805283 -0.230966,0.5114686 -0.511527,0.5114686 -0.28056,0 -0.511528,-0.2309403 -0.511528,-0.5114686 0,-0.2805281 0.230968,-0.5026503 0.511528,-0.5026503 z m 2.54,0 c 0.280561,0 0.511528,0.2221222 0.511528,0.5026503 0,0.2805283 -0.230967,0.5114686 -0.511528,0.5114686 -0.28056,0 -0.511528,-0.2309403 -0.511528,-0.5114686 0,-0.2805281 0.230968,-0.5026503 0.511528,-0.5026503 z"
         id="rect8292"
         inkscape:connector-curvature="0" />
      <g
         id="copper1">
        <g
           id="g21653"
           inkscape:label="#copper1">
          <path
             style="fill:#9a916c;fill-opacity:1;stroke:none"
             d="m -34.882666,-2.5241237 c -0.519037,0 -0.94368,0.415824 -0.94368,0.9348612 0,0.5190371 0.424643,0.94368062 0.94368,0.94368062 0.519038,0 0.943681,-0.42464352 0.943681,-0.94368062 0,-0.5190372 -0.424643,-0.9348612 -0.943681,-0.9348612 z m 0,0.4321528 c 0.280561,0 0.511528,0.2221473 0.511528,0.5027084 0,0.2805611 -0.230967,0.5115278 -0.511528,0.5115278 -0.28056,0 -0.511527,-0.2309667 -0.511527,-0.5115278 0,-0.2805611 0.230967,-0.5027084 0.511527,-0.5027084 z"
             id="connector1pin"
             inkscape:connector-curvature="0" />
          <path
             style="fill:#9a916c;fill-opacity:1"
             d="m -32.342666,-2.5241237 c -0.519037,0 -0.94368,0.415824 -0.94368,0.9348612 0,0.5190371 0.424643,0.94368062 0.94368,0.94368062 0.519038,0 0.943681,-0.42464352 0.943681,-0.94368062 0,-0.5190372 -0.424643,-0.9348612 -0.943681,-0.9348612 z m 0,0.4321528 c 0.280562,0 0.511528,0.2221473 0.511528,0.5027084 0,0.2805611 -0.230966,0.5115278 -0.511528,0.5115278 -0.280559,0 -0.511527,-0.2309667 -0.511527,-0.5115278 0,-0.2805611 0.230968,-0.5027084 0.511527,-0.5027084 z"
             id="connector2pin"
             inkscape:connector-curvature="0" />
          <path
             style="fill:#9a916c;fill-opacity:1"
             d="m -29.802665,-2.5241237 c -0.519038,0 -0.943681,0.415824 -0.943681,0.9348612 0,0.5190371 0.424643,0.94368062 0.943681,0.94368062 0.519037,0 0.94368,-0.42464352 0.94368,-0.94368062 0,-0.5190372 -0.424643,-0.9348612 -0.94368,-0.9348612 z m 0,0.4321528 c 0.280561,0 0.511527,0.2221473 0.511527,0.5027084 0,0.2805611 -0.230966,0.5115278 -0.511527,0.5115278 -0.28056,0 -0.511528,-0.2309667 -0.511528,-0.5115278 0,-0.2805611 0.230968,-0.5027084 0.511528,-0.5027084 z"
             id="connector3pin"
             inkscape:connector-curvature="0" />
          <path
             style="fill:#9a916c;fill-opacity:1"
             d="m -27.262665,-2.5241237 c -0.519038,0 -0.943681,0.415824 -0.943681,0.9348612 0,0.5190371 0.424643,0.94368062 0.943681,0.94368062 0.519037,0 0.94368,-0.42464352 0.94368,-0.94368062 0,-0.5190372 -0.424643,-0.9348612 -0.94368,-0.9348612 z m 0,0.4321528 c 0.280561,0 0.511527,0.2221473 0.511527,0.5027084 0,0.2805611 -0.230966,0.5115278 -0.511527,0.5115278 -0.28056,0 -0.511528,-0.2309667 -0.511528,-0.5115278 0,-0.2805611 0.230968,-0.5027084 0.511528,-0.5027084 z"
             id="connector4pin"
             inkscape:connector-curvature="0" />
          <path
             style="fill:#9a916c;fill-opacity:1"
             d="m -24.722665,-2.5241237 c -0.519037,0 -0.943681,0.415824 -0.943681,0.9348612 0,0.5190371 0.424644,0.94368062 0.943681,0.94368062 0.519037,0 0.94368,-0.42464352 0.94368,-0.94368062 0,-0.5190372 -0.424643,-0.9348612 -0.94368,-0.9348612 z m 0,0.4321528 c 0.280561,0 0.511527,0.2221473 0.511527,0.5027084 0,0.2805611 -0.230966,0.5115278 -0.511527,0.5115278 -0.28056,0 -0.511528,-0.2309667 -0.511528,-0.5115278 0,-0.2805611 0.230968,-0.5027084 0.511528,-0.5027084 z"
             id="connector5pin"
             inkscape:connector-curvature="0" />
          <path
             style="fill:#9a916c;fill-opacity:1"
             d="m -22.182665,-2.5241237 c -0.519037,0 -0.943681,0.415824 -0.943681,0.9348612 0,0.5190371 0.424644,0.94368062 0.943681,0.94368062 0.519037,0 0.94368,-0.42464352 0.94368,-0.94368062 0,-0.5190372 -0.424643,-0.9348612 -0.94368,-0.9348612 z m 0,0.4321528 c 0.280561,0 0.511528,0.2221473 0.511528,0.5027084 0,0.2805611 -0.230967,0.5115278 -0.511528,0.5115278 -0.28056,0 -0.511528,-0.2309667 -0.511528,-0.5115278 0,-0.2805611 0.230968,-0.5027084 0.511528,-0.5027084 z"
             id="connector6pin"
             inkscape:connector-curvature="0" />
        </g>
      </g>
      <rect
         style="fill:#ef4130;fill-opacity:1;stroke:none"
         id="rect17128"
         width="1.1176001"
         height="0.60960007"
         x="-34.171463"
         y="-8.2423" />
      <rect
         style="fill:#ef4130;fill-opacity:1;stroke:none"
         id="rect17128-8"
         width="1.1176001"
         height="0.60960001"
         x="-34.171463"
         y="-6.9722991" />
      <rect
         style="fill:#ef4130;fill-opacity:1;stroke:none"
         id="rect17128-2"
         width="1.1176001"
         height="0.60960001"
         x="-25.281466"
         y="-9.5122995" />
      <rect
         style="fill:#ef4130;fill-opacity:1;stroke:none"
         id="rect17128-2-4"
         width="1.1176001"
         height="0.60960001"
         x="-25.281467"
         y="-8.2423" />
      <rect
         style="fill:#ef4130;fill-opacity:1;stroke:none"
         id="rect17128-2-5"
         width="1.1176001"
         height="0.60960001"
         x="-25.281467"
         y="-6.9722991" />
      <rect
         style="fill:#ef4130;fill-opacity:1;stroke:none"
         id="rect17128-2-51"
         width="1.1176001"
         height="0.60960001"
         x="11.1887"
         y="-27.567467"
         transform="matrix(0,-1,1,0,0,0)" />
      <circle
         class="l21"
         cx="8.2200003"
         cy="-8.2200003"
         r="0.1"
         style="fill:none;stroke:#ffffff;stroke-width:0.127"
         id="circle6300"
         d="m 8.3200003,-8.2200003 c 0,0.055229 -0.044772,0.1 -0.1,0.1 -0.055229,0 -0.1,-0.044772 -0.1,-0.1 0,-0.055228 0.044772,-0.1 0.1,-0.1 0.055228,0 0.1,0.044772 0.1,0.1 z"
         sodipodi:cx="8.2200003"
         sodipodi:cy="-8.2200003"
         sodipodi:rx="0.1"
         sodipodi:ry="0.1"
         transform="translate(-36.152666,-0.31749917)" />
      <line
         class="l21"
         x1="-27.189468"
         y1="-9.437499"
         x2="-27.032667"
         y2="-9.437499"
         style="fill:none;stroke:#ffffff;stroke-width:0.1778;stroke-linecap:round"
         id="line6272" />
      <line
         class="l21"
         x1="-27.032667"
         y1="-9.437499"
         x2="-27.032667"
         y2="-8.7806988"
         style="fill:none;stroke:#ffffff;stroke-width:0.1778;stroke-linecap:round"
         id="line6274" />
      <line
         class="l21"
         x1="-29.875868"
         y1="-6.437499"
         x2="-30.032667"
         y2="-6.437499"
         style="fill:none;stroke:#ffffff;stroke-width:0.1778;stroke-linecap:round"
         id="line6276" />
      <line
         class="l21"
         x1="-29.875868"
         y1="-9.437499"
         x2="-30.032667"
         y2="-9.437499"
         style="fill:none;stroke:#ffffff;stroke-width:0.1778;stroke-linecap:round"
         id="line6278" />
      <line
         class="l21"
         x1="-27.189468"
         y1="-6.437499"
         x2="-27.032667"
         y2="-6.437499"
         style="fill:none;stroke:#ffffff;stroke-width:0.1778;stroke-linecap:round"
         id="line6280" />
      <line
         class="l21"
         x1="-27.032667"
         y1="-6.437499"
         x2="-27.032667"
         y2="-7.0942993"
         style="fill:none;stroke:#ffffff;stroke-width:0.1778;stroke-linecap:round"
         id="line6282" />
      <line
         class="l21"
         x1="-30.032667"
         y1="-9.437499"
         x2="-30.032667"
         y2="-8.7806988"
         style="fill:none;stroke:#ffffff;stroke-width:0.1778;stroke-linecap:round"
         id="line6284" />
      <line
         class="l21"
         x1="-30.032667"
         y1="-6.437499"
         x2="-30.032667"
         y2="-7.0942993"
         style="fill:none;stroke:#ffffff;stroke-width:0.1778;stroke-linecap:round"
         id="line6286" />
      <path
         d="m -28.372671,-12.624165 c 0,0 0.04022,0.171097 -0.08855,0.194733 -0.09031,0.01623 -0.235303,-0.07302 -0.308328,-0.161925 -0.08996,-0.109714 -0.07867,-0.195791 -0.0088,-0.272697 0.10548,-0.116416 0.285044,-0.07126 0.285044,-0.07126 0,0 -0.329847,-0.28963 -0.673805,-0.05256 -0.306211,0.210608 -0.218017,0.497769 0.05786,0.748594 0.249413,0.226484 0.05045,0.475192 -0.200731,0.442383 -0.171097,-0.02152 -0.2413,-0.159808 -0.200378,-0.244474 0.03598,-0.07232 0.159103,-0.11677 0.159103,-0.11677 0,0 -0.141817,-0.0575 -0.30868,0.0053 -0.149578,0.05644 -0.273403,0.180269 -0.263525,0.490714 l 0,1.438627 c 0,0 0.154869,-0.191206 0.33655,-0.385233 0.203905,-0.218723 0.297038,-0.367242 0.506588,-0.349956 0.39617,0.02434 0.682978,-0.151694 0.877358,-0.433916 0.374297,-0.543278 0.08149,-1.150408 -0.169686,-1.231547 z"
         id="path7924"
         inkscape:connector-curvature="0"
         style="fill:#ffffff" />
      <circle
         sodipodi:ry="0.127"
         sodipodi:rx="0.127"
         sodipodi:cy="-6.3499999"
         sodipodi:cx="14.351"
         d="m 14.478,-6.3499999 c 0,0.07014 -0.05686,0.127 -0.127,0.127 -0.07014,0 -0.127,-0.05686 -0.127,-0.127 0,-0.07014 0.05686,-0.127 0.127,-0.127 0.07014,0 0.127,0.05686 0.127,0.127 z"
         id="circle5954"
         style="fill:none;stroke:#ffffff;stroke-width:0.25400001"
         r="0.127"
         cy="-6.3499999"
         cx="14.351"
         class="l21"
         transform="translate(-36.152666,-0.31749917)" />
      <line
         id="line5978"
         style="fill:none;stroke:#ffffff;stroke-width:0.25400001;stroke-linecap:round"
         y2="-10.7315"
         x2="-21.928667"
         y1="-9.7154999"
         x1="-21.928667"
         class="l21" />
      <line
         id="line5980"
         style="fill:none;stroke:#ffffff;stroke-width:0.25400001;stroke-linecap:round"
         y2="-10.0965"
         x2="-21.547668"
         y1="-9.7154999"
         x1="-21.928667"
         class="l21" />
      <line
         id="line5982"
         style="fill:none;stroke:#ffffff;stroke-width:0.25400001;stroke-linecap:round"
         y2="-10.0965"
         x2="-22.309668"
         y1="-9.7154999"
         x1="-21.928667"
         class="l21" />
      <line
         id="line5984"
         style="fill:none;stroke:#ffffff;stroke-width:0.25400001;stroke-linecap:round"
         y2="-8.3185005"
         x2="-22.436668"
         y1="-8.3185005"
         x1="-21.420668"
         class="l21" />
      <line
         id="line5986"
         style="fill:none;stroke:#ffffff;stroke-width:0.25400001;stroke-linecap:round"
         y2="-8.6994991"
         x2="-21.801668"
         y1="-8.3185005"
         x1="-21.420668"
         class="l21" />
      <line
         id="line5988"
         style="fill:none;stroke:#ffffff;stroke-width:0.25400001;stroke-linecap:round"
         y2="-7.937499"
         x2="-21.801668"
         y1="-8.3185005"
         x1="-21.420668"
         class="l21" />
      <line
         class="l21"
         x1="-24.722668"
         y1="-7.967999"
         x2="-24.722668"
         y2="-7.9069991"
         style="fill:none;stroke:#ffffff;stroke-width:0.4064;stroke-linecap:round"
         id="line6002" />
      <line
         class="l21"
         x1="-27.293167"
         y1="-11.747499"
         x2="-27.232168"
         y2="-11.747499"
         style="fill:none;stroke:#ffffff;stroke-width:0.4064;stroke-linecap:round"
         id="line6016" />
      <line
         class="l21"
         x1="-24.722668"
         y1="-6.697999"
         x2="-24.722668"
         y2="-6.6369991"
         style="fill:none;stroke:#ffffff;stroke-width:0.4064;stroke-linecap:round"
         id="line6030" />
      <line
         class="l21"
         x1="-23.452667"
         y1="-2.2224991"
         x2="-22.817667"
         y2="-2.8574989"
         style="fill:none;stroke:#ffffff;stroke-width:0.2032;stroke-linecap:round"
         id="line6070" />
      <line
         class="l21"
         x1="-22.817667"
         y1="-2.8574989"
         x2="-21.547668"
         y2="-2.8574989"
         style="fill:none;stroke:#ffffff;stroke-width:0.2032;stroke-linecap:round"
         id="line6072" />
      <line
         class="l21"
         x1="-21.54767"
         y1="-2.7541358"
         x2="-20.91267"
         y2="-2.1191361"
         style="fill:none;stroke:#ffffff;stroke-width:0.2032;stroke-linecap:round"
         id="line6074"
         clip-path="url(#clipPath13431)"
         transform="translate(2.756685e-6,-0.103363)" />
      <line
         class="l21"
         x1="-20.91267"
         y1="-0.84913623"
         x2="-21.54767"
         y2="-0.21413599"
         style="fill:none;stroke:#ffffff;stroke-width:0.2032;stroke-linecap:round"
         id="line6076"
         clip-path="url(#clipPath13427)"
         transform="translate(2.756685e-6,-0.103363)" />
      <line
         class="l21"
         x1="-21.54767"
         y1="-0.21413599"
         x2="-22.817669"
         y2="-0.21413599"
         style="fill:none;stroke:#ffffff;stroke-width:0.2032;stroke-linecap:round"
         id="line6078"
         clip-path="url(#clipPath13423)"
         transform="translate(2.756685e-6,-0.103363)" />
      <line
         class="l21"
         x1="-22.817669"
         y1="-0.21413599"
         x2="-23.452669"
         y2="-0.84913623"
         style="fill:none;stroke:#ffffff;stroke-width:0.2032;stroke-linecap:round"
         id="line6080"
         clip-path="url(#clipPath13419)"
         transform="translate(2.756685e-6,-0.103363)" />
      <line
         class="l21"
         x1="-27.897667"
         y1="-2.8574989"
         x2="-26.627668"
         y2="-2.8574989"
         style="fill:none;stroke:#ffffff;stroke-width:0.2032;stroke-linecap:round"
         id="line6082" />
      <line
         class="l21"
         x1="-26.627668"
         y1="-2.8574989"
         x2="-25.992668"
         y2="-2.2224991"
         style="fill:none;stroke:#ffffff;stroke-width:0.2032;stroke-linecap:round"
         id="line6084" />
      <line
         class="l21"
         x1="-25.99267"
         y1="-0.84913623"
         x2="-26.62767"
         y2="-0.21413599"
         style="fill:none;stroke:#ffffff;stroke-width:0.2032;stroke-linecap:round"
         id="line6086"
         clip-path="url(#clipPath13415)"
         transform="translate(2.756685e-6,-0.103363)" />
      <line
         class="l21"
         x1="-25.992668"
         y1="-2.2224991"
         x2="-25.357668"
         y2="-2.8574989"
         style="fill:none;stroke:#ffffff;stroke-width:0.2032;stroke-linecap:round"
         id="line6088" />
      <line
         class="l21"
         x1="-25.357668"
         y1="-2.8574989"
         x2="-24.087667"
         y2="-2.8574989"
         style="fill:none;stroke:#ffffff;stroke-width:0.2032;stroke-linecap:round"
         id="line6090" />
      <line
         class="l21"
         x1="-24.087667"
         y1="-2.8574989"
         x2="-23.452667"
         y2="-2.2224991"
         style="fill:none;stroke:#ffffff;stroke-width:0.2032;stroke-linecap:round"
         id="line6092" />
      <line
         class="l21"
         x1="-23.452669"
         y1="-0.84913623"
         x2="-24.087669"
         y2="-0.21413599"
         style="fill:none;stroke:#ffffff;stroke-width:0.2032;stroke-linecap:round"
         id="line6094"
         clip-path="url(#clipPath13411)"
         transform="translate(2.756685e-6,-0.103363)" />
      <line
         class="l21"
         x1="-24.087669"
         y1="-0.21413599"
         x2="-25.35767"
         y2="-0.21413599"
         style="fill:none;stroke:#ffffff;stroke-width:0.2032;stroke-linecap:round"
         id="line6096"
         clip-path="url(#clipPath13407)"
         transform="translate(2.756685e-6,-0.103363)" />
      <line
         class="l21"
         x1="-25.35767"
         y1="-0.21413599"
         x2="-25.99267"
         y2="-0.84913623"
         style="fill:none;stroke:#ffffff;stroke-width:0.2032;stroke-linecap:round"
         id="line6098"
         clip-path="url(#clipPath13403)"
         transform="translate(2.756685e-6,-0.103363)" />
      <line
         class="l21"
         x1="-31.072668"
         y1="-2.2224991"
         x2="-30.437668"
         y2="-2.8574989"
         style="fill:none;stroke:#ffffff;stroke-width:0.2032;stroke-linecap:round"
         id="line6100" />
      <line
         class="l21"
         x1="-30.437668"
         y1="-2.8574989"
         x2="-29.167667"
         y2="-2.8574989"
         style="fill:none;stroke:#ffffff;stroke-width:0.2032;stroke-linecap:round"
         id="line6102" />
      <line
         class="l21"
         x1="-29.167667"
         y1="-2.8574989"
         x2="-28.532667"
         y2="-2.2224991"
         style="fill:none;stroke:#ffffff;stroke-width:0.2032;stroke-linecap:round"
         id="line6104" />
      <line
         class="l21"
         x1="-28.532669"
         y1="-0.84913623"
         x2="-29.167669"
         y2="-0.21413599"
         style="fill:none;stroke:#ffffff;stroke-width:0.2032;stroke-linecap:round"
         id="line6106"
         clip-path="url(#clipPath13399)"
         transform="translate(2.756685e-6,-0.103363)" />
      <line
         class="l21"
         x1="-29.167669"
         y1="-0.21413599"
         x2="-30.43767"
         y2="-0.21413599"
         style="fill:none;stroke:#ffffff;stroke-width:0.2032;stroke-linecap:round"
         id="line6108"
         clip-path="url(#clipPath13395)"
         transform="translate(2.756685e-6,-0.103363)" />
      <line
         class="l21"
         x1="-30.43767"
         y1="-0.21413599"
         x2="-31.07267"
         y2="-0.84913623"
         style="fill:none;stroke:#ffffff;stroke-width:0.2032;stroke-linecap:round"
         id="line6110"
         clip-path="url(#clipPath13391)"
         transform="translate(2.756685e-6,-0.103363)" />
      <line
         class="l21"
         x1="-27.897667"
         y1="-2.8574989"
         x2="-28.532667"
         y2="-2.2224991"
         style="fill:none;stroke:#ffffff;stroke-width:0.2032;stroke-linecap:round"
         id="line6112" />
      <line
         class="l21"
         x1="-28.532669"
         y1="-0.84913623"
         x2="-27.897669"
         y2="-0.21413599"
         style="fill:none;stroke:#ffffff;stroke-width:0.2032;stroke-linecap:round"
         id="line6114"
         clip-path="url(#clipPath13387)"
         transform="translate(2.756685e-6,-0.103363)" />
      <line
         class="l21"
         x1="-26.62767"
         y1="-0.21413599"
         x2="-27.897669"
         y2="-0.21413599"
         style="fill:none;stroke:#ffffff;stroke-width:0.2032;stroke-linecap:round"
         id="line6116"
         clip-path="url(#clipPath13383)"
         transform="translate(2.756685e-6,-0.103363)" />
      <line
         class="l21"
         x1="-35.517666"
         y1="-2.8574989"
         x2="-34.247665"
         y2="-2.8574989"
         style="fill:none;stroke:#ffffff;stroke-width:0.2032;stroke-linecap:round"
         id="line6118" />
      <line
         class="l21"
         x1="-34.247665"
         y1="-2.8574989"
         x2="-33.612667"
         y2="-2.2224991"
         style="fill:none;stroke:#ffffff;stroke-width:0.2032;stroke-linecap:round"
         id="line6120" />
      <line
         class="l21"
         x1="-33.612671"
         y1="-0.84913623"
         x2="-34.247669"
         y2="-0.21413599"
         style="fill:none;stroke:#ffffff;stroke-width:0.2032;stroke-linecap:round"
         id="line6122"
         clip-path="url(#clipPath13379)"
         transform="translate(2.756685e-6,-0.103363)" />
      <line
         class="l21"
         x1="-33.612667"
         y1="-2.2224991"
         x2="-32.977665"
         y2="-2.8574989"
         style="fill:none;stroke:#ffffff;stroke-width:0.2032;stroke-linecap:round"
         id="line6124" />
      <line
         class="l21"
         x1="-32.977665"
         y1="-2.8574989"
         x2="-31.707666"
         y2="-2.8574989"
         style="fill:none;stroke:#ffffff;stroke-width:0.2032;stroke-linecap:round"
         id="line6126" />
      <line
         class="l21"
         x1="-31.707666"
         y1="-2.8574989"
         x2="-31.072668"
         y2="-2.2224991"
         style="fill:none;stroke:#ffffff;stroke-width:0.2032;stroke-linecap:round"
         id="line6128" />
      <line
         class="l21"
         x1="-31.07267"
         y1="-0.84913623"
         x2="-31.707668"
         y2="-0.21413599"
         style="fill:none;stroke:#ffffff;stroke-width:0.2032;stroke-linecap:round"
         id="line6130"
         clip-path="url(#clipPath13375)"
         transform="translate(2.756685e-6,-0.103363)" />
      <line
         class="l21"
         x1="-31.707668"
         y1="-0.21413599"
         x2="-32.977669"
         y2="-0.21413599"
         style="fill:none;stroke:#ffffff;stroke-width:0.2032;stroke-linecap:round"
         id="line6132"
         clip-path="url(#clipPath13371)"
         transform="translate(2.756685e-6,-0.103363)" />
      <line
         class="l21"
         x1="-32.977669"
         y1="-0.21413599"
         x2="-33.612671"
         y2="-0.84913623"
         style="fill:none;stroke:#ffffff;stroke-width:0.2032;stroke-linecap:round"
         id="line6134"
         clip-path="url(#clipPath13367)"
         transform="translate(2.756685e-6,-0.103363)" />
      <line
         class="l21"
         x1="-36.152668"
         y1="-2.1191361"
         x2="-36.152668"
         y2="-0.84913623"
         style="fill:none;stroke:#ffffff;stroke-width:0.2032;stroke-linecap:round"
         id="line6136"
         clip-path="url(#clipPath13363)"
         transform="translate(2.756685e-6,-0.103363)" />
      <line
         class="l21"
         x1="-35.51767"
         y1="-2.7541358"
         x2="-36.152668"
         y2="-2.1191361"
         style="fill:none;stroke:#ffffff;stroke-width:0.2032;stroke-linecap:round"
         id="line6138"
         clip-path="url(#clipPath13359)"
         transform="translate(2.756685e-6,-0.103363)" />
      <line
         class="l21"
         x1="-36.152668"
         y1="-0.84913623"
         x2="-35.51767"
         y2="-0.21413599"
         style="fill:none;stroke:#ffffff;stroke-width:0.2032;stroke-linecap:round"
         id="line6140"
         clip-path="url(#clipPath13355)"
         transform="translate(2.756685e-6,-0.103363)" />
      <line
         class="l21"
         x1="-34.247669"
         y1="-0.21413599"
         x2="-35.51767"
         y2="-0.21413599"
         style="fill:none;stroke:#ffffff;stroke-width:0.2032;stroke-linecap:round"
         id="line6142"
         clip-path="url(#clipPath13351)"
         transform="translate(2.756685e-6,-0.103363)" />
      <line
         class="l21"
         x1="-20.91267"
         y1="-2.1191361"
         x2="-20.91267"
         y2="-0.84913623"
         style="fill:none;stroke:#ffffff;stroke-width:0.2032;stroke-linecap:round"
         id="line6144"
         clip-path="url(#clipPath13347)"
         transform="translate(2.756685e-6,-0.103363)" />
      <rect
         class="l21"
         x="33.409466"
         y="7.5818996"
         width="0.4064"
         height="0.7112"
         transform="scale(-1,-1)"
         id="rect6182"
         style="fill:#ffffff" />
      <rect
         class="l21"
         x="33.409466"
         y="6.3118992"
         width="0.4064"
         height="0.7112"
         transform="scale(-1,-1)"
         id="rect6196"
         style="fill:#ffffff" />
      <rect
         class="l21"
         x="24.519466"
         y="8.8519001"
         width="0.4064"
         height="0.7112"
         transform="scale(-1,-1)"
         id="rect6210"
         style="fill:#ffffff" />
      <text
         xml:space="preserve"
         style="font-size:1.17856002px;font-style:normal;font-variant:normal;font-weight:normal;font-stretch:normal;text-align:start;line-height:125%;letter-spacing:0px;word-spacing:0px;writing-mode:lr-tb;text-anchor:start;fill:#ffffff;fill-opacity:1;stroke:none;font-family:OCRA;-inkscape-font-specification:OCRA"
         x="2.9775496"
         y="-34.446877"
         id="text20300"
         sodipodi:linespacing="125%"
         transform="matrix(0,-1,1,0,0,0)"><tspan
           sodipodi:role="line"
           id="tspan20302"
           x="2.9775496"
           y="-34.446877"
           style="font-size:1.17856002px;font-style:normal;font-variant:normal;font-weight:normal;font-stretch:normal;text-align:start;line-height:125%;writing-mode:lr-tb;text-anchor:start;fill:#ffffff;font-family:OCRA;-inkscape-font-specification:OCRA">3.3V</tspan></text>
      <text
         xml:space="preserve"
         style="font-size:1.17856002px;font-style:normal;font-variant:normal;font-weight:normal;font-stretch:normal;text-align:start;line-height:125%;letter-spacing:0px;word-spacing:0px;writing-mode:lr-tb;text-anchor:start;fill:#ffffff;fill-opacity:1;stroke:none;font-family:OCRA;-inkscape-font-specification:OCRA"
         x="2.9835207"
         y="-31.909771"
         id="text20300-1"
         sodipodi:linespacing="125%"
         transform="matrix(0,-1,1,0,0,0)"><tspan
           sodipodi:role="line"
           id="tspan20302-7"
           x="2.9835207"
           y="-31.909771"
           style="font-size:1.17856002px;font-style:normal;font-variant:normal;font-weight:normal;font-stretch:normal;text-align:start;line-height:125%;writing-mode:lr-tb;text-anchor:start;fill:#ffffff;font-family:OCRA;-inkscape-font-specification:OCRA">SDA</tspan></text>
      <text
         xml:space="preserve"
         style="font-size:1.17856002px;font-style:normal;font-variant:normal;font-weight:normal;font-stretch:normal;text-align:start;line-height:125%;letter-spacing:0px;word-spacing:0px;writing-mode:lr-tb;text-anchor:start;fill:#ffffff;fill-opacity:1;stroke:none;font-family:OCRA;-inkscape-font-specification:OCRA"
         x="2.983542"
         y="-29.366873"
         id="text20300-1-4"
         sodipodi:linespacing="125%"
         transform="matrix(0,-1,1,0,0,0)"><tspan
           sodipodi:role="line"
           x="2.983542"
           y="-29.366873"
           style="font-size:1.17856002px;font-style:normal;font-variant:normal;font-weight:normal;font-stretch:normal;text-align:start;line-height:125%;writing-mode:lr-tb;text-anchor:start;fill:#ffffff;font-family:OCRA;-inkscape-font-specification:OCRA"
           id="tspan21424">SCL</tspan></text>
      <text
         xml:space="preserve"
         style="font-size:1.17856002px;font-style:normal;font-variant:normal;font-weight:normal;font-stretch:normal;text-align:start;line-height:125%;letter-spacing:0px;word-spacing:0px;writing-mode:lr-tb;text-anchor:start;fill:#ffffff;fill-opacity:1;stroke:none;font-family:OCRA;-inkscape-font-specification:OCRA"
         x="2.972012"
         y="-26.826752"
         id="text20300-1-4-9"
         sodipodi:linespacing="125%"
         transform="matrix(0,-1,1,0,0,0)"><tspan
           sodipodi:role="line"
           x="2.972012"
           y="-26.826752"
           style="font-size:1.17856002px;font-style:normal;font-variant:normal;font-weight:normal;font-stretch:normal;text-align:start;line-height:125%;writing-mode:lr-tb;text-anchor:start;fill:#ffffff;font-family:OCRA;-inkscape-font-specification:OCRA"
           id="tspan21449">I2</tspan></text>
      <text
         xml:space="preserve"
         style="font-size:1.17856002px;font-style:normal;font-variant:normal;font-weight:normal;font-stretch:normal;text-align:start;line-height:125%;letter-spacing:0px;word-spacing:0px;writing-mode:lr-tb;text-anchor:start;fill:#ffffff;fill-opacity:1;stroke:none;font-family:OCRA;-inkscape-font-specification:OCRA"
         x="2.9975414"
         y="-24.286736"
         id="text20300-1-4-9-8"
         sodipodi:linespacing="125%"
         transform="matrix(0,-1,1,0,0,0)"><tspan
           sodipodi:role="line"
           x="2.9975414"
           y="-24.286736"
           style="font-size:1.17856002px;font-style:normal;font-variant:normal;font-weight:normal;font-stretch:normal;text-align:start;line-height:125%;writing-mode:lr-tb;text-anchor:start;fill:#ffffff;font-family:OCRA;-inkscape-font-specification:OCRA"
           id="tspan21449-8">I1</tspan></text>
      <text
         xml:space="preserve"
         style="font-size:1.17856002px;font-style:normal;font-variant:normal;font-weight:normal;font-stretch:normal;text-align:start;line-height:125%;letter-spacing:0px;word-spacing:0px;writing-mode:lr-tb;text-anchor:start;fill:#ffffff;fill-opacity:1;stroke:none;font-family:OCRA;-inkscape-font-specification:OCRA"
         x="2.9829409"
         y="-21.746744"
         id="text20300-1-4-9-8-2"
         sodipodi:linespacing="125%"
         transform="matrix(0,-1,1,0,0,0)"><tspan
           sodipodi:role="line"
           x="2.9829409"
           y="-21.746744"
           style="font-size:1.17856002px;font-style:normal;font-variant:normal;font-weight:normal;font-stretch:normal;text-align:start;line-height:125%;writing-mode:lr-tb;text-anchor:start;fill:#ffffff;font-family:OCRA;-inkscape-font-specification:OCRA"
           id="tspan21449-8-4">GND</tspan></text>
      <text
         xml:space="preserve"
         style="font-size:1.21355557px;font-style:normal;font-variant:normal;font-weight:normal;font-stretch:normal;text-align:start;line-height:125%;letter-spacing:0px;word-spacing:0px;writing-mode:lr-tb;text-anchor:start;fill:#ffffff;fill-opacity:1;stroke:none;font-family:OCRA;-inkscape-font-specification:OCRA"
         x="-31.984886"
         y="-14.094778"
         id="text20300-5"
         sodipodi:linespacing="125%"><tspan
           sodipodi:role="line"
           id="tspan20302-5"
           x="-31.984886"
           y="-14.094778"
           style="font-size:1.21355557px;font-style:normal;font-variant:normal;font-weight:normal;font-stretch:normal;text-align:start;line-height:125%;writing-mode:lr-tb;text-anchor:start;fill:#ffffff;font-family:OCRA;-inkscape-font-specification:OCRA">MMA8452Q</tspan></text>
      <text
         xml:space="preserve"
         style="font-size:1.26999998px;font-style:normal;font-variant:normal;font-weight:normal;font-stretch:normal;text-align:start;line-height:125%;letter-spacing:0px;word-spacing:0px;writing-mode:lr-tb;text-anchor:start;fill:#ffffff;fill-opacity:1;stroke:none;font-family:OCRA;-inkscape-font-specification:OCRA"
         x="-23.405066"
         y="-9.754611"
         id="text20300-5-1"
         sodipodi:linespacing="125%"><tspan
           sodipodi:role="line"
           id="tspan20302-5-7"
           x="-23.405066"
           y="-9.754611"
           style="font-size:1.26999998px;font-style:normal;font-variant:normal;font-weight:normal;font-stretch:normal;text-align:start;line-height:125%;writing-mode:lr-tb;text-anchor:start;fill:#ffffff;font-family:OCRA;-inkscape-font-specification:OCRA">X</tspan></text>
      <text
         xml:space="preserve"
         style="font-size:1.26999998px;font-style:normal;font-variant:normal;font-weight:normal;font-stretch:normal;text-align:start;line-height:125%;letter-spacing:0px;word-spacing:0px;writing-mode:lr-tb;text-anchor:start;fill:#ffffff;fill-opacity:1;stroke:none;font-family:OCRA;-inkscape-font-specification:OCRA"
         x="-23.404974"
         y="-7.9503593"
         id="text20300-5-1-1"
         sodipodi:linespacing="125%"><tspan
           sodipodi:role="line"
           id="tspan20302-5-7-1"
           x="-23.404974"
           y="-7.9503593"
           style="font-size:1.26999998px;font-style:normal;font-variant:normal;font-weight:normal;font-stretch:normal;text-align:start;line-height:125%;writing-mode:lr-tb;text-anchor:start;fill:#ffffff;font-family:OCRA;-inkscape-font-specification:OCRA">Y</tspan></text>
      <text
         xml:space="preserve"
         style="font-size:1.26999998px;font-style:normal;font-variant:normal;font-weight:normal;font-stretch:normal;text-align:start;line-height:125%;letter-spacing:0px;word-spacing:0px;writing-mode:lr-tb;text-anchor:start;fill:#ffffff;fill-opacity:1;stroke:none;font-family:OCRA;-inkscape-font-specification:OCRA"
         x="-23.404974"
         y="-6.1977592"
         id="text20300-5-1-1-5"
         sodipodi:linespacing="125%"><tspan
           sodipodi:role="line"
           id="tspan20302-5-7-1-2"
           x="-23.404974"
           y="-6.1977592"
           style="font-size:1.26999998px;font-style:normal;font-variant:normal;font-weight:normal;font-stretch:normal;text-align:start;line-height:125%;writing-mode:lr-tb;text-anchor:start;fill:#ffffff;font-family:OCRA;-inkscape-font-specification:OCRA">Z</tspan></text>
      <rect
         style="fill:#333333;fill-opacity:1;stroke:none"
         id="rect6213"
         height="3.0480001"
         y="-9.4615002"
         x="-30.056667"
         width="3.0480008" />
    </g>
  </g>
</svg>
