<?xml version="1.0" encoding="utf-8"?>
<!-- Generator: Adobe Illustrator 17.0.0, SVG Export Plug-In . SVG Version: 6.00 Build 0)  -->
<!DOCTYPE svg PUBLIC "-//W3C//DTD SVG 1.1//EN" "http://www.w3.org/Graphics/SVG/1.1/DTD/svg11.dtd">
<svg version="1.1" id="Layer_1" xmlns="http://www.w3.org/2000/svg" xmlns:xlink="http://www.w3.org/1999/xlink" x="0px" y="0px"
	 width="72px" height="46.8px" viewBox="0 0 72 46.8" enable-background="new 0 0 72 46.8" xml:space="preserve">
<g id="breadboard">
	<g id="icon_1_">
		<g id="_x3C_desc_x3E_">
		</g>
		<path fill="#E72D2F" d="M72,46.8H0V0h72V46.8z M7.2,4.297c-1.597,0-2.891,1.294-2.891,2.891S5.603,10.08,7.2,10.08
			s2.891-1.294,2.891-2.891S8.797,4.297,7.2,4.297z M64.8,4.297c-1.597,0-2.891,1.294-2.891,2.891s1.294,2.891,2.891,2.891
			c1.597,0,2.891-1.294,2.891-2.891S66.397,4.297,64.8,4.297z M59.743,43.201c0,0.804,0.652,1.456,1.456,1.456
			s1.456-0.652,1.456-1.456s-0.652-1.456-1.456-1.456S59.743,42.397,59.743,43.201z M52.543,43.201c0,0.804,0.652,1.456,1.456,1.456
			c0.804,0,1.456-0.652,1.456-1.456s-0.652-1.456-1.456-1.456C53.195,41.745,52.543,42.397,52.543,43.201z M45.344,43.201
			c0,0.804,0.652,1.456,1.456,1.456s1.456-0.652,1.456-1.456s-0.652-1.456-1.456-1.456S45.344,42.397,45.344,43.201z M38.143,43.201
			c0,0.804,0.652,1.456,1.456,1.456s1.456-0.652,1.456-1.456s-0.652-1.456-1.456-1.456S38.143,42.397,38.143,43.201z M30.944,43.201
			c0,0.804,0.652,1.456,1.456,1.456c0.804,0,1.456-0.652,1.456-1.456s-0.652-1.456-1.456-1.456
			C31.596,41.745,30.944,42.397,30.944,43.201z M23.744,43.201c0,0.804,0.652,1.456,1.456,1.456c0.804,0,1.456-0.652,1.456-1.456
			s-0.652-1.456-1.456-1.456C24.396,41.745,23.744,42.397,23.744,43.201z M16.543,43.201c0,0.804,0.652,1.456,1.456,1.456
			c0.804,0,1.456-0.652,1.456-1.456s-0.652-1.456-1.456-1.456C17.195,41.745,16.543,42.397,16.543,43.201z M9.343,43.201
			c0,0.804,0.652,1.456,1.456,1.456s1.456-0.652,1.456-1.456s-0.652-1.456-1.456-1.456S9.343,42.397,9.343,43.201z"/>
		<g id="silkscreen">
			<path id="OSHWA" fill="#FFFFFF" d="M66.249,23.6v-1.116l-1.231-0.215c-0.077-0.311-0.201-0.604-0.361-0.87l0.718-1.023
				l-0.789-0.788l-1.024,0.719c-0.267-0.16-0.559-0.282-0.868-0.359l-0.216-1.234h-1.115l-0.216,1.234
				c-0.309,0.076-0.602,0.199-0.868,0.359l-1.025-0.719l-0.789,0.788l0.719,1.023c-0.161,0.267-0.284,0.56-0.362,0.87l-1.23,0.215
				V23.6l1.228,0.215c0.077,0.312,0.201,0.605,0.361,0.874l-0.716,1.02l0.789,0.788l1.019-0.715
				c0.162,0.099,0.333,0.182,0.512,0.251l0.694-1.878c-0.44-0.175-0.751-0.606-0.751-1.108c0-0.659,0.534-1.192,1.192-1.192
				c0.658,0,1.192,0.534,1.192,1.192c0,0.502-0.31,0.933-0.751,1.108l0.694,1.878c0.179-0.068,0.35-0.152,0.512-0.251l1.019,0.715
				l0.789-0.788l-0.716-1.02c0.161-0.269,0.285-0.563,0.361-0.874L66.249,23.6z"/>
			<path id="SFE_Flame" fill="#FFFFFF" d="M9.327,20.07c0,0,0.114,0.485-0.251,0.553c-0.255,0.045-0.666-0.208-0.874-0.459
				c-0.255-0.311-0.223-0.556-0.025-0.773c0.299-0.329,0.808-0.202,0.808-0.202s-0.935-0.821-1.91-0.148
				c-0.868,0.597-0.618,1.411,0.164,2.121c0.707,0.643,0.143,1.347-0.569,1.255c-0.487-0.062-0.686-0.453-0.569-0.693
				c0.102-0.206,0.451-0.332,0.451-0.332s-0.402-0.163-0.875,0.015c-0.424,0.16-0.775,0.512-0.747,1.391v4.078
				c0,0,0.439-0.542,0.954-1.092c0.578-0.62,0.842-1.041,1.436-0.992c1.123,0.069,1.936-0.43,2.487-1.23
				C10.87,22.021,10.039,20.3,9.327,20.07z"/>
			<g>
				<path fill="none" stroke="#FFFFFF" stroke-width="0.5" stroke-linecap="round" d="M20.879,22.375v-7.2
					c0-0.398-0.322-0.72-0.72-0.72c0,0,0,0,0,0h-4.32c-0.398,0-0.72,0.322-0.72,0.72l0,0v7.2c0,0.398,0.322,0.72,0.72,0.72h4.32
					C20.557,23.095,20.879,22.772,20.879,22.375z"/>
			</g>
			<text id="name" transform="matrix(1 0 0 1 9.5201 4.2533)" fill="#FFFFFF" font-family="'OCRA'" font-size="3.2">T5403 Barometric Sensor</text>
			
				<text id="text" transform="matrix(4.489659e-011 -1 1 4.489659e-011 55.4401 39.2715)" fill="#FFFFFF" font-family="'OCRA'" font-size="3.5">SEL</text>
			
				<text id="text_9_" transform="matrix(4.489659e-011 -1 1 4.489659e-011 62.6401 39.2715)" fill="#FFFFFF" font-family="'OCRA'" font-size="3.5">EOC</text>
			
				<text id="text_10_" transform="matrix(4.489659e-011 -1 1 4.489659e-011 12.2405 39.2715)" fill="#FFFFFF" font-family="'OCRA'" font-size="3.5">GND</text>
			
				<text id="text_6_" transform="matrix(4.489659e-011 -1 1 4.489659e-011 41.2673 39.2715)" fill="#FFFFFF" font-family="'OCRA'" font-size="3.5">MISO</text>
			
				<text id="text_1_" transform="matrix(4.489659e-011 -1 1 4.489659e-011 19.5121 39.2715)" fill="#FFFFFF" font-family="'OCRA'" font-size="3.5">VCC</text>
			<g>
				
					<text id="text_2_" transform="matrix(4.489659e-011 -1 1 4.489659e-011 24.8576 39.2715)" fill="#FFFFFF" font-family="'OCRA'" font-size="3.5">SCL/</text>
				
					<text id="text_3_" transform="matrix(4.489659e-011 -1 1 4.489659e-011 28.0451 39.2715)" fill="#FFFFFF" font-family="'OCRA'" font-size="3.5">SCLK</text>
			</g>
			<g>
				
					<text id="text_5_" transform="matrix(4.489659e-011 -1 1 4.489659e-011 32.9814 39.2715)" fill="#FFFFFF" font-family="'OCRA'" font-size="3.5">SDA/</text>
				
					<text id="text_4_" transform="matrix(4.489659e-011 -1 1 4.489659e-011 35.9999 39.2715)" fill="#FFFFFF" font-family="'OCRA'" font-size="3.5">MOSI</text>
			</g>
			<g>
				<g>
					
						<text id="text_8_" transform="matrix(4.489659e-011 -1 1 4.489659e-011 46.5847 39.2715)" fill="#FFFFFF" font-family="'OCRA'" font-size="3.5">RST/</text>
					
						<text id="text_7_" transform="matrix(4.489659e-011 -1 1 4.489659e-011 49.6472 39.2715)" fill="#FFFFFF" font-family="'OCRA'" font-size="3.5">&amp;SS</text>
				</g>
				
					<line fill="none" stroke="#FFFFFF" stroke-width="0.25" stroke-linecap="round" x1="43.375" y1="32.25" x2="43.375" y2="38.664"/>
			</g>
		</g>
		<g id="_x3C_Group_x3E_">
			<g>
				<rect x="16.199" y="20.179" fill="#8C8C8C" width="3.6" height="1.8"/>
				<rect x="16.199" y="17.875" fill="#8C8C8C" width="3.6" height="1.8"/>
				<rect x="16.199" y="15.571" fill="#8C8C8C" width="3.6" height="1.8"/>
				<rect x="16.344" y="18" fill="#A5A4A4" width="3.313" height="3.813"/>
			</g>
			<g>
				<rect x="40.449" y="24.503" fill="#EF4130" width="3.118" height="2.835"/>
				<rect x="35.63" y="24.503" fill="#EF4130" width="3.118" height="2.835"/>
				<rect x="35.63" y="24.503" fill="#EF4130" width="7.937" height="2.835"/>
			</g>
			<g>
				<rect x="26.759" y="20.197" fill="#EF4130" width="3.118" height="2.835"/>
				<rect x="21.94" y="20.197" fill="#EF4130" width="3.118" height="2.835"/>
				<rect x="21.94" y="20.183" fill="#EF4130" width="7.937" height="2.835"/>
			</g>
			<g>
				<rect x="26.759" y="14.437" fill="#EF4130" width="3.118" height="2.835"/>
				<rect x="21.94" y="14.437" fill="#EF4130" width="3.118" height="2.835"/>
				<rect x="21.94" y="14.437" fill="#EF4130" width="7.937" height="2.835"/>
			</g>
			<g>
				<rect x="26.759" y="8.677" fill="#EF4130" width="3.118" height="2.835"/>
				<rect x="21.94" y="8.677" fill="#EF4130" width="3.118" height="2.835"/>
				<rect x="21.94" y="8.663" fill="#EF4130" width="7.937" height="2.835"/>
			</g>
			<g>
				<rect x="46.813" y="20.462" fill="#EF4130" width="2.835" height="3.118"/>
				<rect x="46.813" y="20.462" fill="#EF4130" width="2.835" height="7.937"/>
				<rect x="46.813" y="25.281" fill="#EF4130" width="2.835" height="3.118"/>
			</g>
			<g>
				<g>
					<g>
						<g transform="matrix(0.7071, -0.7071, 0.7071, 0.7071, 5.2793, 48.3383)">
							
								<rect id="top_1_" x="40.09" y="4.909" transform="matrix(-0.7071 -0.7071 0.7071 -0.7071 70.6772 39.4284)" fill="#3E3E3E" width="6.829" height="0.335"/>
						</g>
						<g transform="matrix(0.7073, -0.7069, 0.7069, 0.7073, 8.0849, 41.538)">
							
								<rect id="bottom_1_" x="39.008" y="2.011" transform="matrix(-0.7073 -0.7069 0.7069 -0.7073 70.8896 33.7077)" fill="#010101" width="6.829" height="0.335"/>
						</g>
						<polygon id="left_2_" fill="#1F2020" points="43.046,21.334 42.699,20.996 42.7,13.257 43.049,12.92 						"/>
						<polygon id="left_1_" fill="#1F2020" points="36.216,12.92 36.553,13.257 36.555,20.997 36.216,21.336 						"/>
						<g transform="matrix(0.7071, -0.7071, 0.7071, 0.7071, 6.6859, 44.9441)">
							
								<rect id="middle_1_" x="39.665" y="-0.467" transform="matrix(-0.7071 -0.7071 0.7071 -0.7071 70.7834 36.5724)" fill="#30302F" width="6.603" height="8.187"/>
						</g>
					</g>
				</g>
			</g>
		</g>
		<g id="copper1">
			<g>
				<circle id="connector1pad" fill="none" stroke="#9A916C" stroke-width="1.224" cx="10.799" cy="43.201" r="2.052"/>
				
					<rect id="connector9pad" x="8.747" y="41.149" fill="none" stroke="#9A916C" stroke-width="1.224" width="4.104" height="4.104"/>
			</g>
			<circle id="connector8pad" fill="none" stroke="#9A916C" stroke-width="1.224" cx="61.199" cy="43.201" r="2.052"/>
			<circle id="connector7pad" fill="none" stroke="#9A916C" stroke-width="1.224" cx="53.999" cy="43.201" r="2.052"/>
			<circle id="connector6pad" fill="none" stroke="#9A916C" stroke-width="1.224" cx="46.8" cy="43.201" r="2.052"/>
			<circle id="connector5pad" fill="none" stroke="#9A916C" stroke-width="1.224" cx="39.599" cy="43.201" r="2.052"/>
			<circle id="connector4pad" fill="none" stroke="#9A916C" stroke-width="1.224" cx="32.4" cy="43.201" r="2.052"/>
			<circle id="connector3pad" fill="none" stroke="#9A916C" stroke-width="1.224" cx="25.2" cy="43.201" r="2.052"/>
			<circle id="connector2pad" fill="none" stroke="#9A916C" stroke-width="1.224" cx="17.999" cy="43.201" r="2.052"/>
		</g>
	</g>
</g>
</svg>
