<?xml version="1.0" encoding="utf-8"?>
<!-- Generator: Adobe Illustrator 17.0.0, SVG Export Plug-In . SVG Version: 6.00 Build 0)  -->
<!DOCTYPE svg PUBLIC "-//W3C//DTD SVG 1.1//EN" "http://www.w3.org/Graphics/SVG/1.1/DTD/svg11.dtd">
<svg version="1.1" id="Layer_1" xmlns="http://www.w3.org/2000/svg" xmlns:xlink="http://www.w3.org/1999/xlink" x="0px" y="0px"
	 width="72px" height="46.8px" viewBox="0 0 72 46.8" enable-background="new 0 0 72 46.8" xml:space="preserve">
<g id="_x3C_desc_x3E_">
</g>
<g id="silkscreen">
	<rect id="outside_path" fill="none" stroke="#FFFFFF" stroke-width="0.25" stroke-linecap="round" width="72" height="46.8"/>
	<g>
		<path fill="none" stroke="#FFFFFF" stroke-width="0.5" stroke-linecap="round" d="M20.879,22.375v-7.2
			c0-0.398-0.322-0.72-0.72-0.72c0,0,0,0,0,0h-4.32c-0.398,0-0.72,0.322-0.72,0.72l0,0v7.2c0,0.398,0.322,0.72,0.72,0.72h4.32
			C20.557,23.095,20.879,22.772,20.879,22.375z"/>
	</g>
	<text id="name" transform="matrix(1 0 0 1 9.5201 4.2533)" fill="#FFFFFF" font-family="'OCRA'" font-size="3.2">T5403 Barometric Sensor</text>
	
		<text id="text" transform="matrix(4.489659e-011 -1 1 4.489659e-011 55.4401 39.2715)" fill="#FFFFFF" font-family="'OCRA'" font-size="3.5">SEL</text>
	
		<text id="text_9_" transform="matrix(4.489659e-011 -1 1 4.489659e-011 62.6401 39.2715)" fill="#FFFFFF" font-family="'OCRA'" font-size="3.5">EOC</text>
	
		<text id="text_10_" transform="matrix(4.489659e-011 -1 1 4.489659e-011 12.2405 39.2715)" fill="#FFFFFF" font-family="'OCRA'" font-size="3.5">GND</text>
	
		<text id="text_6_" transform="matrix(4.489659e-011 -1 1 4.489659e-011 41.2673 39.2715)" fill="#FFFFFF" font-family="'OCRA'" font-size="3.5">MISO</text>
	
		<text id="text_1_" transform="matrix(4.489659e-011 -1 1 4.489659e-011 19.5121 39.2715)" fill="#FFFFFF" font-family="'OCRA'" font-size="3.5">VCC</text>
	<g>
		
			<text id="text_2_" transform="matrix(4.489659e-011 -1 1 4.489659e-011 24.8576 39.2715)" fill="#FFFFFF" font-family="'OCRA'" font-size="3.5">SCL/</text>
		
			<text id="text_3_" transform="matrix(4.489659e-011 -1 1 4.489659e-011 28.0451 39.2715)" fill="#FFFFFF" font-family="'OCRA'" font-size="3.5">SCLK</text>
	</g>
	<g>
		
			<text id="text_5_" transform="matrix(4.489659e-011 -1 1 4.489659e-011 32.9814 39.2715)" fill="#FFFFFF" font-family="'OCRA'" font-size="3.5">SDA/</text>
		
			<text id="text_4_" transform="matrix(4.489659e-011 -1 1 4.489659e-011 35.9999 39.2715)" fill="#FFFFFF" font-family="'OCRA'" font-size="3.5">MOSI</text>
	</g>
	<g>
		<g>
			
				<text id="text_8_" transform="matrix(4.489659e-011 -1 1 4.489659e-011 46.5847 39.2715)" fill="#FFFFFF" font-family="'OCRA'" font-size="3.5">RST/</text>
			
				<text id="text_7_" transform="matrix(4.489659e-011 -1 1 4.489659e-011 49.6472 39.2715)" fill="#FFFFFF" font-family="'OCRA'" font-size="3.5">&amp;SS</text>
		</g>
		<line fill="none" stroke="#FFFFFF" stroke-width="0.25" stroke-linecap="round" x1="43.375" y1="32.25" x2="43.375" y2="38.664"/>
	</g>
</g>
<g id="copper0">
	<g>
		<circle id="connector1pad" fill="none" stroke="#F5BD18" stroke-width="1.224" cx="10.799" cy="43.201" r="2.052"/>
		<rect id="connector9pad" x="8.747" y="41.149" fill="none" stroke="#F5BD18" stroke-width="1.224" width="4.104" height="4.104"/>
	</g>
	<circle id="connector8pad" fill="none" stroke="#F5BD18" stroke-width="1.224" cx="61.199" cy="43.201" r="2.052"/>
	<circle id="connector7pad" fill="none" stroke="#F5BD18" stroke-width="1.224" cx="53.999" cy="43.201" r="2.052"/>
	<circle id="connector6pad" fill="none" stroke="#F5BD18" stroke-width="1.224" cx="46.8" cy="43.201" r="2.052"/>
	<circle id="connector5pad" fill="none" stroke="#F5BD18" stroke-width="1.224" cx="39.599" cy="43.201" r="2.052"/>
	<circle id="connector4pad" fill="none" stroke="#F5BD18" stroke-width="1.224" cx="32.4" cy="43.201" r="2.052"/>
	<circle id="connector3pad" fill="none" stroke="#F5BD18" stroke-width="1.224" cx="25.2" cy="43.201" r="2.052"/>
	<circle id="connector2pad" fill="none" stroke="#F5BD18" stroke-width="1.224" cx="17.999" cy="43.201" r="2.052"/>
</g>
</svg>
